<?xml version="1.0" standalone="no"?>
<!DOCTYPE svg PUBLIC "-//W3C//DTD SVG 1.1//EN" "http://www.w3.org/Graphics/SVG/1.1/DTD/svg11.dtd" >
<svg xmlns="http://www.w3.org/2000/svg" xmlns:xlink="http://www.w3.org/1999/xlink" version="1.1">
<metadata>
Created by FontForge 20170731 at Sat May 13 05:03:38 2023
 By Aleksey,,,
Copyright (c) 2022 Sunn.
</metadata>
<defs>
<font id="SUIT-SemiBold" horiz-adv-x="874" >
  <font-face 
    font-family="SUIT semibold"
    font-weight="600"
    font-stretch="normal"
    units-per-em="1000"
    panose-1="0 0 0 0 0 0 0 0 0 0"
    ascent="800"
    descent="-200"
    x-height="516"
    cap-height="729"
    bbox="-59 -235 1244 864"
    underline-thickness="50"
    underline-position="-175"
    unicode-range="U+0020-FFE6"
  />
<missing-glyph horiz-adv-x="1000" 
 />
    <glyph glyph-name=".notdef" horiz-adv-x="1000" 
 />
    <glyph glyph-name=".null" horiz-adv-x="0" 
 />
    <glyph glyph-name="nonmarkingreturn" horiz-adv-x="333" 
 />
    <glyph glyph-name="space" unicode=" " horiz-adv-x="230" 
 />
    <glyph glyph-name="space" unicode="&#xa0;" horiz-adv-x="230" 
 />
    <glyph glyph-name="exclam" unicode="!" horiz-adv-x="342" 
d="M221 193h-98l-19 560h134zM127.5 83q17.5 17 45.5 17q26 0 43.5 -17t17.5 -44t-17.5 -44.5t-43.5 -17.5q-28 0 -45.5 17.5t-17.5 44.5t17.5 44z" />
    <glyph glyph-name="quotedbl" unicode="&#x22;" horiz-adv-x="419" 
d="M165 554h-76l-14 234h103zM344 787l-13 -235h-76l-14 235h103z" />
    <glyph glyph-name="numbersign" unicode="#" horiz-adv-x="795" 
d="M609 557h132v-98h-141l-16 -197h132v-99h-138l-15 -170h-102l16 170h-190l-15 -170h-101l15 170h-132v99h138l17 197h-129v98h137l14 172h101l-14 -172h190l13 172h103zM483 262l17 197h-189l-18 -197h190z" />
    <glyph glyph-name="dollar" unicode="$" horiz-adv-x="626" 
d="M361 807v-67q53 -9 99 -35.5t71 -65.5l-85 -59q-12 20 -34.5 34t-50.5 20v-222l57 -21q71 -24 107 -76.5t36 -115.5q0 -52 -24 -100.5t-69.5 -81t-106.5 -38.5v-59h-89v63q-71 13 -126.5 55t-80.5 106l95 41q15 -36 44.5 -60.5t67.5 -35.5v247q-65 29 -88 45
q-44 30 -68.5 74.5t-24.5 93.5q0 45 19 84q20 43 63.5 72t98.5 37v65h89zM195 550q0 -24 12 -46t34 -37q7 -5 31 -17v186q-24 -5 -42 -17.5t-26 -29.5q-9 -18 -9 -39zM432 125.5q27 32.5 27 70.5q0 32 -19.5 58t-56.5 38l-22 8v-216q44 9 71 41.5z" />
    <glyph glyph-name="percent" unicode="%" horiz-adv-x="1061" 
d="M711 729h108l-462 -734h-106zM109 643q26 46 70.5 72.5t98.5 26.5q53 0 97.5 -26.5t70 -72.5t25.5 -101t-25.5 -101t-70 -72.5t-97.5 -26.5q-54 0 -98.5 26.5t-70.5 72.5t-26 101t26 101zM209 469.5q28 -29.5 69 -29.5q40 0 68 29.5t28 72.5t-28 72.5t-68 29.5
q-41 0 -69 -29.5t-28 -72.5t28 -72.5zM615 289q26 46 70.5 72.5t98.5 26.5q53 0 97.5 -26.5t70.5 -72.5t26 -101t-26 -101t-70.5 -72.5t-97.5 -26.5q-54 0 -98.5 26.5t-70.5 72.5t-26 101t26 101zM716 115.5q28 -29.5 68 -29.5q41 0 69 29.5t28 72.5t-28 72.5t-69 29.5
q-40 0 -68 -29.5t-28 -72.5t28 -72.5z" />
    <glyph glyph-name="ampersand" unicode="&#x26;" horiz-adv-x="763" 
d="M585 -7l-62 68q-92 -83 -205 -83q-103 0 -157 43.5t-70 92.5t-16 81q0 22 9 58t37 79t79 76q-34 34 -53.5 67.5t-19.5 79.5q0 40 22 82t65.5 70.5t103.5 28.5q59 0 103 -27.5t67 -69.5t23 -84q0 -54 -33.5 -96t-99.5 -80l141 -155q20 30 61 107l95 -51q-17 -31 -38 -68.5
t-43 -68.5l139 -150h-148zM209 122.5q26 -36.5 109 -36.5q71 0 132 54l-173 189q-55 -28 -74.5 -67.5t-19.5 -66.5q0 -36 26 -72.5zM245.5 519.5q11.5 -15.5 37.5 -38.5l21 -21q54 26 76.5 47.5t22.5 47.5q0 31 -21.5 52.5t-63.5 21.5q-44 0 -64 -21.5t-20 -52.5
q0 -20 11.5 -35.5z" />
    <glyph glyph-name="quotesingle" unicode="'" horiz-adv-x="247" 
d="M162 554h-76l-14 234h103z" />
    <glyph glyph-name="parenleft" unicode="(" horiz-adv-x="402" 
d="M138.5 148.5q34.5 -115.5 88.5 -201.5h110q-61 84 -100 200t-39 214t39 214t100 200h-110q-54 -86 -88.5 -201.5t-34.5 -212.5t34.5 -212.5z" />
    <glyph glyph-name="parenright" unicode=")" horiz-adv-x="401" 
d="M262.5 573q-34.5 116 -87.5 202h-110q61 -84 99.5 -200t38.5 -214t-38.5 -214t-99.5 -200h110q53 86 87.5 202t34.5 212t-34.5 212z" />
    <glyph glyph-name="asterisk" unicode="*" horiz-adv-x="549" 
d="M320 433l133 42l28 -87l-132 -42l86 -118l-72 -57l-88 120l-89 -120l-71 58l86 117l-133 42l29 87l132 -42l-1 142h93z" />
    <glyph glyph-name="plus" unicode="+" horiz-adv-x="725" 
d="M413 420h246v-102h-246v-245h-101v245h-246v102h246v246h101v-246z" />
    <glyph glyph-name="comma" unicode="," horiz-adv-x="293" 
d="M113 -136h-77l37 227h107z" />
    <glyph glyph-name="hyphen" unicode="-" horiz-adv-x="566" 
d="M501 420v-103h-436v103h436z" />
    <glyph glyph-name="period" unicode="." horiz-adv-x="277" 
d="M159 83q17 -17 17 -44q0 -28 -17 -45t-44 -17t-44.5 17t-17.5 45q0 27 17.5 44t44.5 17t44 -17z" />
    <glyph glyph-name="slash" unicode="/" horiz-adv-x="429" 
d="M150 -56h-104l214 828h103z" />
    <glyph glyph-name="zero" unicode="0" horiz-adv-x="642" 
d="M408.5 117q38.5 35 59.5 98.5t21 145.5q0 83 -21 146t-59 98t-88 35t-88.5 -35t-59.5 -98t-21 -146q0 -82 21 -145.5t59.5 -98.5t88.5 -35q49 0 87.5 35zM83 552.5q35 84.5 97 132t141 47.5t141 -47.5t96.5 -132t34.5 -191.5t-34.5 -191.5t-96.5 -131.5t-141 -47t-141 47
t-97 131.5t-35 191.5t35 191.5z" />
    <glyph glyph-name="one" unicode="1" horiz-adv-x="415" 
d="M317 -3l-104 1v615l-127 -72l-44 87l172 96h103v-727z" />
    <glyph glyph-name="two" unicode="2" horiz-adv-x="574" 
d="M166 182q81 73 129.5 120.5t81.5 98t33 95.5q0 62 -35.5 101.5t-91.5 39.5q-43 0 -83 -28t-59 -72l-91 40q30 68 95.5 111.5t137.5 43.5q67 0 119.5 -30t82 -83.5t29.5 -122.5q0 -68 -40.5 -135t-98 -124t-146.5 -133l-18 -16h314v-91h-451l-10 91q14 13 102 94z" />
    <glyph glyph-name="three" unicode="3" horiz-adv-x="590" 
d="M511.5 297.5q28.5 -47.5 28.5 -94.5q0 -61 -31 -109t-87 -75t-127 -27t-127 27.5t-87.5 77t-31.5 112.5h104q0 -55 40 -90t102 -35q64 0 104 34.5t40 89.5q0 54 -40 88t-102 34h-52v87h52q58 0 95 31t37 80t-36 79.5t-92 30.5q-55 0 -90.5 -31t-35.5 -80h-104
q0 59 29.5 105.5t81.5 72t119 25.5q66 0 118.5 -25t81.5 -70t29 -102q0 -43 -26 -87.5t-69 -72.5q48 -28 76.5 -75.5z" />
    <glyph glyph-name="four" unicode="4" horiz-adv-x="619" 
d="M476 277h93v-91h-93v-189h-103v189h-314l-10 91l328 448h99v-448zM373 277v275l-200 -275h200z" />
    <glyph glyph-name="five" unicode="5" horiz-adv-x="601" 
d="M79 337l24 388h388v-91h-288l-12 -181q53 24 104 24q74 0 132.5 -31t91 -86t32.5 -126q0 -72 -32.5 -128t-91 -87t-132.5 -31q-58 0 -109 24t-87 67t-49 98l101 24q12 -51 52 -83.5t92 -32.5q67 0 109.5 41.5t42.5 107.5q0 64 -42.5 104.5t-109.5 40.5q-28 0 -59 -15.5
t-54 -39.5z" />
    <glyph glyph-name="six" unicode="6" horiz-adv-x="601" 
d="M405.5 123q41.5 42 41.5 109t-41.5 109.5t-106.5 42.5q-64 0 -105 -42.5t-41 -109.5t41 -109t105 -42q65 0 106.5 42zM89 370l201 356h119l-146 -255q17 4 40 4q72 0 128.5 -31.5t88 -86.5t31.5 -125t-32 -125t-89 -86t-130 -31t-130 31t-89 86t-32 125q0 66 40 138z" />
    <glyph glyph-name="seven" unicode="7" horiz-adv-x="564" 
d="M115 -5l285 641h-334v91h438l10 -91l-285 -641h-114z" />
    <glyph glyph-name="eight" unicode="8" horiz-adv-x="593" 
d="M399.5 110.5q39.5 36.5 39.5 94.5t-39.5 94.5t-102.5 36.5q-64 0 -104 -36.5t-40 -94.5t40 -94.5t104 -36.5q63 0 102.5 36.5zM83 301.5q34 49.5 87 78.5q-44 30 -72 74t-28 83q0 58 29 103.5t80.5 71t117.5 25.5t117.5 -25.5t80.5 -71t29 -103.5q0 -40 -28 -84t-72 -73
q53 -30 86 -79t33 -98q0 -63 -31 -112.5t-87 -77t-128 -27.5t-128.5 27.5t-88 77t-31.5 112.5q0 49 34 98.5zM208 456q34 -31 89 -31q54 0 88.5 31.5t34.5 80.5t-34.5 80.5t-88.5 31.5q-55 0 -89 -31t-34 -81t34 -81z" />
    <glyph glyph-name="nine" unicode="9" horiz-adv-x="601" 
d="M194.5 599.5q-41.5 -42.5 -41.5 -108.5q0 -67 41.5 -109.5t107.5 -42.5q64 0 104.5 42.5t40.5 109.5q0 66 -40.5 108.5t-104.5 42.5q-66 0 -107.5 -42.5zM81 616q32 55 89.5 86t130.5 31t129.5 -31t88.5 -86t32 -125q0 -67 -39 -138l-201 -357h-119l145 256
q-20 -5 -39 -5q-72 1 -129 32.5t-88.5 86.5t-31.5 125t32 125z" />
    <glyph glyph-name="colon" unicode=":" horiz-adv-x="297" 
d="M191 573q16 -16 16 -42t-16.5 -42.5t-41.5 -16.5t-42 17t-17 42t16.5 41.5t42.5 16.5t42 -16zM106.5 236.5q16.5 16.5 42.5 16.5t42 -16t16 -42t-16.5 -42.5t-41.5 -16.5t-42 17t-17 42t16.5 41.5z" />
    <glyph glyph-name="semicolon" unicode=";" horiz-adv-x="303" 
d="M142 22h-77l37 227h107zM115.5 573.5q16.5 16.5 42.5 16.5t42 -16t16 -42q0 -25 -16 -41.5t-42 -16.5t-42.5 16.5t-16.5 41.5t16.5 41.5z" />
    <glyph glyph-name="less" unicode="&#x3c;" horiz-adv-x="633" 
d="M490 744l72 -75l-307 -307l308 -308l-73 -74l-382 382z" />
    <glyph glyph-name="equal" unicode="=" horiz-adv-x="682" 
d="M577 549v-102h-472v102h472zM105 285h472v-103h-472v103z" />
    <glyph glyph-name="greater" unicode="&#x3e;" horiz-adv-x="633" 
d="M143 -20l-73 74l308 308l-308 307l73 75l382 -382z" />
    <glyph glyph-name="question" unicode="?" horiz-adv-x="560" 
d="M215 -5.5q-17 17.5 -17 44.5t17 44t45 17q27 0 44 -17t17 -44t-17 -44.5t-44 -17.5q-28 0 -45 17.5zM135.5 721q65.5 47 140.5 47q68 0 120.5 -27.5t81.5 -77t29 -112.5q0 -59 -31 -114t-104 -109q-38 -28 -50 -54t-11 -80l-105 -2q-1 77 23 128t80 92q55 42 74 71.5
t19 66.5q0 49 -35 80.5t-91 31.5q-43 0 -80.5 -28t-54.5 -72l-99 38q28 74 93.5 121z" />
    <glyph glyph-name="at" unicode="@" horiz-adv-x="1054" 
d="M572 212q29 19 46 51t17 71q0 40 -17 72t-46 50.5t-63 18.5q-56 0 -91.5 -39.5t-35.5 -101.5t35.5 -101.5t91.5 -39.5q34 0 63 19zM131 580q62 105 167 167t229 62t229 -62t166.5 -167t61.5 -229q0 -55 -18.5 -96.5t-47.5 -65.5q-23 -21 -54.5 -32.5t-54.5 -11.5
q-33 0 -70 13.5t-61 40.5q-71 -89 -171 -89q-61 0 -109 28.5t-75 79.5t-27 116t27 116t75 79.5t109 28.5q69 0 126 -47v45h89v-246q0 -26 20 -49.5t58 -23.5q29 0 50 16q15 12 26 36t11 62q0 98 -48.5 181t-131 131t-180.5 48t-181 -48.5t-131 -131t-48 -180.5t48 -180.5
t131 -131t181 -48.5q96 0 183 50l50 -83q-106 -64 -233 -64q-124 0 -229 61.5t-167 166.5t-62 229t62 229z" />
    <glyph glyph-name="A" unicode="A" horiz-adv-x="844" 
d="M781 -7h-112l-81 201h-330l-83 -201h-112l301 736h122zM552 284l-127 317l-131 -317h258z" />
    <glyph glyph-name="B" unicode="B" horiz-adv-x="665" 
d="M80 729h295q58 0 104 -25.5t72 -71t26 -103.5q0 -36 -18 -74.5t-48 -66.5q3 -2 7.5 -4.5t9.5 -6.5q42 -27 68.5 -76t26.5 -99q0 -61 -25.5 -108.5t-71.5 -74t-105 -26.5h-341v736zM410 83q49 0 79.5 32.5t30.5 85.5q0 56 -30.5 91t-79.5 35h-226v-244h226zM378 418
q43 1 70 30.5t27 75.5q0 51 -30 83t-79 32h-182v-221h194z" />
    <glyph glyph-name="C" unicode="C" horiz-adv-x="734" 
d="M246.5 33q-82.5 48 -129 133.5t-46.5 194.5t46 194.5t128.5 133.5t187.5 48q75 0 141.5 -29t116.5 -81l-68 -67q-33 40 -83.5 63t-105.5 23q-76 0 -134.5 -35.5t-91 -100t-32.5 -149.5q0 -84 32.5 -148.5t91 -100.5t134.5 -36q57 0 104.5 22.5t80.5 60.5l72 -64
q-51 -53 -115.5 -82t-140.5 -28q-106 0 -188.5 48z" />
    <glyph glyph-name="D" unicode="D" horiz-adv-x="762" 
d="M459.5 119q60.5 35 94 97.5t33.5 144.5t-33.5 144.5t-94 97.5t-138.5 35h-136v-554h136q78 0 138.5 35zM81 729h241q107 0 190.5 -47t130 -130.5t46.5 -190.5t-46.5 -190.5t-130 -130.5t-190.5 -47h-241v736z" />
    <glyph glyph-name="E" unicode="E" horiz-adv-x="645" 
d="M584 639h-411v-222h360v-90h-360v-244h411v-90h-515v736h515v-90z" />
    <glyph glyph-name="F" unicode="F" horiz-adv-x="625" 
d="M584 639h-401v-232h337v-90h-337v-324h-104v736h505v-90z" />
    <glyph glyph-name="G" unicode="G" horiz-adv-x="871" 
d="M786 315q0 -102 -43.5 -176t-121.5 -113.5t-180 -40.5q-106 0 -189.5 48t-130.5 133.5t-47 194.5t47 194t130.5 133t189.5 48q113 0 192.5 -51.5t118.5 -125.5l-89 -46q-28 55 -85 93.5t-137 38.5q-78 0 -137.5 -35.5t-92.5 -100t-33 -148.5t33 -148.5t92.5 -100.5
t137.5 -36q108 3 175.5 57.5t68.5 158.5h-233v87h335z" />
    <glyph glyph-name="H" unicode="H" horiz-adv-x="745" 
d="M664 -7h-104v333h-375v-333h-104v736h104v-313h375v313h104v-736z" />
    <glyph glyph-name="I" unicode="I" horiz-adv-x="267" 
d="M185 729v-736h-104v736h104z" />
    <glyph glyph-name="J" unicode="J" horiz-adv-x="579" 
d="M470.5 97q-29.5 -52 -81.5 -81.5t-119 -29.5q-65 0 -124 38t-87 98l94 45q18 -40 51 -65t67 -25q55 0 90 39.5t35 100.5v512h104v-513q0 -67 -29.5 -119z" />
    <glyph glyph-name="K" unicode="K" horiz-adv-x="746" 
d="M386 406l298 -413h-129l-240 334l-131 -147v-187h-104v735h104v-390l354 392h140z" />
    <glyph glyph-name="L" unicode="L" horiz-adv-x="609" 
d="M183 83h365v-90h-469v736h104v-646z" />
    <glyph glyph-name="M" unicode="M" horiz-adv-x="923" 
d="M184 548v-555h-104v736h112l268 -434l268 434h112v-736h-104v556l-276 -432z" />
    <glyph glyph-name="N" unicode="N" horiz-adv-x="781" 
d="M702 -7h-112l-408 569v-569h-104v736h112l408 -570v570h104v-736z" />
    <glyph glyph-name="O" unicode="O" horiz-adv-x="882" 
d="M578.5 111.5q59.5 35.5 92 100.5t32.5 149t-32.5 149t-92 100.5t-137.5 35.5t-137.5 -35.5t-92 -100.5t-32.5 -149t32.5 -149t92 -100.5t137.5 -35.5t137.5 35.5zM121 555.5q47 85.5 130.5 133.5t189.5 48t189.5 -48t130.5 -133.5t47 -194.5t-47 -194.5t-130.5 -133.5
t-189.5 -48t-189.5 48t-130.5 133.5t-47 194.5t47 194.5z" />
    <glyph glyph-name="P" unicode="P" horiz-adv-x="683" 
d="M477 383q38 41 38 108q0 66 -38 107t-100 41h-193v-297h194q61 0 99 41zM80 729h301q69 0 123 -30.5t84 -84.5t30 -123q0 -70 -30 -124t-84 -84.5t-123 -30.5h-197v-259h-104v736z" />
    <glyph glyph-name="Q" unicode="Q" horiz-adv-x="888" 
d="M692.5 284.5q10.5 40.5 10.5 75.5q0 84 -32.5 149t-92 100.5t-137.5 35.5t-137.5 -35.5t-92 -100.5t-32.5 -149t32.5 -148.5t92 -100t137.5 -35.5q44 0 89 16.5t74 43.5l-101 107l74 69l89 -96q16 28 26.5 68.5zM121 554.5q47 85.5 130.5 133.5t189.5 48t189.5 -48
t130.5 -133.5t47 -194.5q-2 -55 -21 -117.5t-48 -104.5l80 -83l-74 -69l-75 82q-41 -37 -105 -60t-124 -23q-106 0 -189.5 48t-130.5 133t-47 194t47 194.5z" />
    <glyph glyph-name="R" unicode="R" horiz-adv-x="736" 
d="M486 383q38 41 38 108t-37.5 107.5t-99.5 40.5h-202v-297h202q61 0 99 41zM81 729h318q67 0 119 -30t81 -84t29 -123q0 -77 -42.5 -138t-122.5 -89l200 -272h-130l-190 258h-158v-258h-104v736z" />
    <glyph glyph-name="S" unicode="S" horiz-adv-x="668" 
d="M241.5 107.5q48.5 -31.5 100.5 -31.5q69 0 112.5 32t43.5 85q0 36 -22 59.5t-55 38.5t-89 34q-73 25 -118 47t-77 63.5t-32 107.5q0 59 32 102.5t87.5 67t123.5 23.5q77 0 142.5 -41.5t95.5 -122.5l-93 -34q-18 54 -58.5 81t-86.5 27q-60 0 -100 -28.5t-40 -74.5
q0 -35 22 -59t55 -39t90 -35q72 -25 117.5 -47.5t77.5 -64t32 -105.5q0 -61 -32.5 -108t-91.5 -73t-136 -26q-81 0 -150.5 43t-116.5 122l87 48q31 -60 79.5 -91.5z" />
    <glyph glyph-name="T" unicode="T" horiz-adv-x="663" 
d="M603 639h-219v-646h-104v646h-220v90h543v-90z" />
    <glyph glyph-name="U" unicode="U" horiz-adv-x="763" 
d="M227.5 24q-68.5 38 -107 105.5t-38.5 154.5v445h104v-445q0 -60 25 -106t70 -71.5t103 -25.5t102.5 25.5t69.5 71.5t25 106v445h104v-445q0 -86 -38.5 -154t-107 -106t-155.5 -38q-88 0 -156.5 38z" />
    <glyph glyph-name="V" unicode="V" horiz-adv-x="838" 
d="M487 -7h-120l-304 736h113l250 -621l237 621h111z" />
    <glyph glyph-name="W" unicode="W" horiz-adv-x="1143" 
d="M857 -7h-97l-184 568l-173 -568h-98l-235 736h109l175 -566l167 566h110l171 -566l161 566h109z" />
    <glyph glyph-name="X" unicode="X" horiz-adv-x="819" 
d="M474 362l282 -369h-131l-215 284l-215 -284h-132l283 369l-283 367h132l215 -282l215 282h131z" />
    <glyph glyph-name="Y" unicode="Y" horiz-adv-x="815" 
d="M460 280v-287h-104v287l-293 449h124l221 -352l220 352h124z" />
    <glyph glyph-name="Z" unicode="Z" horiz-adv-x="637" 
d="M596 635l-425 -552h425v-90h-555v94l427 552h-427v90h555v-94z" />
    <glyph glyph-name="bracketleft" unicode="[" horiz-adv-x="372" 
d="M308 677h-109v-634h109v-100h-205v833h205v-99z" />
    <glyph glyph-name="backslash" unicode="\" horiz-adv-x="429" 
d="M169 772l214 -828h-104l-213 828h103z" />
    <glyph glyph-name="bracketright" unicode="]" horiz-adv-x="372" 
d="M270 776v-833h-205v100h109v634h-109v99h205z" />
    <glyph glyph-name="asciicircum" unicode="^" horiz-adv-x="543" 
d="M483 379l11 -27h-98l-124 270l-125 -270h-98l171 374h103z" />
    <glyph glyph-name="underscore" unicode="_" horiz-adv-x="572" 
d="M528 -14v-102h-474v102h474z" />
    <glyph glyph-name="grave" unicode="`" horiz-adv-x="290" 
d="M190 779l37 -215h-75l-70 215h108z" />
    <glyph glyph-name="a" unicode="a" horiz-adv-x="642" 
d="M386 97.5q36 23.5 57.5 64t21.5 89.5t-21.5 89.5t-57.5 64t-77 23.5q-67 0 -109 -49t-42 -128t42 -128t109 -49q41 0 77 23.5zM85.5 387q31.5 60 88 93.5t128.5 33.5q46 0 88.5 -22.5t73.5 -67.5v92h104v-523l-104 -1v87q-32 -46 -74 -68.5t-88 -22.5q-72 0 -128.5 33.5
t-88 93.5t-31.5 136t31.5 136z" />
    <glyph glyph-name="b" unicode="b" horiz-adv-x="646" 
d="M256.5 9q-45.5 21 -78.5 70v-87h-104v737h104v-304q33 51 78.5 71.5t85.5 20.5q72 0 129 -34t89 -94t32 -137t-32 -137t-89 -93.5t-130 -33.5q-39 0 -84.5 21zM199 161q21 -41 57.5 -65t78.5 -24q68 0 110.5 49.5t42.5 129.5q0 79 -42.5 128.5t-110.5 49.5q-42 0 -78 -24
t-57.5 -65t-21.5 -89q0 -49 21 -90z" />
    <glyph glyph-name="c" unicode="c" horiz-adv-x="506" 
d="M359.5 101.5q33.5 14.5 56.5 37.5l71 -70q-35 -35 -87.5 -57.5t-100.5 -22.5q-77 0 -137.5 33.5t-94.5 93.5t-34 137t34 137t94.5 93.5t137.5 33.5q50 0 101.5 -22t86.5 -58l-71 -70q-23 23 -56.5 37.5t-64.5 14.5q-71 0 -114.5 -46t-43.5 -120t43.5 -120t114.5 -46
q31 0 64.5 14.5z" />
    <glyph glyph-name="d" unicode="d" horiz-adv-x="646" 
d="M174.5 21.5q-56.5 33.5 -88.5 93.5t-32 137t31.5 137.5t88.5 94t129 33.5q42 0 88 -21.5t77 -70.5v304h104v-737h-104v87q-32 -47 -78 -69t-87 -22q-72 0 -128.5 33.5zM200.5 121.5q42.5 -49.5 110.5 -49.5q42 0 78 24t57.5 65t21.5 90q0 48 -21.5 89t-57.5 65t-78 24
q-68 0 -110.5 -49.5t-42.5 -128.5q0 -80 42.5 -129.5z" />
    <glyph glyph-name="e" unicode="e" horiz-adv-x="602" 
d="M404 390.5q-34 39.5 -98 39.5q-58 0 -100.5 -39.5t-51.5 -98.5l291 1q-7 58 -41 97.5zM86 390q32 60 88.5 93.5t129.5 33.5q103 0 151.5 -50t65.5 -92q23 -56 23 -124q0 -14 -1 -24.5t-1 -13.5h-388q9 -60 52 -98t99 -38q45 0 74.5 14t40.5 26t21 27l84 -38
q-24 -49 -80 -82.5t-141 -33.5q-73 0 -129.5 33.5t-88.5 93.5t-32 136q0 77 32 137z" />
    <glyph glyph-name="f" unicode="f" horiz-adv-x="453" 
d="M133 -7v428h-95v90h95v60q0 49 22 88.5t61 62t89 22.5q31 0 61.5 -9.5t48.5 -26.5l-54 -75q-26 21 -54 21q-31 0 -50.5 -23t-19.5 -60v-60h151v-90h-151v-428h-104z" />
    <glyph glyph-name="g" unicode="g" horiz-adv-x="643" 
d="M388.5 99q35.5 24 55.5 65t20 88t-20.5 87t-56 64t-78.5 24q-68 0 -109.5 -48t-41.5 -127t42 -128t109 -49q44 0 79.5 24zM85.5 387.5q31.5 59.5 88 93t128.5 33.5q48 0 92 -23t70 -67v92h104v-492q-1 -75 -32.5 -133.5t-90.5 -92t-138 -33.5q-67 0 -124.5 29t-94.5 87
l81 56q30 -42 62.5 -61.5t75.5 -19.5q73 0 115 44.5t42 114.5v66q-30 -44 -74.5 -68t-87.5 -24q-72 0 -128.5 33.5t-88 93.5t-31.5 136t31.5 135.5z" />
    <glyph glyph-name="h" unicode="h" horiz-adv-x="615" 
d="M406 380.5q-32 41.5 -84 41.5q-38 0 -70 -22t-50.5 -59t-18.5 -81v-267h-104v736h104v-296q23 36 62 56.5t78 20.5q63 0 113 -28.5t78 -80t28 -117.5v-291h-104v279q0 67 -32 108.5z" />
    <glyph glyph-name="i" unicode="i" horiz-adv-x="259" 
d="M185 513v-520h-104v520h104zM90.5 725.5q16.5 16.5 42.5 16.5t42.5 -16.5t16.5 -42.5q0 -25 -16.5 -42t-42.5 -17t-42.5 16.5t-16.5 42.5t16.5 42.5z" />
    <glyph glyph-name="j" unicode="j" horiz-adv-x="250" 
d="M-11.5 -128.5q19.5 -3.5 33.5 -3.5q23 0 38 19.5t15 47.5v578h104v-578q0 -73 -44 -119t-113 -46q-37 0 -81 10l21 96q7 -1 26.5 -4.5zM85.5 725.5q16.5 16.5 42.5 16.5t42.5 -16.5t16.5 -42.5q0 -25 -16.5 -42t-42.5 -17t-42.5 16.5t-16.5 42.5t16.5 42.5z" />
    <glyph glyph-name="k" unicode="k" horiz-adv-x="574" 
d="M182 280l204 236h139l-202 -233l200 -290h-125l-150 214l-66 -79v-135h-104v736h104v-449z" />
    <glyph glyph-name="l" unicode="l" horiz-adv-x="234" 
d="M169 729v-736h-104v736h104z" />
    <glyph glyph-name="m" unicode="m" horiz-adv-x="932" 
d="M724 389.5q-31 37.5 -80 37.5q-53 0 -87.5 -37t-34.5 -92v-305h-104v299q0 60 -30.5 97.5t-78.5 37.5q-55 0 -90 -41t-35 -101v-292h-104v523h104v-89q22 39 59 63.5t77 24.5q49 0 93.5 -29.5t65.5 -75.5q25 46 74 75.5t99 29.5q61 0 108 -27.5t73 -77.5t26 -113v-304
h-104v299q0 60 -31 97.5z" />
    <glyph glyph-name="n" unicode="n" horiz-adv-x="607" 
d="M405.5 388.5q-33.5 39.5 -91.5 39.5q-39 0 -70.5 -19.5t-49 -52.5t-17.5 -73v-290h-104v523h104v-88q24 38 66 62.5t85 24.5q54 0 103 -24.5t80.5 -75.5t31.5 -128v-294h-104v290q0 66 -33.5 105.5z" />
    <glyph glyph-name="o" unicode="o" horiz-adv-x="613" 
d="M414 125q41 49 41 128t-41 128t-108 49q-66 0 -107 -49t-41 -128t41 -128t107 -49q67 0 108 49zM86 390q32 60 89.5 94t130.5 34q74 0 131.5 -34t89.5 -94t32 -137q0 -76 -32 -136t-89.5 -94t-131.5 -34q-73 0 -130.5 34t-89.5 94t-32 136q0 77 32 137z" />
    <glyph glyph-name="p" unicode="p" horiz-adv-x="650" 
d="M449 123.5q42 49.5 42 129.5q0 79 -42 128t-109 49q-42 0 -78 -24t-57 -64.5t-21 -88.5q0 -49 21 -90t57 -65t78 -24q67 0 109 49.5zM79 516h104v-90q27 45 75 67.5t88 22.5q73 0 129.5 -33.5t88 -93t31.5 -136.5t-31.5 -137.5t-88 -94t-129.5 -33.5q-40 0 -88 23.5
t-75 68.5v-311h-104v747z" />
    <glyph glyph-name="q" unicode="q" horiz-adv-x="639" 
d="M388 102.5q36 22.5 57 62.5t21 88t-21 88.5t-57 64.5t-78 24q-68 0 -110 -49t-42 -128q0 -77 42 -125t110 -48q42 0 78 22.5zM85.5 389.5q31.5 59.5 88.5 93t129 33.5q41 0 90 -22.5t73 -67.5v90h104v-747h-104v311q-24 -44 -73 -68t-90 -24q-72 0 -129 33.5t-88.5 94
t-31.5 137.5t31.5 136.5z" />
    <glyph glyph-name="r" unicode="r" horiz-adv-x="379" 
d="M239.5 490.5q46.5 28.5 99.5 28.5v-95q-47 0 -85 -25t-60 -64.5t-22 -80.5v-261h-104v523h104v-99q21 45 67.5 73.5z" />
    <glyph glyph-name="s" unicode="s" horiz-adv-x="507" 
d="M189.5 95q33.5 -22 63.5 -22q43 0 68.5 18t25.5 49q0 27 -25.5 43t-79.5 35q-52 19 -85 36t-56.5 47.5t-23.5 75.5q0 67 51 106t132 39q53 0 105.5 -31.5t72.5 -91.5l-87 -32q-13 38 -38.5 52.5t-52.5 14.5q-38 0 -58.5 -15.5t-20.5 -41.5t25 -42t80 -36q53 -20 85 -36.5
t55.5 -46t23.5 -74.5q0 -71 -53.5 -113.5t-143.5 -42.5q-60 0 -113.5 33.5t-83.5 90.5l80 46q20 -39 53.5 -61z" />
    <glyph glyph-name="t" unicode="t" horiz-adv-x="429" 
d="M172 35q-44 45 -45 116v270h-90v91h90v143h104v-143h112v-91h-112v-265q0 -27 15 -47t38 -21q17 0 32.5 3.5t20.5 4.5l22 -97q-49 -9 -75 -9q-68 0 -112 45z" />
    <glyph glyph-name="u" unicode="u" horiz-adv-x="607" 
d="M213 114.5q35 -39.5 91 -39.5q61 1 99 39t37 100v302h104v-523h-104v76q-23 -37 -64.5 -59t-85.5 -22q-62 0 -111 28.5t-77 79.5t-28 116v304h104v-299q0 -63 35 -102.5z" />
    <glyph glyph-name="v" unicode="v" horiz-adv-x="623" 
d="M357 -7h-93l-220 523h113l153 -391l155 391h113z" />
    <glyph glyph-name="w" unicode="w" horiz-adv-x="823" 
d="M625 -7h-98l-112 366l-110 -366h-99l-157 523h109l99 -366l104 366h107l106 -366l97 366h109z" />
    <glyph glyph-name="x" unicode="x" horiz-adv-x="601" 
d="M362 254l193 -261h-129l-125 177l-124 -177h-129l190 261l-194 262h130l127 -182l126 182h130z" />
    <glyph glyph-name="y" unicode="y" horiz-adv-x="625" 
d="M158 -221l104 251l-213 486h114l153 -370l148 370h113l-198 -475l-108 -262h-113z" />
    <glyph glyph-name="z" unicode="z" horiz-adv-x="509" 
d="M457 413l-281 -334h281v-86h-405v100l284 337h-284v86h405v-103z" />
    <glyph glyph-name="braceleft" unicode="{" horiz-adv-x="382" 
d="M138.5 428q23.5 20 23.5 61v155q0 58 34 93t84 35h37v-92h-37q-17 0 -21.5 -6.5t-4.5 -29.5v-155q0 -38 -15 -70.5t-42 -56.5q27 -24 42 -56.5t15 -70.5v-156q0 -23 4.5 -29.5t21.5 -6.5h37v-92h-37q-50 0 -84 35t-34 93v156q0 41 -23.5 61t-73.5 20v92q50 0 73.5 20z
" />
    <glyph glyph-name="bar" unicode="|" horiz-adv-x="324" 
d="M203 731v-741h-82v741h82z" />
    <glyph glyph-name="braceright" unicode="}" horiz-adv-x="382" 
d="M244.5 296q-23.5 -20 -23.5 -61v-156q0 -58 -34.5 -93t-84.5 -35h-37v92h37q17 0 22 6.5t5 29.5v156q0 38 14.5 70.5t41.5 56.5q-27 24 -41.5 56.5t-14.5 70.5v155q0 23 -5 29.5t-22 6.5h-37v92h37q50 0 84.5 -35t34.5 -93v-155q0 -41 23.5 -61t72.5 -20v-92
q-49 0 -72.5 -20z" />
    <glyph glyph-name="asciitilde" unicode="~" horiz-adv-x="742" 
d="M142 455q48 34 103 34q23 0 54 -10t54 -25l84 -52q13 -8 27 -13t23 -5q25 -1 46.5 15t32.5 44l101 -39q-22 -57 -71.5 -92.5t-107.5 -35.5q-20 0 -51 9.5t-55 24.5l-86 53q-12 8 -26.5 13t-25.5 5q-22 0 -43 -15.5t-31 -39.5l-99 41q23 54 71 88z" />
    <glyph glyph-name="yen" unicode="&#xa5;" horiz-adv-x="796" 
d="M494 419h134v-96h-182v-75h178v-95h-178v-153h-97v153h-185v95h185v75h-181v96h133l-228 303h114l210 -270l208 270h118z" />
    <glyph glyph-name="copyright" unicode="&#xa9;" horiz-adv-x="1084" 
d="M150 578q61 104 165 165t227 61t227 -61t165 -165t61 -227q0 -122 -61 -226t-165 -165t-227 -61t-227 61t-165 165t-61 226q0 123 61 227zM230.5 171.5q48.5 -82.5 131.5 -131.5t180 -49t180 49t131.5 131.5t48.5 179.5t-48.5 180t-131.5 131.5t-180 48.5t-180 -48.5
t-131.5 -131.5t-48.5 -180t48.5 -179.5zM341 484.5q31 57.5 87 90t127 32.5q49 0 93.5 -19.5t78.5 -54.5l-66 -62q-21 22 -49.5 34.5t-59.5 12.5q-69 0 -112.5 -46t-43.5 -118t43.5 -117.5t112.5 -45.5q31 0 59.5 12t49.5 35l66 -63q-34 -35 -78.5 -54.5t-93.5 -19.5
q-71 0 -127 32.5t-87 90t-31 130.5t31 130.5z" />
    <glyph glyph-name="uni00AD" unicode="&#xad;" horiz-adv-x="602" 
d="M537 420v-103h-472v103h472z" />
    <glyph glyph-name="registered" unicode="&#xae;" horiz-adv-x="529" 
d="M303 535h57l-51 68q18 8 29 25.5t11 38.5q0 30 -19.5 49.5t-50.5 19.5h-97v-201h46v61h30zM74.5 744q29.5 51 80.5 80.5t110 29.5t109.5 -29.5t80 -80t29.5 -110.5t-29.5 -110t-79.5 -79.5t-110 -29.5t-110.5 29.5t-80 80t-29.5 109.5t29.5 110zM121.5 551
q22.5 -38 60.5 -60t83 -22t83 22t60 60t22 83t-22 83t-60 60.5t-83 22.5t-83 -22.5t-60.5 -60.5t-22.5 -83t22.5 -83zM228 693h50q11 0 18.5 -7.5t7.5 -18.5q0 -12 -7.5 -19.5t-18.5 -7.5h-50v53z" />
    <glyph glyph-name="degree" unicode="&#xb0;" horiz-adv-x="449" 
d="M280 806q30 -18 48 -48.5t18 -66.5q0 -35 -18 -65t-48.5 -47.5t-65.5 -17.5q-36 0 -66.5 17.5t-48 47.5t-17.5 65q0 36 17.5 66.5t48 48.5t66.5 18t66 -18zM172 650q18 -17 42 -17q25 0 42 17t17 41q0 25 -17 42t-42 17q-24 0 -42 -17.5t-18 -41.5t18 -41z" />
    <glyph glyph-name="plusminus" unicode="&#xb1;" horiz-adv-x="654" 
d="M377 502h192v-102h-192v-191h-101v191h-191v102h191v189h101v-189zM85 117h484v-102h-484v102z" />
    <glyph glyph-name="uni00B2" unicode="&#xb2;" horiz-adv-x="361" 
d="M92 524l18 16q67 60 99.5 97.5t32.5 71.5q0 31 -17.5 51t-45.5 20q-23 0 -43.5 -16.5t-30.5 -41.5l-63 28q17 42 55.5 69t81.5 27q59 0 96.5 -38.5t37.5 -98.5q0 -54 -40.5 -104t-113.5 -114h160v-64h-257l-10 61z" />
    <glyph glyph-name="uni00B3" unicode="&#xb3;" horiz-adv-x="368" 
d="M310.5 599.5q15.5 -26.5 15.5 -50.5q0 -55 -40 -89t-102 -34q-65 0 -105 37.5t-37 95.5h72q-4 -30 16 -49.5t54 -19.5q32 0 52 17t20 45q0 26 -20 43t-51 17h-35v62h36q29 0 47 15t18 39q0 23 -17.5 38t-45.5 15q-31 0 -48.5 -17t-13.5 -44h-72q-3 56 34.5 91t99.5 35
q58 0 95 -32.5t37 -83.5q0 -22 -13.5 -46.5t-35.5 -41.5q24 -16 39.5 -42.5z" />
    <glyph glyph-name="paragraph" unicode="&#xb6;" horiz-adv-x="1000" 
d="M499 -48h73v721h66v-721h72v804h-211q-68 0 -121.5 -30t-83.5 -83.5t-30 -122.5q0 -68 30 -121.5t83.5 -83.5t121.5 -30v-333z" />
    <glyph glyph-name="periodcentered" unicode="&#xb7;" horiz-adv-x="497" 
d="M301.5 421.5q20.5 -20.5 20.5 -52.5q0 -33 -20.5 -53.5t-53.5 -20.5q-32 0 -52.5 20.5t-20.5 53.5q0 32 20.5 52.5t52.5 20.5q33 0 53.5 -20.5z" />
    <glyph glyph-name="uni00B9" unicode="&#xb9;" horiz-adv-x="249" 
d="M207 427l-72 1v333l-61 -31l-32 59l98 53h67v-415z" />
    <glyph glyph-name="multiply" unicode="&#xd7;" horiz-adv-x="722" 
d="M572 80l-211 210l-210 -210l-73 72l211 211l-211 210l73 73l210 -213l212 213l71 -73l-210 -210l210 -211z" />
    <glyph glyph-name="divide" unicode="&#xf7;" horiz-adv-x="725" 
d="M66 416h593v-102h-593v102zM319 194.5q18 17.5 44 17.5t44 -17.5t18 -43.5t-18 -44t-44 -18t-44 18t-18 44t18 43.5zM319 625q18 18 44 18t44 -18t18 -43q0 -26 -18 -44.5t-44 -18.5t-44 18.5t-18 44.5q0 25 18 43z" />
    <glyph glyph-name="uni2015" unicode="&#x2015;" horiz-adv-x="990" 
d="M926 420v-103h-861v103h861z" />
    <glyph glyph-name="quoteleft" unicode="&#x2018;" horiz-adv-x="290" 
d="M152 789h75l-37 -234h-108z" />
    <glyph glyph-name="quoteright" unicode="&#x2019;" horiz-adv-x="290" 
d="M139 554h-76l37 235h108z" />
    <glyph glyph-name="quotedblleft" unicode="&#x201c;" horiz-adv-x="470" 
d="M328 788h76l-37 -235h-108zM155 789h75l-36 -234h-109z" />
    <glyph glyph-name="quotedblright" unicode="&#x201d;" horiz-adv-x="470" 
d="M143 554h-77l37 235h108zM276 787h109l-68 -234h-77z" />
    <glyph glyph-name="twodotenleader" unicode="&#x2025;" horiz-adv-x="654" 
d="M399 410q16 -16 16 -42q0 -25 -16 -41.5t-42 -16.5q-14 0 -30 7q-16 -7 -30 -7q-25 0 -41.5 16.5t-16.5 41.5q0 26 16.5 42t41.5 16q14 0 30 -7q16 7 30 7q26 0 42 -16z" />
    <glyph glyph-name="ellipsis" unicode="&#x2026;" horiz-adv-x="823" 
d="M201 410q16 -16 16 -42t-16.5 -42.5t-41.5 -16.5t-42 17t-17 42t16.5 41.5t42.5 16.5t42 -16zM369.5 410q16.5 16 41.5 16q26 0 42 -16t16 -42q0 -25 -16 -41.5t-42 -16.5q-25 0 -41.5 16.5t-16.5 41.5q0 26 16.5 42zM622.5 409.5q16.5 16.5 42.5 16.5t42 -16t16 -42
q0 -25 -16 -41.5t-42 -16.5t-42.5 16.5t-16.5 41.5t16.5 41.5z" />
    <glyph glyph-name="minute" unicode="&#x2032;" horiz-adv-x="290" 
d="M139 564h-76l37 215h108z" />
    <glyph glyph-name="second" unicode="&#x2033;" horiz-adv-x="470" 
d="M143 564h-77l37 215h108zM276 777h109l-68 -214h-77z" />
    <glyph glyph-name="uni203B" unicode="&#x203b;" horiz-adv-x="911" 
d="M455 434l258 260l71 -72l-259 -259l258 -258l-70 -71l-258 259l-260 -260l-69 70l258 260l-258 259l70 71zM138 407.5q16 15.5 41 15.5q24 0 40 -15.5t16 -40.5t-16 -40.5t-40 -15.5q-25 0 -41 15.5t-16 40.5t16 40.5zM416 119q16 16 41 16q24 0 40 -16t16 -40
q0 -25 -16 -40.5t-40 -15.5q-25 0 -41 15.5t-16 40.5q0 24 16 40zM416 697q16 16 41 16q24 0 40 -16t16 -40q0 -25 -16 -41t-40 -16q-25 0 -41 16t-16 41q0 24 16 40zM696 407.5q16 15.5 41 15.5q24 0 39.5 -15.5t15.5 -40.5t-15.5 -40.5t-39.5 -15.5q-25 0 -41 15.5
t-16 40.5t16 40.5z" />
    <glyph glyph-name="uni2074" unicode="&#x2074;" horiz-adv-x="384" 
d="M291 597h51v-64h-51v-104h-71v104h-168l-10 59l183 252h66v-247zM220 597v124l-89 -124h89z" />
    <glyph glyph-name="uni2081" unicode="&#x2081;" horiz-adv-x="249" 
d="M207 -122h-72v333l-61 -30l-32 58l98 53h67v-414z" />
    <glyph glyph-name="uni2082" unicode="&#x2082;" horiz-adv-x="361" 
d="M110 -7q65 58 98.5 96.5t33.5 71.5q0 31 -17.5 51t-45.5 20q-23 0 -43.5 -16.5t-30.5 -41.5l-63 28q17 43 55 69.5t82 26.5q59 0 96.5 -38t37.5 -99q0 -54 -41 -105t-113 -112h160v-64h-257l-10 60z" />
    <glyph glyph-name="uni2083" unicode="&#x2083;" horiz-adv-x="368" 
d="M311 51q15 -24 15 -53q0 -53 -40.5 -88t-101.5 -35q-63 0 -104 38t-38 95h72q-3 -26 15.5 -47t54.5 -21q34 0 53 18t19 43q0 26 -17 43.5t-54 17.5h-35v62h36q32 0 48.5 15.5t16.5 37.5q0 21 -16.5 37.5t-46.5 16.5q-33 0 -49 -18.5t-13 -42.5h-72q-3 54 35.5 90t98.5 36
q56 0 94 -33.5t38 -82.5t-49 -88q25 -17 40 -41z" />
    <glyph glyph-name="uni2084" unicode="&#x2084;" horiz-adv-x="384" 
d="M291 45h51v-64h-51v-104h-71v104h-168l-10 59l183 251h66v-246zM220 45v123l-89 -123h89z" />
    <glyph glyph-name="uni20A9" unicode="&#x20a9;" horiz-adv-x="1088" 
d="M903 431h109v-97h-133l-82 -334h-109l-81 334h-125l-81 -334h-109l-83 334h-133v97h109l-72 291h93l72 -291h136l72 290h117l72 -290h136l72 291h92zM346 159l44 175h-88zM583 431l-39 160l-39 -160h78zM743 159l44 175h-88z" />
    <glyph glyph-name="Euro" unicode="&#x20ac;" horiz-adv-x="806" 
d="M292 47q-88 60 -126 164h-109v98h86q-2 30 -2 47q0 16 2 48h-86v98h109q38 103 126 163t205 60q73 0 138 -28.5t114 -79.5l-67 -75q-35 36 -86.5 58t-102.5 22q-70 0 -126 -32t-89 -88h137v-98h-170q-3 -22 -3 -48q0 -24 3 -47h170v-98h-138q33 -58 89 -90t127 -32
q51 0 102.5 22.5t86.5 58.5l67 -75q-49 -51 -114 -79.5t-138 -28.5q-117 0 -205 60z" />
    <glyph glyph-name="uni2103" unicode="&#x2103;" horiz-adv-x="1079" 
d="M287.5 806.5q30.5 -17.5 48 -48t17.5 -66.5t-17.5 -66t-48 -47.5t-65.5 -17.5q-36 0 -66.5 17.5t-48.5 47.5t-18 66t18 66.5t48.5 48t66.5 17.5q35 0 65.5 -17.5zM180 650.5q18 -17.5 42 -17.5t41 17t17 42t-17 42t-41 17t-42 -17.5t-18 -41.5t18 -41.5zM426.5 555.5
q44.5 85.5 124.5 133t181 47.5q71 0 135.5 -29t113.5 -81l-74 -73q-34 37 -78.5 58t-96.5 21q-71 0 -127 -34.5t-87 -96t-31 -140.5t31 -140.5t87 -96t127 -34.5q101 0 174 80l75 -73q-49 -52 -113.5 -81.5t-135.5 -29.5q-101 0 -181 48t-124.5 133t-44.5 194t44.5 194.5z
" />
    <glyph glyph-name="uni2109" unicode="&#x2109;" horiz-adv-x="1071" 
d="M287 804.5q30 -17.5 47.5 -48t17.5 -66.5q0 -55 -38 -93t-93 -38q-36 0 -66 17.5t-47.5 47.5t-17.5 66t17.5 66.5t47.5 48t66 17.5t66 -17.5zM179.5 648q16.5 -17 41.5 -17t42.5 17t17.5 42t-17.5 42.5t-42.5 17.5t-41.5 -17.5t-16.5 -42.5t16.5 -42zM470 726h492v-99
h-380v-215h315v-104h-315v-316h-112v734z" />
    <glyph glyph-name="trademark" unicode="&#x2122;" horiz-adv-x="966" 
d="M401 791h-129v-374h-74v374h-129v73h332v-73zM454 857h75l148 -250l147 250h74v-440h-74v302l-117 -209h-60l-118 209v-302h-75v440z" />
    <glyph glyph-name="arrowleft" unicode="&#x2190;" horiz-adv-x="1000" 
d="M223 364l381 381l74 -73l-308 -308l308 -308l-74 -74z" />
    <glyph glyph-name="arrowup" unicode="&#x2191;" horiz-adv-x="1000" 
d="M118 204l381 382l383 -382l-75 -73l-308 308l-308 -308z" />
    <glyph glyph-name="arrowright" unicode="&#x2192;" horiz-adv-x="1000" 
d="M322 56l308 308l-308 308l74 73l381 -381l-381 -382z" />
    <glyph glyph-name="arrowdown" unicode="&#x2193;" horiz-adv-x="1000" 
d="M118 484l73 74l308 -308l308 308l75 -74l-383 -381z" />
    <glyph glyph-name="arrowboth" unicode="&#x2194;" horiz-adv-x="1000" 
d="M44 368l232 233l66 -65l-118 -119l548 -3l-117 118l66 68l234 -232l-234 -232l-64 65l117 117l-548 4l119 -119l-69 -68z" />
    <glyph glyph-name="arrowupdn" unicode="&#x2195;" horiz-adv-x="1000" 
d="M268 201l65 64l117 -117l4 419l-119 -118l-68 69l233 232l233 -232l-65 -66l-119 118l-3 -420l118 118l68 -67l-232 -234z" />
    <glyph glyph-name="uni2196" unicode="&#x2196;" horiz-adv-x="1000" 
d="M653 722v-104h-341l552 -550l-71 -73l-552 552v-341h-104v516h516z" />
    <glyph glyph-name="uni2197" unicode="&#x2197;" horiz-adv-x="1000" 
d="M866 206h-104v341l-551 -552l-72 73l552 550h-341v104h516v-516z" />
    <glyph glyph-name="uni2198" unicode="&#x2198;" horiz-adv-x="1000" 
d="M350 0v104h341l-552 550l72 73l551 -552v341h104v-516h-516z" />
    <glyph glyph-name="uni2199" unicode="&#x2199;" horiz-adv-x="1000" 
d="M137 516h104v-341l552 552l71 -73l-552 -550h341v-104h-516v516z" />
    <glyph glyph-name="uni2219" unicode="&#x2219;" horiz-adv-x="513" 
d="M309.5 421.5q20.5 -20.5 20.5 -52.5q0 -33 -20.5 -53.5t-53.5 -20.5q-32 0 -52.5 20.5t-20.5 53.5q0 32 20.5 52.5t52.5 20.5q33 0 53.5 -20.5z" />
    <glyph glyph-name="approxequal" unicode="&#x2248;" horiz-adv-x="730" 
d="M140.5 549.5q47.5 33.5 101.5 33.5q24 0 55 -10t52 -25l83 -52q12 -8 25.5 -13t22.5 -5q22 0 42.5 16.5t31.5 42.5l101 -38q-23 -59 -74 -95.5t-109 -32.5q-21 1 -48 10.5t-50 23.5l-84 53q-30 18 -49 18q-21 0 -40.5 -15.5t-29.5 -39.5l-100 40q22 55 69.5 88.5z
M149.5 322q50.5 34 106.5 30q21 -1 49.5 -10.5t49.5 -23.5l82 -53q12 -7 25.5 -12t21.5 -5q23 -1 44 15t32 43l101 -37q-23 -60 -74 -96.5t-109 -32.5q-20 1 -47.5 10.5t-50.5 23.5l-83 53q-11 8 -26 12.5t-26 4.5q-20 0 -39 -14.5t-29 -38.5l-100 39q22 58 72.5 92z" />
    <glyph glyph-name="circleplus" unicode="&#x2295;" horiz-adv-x="1084" 
d="M150 578q61 104 165 165t227 61t227 -61t165 -165t61 -227q0 -122 -61 -226t-165 -165t-227 -61t-227 61t-165 165t-61 226q0 123 61 227zM230.5 171.5q48.5 -82.5 131.5 -131.5t180 -49t180 49t131.5 131.5t48.5 179.5t-48.5 180t-131.5 131.5t-180 48.5t-180 -48.5
t-131.5 -131.5t-48.5 -180t48.5 -179.5zM320 390h178v178h91v-178h178v-91h-178v-178h-91v178h-178v91z" />
    <glyph glyph-name="uni2296" unicode="&#x2296;" horiz-adv-x="1084" 
d="M150 578q61 104 165 165t227 61t227 -61t165 -165t61 -227q0 -122 -61 -226t-165 -165t-227 -61t-227 61t-165 165t-61 226q0 123 61 227zM230.5 171.5q48.5 -82.5 131.5 -131.5t180 -49t180 49t131.5 131.5t48.5 179.5t-48.5 180t-131.5 131.5t-180 48.5t-180 -48.5
t-131.5 -131.5t-48.5 -180t48.5 -179.5zM312 390h447v-91h-447v91z" />
    <glyph glyph-name="circlemultiply" unicode="&#x2297;" horiz-adv-x="1084" 
d="M150 578q61 104 165 165t227 61t227 -61t165 -165t61 -227q0 -122 -61 -226t-165 -165t-227 -61t-227 61t-165 165t-61 226q0 123 61 227zM230.5 171.5q48.5 -82.5 131.5 -131.5t180 -49t180 49t131.5 131.5t48.5 179.5t-48.5 180t-131.5 131.5t-180 48.5t-180 -48.5
t-131.5 -131.5t-48.5 -180t48.5 -179.5zM388 125l155 155l154 -155l64 66l-154 153l155 154l-65 66l-154 -155l-155 155l-63 -66l153 -154l-153 -153z" />
    <glyph glyph-name="uni2460" unicode="&#x2460;" horiz-adv-x="1072" 
d="M123.5 593.5q59.5 101.5 161.5 161.5t222 60t222 -60t162 -162t60 -222t-60 -222t-162 -161.5t-222 -59.5t-222 59.5t-161.5 161.5t-59.5 222q0 121 59.5 222.5zM190.5 188q49.5 -84 133.5 -133.5t183 -49.5t183 49.5t133.5 133.5t49.5 183t-49.5 183t-133.5 133.5
t-183 49.5t-183 -49.5t-133.5 -133.5t-49.5 -183t49.5 -183zM492 613h71v-490l-75 1v404l-75 -39l-34 62z" />
    <glyph glyph-name="uni2461" unicode="&#x2461;" horiz-adv-x="1072" 
d="M123.5 593.5q59.5 101.5 161.5 161.5t222 60t222 -60t162 -162t60 -222t-60 -222t-162 -161.5t-222 -59.5t-222 59.5t-161.5 161.5t-59.5 222q0 121 59.5 222.5zM190.5 188q49.5 -84 133.5 -133.5t183 -49.5t183 49.5t133.5 133.5t49.5 183t-49.5 183t-133.5 133.5
t-183 49.5t-183 -49.5t-133.5 -133.5t-49.5 -183t49.5 -183zM409.5 603.5q44.5 30.5 94.5 30.5q69 0 113 -45t44 -115q0 -45 -28 -91t-65 -83t-99 -93h200v-68h-304l-10 65q17 17 53 49l18 16q57 51 87 81.5t50.5 62t20.5 61.5q0 39 -22 64t-58 25q-27 0 -53 -19.5
t-38 -49.5l-67 31q19 48 63.5 78.5z" />
    <glyph glyph-name="uni2462" unicode="&#x2462;" horiz-adv-x="1072" 
d="M123.5 593.5q59.5 101.5 161.5 161.5t222 60t222 -60t162 -162t60 -222t-60 -222t-162 -161.5t-222 -59.5t-222 59.5t-161.5 161.5t-59.5 222q0 121 59.5 222.5zM190.5 188q49.5 -84 133.5 -133.5t183 -49.5t183 49.5t133.5 133.5t49.5 183t-49.5 183t-133.5 133.5
t-183 49.5t-183 -49.5t-133.5 -133.5t-49.5 -183t49.5 -183zM421 277q-3 -37 22 -60t67 -23q41 0 66.5 22t25.5 56t-25 55.5t-65 21.5h-40v66h40q37 0 60 19t23 49q0 31 -22.5 50.5t-58.5 19.5q-37 0 -59 -21t-20 -54h-76q-2 63 41.5 103.5t113.5 40.5q69 0 112.5 -38
t43.5 -98q0 -27 -17.5 -56t-45.5 -49q31 -20 50.5 -51t19.5 -61q0 -64 -46.5 -104t-120.5 -40q-75 0 -121 42.5t-44 109.5h76z" />
    <glyph glyph-name="uni2463" unicode="&#x2463;" horiz-adv-x="1072" 
d="M123.5 593.5q59.5 101.5 161.5 161.5t222 60t222 -60t162 -162t60 -222t-60 -222t-162 -161.5t-222 -59.5t-222 59.5t-161.5 161.5t-59.5 222q0 121 59.5 222.5zM190.5 188q49.5 -84 133.5 -133.5t183 -49.5t183 49.5t133.5 133.5t49.5 183t-49.5 183t-133.5 133.5
t-183 49.5t-183 -49.5t-133.5 -133.5t-49.5 -183t49.5 -183zM531 621h71v-297h62v-68h-62v-125h-76v125h-204l-10 65zM526 324v166l-120 -166h120z" />
    <glyph glyph-name="uni2464" unicode="&#x2464;" horiz-adv-x="1072" 
d="M123.5 593.5q59.5 101.5 161.5 161.5t222 60t222 -60t162 -162t60 -222t-60 -222t-162 -161.5t-222 -59.5t-222 59.5t-161.5 161.5t-59.5 222q0 121 59.5 222.5zM190.5 188q49.5 -84 133.5 -133.5t183 -49.5t183 49.5t133.5 133.5t49.5 183t-49.5 183t-133.5 133.5
t-183 49.5t-183 -49.5t-133.5 -133.5t-49.5 -183t49.5 -183zM416 265q6 -34 32 -56t60 -22q41 0 67.5 26.5t26.5 67.5t-26.5 67t-67.5 26q-18 0 -38 -10t-34 -27l-74 12l13 261h267v-68h-193l-8 -109q15 6 33.5 9.5t33.5 3.5q76 0 123.5 -46t47.5 -119q0 -74 -47.5 -120.5
t-123.5 -46.5q-62 0 -108.5 37.5t-57.5 96.5z" />
    <glyph glyph-name="uni2465" unicode="&#x2465;" horiz-adv-x="1072" 
d="M123.5 593.5q59.5 101.5 161.5 161.5t222 60t222 -60t162 -162t60 -222t-60 -222t-162 -161.5t-222 -59.5t-222 59.5t-161.5 161.5t-59.5 222q0 121 59.5 222.5zM190.5 188q49.5 -84 133.5 -133.5t183 -49.5t183 49.5t133.5 133.5t49.5 183t-49.5 183t-133.5 133.5
t-183 49.5t-183 -49.5t-133.5 -133.5t-49.5 -183t49.5 -183zM341.5 330q6.5 23 16.5 40l141 249h87l-95 -167l17 1q74 -2 120.5 -48.5t46.5 -117.5q0 -72 -47.5 -117.5t-123.5 -45.5q-74 0 -121.5 45.5t-47.5 117.5q0 20 6.5 43zM437 218q26 -27 67 -27t67.5 27t26.5 69
q0 43 -26.5 70.5t-67.5 27.5t-67 -27.5t-26 -70.5q0 -42 26 -69z" />
    <glyph glyph-name="uni2466" unicode="&#x2466;" horiz-adv-x="1072" 
d="M123.5 593.5q59.5 101.5 161.5 161.5t222 60t222 -60t162 -162t60 -222t-60 -222t-162 -161.5t-222 -59.5t-222 59.5t-161.5 161.5t-59.5 222q0 121 59.5 222.5zM190.5 188q49.5 -84 133.5 -133.5t183 -49.5t183 49.5t133.5 133.5t49.5 183t-49.5 183t-133.5 133.5
t-183 49.5t-183 -49.5t-133.5 -133.5t-49.5 -183t49.5 -183zM364 604h294l10 -64l-190 -428h-83l188 424h-219v68z" />
    <glyph glyph-name="uni2467" unicode="&#x2467;" horiz-adv-x="1072" 
d="M123.5 593.5q59.5 101.5 161.5 161.5t222 60t222 -60t162 -162t60 -222t-60 -222t-162 -161.5t-222 -59.5t-222 59.5t-161.5 161.5t-59.5 222q0 121 59.5 222.5zM190.5 188q49.5 -84 133.5 -133.5t183 -49.5t183 49.5t133.5 133.5t49.5 183t-49.5 183t-133.5 133.5
t-183 49.5t-183 -49.5t-133.5 -133.5t-49.5 -183t49.5 -183zM363 334.5q21 32.5 54 52.5q-27 20 -44.5 49.5t-17.5 54.5q0 60 43 98t111 38t111 -38t43 -98q0 -26 -17.5 -55t-44.5 -49q33 -20 54 -52.5t21 -63.5q0 -66 -46.5 -107.5t-120.5 -41.5t-120.5 41.5t-46.5 107.5
q0 31 21 63.5zM443.5 211.5q25.5 -23.5 65.5 -23.5t65 23.5t25 59.5t-25 59t-65 23t-65.5 -23t-25.5 -59t25.5 -59.5zM453 440.5q22 -19.5 56 -19.5t56 19.5t22 50.5t-22 50.5t-56 19.5t-56 -19.5t-22 -50.5t22 -50.5z" />
    <glyph glyph-name="uni2468" unicode="&#x2468;" horiz-adv-x="1072" 
d="M285 -12.5q-102 59.5 -161.5 161.5t-59.5 222q0 121 59.5 222.5t161.5 161.5t222 60t222 -60t162 -162t60 -222t-60 -222t-162 -161.5t-222 -59.5t-222 59.5zM190.5 188q49.5 -84 133.5 -133.5t183 -49.5t183 49.5t133.5 133.5t49.5 183t-49.5 183t-133.5 133.5
t-183 49.5t-183 -49.5t-133.5 -133.5t-49.5 -183t49.5 -183zM388.5 574q47.5 46 122.5 46t122.5 -46t47.5 -119q0 -20 -7.5 -44.5t-18.5 -42.5l-138 -244h-88l95 167q-7 -1 -24 -1q-70 4 -114.5 50.5t-44.5 114.5q0 73 47.5 119zM443.5 385q26.5 -27 68.5 -27q41 0 66.5 27
t25.5 70t-25.5 70t-66.5 27q-42 0 -68.5 -27t-26.5 -70t26.5 -70z" />
    <glyph glyph-name="uni2469" unicode="&#x2469;" horiz-adv-x="1072" 
d="M285 -12.5q-102 59.5 -161.5 161.5t-59.5 222q0 121 59.5 222.5t161.5 161.5t222 60t222 -60t162 -162t60 -222t-60 -222t-162 -161.5t-222 -59.5t-222 59.5zM190.5 188q49.5 -84 133.5 -133.5t183 -49.5t183 49.5t133.5 133.5t49.5 183t-49.5 183t-133.5 133.5
t-183 49.5t-183 -49.5t-133.5 -133.5t-49.5 -183t49.5 -183zM344 568h63v-397h-67v321l-58 -30l-31 55zM476.5 474q19.5 47 54.5 73t80 26q44 0 79 -26t54.5 -73t19.5 -107t-19.5 -107t-54.5 -73t-79 -26q-45 0 -80 26t-54.5 73t-19.5 107t19.5 107zM549 264.5
q24 -39.5 62 -39.5q37 0 60.5 39.5t23.5 102.5q0 62 -23.5 101.5t-60.5 39.5q-38 0 -62 -39.5t-24 -101.5q0 -63 24 -102.5z" />
    <glyph glyph-name="uni246A" unicode="&#x246a;" horiz-adv-x="1072" 
d="M123.5 593.5q59.5 101.5 161.5 161.5t222 60t222 -60t162 -162t60 -222t-60 -222t-162 -161.5t-222 -59.5t-222 59.5t-161.5 161.5t-59.5 222q0 121 59.5 222.5zM190.5 188q49.5 -84 133.5 -133.5t183 -49.5t183 49.5t133.5 133.5t49.5 183t-49.5 183t-133.5 133.5
t-183 49.5t-183 -49.5t-133.5 -133.5t-49.5 -183t49.5 -183zM376 568h63v-397h-67v321l-58 -30l-31 55zM616 568h63v-397h-67v321l-58 -30l-31 55z" />
    <glyph glyph-name="uni246B" unicode="&#x246b;" horiz-adv-x="1072" 
d="M285 -12.5q-102 59.5 -161.5 161.5t-59.5 222q0 121 59.5 222.5t161.5 161.5t222 60t222 -60t162 -162t60 -222t-60 -222t-162 -161.5t-222 -59.5t-222 59.5zM190.5 188q49.5 -84 133.5 -133.5t183 -49.5t183 49.5t133.5 133.5t49.5 183t-49.5 183t-133.5 133.5
t-183 49.5t-183 -49.5t-133.5 -133.5t-49.5 -183t49.5 -183zM354 568h63v-397h-67v321l-58 -30l-31 55zM521.5 550.5q36.5 25.5 78.5 25.5q56 0 92 -36.5t36 -93.5q0 -50 -37 -96.5t-104 -106.5l-10 -8h157v-60h-247l-10 56q22 22 43 40l18 16q65 59 93.5 92.5t28.5 66.5
q0 29 -17 48.5t-43 19.5q-22 0 -42 -16t-30 -40l-59 26q16 41 52.5 66.5z" />
    <glyph glyph-name="uni246C" unicode="&#x246c;" horiz-adv-x="1072" 
d="M123.5 593.5q59.5 101.5 161.5 161.5t222 60t222 -60t162 -162t60 -222t-60 -222t-162 -161.5t-222 -59.5t-222 59.5t-161.5 161.5t-59.5 222q0 121 59.5 222.5zM190.5 188q49.5 -84 133.5 -133.5t183 -49.5t183 49.5t133.5 133.5t49.5 183t-49.5 183t-133.5 133.5
t-183 49.5t-183 -49.5t-133.5 -133.5t-49.5 -183t49.5 -183zM354 568h63v-397h-67v321l-58 -30l-31 55zM533 299q-1 -4 -1 -12q0 -24 18.5 -39t49.5 -15q32 0 51.5 16.5t19.5 42.5t-19.5 42t-49.5 16h-35v59h35q28 0 45.5 14.5t17.5 37.5t-17 38t-45 15q-27 0 -43.5 -13.5
t-16.5 -35.5q0 -7 1 -11h-68q-3 53 32.5 87t94.5 34q56 0 92 -31t36 -80q0 -21 -13.5 -45t-35.5 -40q24 -15 39 -40t15 -49q0 -52 -38 -85t-98 -33q-63 0 -100.5 35.5t-34.5 91.5h68z" />
    <glyph glyph-name="uni246D" unicode="&#x246d;" horiz-adv-x="1072" 
d="M123.5 593.5q59.5 101.5 161.5 161.5t222 60t222 -60t162 -162t60 -222t-60 -222t-162 -161.5t-222 -59.5t-222 59.5t-161.5 161.5t-59.5 222q0 121 59.5 222.5zM190.5 188q49.5 -84 133.5 -133.5t183 -49.5t183 49.5t133.5 133.5t49.5 183t-49.5 183t-133.5 133.5
t-183 49.5t-183 -49.5t-133.5 -133.5t-49.5 -183t49.5 -183zM354 568h63v-397h-67v321l-58 -30l-31 55zM638 574h62v-238h50v-60h-50v-101h-67v101h-160l-10 56zM633 336v120l-86 -120h86z" />
    <glyph glyph-name="uni246E" unicode="&#x246e;" horiz-adv-x="1072" 
d="M123.5 593.5q59.5 101.5 161.5 161.5t222 60t222 -60t162 -162t60 -222t-60 -222t-162 -161.5t-222 -59.5t-222 59.5t-161.5 161.5t-59.5 222q0 121 59.5 222.5zM190.5 188q49.5 -84 133.5 -133.5t183 -49.5t183 49.5t133.5 133.5t49.5 183t-49.5 183t-133.5 133.5
t-183 49.5t-183 -49.5t-133.5 -133.5t-49.5 -183t49.5 -183zM354 568h63v-397h-67v321l-58 -30l-31 55zM534 291q5 -28 24.5 -45.5t46.5 -17.5q32 0 52.5 20t20.5 52t-20.5 52t-52.5 20q-13 0 -29 -8.5t-27 -21.5l-63 12l11 212h218v-60h-153l-7 -80q23 9 50 9
q62 0 101 -37.5t39 -97.5q0 -59 -39.5 -97.5t-100.5 -38.5q-51 0 -89.5 31.5t-46.5 80.5z" />
    <glyph glyph-name="uni24C3" unicode="&#x24c3;" horiz-adv-x="934" 
d="M565 519v-213l-196 213h-68v-318h67v217l197 -217h69v318h-69zM156 540.5q48 82.5 130.5 131t180.5 48.5t180.5 -48.5t130.5 -131t48 -180.5t-48 -180.5t-130.5 -130.5t-180.5 -48t-180.5 48t-130.5 130.5t-48 180.5t48 180.5z" />
    <glyph glyph-name="uni24D8" unicode="&#x24d8;" horiz-adv-x="1084" 
d="M150 578q61 104 165 165t227 61t227 -61t165 -165t61 -227q0 -122 -61 -226t-165 -165t-227 -61t-227 61t-165 165t-61 226q0 123 61 227zM230.5 171.5q48.5 -82.5 131.5 -131.5t180 -49t180 49t131.5 131.5t48.5 179.5t-48.5 180t-131.5 131.5t-180 48.5t-180 -48.5
t-131.5 -131.5t-48.5 -180t48.5 -179.5zM444 459h150v-380h-86v298h-64v82zM509 614.5q17 16.5 42 16.5q26 0 42.5 -16.5t16.5 -42.5t-16.5 -42.5t-42.5 -16.5t-42.5 16.5t-16.5 42.5t17 42.5z" />
    <glyph glyph-name="filledbox" unicode="&#x25a0;" horiz-adv-x="1000" 
d="M866 729v-732h-732v732h732z" />
    <glyph glyph-name="uni25A1" unicode="&#x25a1;" horiz-adv-x="1000" 
d="M866 729v-732h-732v732h732zM764 99v528h-528v-528h528z" />
    <glyph glyph-name="uni25A3" unicode="&#x25a3;" horiz-adv-x="1000" 
d="M354 217l1 291h290v-290zM134 729h732v-732h-732v732zM764 99v528h-528v-528h528z" />
    <glyph glyph-name="triagup" unicode="&#x25b2;" horiz-adv-x="1000" 
d="M903 32h-805l403 658z" />
    <glyph glyph-name="uni25B3" unicode="&#x25b3;" horiz-adv-x="1000" 
d="M98 32l402 658l403 -658h-805zM754 118l-254 416l-254 -416h508z" />
    <glyph glyph-name="uni25B6" unicode="&#x25b6;" horiz-adv-x="1000" 
d="M191 -39v804l658 -402z" />
    <glyph glyph-name="uni25B7" unicode="&#x25b7;" horiz-adv-x="1000" 
d="M191 772l658 -401l-658 -403v804zM692 371l-416 253v-508z" />
    <glyph glyph-name="triagdn" unicode="&#x25bc;" horiz-adv-x="1000" 
d="M98 690h805l-402 -658z" />
    <glyph glyph-name="uni25BD" unicode="&#x25bd;" horiz-adv-x="1000" 
d="M500 32l-402 658h805zM500 189l254 416h-508z" />
    <glyph glyph-name="uni25C0" unicode="&#x25c0;" horiz-adv-x="1000" 
d="M809 765v-804l-658 402z" />
    <glyph glyph-name="uni25C1" unicode="&#x25c1;" horiz-adv-x="1000" 
d="M151 371l658 401v-804zM724 116v508l-416 -253z" />
    <glyph glyph-name="uni25C6" unicode="&#x25c6;" horiz-adv-x="1000" 
d="M939 363l-439 -439l-438 439l438 439z" />
    <glyph glyph-name="uni25C7" unicode="&#x25c7;" horiz-adv-x="1000" 
d="M939 363l-439 -439l-438 439l438 439zM500 46l318 317l-318 318l-317 -318z" />
    <glyph glyph-name="uni25C8" unicode="&#x25c8;" horiz-adv-x="1000" 
d="M325 363l175 174l174 -174l-174 -174zM500 802l439 -439l-439 -439l-438 439zM500 46l317 317l-317 318l-318 -318z" />
    <glyph glyph-name="circle" unicode="&#x25cb;" horiz-adv-x="1000" 
d="M639.5 119.5q63.5 37.5 101 101t37.5 139.5t-37.5 139.5t-101 101t-139.5 37.5t-139.5 -37.5t-101 -101t-37.5 -139.5t37.5 -139.5t101 -101t139.5 -37.5t139.5 37.5zM182.5 544q49.5 84 133.5 133.5t184 49.5t184 -49.5t133.5 -133.5t49.5 -184t-49.5 -184
t-133.5 -133.5t-184 -49.5t-184 49.5t-133.5 133.5t-49.5 184t49.5 184z" />
    <glyph glyph-name="uni25CE" unicode="&#x25ce;" horiz-adv-x="1000" 
d="M639.5 119.5q63.5 37.5 101 101t37.5 139.5t-37.5 139.5t-101 101t-139.5 37.5t-140 -37.5t-101 -101t-37 -139.5t37 -139.5t101 -101t140 -37.5t139.5 37.5zM182.5 544q49.5 84 133.5 133.5t184 49.5t184 -49.5t133.5 -133.5t49.5 -184t-49.5 -184t-133.5 -133.5
t-184 -49.5t-184 49.5t-133.5 133.5t-49.5 184t49.5 184zM340.5 452.5q24.5 42.5 67 67t92.5 24.5t92.5 -24.5t67 -67t24.5 -92.5t-24.5 -92.5t-67 -67t-92.5 -24.5t-92.5 24.5t-67 67t-24.5 92.5t24.5 92.5zM415 275q35 -35 85 -35t85 35.5t35 84.5q0 50 -35.5 85.5
t-84.5 35.5q-50 0 -85 -35.5t-35 -85.5t35 -85z" />
    <glyph glyph-name="uni25CF" unicode="&#x25cf;" horiz-adv-x="1000" 
d="M316 42.5q-84 49.5 -133.5 133.5t-49.5 184t49.5 184t133.5 133.5t184 49.5t184 -49.5t133.5 -133.5t49.5 -184t-49.5 -184t-133.5 -133.5t-184 -49.5t-184 49.5z" />
    <glyph glyph-name="uni25D0" unicode="&#x25d0;" horiz-adv-x="1000" 
d="M639.5 119.5q63.5 37.5 101 101t37.5 139.5t-37.5 139.5t-101 101t-139.5 37.5v-556q76 0 139.5 37.5zM182.5 544q49.5 84 133.5 133.5t184 49.5t184 -49.5t133.5 -133.5t49.5 -184t-49.5 -184t-133.5 -133.5t-184 -49.5t-184 49.5t-133.5 133.5t-49.5 184t49.5 184z" />
    <glyph glyph-name="uni25D1" unicode="&#x25d1;" horiz-adv-x="1000" 
d="M360.5 600.5q-63.5 -37.5 -101 -101t-37.5 -139.5t37.5 -139.5t101 -101t139.5 -37.5v556q-76 0 -139.5 -37.5zM182.5 544q49.5 84 133.5 133.5t184 49.5t184 -49.5t133.5 -133.5t49.5 -184t-49.5 -184t-133.5 -133.5t-184 -49.5t-184 49.5t-133.5 133.5t-49.5 184
t49.5 184z" />
    <glyph glyph-name="uni2605" unicode="&#x2605;" horiz-adv-x="1000" 
d="M612 485l312 -25l-242 -191l80 -316l-261 174l-262 -174l80 316l-242 191l312 25l112 291z" />
    <glyph glyph-name="uni2606" unicode="&#x2606;" horiz-adv-x="1000" 
d="M436 420l-181 -14l141 -111l-48 -190l153 103l152 -102l-48 189l141 111l-181 14l-64 168zM387 486l114 296l113 -296l315 -25l-245 -193l81 -321l-264 177l-265 -177l81 321l-245 193z" />
    <glyph glyph-name="uni260E" unicode="&#x260e;" horiz-adv-x="1000" 
d="M596 -17q63 -35 99 -35q16 0 26.5 5.5t18.5 12.5t11 9l77 65q44 37 44 64q0 11 -5.5 20t-12.5 16l-10 10l-75 76q-38 39 -68 39q-22 0 -41 -21l-44 -45q-65 65 -107 116l-16 18q-35 44 -53 69.5t-52 79.5l52 32q14 9 22 20t8 27q0 28 -24 65l-58 88q-2 3 -10 14.5
t-17.5 18t-20.5 6.5q-25 0 -64 -31l-80 -61q-2 -2 -14 -12t-18 -24.5t-6 -34.5q0 -32 14 -84q18 -68 69 -144t106 -147q147 -176 249 -232z" />
    <glyph glyph-name="uni260F" unicode="&#x260f;" horiz-adv-x="1000" 
d="M226 347q-55 82 -74 153q-14 53 -14 90q0 34 10 50.5t21 25t14 11.5l80 61q46 36 78 36q21 0 34.5 -12t20.5 -22.5l9 -13.5l58 -89q27 -40 27 -75q0 -42 -39 -66l-34 -21q29 -44 46 -67.5t47 -60.5q5 -7 31 -38t75 -80l28 29q25 27 57 27q40 0 83 -44l75 -76
q2 -2 12 -12.5t16 -23t6 -25.5q0 -38 -52 -80l-77 -66q-3 -2 -13.5 -11t-24 -14.5t-29.5 -5.5q-43 0 -112 38q-106 58 -254 237q-50 63 -105 145zM286.5 381q50.5 -75 98.5 -135q53 -64 112.5 -125t120.5 -95q7 -4 26 -14t28.5 -13.5t15.5 -3.5q7 0 14.5 4.5t16.5 12.5
l77 65q11 8 17 14.5t6 10.5q0 5 -10 15l-75 75q-11 12 -19 18.5t-11 6.5q-4 0 -10 -7l-77 -80q-83 82 -113 116.5t-35 40.5l-13 16q-30 37 -54.5 72t-81.5 122l94 58q1 1 5.5 4t4.5 6q0 5 -8 17t-11 17l-58 88q-4 6 -7.5 10t-6.5 4t-10 -5t-17 -13l-80 -61
q-13 -11 -18 -17.5t-5 -15.5q0 -11 7 -36.5t9 -34.5q17 -62 67.5 -137z" />
    <glyph glyph-name="uni261C" unicode="&#x261c;" horiz-adv-x="1000" 
d="M305 51q-24 24 -24 57q0 21 10 39q-17 11 -27 29t-10 38t11 39q-16 11 -25.5 29t-9.5 38q0 13 4 24h-93q-40 0 -66 21.5t-26 57.5q0 37 26.5 59t65.5 22h298l-41 40q-26 26 -26 64q0 18 6.5 34.5t19.5 29.5q27 27 64 27q39 0 64 -27l100 -100q29 -29 66 -44t78 -15h103
q32 0 55.5 -23.5t23.5 -54.5v-238q0 -27 -15 -50t-39 -35l-69 -31q-129 -54 -262 -54h-201q-37 0 -61 24zM109.5 408.5q1.5 -3.5 9.5 -4.5t22 -1h252v-59h-78q-15 0 -21 -5.5t-6 -18.5t6 -18.5t21 -5.5h112v-59h-83q-32 0 -32 -23q0 -12 6.5 -17.5t20.5 -5.5h136v-58h-109
q-15 0 -21 -5.5t-6 -19.5q0 -12 6 -17.5t21 -5.5h13v1h188q123 0 239 49l67 30q13 6 16.5 12t3.5 20v238q0 13 -3.5 16t-16.5 3h-103q-52 0 -100.5 20t-84.5 57l-101 100q-14 14 -22 14q-5 0 -10.5 -4t-12.5 -10q-13 -15 -13 -23q0 -7 13 -22l144 -141h-442q-23 0 -28 -3
t-5 -19q0 -11 1.5 -14.5z" />
    <glyph glyph-name="uni261D" unicode="&#x261d;" horiz-adv-x="1000" 
d="M461 471v251q0 17 -1 23.5t-5 8t-15 1.5t-15 -1.5t-5 -8t-1 -23.5v-442l-141 144q-12 13 -22 13t-23 -13q-14 -16 -14 -24q0 -7 13 -22l100 -100q37 -36 57.5 -84t20.5 -101v-103q0 -14 2.5 -17t16.5 -3h238q13 0 19 4t12 16l30 67q50 120 50 239v188h1v13q0 15 -5.5 21
t-17.5 6q-14 0 -19.5 -6t-5.5 -21v-109h-58v136q0 14 -5.5 20.5t-17.5 6.5t-17.5 -7.5t-5.5 -24.5v-83h-59v112q0 15 -5.5 21t-18.5 6q-14 0 -19 -5.5t-5 -21.5v-77h-59zM165 401q0 36 26 64q26 26 65 26t64 -26l40 -41v298q0 39 21.5 65.5t58.5 26.5t58.5 -26.5t21.5 -65.5
v-93q11 4 24 4q20 0 37.5 -9.5t29.5 -25.5q17 11 39 11q20 0 38 -10t29 -27q18 10 39 10q33 0 57 -24t24 -61v-201q0 -131 -55 -262l-31 -69q-11 -24 -34 -39t-50 -15h-238q-32 0 -55 23.5t-23 55.5v103q0 41 -15.5 78t-44.5 66l-100 100q-26 28 -26 64z" />
    <glyph glyph-name="uni261E" unicode="&#x261e;" horiz-adv-x="1000" 
d="M608 403h252q14 0 22 1t9.5 4.5t1.5 14.5q0 16 -5 19t-28 3h-442l144 141q13 13 13 22q0 10 -13 23q-14 14 -23 14q-8 0 -22 -14l-101 -100q-36 -37 -84.5 -57t-100.5 -20h-103q-13 0 -16.5 -3t-3.5 -16v-238q0 -14 3.5 -20t16.5 -12l67 -30q116 -49 239 -49h188v-1h13
q15 0 21 5.5t6 17.5q0 14 -6 19.5t-21 5.5h-109v58h136q14 0 20.5 5.5t6.5 17.5q0 23 -32 23h-83v59h112q15 0 21 5.5t6 18.5t-6 18.5t-21 5.5h-78v59zM49 435q0 31 23.5 54.5t55.5 23.5h103q41 0 78 15t66 44l100 100q27 27 64 27t64 -27q26 -25 26 -64t-26 -64l-41 -40
h298q39 0 65.5 -22t26.5 -59q0 -36 -26 -57.5t-66 -21.5h-93q4 -11 4 -24q0 -20 -9.5 -38t-25.5 -29q11 -19 11 -39t-10 -38t-27 -29q10 -18 10 -39q0 -33 -24 -57t-61 -24h-201q-133 0 -262 54l-69 31q-24 12 -39 35t-15 50v238z" />
    <glyph glyph-name="uni261F" unicode="&#x261f;" horiz-adv-x="1000" 
d="M813 167q-24 -24 -57 -24q-21 0 -39 10q-11 -17 -29 -27t-38 -10q-22 0 -39 11q-12 -16 -29.5 -25.5t-37.5 -9.5q-13 0 -24 4v-93q0 -39 -21.5 -65.5t-58.5 -26.5t-58.5 26.5t-21.5 65.5v298l-40 -41q-13 -13 -29.5 -19.5t-34.5 -6.5q-37 0 -65 26q-26 28 -26 64
q0 38 26 64l100 100q29 29 44.5 66t15.5 78v103q0 32 23 55.5t55 23.5h238q27 0 50 -15t34 -39l31 -69q55 -131 55 -262v-201q0 -37 -24 -61zM219 325q0 -8 14 -24q15 -13 23 -13q9 0 22 13l141 144v-442q0 -17 1 -23.5t5 -8t15 -1.5t15 1.5t5 8t1 23.5v251h59v-77
q0 -16 5 -21.5t19 -5.5q13 0 18.5 6t5.5 21v112h59v-83q0 -17 5.5 -24.5t17.5 -7.5t17.5 6.5t5.5 20.5v136h58v-109q0 -15 5.5 -21t19.5 -6q12 0 17.5 6t5.5 21v45h-1v156q0 119 -50 239l-30 67q-6 12 -12 16t-19 4h-238q-14 0 -16.5 -3t-2.5 -17v-103q0 -53 -20.5 -101
t-57.5 -84l-100 -100q-13 -15 -13 -22z" />
    <glyph glyph-name="spade" unicode="&#x2660;" horiz-adv-x="1000" 
d="M216.5 151.5q-51.5 47.5 -67.5 117.5q-6 32 -6 66q0 32 7 63q22 77 81 141q45 54 98 102t152 129l20 16q28 -26 99 -87q63 -54 104.5 -92t65.5 -68q61 -67 81 -141q8 -28 8 -62q0 -28 -7 -67q-15 -70 -67 -117.5t-125 -47.5q-72 0 -125 58l12 -199h-91l12 199
q-51 -58 -127 -58q-73 0 -124.5 47.5z" />
    <glyph glyph-name="uni2661" unicode="&#x2661;" horiz-adv-x="1000" 
d="M808 368.5q18 31.5 27 64.5q8 30 8 54q0 21 -7 58q-14 61 -52 94.5t-101 33.5q-29 0 -51.5 -13.5t-41 -35t-47.5 -63.5l-44 -59q-8 11 -17 24.5t-20 27.5q-42 63 -72 91t-73 28q-123 0 -154 -129q-6 -28 -6 -55q0 -28 7 -56q10 -35 27.5 -66t49.5 -66
q46 -52 101.5 -100.5t155.5 -129.5l78 66q68 56 112 95t70 69q32 36 50 67.5zM173 690q60 53 144 53q58 0 101.5 -33.5t81.5 -87.5q39 55 82 88t101 33q56 0 102.5 -25t77 -67t41.5 -92q8 -37 8 -72q0 -36 -10 -72q-22 -82 -91 -160q-28 -32 -72.5 -71.5t-119.5 -102.5
q-60 -49 -119 -101l-26 21q-109 88 -171 142t-114 112q-67 75 -92 160q-9 39 -9 74q0 30 7 70q18 78 78 131z" />
    <glyph glyph-name="club" unicode="&#x2663;" horiz-adv-x="1000" 
d="M231.5 135.5q-38.5 22.5 -61 60.5t-22.5 84q0 45 22.5 83.5t61 61t84.5 22.5q18 0 33.5 -2.5t34.5 -6.5q-25 26 -39 59t-14 68q0 46 23 84.5t61.5 61.5t84.5 23t85 -23t61.5 -61.5t22.5 -84.5q0 -35 -14 -68t-38 -59q4 1 25 5t43 4q45 0 84 -22.5t61.5 -61t22.5 -83.5
q0 -46 -22.5 -84t-61.5 -60.5t-84 -22.5t-87 22.5t-65 57.5h-3l15 -240h-91l15 240h-2q-22 -36 -64 -58t-87 -22q-46 0 -84.5 22.5z" />
    <glyph glyph-name="heart" unicode="&#x2665;" horiz-adv-x="1000" 
d="M737.5 183.5q-45.5 -40.5 -116.5 -99.5q-113 -97 -121 -104l-36 29q-104 83 -164.5 136t-111.5 111q-65 73 -92 158q-8 35 -8 75q0 37 6 70q19 78 79 131t144 53q57 0 101 -33.5t82 -87.5q40 56 81 88.5t101 32.5q57 0 103.5 -25t77 -67t42.5 -92q7 -40 7 -72
q0 -35 -9 -73q-25 -83 -92 -158q-28 -32 -73.5 -72.5z" />
    <glyph glyph-name="uni2669" unicode="&#x2669;" horiz-adv-x="540" 
d="M323.5 74.5q23.5 18.5 23.5 47.5q0 30 -19.5 48t-49.5 18q-39 0 -63 -21t-21 -53q4 -26 22.5 -42t46.5 -16q37 0 60.5 18.5zM145.5 225.5q41.5 41.5 108.5 48.5l13 1q20 0 41.5 -5t39.5 -15v496h88v-617q0 -65 -42 -111.5t-108 -53.5q-9 -1 -25 -1q-70 0 -113.5 42.5
t-43.5 113.5q0 60 41.5 101.5z" />
    <glyph glyph-name="musicalnote" unicode="&#x266a;" horiz-adv-x="723" 
d="M245 -32q-70 0 -114 42.5t-44 112.5q0 60 41 102t109 49l13 1q20 0 41.5 -5t39.5 -15v496h89q0 -42 6.5 -66.5t29 -49t72.5 -53.5q147 -84 147 -200h-88q0 28 -18.5 57t-84.5 67q-36 21 -65 45v-417q0 -65 -42 -111.5t-107 -53.5q-8 -1 -25 -1zM199.5 72
q18.5 -16 46.5 -16q36 0 60 18.5t24 46.5q0 30 -19.5 48.5t-49.5 18.5q-39 0 -62.5 -21t-21.5 -53q4 -26 22.5 -42z" />
    <glyph glyph-name="uni266C" unicode="&#x266c;" horiz-adv-x="932" 
d="M650 45q-70 0 -114 42.5t-44 112.5q0 60 41 102t109 49l13 1q45 0 82 -20v397l-1 -1l-331 -100v-494q0 -65 -42 -111.5t-108 -53.5q-8 -1 -25 -1q-70 0 -114 42.5t-44 112.5q0 60 41 102t109 49l13 1q45 0 82 -20v439l-1 1l440 132h69v-617q0 -65 -42.5 -111t-107.5 -53
q-8 -1 -25 -1zM185 72q19 -16 46 -16q38 0 61 19.5t23 48.5q0 28 -19.5 46t-49.5 18q-40 0 -63 -21t-21 -53q4 -26 23 -42zM605.5 148q19.5 -16 47.5 -16q37 0 59.5 19t22.5 49t-20 47.5t-51 17.5q-38 0 -61 -21t-21 -54q4 -26 23.5 -42z" />
    <glyph glyph-name="uni26A0" unicode="&#x26a0;" horiz-adv-x="1084" 
d="M150 578q61 104 165 165t227 61t227 -61t165 -165t61 -227q0 -122 -61 -226t-165 -165t-227 -61t-227 61t-165 165t-61 226q0 123 61 227zM230.5 171.5q48.5 -82.5 131.5 -131.5t180 -49t180 49t131.5 131.5t48.5 179.5t-48.5 180t-131.5 131.5t-180 48.5t-180 -48.5
t-131.5 -131.5t-48.5 -180t48.5 -179.5zM599 625l-13 -383h-88l-12 383h113zM503.5 165q15.5 16 40.5 16q24 0 40 -16t16 -40q0 -25 -16 -41t-40 -16q-25 0 -40.5 16t-15.5 41q0 24 15.5 40z" />
    <glyph glyph-name="uni2713" unicode="&#x2713;" horiz-adv-x="904" 
d="M329 9l-287 352l79 63l206 -247l414 544l82 -63z" />
    <glyph glyph-name="uni3008" unicode="&#x3008;" horiz-adv-x="536" 
d="M215 359l248 -414h-107l-250 414l254 413h108z" />
    <glyph glyph-name="uni3009" unicode="&#x3009;" horiz-adv-x="536" 
d="M176 772l254 -413l-250 -414h-107l248 414l-253 413h108z" />
    <glyph glyph-name="uni300A" unicode="&#x300a;" horiz-adv-x="645" 
d="M203 356l185 -414h-95l-185 414l188 414h94zM480 770h95l-187 -414l184 -414h-95l-184 414z" />
    <glyph glyph-name="uni300B" unicode="&#x300b;" horiz-adv-x="645" 
d="M350 770l187 -414l-184 -414h-96l185 414l-187 414h95zM165 770l187 -414l-184 -414h-95l185 414l-188 414h95z" />
    <glyph glyph-name="uni300C" unicode="&#x300c;" horiz-adv-x="401" 
d="M335 682h-143v-215h-88v304h231v-89z" />
    <glyph glyph-name="uni300D" unicode="&#x300d;" horiz-adv-x="401" 
d="M66 30h143v216h88v-305h-231v89z" />
    <glyph glyph-name="uni300E" unicode="&#x300e;" horiz-adv-x="402" 
d="M336 663h-126v-208h-106v312h232v-104zM170 491v211h130v26h-156v-237h26z" />
    <glyph glyph-name="uni300F" unicode="&#x300f;" horiz-adv-x="402" 
d="M66 42h125v207h107v-312h-232v105zM258 -23v236h-26v-211h-130v-25h156z" />
    <glyph glyph-name="uni3010" unicode="&#x3010;" horiz-adv-x="338" 
d="M212.5 570.5q-23.5 -115.5 -23.5 -212.5t23.5 -212.5t61.5 -201.5h-172v828h172q-38 -86 -61.5 -201.5z" />
    <glyph glyph-name="uni3011" unicode="&#x3011;" horiz-adv-x="338" 
d="M236 772v-828h-172q38 86 61.5 201.5t23.5 212.5t-23.5 212.5t-61.5 201.5h172z" />
    <glyph glyph-name="uni3014" unicode="&#x3014;" horiz-adv-x="398" 
d="M195 631v-557l138 -55l-35 -88l-195 77v688l195 77l35 -88z" />
    <glyph glyph-name="uni3015" unicode="&#x3015;" horiz-adv-x="398" 
d="M100 773l195 -77v-688l-195 -77l-35 88l137 55v557l-137 54z" />
    <glyph glyph-name="uni3131" unicode="&#x3131;" 
d="M716 602v-472h-106v386h-452v86h558z" />
    <glyph glyph-name="uni3132" unicode="&#x3132;" 
d="M427 602v-472h-105v386h-213v86h318zM472 603h308v-472h-106v385h-202v87z" />
    <glyph glyph-name="uni3133" unicode="&#x3133;" 
d="M401 600v-399q79 32 116.5 98t37.5 149v161h102v-161q0 -84 38.5 -151t119.5 -98l-55 -77q-108 44 -154 156q-45 -112 -155 -156l-50 70v-62h-107v384h-186v86h293z" />
    <glyph glyph-name="uni3134" unicode="&#x3134;" 
d="M268 603v-375h461v-87h-568v462h107z" />
    <glyph glyph-name="uni3135" unicode="&#x3135;" 
d="M231 605v-398q93 2 163 21l3 -25q69 38 100.5 108.5t31.5 157.5v46h-124v86h351v-86h-125v-46q0 -93 37.5 -167.5t119.5 -108.5l-60 -78q-105 48 -148 165q-44 -117 -145 -165l-32 42l2 -15q-53 -14 -105.5 -18t-128.5 -4h-47v485h107z" />
    <glyph glyph-name="uni3136" unicode="&#x3136;" 
d="M228 590v-377q90 2 165 21l11 -85q-52 -14 -103 -18t-132 -4h-47v463h106zM392 535h138v81h103v-81h127v-87h-368v87zM441.5 344q20.5 36 56 56.5t79.5 20.5t79.5 -20.5t56 -56.5t20.5 -81q0 -46 -20.5 -82t-56 -56t-79.5 -20t-79.5 20t-56 56t-20.5 82q0 45 20.5 81z
M529.5 208q18.5 -20 47.5 -20q30 0 48 20t18 55q0 34 -18 54t-48 20q-29 0 -47.5 -20t-18.5 -54q0 -35 18.5 -55z" />
    <glyph glyph-name="uni3137" unicode="&#x3137;" 
d="M712 605v-85h-441v-303h450v-86h-557v474h548z" />
    <glyph glyph-name="uni3138" unicode="&#x3138;" 
d="M416 605v-85h-180v-291q107 3 183 20l10 -88q-59 -13 -114.5 -17t-135.5 -4h-50v465h287zM462 605h285v-85h-179v-294h183v-86h-289v465z" />
    <glyph glyph-name="uni3139" unicode="&#x3139;" 
d="M715 615v-282h-457v-117h472v-88h-575v290h458v113h-460v84h562z" />
    <glyph glyph-name="uni313A" unicode="&#x313a;" 
d="M419 609v-279h-193v-114q134 2 237 22l10 -86q-70 -14 -135 -18t-162 -4h-56v285h193v109h-195v85h301zM451 609h303v-477h-106v392h-197v85z" />
    <glyph glyph-name="uni313B" unicode="&#x313b;" 
d="M414 609v-280h-190v-113q114 2 205 19l9 -85q-65 -12 -124 -16t-144 -4h-52v285h191v107h-193v87h298zM459 610h313v-478h-313v478zM677 217v307h-123v-307h123z" />
    <glyph glyph-name="uni313C" unicode="&#x313c;" 
d="M414 609v-280h-190v-114q114 3 206 21l10 -85q-64 -14 -123 -18t-147 -4h-52v286h191v107h-193v87h298zM456 610h100v-149h116v149h100v-481h-316v481zM672 217v156h-116v-156h116z" />
    <glyph glyph-name="uni313D" unicode="&#x313d;" 
d="M414 609v-280h-192v-113q60 2 109 7t98 16l3 -24q66 34 98 97.5t32 139.5v161h101v-161q0 -83 37.5 -150t115.5 -98l-57 -77q-103 44 -147 153q-44 -109 -146 -153l-27 37l1 -11q-64 -14 -124.5 -18.5t-146.5 -4.5h-52v285h190v107h-192v87h299z" />
    <glyph glyph-name="uni313E" unicode="&#x313e;" 
d="M415 609v-280h-191v-112q60 2 109 7t98 16l10 -85q-63 -15 -123.5 -19.5t-146.5 -4.5h-53v284h191v107h-192v87h298zM464 609h302v-86h-196v-108h185v-86h-185v-113h202v-86h-308v479z" />
    <glyph glyph-name="uni313F" unicode="&#x313f;" 
d="M406 609v-280h-181v-113q118 3 200 23l11 -87q-62 -13 -122 -17.5t-144 -4.5h-51v285h181v107h-183v87h289zM443 216h47v306h-45v86h340v-86h-46v-306h49v-86h-345v86zM646 216v306h-62v-306h62z" />
    <glyph glyph-name="uni3140" unicode="&#x3140;" 
d="M396 609v-273h-166v-120q112 3 194 22l11 -87q-61 -13 -118.5 -17t-141.5 -4h-51v288h166v109h-168v82h274zM433 548h131v86h103v-86h123v-87h-357v87zM475.5 358q20.5 35 56.5 55t80 20t79 -20t55.5 -55t20.5 -80t-20.5 -81t-55.5 -56t-79 -20t-80 20t-56.5 56t-20.5 81
t20.5 80zM563.5 224.5q18.5 -19.5 48.5 -19.5q29 0 47.5 19.5t18.5 53.5q0 33 -18.5 52.5t-47.5 19.5q-30 0 -48.5 -19.5t-18.5 -52.5q0 -34 18.5 -53.5z" />
    <glyph glyph-name="uni3141" unicode="&#x3141;" 
d="M721 603v-468h-561v468h561zM614 222v294h-347v-294h347z" />
    <glyph glyph-name="uni3142" unicode="&#x3142;" 
d="M267 615v-148h344v148h107v-486h-557v486h106zM611 223v148h-344v-148h344z" />
    <glyph glyph-name="uni3143" unicode="&#x3143;" 
d="M231 608v-149h100v149h98v-477h-297v477h99zM331 218v155h-100v-155h100zM461 608h98v-148h101v148h99v-477h-298v477zM660 218v155h-101v-155h101z" />
    <glyph glyph-name="uni3144" unicode="&#x3144;" 
d="M671 609v-161q0 -84 39 -151t120 -98l-55 -77q-108 43 -154 157q-48 -114 -155 -157l-36 50v-41h-296v477h98v-149h100v149h98v-401q72 34 105.5 98t33.5 143v161h102zM332 218v155h-100v-155h100z" />
    <glyph glyph-name="uni3145" unicode="&#x3145;" 
d="M494 621v-137q0 -104 69.5 -179.5t196.5 -102.5l-52 -86q-95 24 -163 74t-105 123q-37 -73 -105 -123t-163 -74l-52 86q127 27 196.5 102.5t69.5 179.5v137h108z" />
    <glyph glyph-name="uni3146" unicode="&#x3146;" 
d="M340 595v-87q0 -71 26 -140t81 -116q55 47 82 116t27 140v87h108v-85q0 -92 38.5 -168t123.5 -114l-60 -78q-113 53 -159 185q-21 -66 -61 -117.5t-100 -80.5q-59 29 -98 81.5t-61 119.5q-46 -134 -158 -190l-60 79q84 39 123.5 117t39.5 166v85h108z" />
    <glyph glyph-name="uni3147" unicode="&#x3147;" 
d="M578.5 587q64.5 -32 102 -89t37.5 -127q0 -71 -37.5 -128t-102 -89.5t-141.5 -32.5t-141 32.5t-101.5 89.5t-37.5 128q0 70 37.5 126.5t101.5 89t141 32.5t141.5 -32zM282.5 288.5q23.5 -36.5 64.5 -56.5t90 -20q50 0 90.5 20t64 56t23.5 83q0 45 -23.5 80.5t-64 55.5
t-90.5 20q-49 0 -90 -20t-64.5 -55.5t-23.5 -80.5q0 -46 23.5 -82.5z" />
    <glyph glyph-name="uni3148" unicode="&#x3148;" 
d="M723 614v-85h-227v-40q0 -104 66 -180t186 -106l-51 -82q-91 25 -156 77.5t-99 126.5q-34 -74 -99 -126.5t-156 -77.5l-50 82q120 30 185.5 106t65.5 180v40h-224v85h559z" />
    <glyph glyph-name="uni3149" unicode="&#x3149;" 
d="M428 619v-86h-98v-12q0 -105 27 -177.5t90 -110.5q63 38 90.5 110.5t27.5 177.5v12h-101v86h325v-86h-119v-12q0 -103 38 -185t125 -122l-64 -84q-98 47 -146 162q-23 -63 -65.5 -106.5t-109.5 -69.5h-1v0q-67 26 -110 70t-65 107q-49 -115 -149 -163l-64 84
q87 39 126 121.5t39 185.5v12h-119v86h323z" />
    <glyph glyph-name="uni314A" unicode="&#x314a;" 
d="M384 537v131h108v-131h229v-88h-220v-17q0 -90 63.5 -155t183.5 -88l-49 -84q-96 22 -163 70.5t-98 119.5q-32 -71 -98.5 -119.5t-162.5 -70.5l-50 84q120 23 183.5 88t63.5 155v17h-218v88h228z" />
    <glyph glyph-name="uni314B" unicode="&#x314b;" 
d="M723 616v-494h-107v195l-454 -30l-13 94l467 20v129h-445v86h552z" />
    <glyph glyph-name="uni314C" unicode="&#x314c;" 
d="M718 607v-85h-450v-106h443v-87h-443v-113h458v-86h-566v477h558z" />
    <glyph glyph-name="uni314D" unicode="&#x314d;" 
d="M729 607v-86h-99v-311h111v-86h-601v86h112v311h-100v86h577zM523 210v311h-164v-311h164z" />
    <glyph glyph-name="uni314E" unicode="&#x314e;" 
d="M388 563v113h108v-113h238v-89h-588v89h242zM244.5 339.5q29.5 38.5 81 60t116.5 21.5q64 0 115.5 -21.5t81 -60t29.5 -87.5q0 -48 -29.5 -86.5t-81 -60t-115.5 -21.5q-65 0 -116.5 21.5t-81 60t-29.5 86.5q0 49 29.5 87.5zM357.5 195q32.5 -21 84.5 -21q51 0 83.5 21
t32.5 57q0 37 -32.5 58t-83.5 21q-52 0 -84.5 -21t-32.5 -58q0 -36 32.5 -57z" />
    <glyph glyph-name="uni314F" unicode="&#x314f;" 
d="M466 798v-346h192v-89h-192v-442h-108v877h108z" />
    <glyph glyph-name="uni3150" unicode="&#x3150;" 
d="M612 801v-878h-102v449h-130v-416h-101v830h101v-327h130v342h102z" />
    <glyph glyph-name="uni3151" unicode="&#x3151;" 
d="M440 799v-238h188v-88h-188v-158h188v-89h-188v-304h-107v877h107z" />
    <glyph glyph-name="uni3152" unicode="&#x3152;" 
d="M607 797v-877h-102v320h-126v-287h-100v833h100v-209h126v220h102zM505 328v160h-126v-160h126z" />
    <glyph glyph-name="uni3153" unicode="&#x3153;" 
d="M579 799v-877h-108v449h-195v90h195v338h108z" />
    <glyph glyph-name="uni3154" unicode="&#x3154;" 
d="M642 799v-878h-103v878h103zM213 461h143v323h101v-833h-101v421h-143v89z" />
    <glyph glyph-name="uni3155" unicode="&#x3155;" 
d="M581 798v-877h-107v319h-199v89h199v155h-199v89h199v225h107z" />
    <glyph glyph-name="uni3156" unicode="&#x3156;" 
d="M356 572v211h101v-832h-101v293h-151v88h151v151h-149v89h149zM535 798h103v-878h-103v878z" />
    <glyph glyph-name="uni3157" unicode="&#x3157;" 
d="M382 270v353h107v-353h348v-87h-801v87h346z" />
    <glyph glyph-name="uni3158" unicode="&#x3158;" 
d="M364 525v-298q129 7 212 17l9 -77q-209 -36 -537 -36l-13 89q103 0 223 3v302h106zM619 797h107v-347h122v-90h-122v-439h-107v876z" />
    <glyph glyph-name="uni3159" unicode="&#x3159;" 
d="M323 527v-278q102 5 163 14l8 -78q-159 -30 -441 -30l-10 88q114 0 181 2v282h99zM525 787h99v-340h80v352h103v-877h-103v437h-80v-405h-99v833z" />
    <glyph glyph-name="uni315A" unicode="&#x315a;" 
d="M410 518v-272q118 7 212 19l8 -80q-206 -34 -541 -34l-13 88q147 0 228 3v276h106zM670 801h108v-878h-108v878z" />
    <glyph glyph-name="uni315B" unicode="&#x315b;" 
d="M231 244v374h107v-374h206v374h107v-374h190v-87h-801v87h191z" />
    <glyph glyph-name="uni315C" unicode="&#x315c;" 
d="M841 511v-89h-347v-370h-108v370h-346v89h801z" />
    <glyph glyph-name="uni315D" unicode="&#x315d;" 
d="M805 800v-878h-108v247h-194v83h194v548h108zM366.5 425.5q138.5 4.5 264.5 19.5l7 -78q-107 -16 -252 -26v-352h-108v347q-100 -4 -212 -4l-14 88q176 1 314.5 5.5z" />
    <glyph glyph-name="uni315E" unicode="&#x315e;" 
d="M819 801v-877h-102v877h102zM283 418.5q124 5.5 217 17.5l8 -74q-84 -14 -177 -20v-355h-102v348q-105 -5 -172 -5l-10 83q112 0 236 5.5zM400 254h145v528h100v-833h-100v221h-145v84z" />
    <glyph glyph-name="uni315F" unicode="&#x315f;" 
d="M799 797v-876h-107v876h107zM646 429l7 -78q-115 -16 -235 -24v-339h-107v334q-133 -5 -227 -5l-14 88q361 0 576 24z" />
    <glyph glyph-name="uni3160" unicode="&#x3160;" 
d="M837 512v-87h-200v-371h-108v371h-190v-371h-107v371h-196v87h801z" />
    <glyph glyph-name="uni3161" unicode="&#x3161;" 
d="M837 425v-88h-801v88h801z" />
    <glyph glyph-name="uni3162" unicode="&#x3162;" 
d="M787 793v-877h-108v877h108zM373.5 282.5q131.5 4.5 253.5 19.5l6 -78q-128 -20 -265.5 -26.5t-296.5 -6.5l-12 86q183 1 314.5 5.5z" />
    <glyph glyph-name="uni3163" unicode="&#x3163;" 
d="M495 800v-877h-108v877h108z" />
    <glyph glyph-name="uni321C" unicode="&#x321c;" horiz-adv-x="1326" 
d="M113.5 135q-31.5 105 -31.5 216t31.5 216t91.5 198h110q-67 -92 -103 -197t-36 -217t36 -217t103 -197h-110q-60 93 -91.5 198zM300 311h722v-84h-318v-306h-92v306h-312v84zM473.5 499q60.5 33 96 79.5t38.5 97.5h-243v82h589v-82h-240q3 -51 38 -97.5t95.5 -79.5
t136.5 -44l-35 -82q-100 17 -176 67.5t-112 123.5q-36 -73 -112 -123.5t-175 -67.5l-36 82q75 11 135.5 44zM1114.5 133q35.5 105 35.5 218t-35.5 218t-102.5 196h110q59 -93 90.5 -197.5t31.5 -216.5t-31.5 -216.5t-90.5 -197.5h-110q67 91 102.5 196z" />
    <glyph glyph-name="uni327C" unicode="&#x327c;" horiz-adv-x="1084" 
d="M150 568q61 104 165 165t227 61t227 -61t165 -165t61 -227q0 -122 -61 -226t-165 -165t-227 -61t-227 61t-165 165t-61 226q0 123 61 227zM230.5 161.5q48.5 -82.5 131.5 -131.5t180 -49t180 49t131.5 131.5t48.5 179.5t-48.5 180t-131.5 131.5t-180 48.5t-180 -48.5
t-131.5 -131.5t-48.5 -180t48.5 -179.5zM440.5 590q48.5 35 104.5 35q76 0 124.5 -46t48.5 -119q0 -43 -23 -83t-76 -80q-25 -18 -31.5 -32t-6.5 -51l-96 -1q0 56 18 94t59 68q37 27 48.5 45t11.5 41q0 30 -21.5 49t-55.5 19q-27 0 -50 -17.5t-33 -44.5l-90 33
q20 55 68.5 90zM494.5 151q15.5 15 38.5 15t38 -15t15 -38q0 -24 -15 -39t-38 -15t-38.5 15t-15.5 39q0 23 15.5 38z" />
    <glyph glyph-name="uniAC00" unicode="&#xac00;" 
d="M725 810v-349h132v-89h-132v-451h-108v889h108zM279.5 360.5q87.5 115.5 103.5 268.5h-306v87h415q0 -435 -400 -635l-61 82q161 82 248.5 197.5z" />
    <glyph glyph-name="uniAC01" unicode="&#xac01;" 
d="M729 809v-214h124v-89h-124v-216h-107v519h107zM267 493.5q88 76.5 102 176.5h-299v86h414q0 -172 -107.5 -290.5t-305.5 -171.5l-44 85q152 38 240 114.5zM143 252h586v-332h-107v246h-479v86z" />
    <glyph glyph-name="uniAC02" unicode="&#xac02;" 
 />
    <glyph glyph-name="uniAC03" unicode="&#xac03;" 
 />
    <glyph glyph-name="uniAC04" unicode="&#xac04;" 
d="M729 809v-257h124v-88h-124v-296h-108v641h108zM271 470q89 81 103 185h-305v87h421q0 -176 -108 -299.5t-306 -182.5l-45 86q151 43 240 124zM164 233h108v-209h492v-87h-600v296z" />
    <glyph glyph-name="uniAC05" unicode="&#xac05;" 
 />
    <glyph glyph-name="uniAC06" unicode="&#xac06;" 
 />
    <glyph glyph-name="uniAC07" unicode="&#xac07;" 
d="M729 809v-206h124v-88h-124v-205h-107v499h107zM269 493.5q87 76.5 100 176.5h-299v86h415q0 -173 -108 -292t-307 -172l-41 85q153 40 240 116.5zM161 266h574v-86h-467v-164h485v-85h-592v335z" />
    <glyph glyph-name="uniAC08" unicode="&#xac08;" 
d="M729 809v-186h124v-88h-124v-172h-107v446h107zM273.5 526.5q85.5 68.5 96.5 159.5h-296v86h415q0 -171 -108 -280.5t-310 -152.5l-38 88q155 31 240.5 99.5zM152 325h577v-236h-468v-75h497v-85h-604v242h469v69h-471v85z" />
    <glyph glyph-name="uniAC09" unicode="&#xac09;" 
d="M729 809v-191h125v-89h-125v-190h-107v470h107zM275 519q84 69 95 163h-294v86h414q0 -173 -107.5 -283t-311.5 -156l-38 87q158 34 242 103zM118 300h295v-220h-189v-71q96 1 146.5 4.5t98.5 14.5l11 -80q-56 -12 -116 -15.5t-188 -3.5h-57v226h190v64h-191v81zM449 300
h280v-375h-105v290h-175v85z" />
    <glyph glyph-name="uniAC0A" unicode="&#xac0a;" 
d="M391 302v-218h-181v-70q65 1 108 4t89 12l9 -83q-55 -10 -108 -12.5t-152 -2.5h-51v228h182v61h-183v81h287zM274.5 523q84.5 68 94.5 159h-294v86h415q0 -172 -108 -280.5t-311 -151.5l-38 88q157 31 241.5 99zM440 302h289v-372h-289v372zM637 9v213h-104v-213h104z
M622 809h107v-191h124v-89h-124v-187h-107v467z" />
    <glyph glyph-name="uniAC0B" unicode="&#xac0b;" 
d="M729 809v-189h124v-88h-124v-193h-107v470h107zM274.5 528q84.5 68 94.5 159h-294v86h415q0 -172 -108 -280.5t-311 -151.5l-38 88q157 31 241.5 99zM106 296h284v-214h-179v-72q68 1 110 4t86 11l8 -78q-55 -10 -107 -13t-152 -3h-49v221h179v64h-180v80zM436 305h97
v-103h100v103h96v-374h-293v374zM633 14v109h-100v-109h100z" />
    <glyph glyph-name="uniAC0C" unicode="&#xac0c;" 
 />
    <glyph glyph-name="uniAC0D" unicode="&#xac0d;" 
 />
    <glyph glyph-name="uniAC0E" unicode="&#xac0e;" 
 />
    <glyph glyph-name="uniAC0F" unicode="&#xac0f;" 
 />
    <glyph glyph-name="uniAC10" unicode="&#xac10;" 
d="M729 809v-203h124v-88h-124v-208h-107v499h107zM268.5 494q87.5 76 100.5 176h-299v86h415q0 -173 -107.5 -291.5t-307.5 -170.5l-41 85q152 39 239.5 115zM160 272h569v-341h-569v341zM624 17v170h-358v-170h358z" />
    <glyph glyph-name="uniAC11" unicode="&#xac11;" 
d="M729 809v-199h124v-88h-124v-194h-108v481h108zM271.5 508q84.5 70 96.5 165h-293v86h412q0 -171 -107 -282.5t-308 -158.5l-40 86q155 34 239.5 104zM157 290h107v-96h358v96h107v-359h-572v359zM622 17v93h-358v-93h358z" />
    <glyph glyph-name="uniAC12" unicode="&#xac12;" 
d="M729 809v-194h124v-88h-124v-201h-107v483h107zM272 509q85 70 96 165h-294v86h413q0 -172 -106.5 -284t-308.5 -159l-40 87q155 35 240 105zM125 281h100v-93h116v93h98v-274q69 33 105 91.5t36 122.5v69h103v-67q0 -68 37 -128t109 -91l-55 -80q-98 41 -142 143
q-46 -102 -143 -143l-50 71v-62h-314v348zM341 14v93h-116v-93h116z" />
    <glyph glyph-name="uniAC13" unicode="&#xac13;" 
d="M382.5 442q-108.5 -124 -307.5 -181l-44 86q152 43 240.5 124t102.5 185h-299v86h416q0 -176 -108.5 -300zM265 59q65 36 100 86.5t35 107.5v31h107v-31q0 -56 35 -106.5t100 -86.5t150 -50l-43 -85q-102 19 -178.5 66.5t-116.5 116.5q-41 -70 -117.5 -117.5
t-179.5 -66.5l-43 85q86 14 151 50zM636 810h108v-237h109v-88h-109v-263h-108v588z" />
    <glyph glyph-name="uniAC14" unicode="&#xac14;" 
d="M729 810v-208h124v-89h-124v-199h-107v496h107zM268.5 494.5q87.5 76.5 100.5 175.5h-296v86h413q0 -173 -107.5 -292t-307.5 -173l-42 87q152 40 239.5 116.5zM189.5 97.5q44.5 61.5 44.5 130.5v51h104v-51q0 -59 27 -113.5t81 -90.5q55 38 83.5 94t28.5 110v51h106v-51
q0 -74 43.5 -134t126.5 -88l-53 -78q-62 23 -105 63.5t-66 95.5q-22 -56 -62.5 -99.5t-99.5 -67.5q-116 44 -163 165q-24 -54 -66 -94t-102 -63l-53 78q81 30 125.5 91.5z" />
    <glyph glyph-name="uniAC15" unicode="&#xac15;" 
d="M729 809v-217h124v-89h-124v-216h-107v522h107zM268 480.5q87 78.5 101 180.5h-297v87h415q0 -174 -107.5 -296t-304.5 -178l-44 86q150 42 237 120.5zM187.5 192.5q36.5 40.5 103 62t155.5 21.5t155 -21.5t102.5 -62t36.5 -94.5t-36.5 -94.5t-102.5 -62t-155 -21.5
t-155.5 21.5t-103 62t-36.5 94.5t36.5 94.5zM308 29q51 -25 138 -25q88 0 138 25t50 69q0 45 -50 69.5t-138 24.5t-138.5 -24.5t-50.5 -69.5q0 -44 51 -69z" />
    <glyph glyph-name="uniAC16" unicode="&#xac16;" 
d="M729 810v-214h124v-89h-124v-197h-107v500h107zM272.5 501q85.5 72 96.5 169h-296v86h414q0 -172 -106.5 -286.5t-308.5 -165.5l-40 87q155 38 240.5 110zM256 42q60 27 94 64.5t40 78.5h-237v85h590v-85h-236q6 -40 40.5 -78t94.5 -65.5t137 -38.5l-39 -82
q-101 15 -177 57.5t-115 104.5q-38 -62 -113.5 -104t-177.5 -57l-40 82q79 11 139 38z" />
    <glyph glyph-name="uniAC17" unicode="&#xac17;" 
d="M381 473.5q-107 -110.5 -309 -155.5l-39 87q156 33 241 102.5t96 161.5h-295v86h413q0 -171 -107 -281.5zM254.5 37.5q60.5 25.5 95.5 61t41 74.5h-246v85h247v96h108v-96h245v-85h-243q6 -39 41 -74.5t95.5 -61t139.5 -35.5l-38 -80q-102 13 -178.5 52.5t-115.5 97.5
q-39 -58 -115 -97.5t-177 -52.5l-39 80q79 10 139.5 35.5zM622 809h107v-196h124v-88h-124v-203h-107v487z" />
    <glyph glyph-name="uniAC18" unicode="&#xac18;" 
 />
    <glyph glyph-name="uniAC19" unicode="&#xac19;" 
d="M730 809v-192h123v-89h-123v-188h-108v469h108zM277.5 506q84.5 67 93.5 157h-297v86h417q0 -171 -106 -277.5t-308 -148.5l-42 86q158 30 242.5 97zM157 303h576v-80h-469v-66h461v-77h-461v-70h489v-79h-596v372z" />
    <glyph glyph-name="uniAC1A" unicode="&#xac1a;" 
d="M729 809v-198h124v-88h-124v-201h-107v487h107zM271.5 505q87.5 71 98.5 164h-292v86h412q0 -171 -110 -284t-308 -160l-40 88q152 35 239.5 106zM147 18h122v180h-114v85h594v-85h-113v-180h124v-85h-613v85zM531 18v180h-156v-180h156z" />
    <glyph glyph-name="uniAC1B" unicode="&#xac1b;" 
d="M729 809v-187h124v-88h-124v-189h-107v464h107zM276 514q82 68 93 163h-299v86h417q0 -346 -416 -437l-38 87q161 33 243 101zM136 291h257v93h108v-93h258v-82h-623v82zM263.5 142.5q66.5 33.5 183.5 33.5t183.5 -33.5t66.5 -93.5q0 -61 -66 -95t-184 -34t-184 34
t-66 95q0 60 66.5 93.5zM447 -4q148 0 148 53q0 25 -37.5 38t-110.5 13q-72 0 -110.5 -13t-38.5 -38q0 -53 149 -53z" />
    <glyph glyph-name="uniAC1C" unicode="&#xac1c;" 
d="M791 809v-889h-103v458h-96v-417h-101v825h101v-322h96v345h103zM232 366q67 105 78 244h-243v87h349q0 -194 -74 -341.5t-252 -250.5l-63 77q138 79 205 184z" />
    <glyph glyph-name="uniAC1D" unicode="&#xac1d;" 
d="M788 809v-522h-103v222h-93v-218h-101v501h101v-196h93v213h103zM307 659h-237v87h349q0 -165 -84 -281t-254 -185l-52 78q252 98 278 301zM180 248h608v-328h-108v242h-500v86z" />
    <glyph glyph-name="uniAC1E" unicode="&#xac1e;" 
 />
    <glyph glyph-name="uniAC1F" unicode="&#xac1f;" 
 />
    <glyph glyph-name="uniAC20" unicode="&#xac20;" 
d="M788 809v-663h-102v315h-94v-289h-101v621h101v-244h94v260h102zM226.5 457q67.5 77 80.5 181h-235v85h345q0 -166 -82 -284.5t-251 -190.5l-52 79q127 53 194.5 130zM193 224h108v-196h513v-86h-621v282z" />
    <glyph glyph-name="uniAC21" unicode="&#xac21;" 
 />
    <glyph glyph-name="uniAC22" unicode="&#xac22;" 
 />
    <glyph glyph-name="uniAC23" unicode="&#xac23;" 
d="M793 248v-85h-491v-147h501v-85h-609v317h599zM230 482q67 75 79 177h-237v87h348q0 -167 -81 -282t-251 -185l-53 78q128 50 195 125zM491 794h101v-199h93v214h103v-516h-103v215h-93v-208h-101v494z" />
    <glyph glyph-name="uniAC24" unicode="&#xac24;" 
d="M788 809v-449h-102v175h-94v-169h-100v427h100v-173h94v189h102zM304 671h-230v86h343q0 -158 -82.5 -263.5t-250.5 -164.5l-49 78q244 80 269 264zM191 321h597v-230h-489v-75h520v-85h-625v240h488v67h-491v83z" />
    <glyph glyph-name="uniAC25" unicode="&#xac25;" 
 />
    <glyph glyph-name="uniAC26" unicode="&#xac26;" 
 />
    <glyph glyph-name="uniAC27" unicode="&#xac27;" 
 />
    <glyph glyph-name="uniAC28" unicode="&#xac28;" 
 />
    <glyph glyph-name="uniAC29" unicode="&#xac29;" 
 />
    <glyph glyph-name="uniAC2A" unicode="&#xac2a;" 
 />
    <glyph glyph-name="uniAC2B" unicode="&#xac2b;" 
 />
    <glyph glyph-name="uniAC2C" unicode="&#xac2c;" 
d="M788 809v-508h-103v212h-93v-206h-101v486h101v-194h93v210h103zM230 482q67 75 79 177h-237v87h348q0 -167 -81.5 -282t-250.5 -185l-53 78q128 50 195 125zM193 258h595v-324h-595v324zM682 19v154h-383v-154h383z" />
    <glyph glyph-name="uniAC2D" unicode="&#xac2d;" 
d="M788 809v-480h-103v190h-93v-185h-101v459h101v-188h93v204h103zM307 667h-233v85h344q0 -163 -81.5 -276t-249.5 -181l-53 80q247 95 273 292zM194 290h107v-92h381v92h106v-356h-594v356zM682 18v97h-381v-97h381z" />
    <glyph glyph-name="uniAC2E" unicode="&#xac2e;" 
 />
    <glyph glyph-name="uniAC2F" unicode="&#xac2f;" 
d="M340 443q-81 -120 -251 -193l-55 78q129 53 197 132t80 185h-236v86h346q0 -168 -81 -288zM295.5 54.5q66.5 34.5 103 83t36.5 101.5v32h107v-32q0 -52 36.5 -101t103 -83.5t151.5 -47.5l-40 -84q-104 17 -183 64t-121 116q-42 -69 -121 -116t-183 -64l-42 84
q86 13 152.5 47.5zM492 792h101v-207h93v224h102v-581h-102v270h-93v-186h-101v480z" />
    <glyph glyph-name="uniAC30" unicode="&#xac30;" 
d="M789 809v-503h-103v201h-93v-198h-101v483h101v-198h93v215h103zM308 659h-235v87h347q0 -165 -83 -280t-251 -184l-53 80q249 97 275 297zM206 94q45 61 45 130v47h104v-47q0 -59 27 -113t81 -89q55 38 84 93t29 109v47h105v-47q0 -74 44 -133.5t127 -86.5l-52 -79
q-62 22 -106 63t-68 96q-22 -56 -62.5 -99.5t-98.5 -67.5q-116 45 -163 165q-24 -53 -66.5 -93.5t-103.5 -63.5l-53 79q82 29 127 90z" />
    <glyph glyph-name="uniAC31" unicode="&#xac31;" 
d="M788 809v-539h-103v231h-93v-201h-101v492h101v-203h93v220h103zM308 655h-233v87h345q0 -168 -83 -286.5t-254 -189.5l-53 79q252 102 278 310zM223 184.5q37 38.5 105.5 59t161.5 20.5t162 -20.5t106.5 -59.5t37.5 -91t-37.5 -90.5t-106.5 -59t-162 -20.5
q-141 0 -222.5 45.5t-81.5 124.5q0 53 37 91.5zM344.5 28q52.5 -23 145.5 -23t145 23t52 65t-52 65t-145 23t-145.5 -23t-52.5 -65t52.5 -65z" />
    <glyph glyph-name="uniAC32" unicode="&#xac32;" 
 />
    <glyph glyph-name="uniAC33" unicode="&#xac33;" 
 />
    <glyph glyph-name="uniAC34" unicode="&#xac34;" 
 />
    <glyph glyph-name="uniAC35" unicode="&#xac35;" 
 />
    <glyph glyph-name="uniAC36" unicode="&#xac36;" 
 />
    <glyph glyph-name="uniAC37" unicode="&#xac37;" 
 />
    <glyph glyph-name="uniAC38" unicode="&#xac38;" 
d="M725 810v-229h131v-89h-131v-176h131v-89h-131v-306h-108v889h108zM279.5 360.5q87.5 115.5 103.5 268.5h-306v87h415q0 -435 -401 -635l-60 82q161 82 248.5 197.5z" />
    <glyph glyph-name="uniAC39" unicode="&#xac39;" 
d="M729 809v-125h124v-86h-124v-105h124v-86h-124v-117h-107v519h107zM267 493.5q88 76.5 102 176.5h-299v86h414q0 -172 -107.5 -290.5t-305.5 -171.5l-44 85q152 38 240 114.5zM143 252h586v-332h-107v246h-479v86z" />
    <glyph glyph-name="uniAC3A" unicode="&#xac3a;" 
 />
    <glyph glyph-name="uniAC3B" unicode="&#xac3b;" 
 />
    <glyph glyph-name="uniAC3C" unicode="&#xac3c;" 
d="M729 809v-157h124v-88h-124v-128h124v-88h-124v-180h-108v641h108zM271 470q89 81 103 185h-305v87h421q0 -176 -108 -299.5t-306 -182.5l-45 86q151 43 240 124zM164 233h108v-209h492v-87h-600v296z" />
    <glyph glyph-name="uniAC3D" unicode="&#xac3d;" 
 />
    <glyph glyph-name="uniAC3E" unicode="&#xac3e;" 
 />
    <glyph glyph-name="uniAC3F" unicode="&#xac3f;" 
 />
    <glyph glyph-name="uniAC40" unicode="&#xac40;" 
d="M729 809v-98h124v-86h-124v-88h124v-86h-124v-88h-107v446h107zM273.5 526.5q85.5 68.5 96.5 159.5h-296v86h415q0 -171 -108 -280.5t-310 -152.5l-38 88q155 31 240.5 99.5zM152 325h577v-236h-468v-75h497v-85h-604v242h469v69h-471v85z" />
    <glyph glyph-name="uniAC41" unicode="&#xac41;" 
 />
    <glyph glyph-name="uniAC42" unicode="&#xac42;" 
 />
    <glyph glyph-name="uniAC43" unicode="&#xac43;" 
 />
    <glyph glyph-name="uniAC44" unicode="&#xac44;" 
 />
    <glyph glyph-name="uniAC45" unicode="&#xac45;" 
 />
    <glyph glyph-name="uniAC46" unicode="&#xac46;" 
 />
    <glyph glyph-name="uniAC47" unicode="&#xac47;" 
 />
    <glyph glyph-name="uniAC48" unicode="&#xac48;" 
 />
    <glyph glyph-name="uniAC49" unicode="&#xac49;" 
 />
    <glyph glyph-name="uniAC4A" unicode="&#xac4a;" 
 />
    <glyph glyph-name="uniAC4B" unicode="&#xac4b;" 
d="M729 809v-142h124v-88h-124v-123h124v-88h-124v-147h-107v588h107zM271.5 471q88.5 81 102.5 185h-299v86h416q0 -176 -108 -299.5t-308 -181.5l-44 86q152 43 240.5 124zM265 58q65 36 100 87t35 107v31h107v-31q0 -56 35 -106.5t100 -86.5t150 -50l-43 -84
q-102 19 -178.5 66t-116.5 116q-41 -70 -117.5 -117.5t-179.5 -66.5l-43 85q86 14 151 50z" />
    <glyph glyph-name="uniAC4C" unicode="&#xac4c;" 
 />
    <glyph glyph-name="uniAC4D" unicode="&#xac4d;" 
d="M729 809v-128h123v-88h-123v-103h123v-88h-123v-115h-107v522h107zM268 481q87 79 101 180h-297v87h415q0 -174 -107.5 -296t-304.5 -178l-44 86q150 42 237 121zM187.5 192.5q36.5 40.5 103 62t155.5 21.5t155 -21.5t102.5 -62t36.5 -94.5t-36.5 -94.5t-102.5 -62
t-155 -21.5t-155.5 21.5t-103 62t-36.5 94.5t36.5 94.5zM308 29q51 -25 138 -25q88 0 138 25t50 69q0 45 -50 69.5t-138 24.5t-138.5 -24.5t-50.5 -69.5q0 -44 51 -69z" />
    <glyph glyph-name="uniAC4E" unicode="&#xac4e;" 
 />
    <glyph glyph-name="uniAC4F" unicode="&#xac4f;" 
 />
    <glyph glyph-name="uniAC50" unicode="&#xac50;" 
 />
    <glyph glyph-name="uniAC51" unicode="&#xac51;" 
 />
    <glyph glyph-name="uniAC52" unicode="&#xac52;" 
 />
    <glyph glyph-name="uniAC53" unicode="&#xac53;" 
 />
    <glyph glyph-name="uniAC54" unicode="&#xac54;" 
d="M791 809v-889h-103v331h-96v-290h-101v825h101v-199h96v222h103zM232 366q67 105 78 244h-243v87h349q0 -194 -74 -341.5t-252 -250.5l-63 77q138 79 205 184zM688 337v163h-96v-163h96z" />
    <glyph glyph-name="uniAC55" unicode="&#xac55;" 
 />
    <glyph glyph-name="uniAC56" unicode="&#xac56;" 
 />
    <glyph glyph-name="uniAC57" unicode="&#xac57;" 
 />
    <glyph glyph-name="uniAC58" unicode="&#xac58;" 
d="M788 809v-663h-102v201h-94v-175h-101v621h101v-147h94v163h102zM226.5 457q67.5 77 80.5 181h-235v85h345q0 -166 -82 -284.5t-251 -190.5l-52 79q127 53 194.5 130zM193 224h108v-196h513v-86h-621v282zM686 433v127h-94v-127h94z" />
    <glyph glyph-name="uniAC59" unicode="&#xac59;" 
 />
    <glyph glyph-name="uniAC5A" unicode="&#xac5a;" 
 />
    <glyph glyph-name="uniAC5B" unicode="&#xac5b;" 
 />
    <glyph glyph-name="uniAC5C" unicode="&#xac5c;" 
d="M788 809v-449h-102v91h-94v-85h-100v427h100v-94h94v110h102zM304 670h-230v87h343q0 -157 -82.5 -263.5t-250.5 -166.5l-49 79q243 81 269 264zM191 320h597v-233h-489v-75h520v-85h-625v240h488v70h-491v83zM686 533v84h-94v-84h94z" />
    <glyph glyph-name="uniAC5D" unicode="&#xac5d;" 
 />
    <glyph glyph-name="uniAC5E" unicode="&#xac5e;" 
 />
    <glyph glyph-name="uniAC5F" unicode="&#xac5f;" 
 />
    <glyph glyph-name="uniAC60" unicode="&#xac60;" 
 />
    <glyph glyph-name="uniAC61" unicode="&#xac61;" 
 />
    <glyph glyph-name="uniAC62" unicode="&#xac62;" 
 />
    <glyph glyph-name="uniAC63" unicode="&#xac63;" 
 />
    <glyph glyph-name="uniAC64" unicode="&#xac64;" 
 />
    <glyph glyph-name="uniAC65" unicode="&#xac65;" 
d="M788 809v-480h-103v101h-93v-96h-101v459h101v-98h93v114h103zM307 667h-233v85h344q0 -163 -81.5 -276t-249.5 -181l-53 80q247 95 273 292zM194 290h107v-92h381v92h106v-356h-594v356zM682 18v97h-381v-97h381zM685 517v92h-93v-92h93z" />
    <glyph glyph-name="uniAC66" unicode="&#xac66;" 
 />
    <glyph glyph-name="uniAC67" unicode="&#xac67;" 
 />
    <glyph glyph-name="uniAC68" unicode="&#xac68;" 
 />
    <glyph glyph-name="uniAC69" unicode="&#xac69;" 
 />
    <glyph glyph-name="uniAC6A" unicode="&#xac6a;" 
 />
    <glyph glyph-name="uniAC6B" unicode="&#xac6b;" 
 />
    <glyph glyph-name="uniAC6C" unicode="&#xac6c;" 
 />
    <glyph glyph-name="uniAC6D" unicode="&#xac6d;" 
 />
    <glyph glyph-name="uniAC6E" unicode="&#xac6e;" 
 />
    <glyph glyph-name="uniAC6F" unicode="&#xac6f;" 
 />
    <glyph glyph-name="uniAC70" unicode="&#xac70;" 
d="M771 809v-889h-107v453h-187v89h187v347h107zM277 361q82 114 95 269h-305v86h414q0 -212 -90.5 -370t-305.5 -266l-58 83q168 84 250 198z" />
    <glyph glyph-name="uniAC71" unicode="&#xac71;" 
d="M385.5 466.5q-106.5 -118.5 -301.5 -173.5l-43 84q149 41 235.5 117t100.5 176h-288v85h403q0 -170 -106.5 -288.5zM171 253h601v-330h-108v244h-493v86zM497 586h167v223h108v-519h-108v207h-167v89z" />
    <glyph glyph-name="uniAC72" unicode="&#xac72;" 
 />
    <glyph glyph-name="uniAC73" unicode="&#xac73;" 
 />
    <glyph glyph-name="uniAC74" unicode="&#xac74;" 
d="M772 809v-652h-108v299h-169v88h169v265h108zM281 465.5q89 83.5 103 189.5h-293v87h409q0 -175 -108 -302.5t-302 -190.5l-45 86q147 47 236 130.5zM198 222h109v-198h487v-87h-596v285z" />
    <glyph glyph-name="uniAC75" unicode="&#xac75;" 
 />
    <glyph glyph-name="uniAC76" unicode="&#xac76;" 
 />
    <glyph glyph-name="uniAC77" unicode="&#xac77;" 
d="M384 465q-106 -119 -303 -174l-41 84q149 41 235.5 117.5t100.5 177.5h-289v86h403q0 -172 -106 -291zM192 265h582v-86h-475v-163h491v-85h-598v334zM494 586h170v223h108v-499h-108v189h-170v87z" />
    <glyph glyph-name="uniAC78" unicode="&#xac78;" 
d="M772 809v-449h-108v164h-171v86h171v199h108zM275.5 526q81.5 67 93.5 160h-274v86h389q0 -169 -103 -277t-299 -156l-37 85q149 35 230.5 102zM191 324h581v-234h-472v-76h495v-85h-602v242h471v68h-473v85z" />
    <glyph glyph-name="uniAC79" unicode="&#xac79;" 
 />
    <glyph glyph-name="uniAC7A" unicode="&#xac7a;" 
d="M772 809v-463h-108v172h-169v87h169v204h108zM279.5 522q83.5 68 96.5 161h-286v86h400q0 -169 -104.5 -278t-302.5 -156l-38 84q151 35 234.5 103zM139 309h293v-221h-188v-75q67 1 111 4t91 12l10 -82q-56 -10 -109.5 -13t-156.5 -3h-50v233h187v64h-188v81zM481 309
h291v-378h-291v378zM678 10v220h-104v-220h104z" />
    <glyph glyph-name="uniAC7B" unicode="&#xac7b;" 
 />
    <glyph glyph-name="uniAC7C" unicode="&#xac7c;" 
 />
    <glyph glyph-name="uniAC7D" unicode="&#xac7d;" 
 />
    <glyph glyph-name="uniAC7E" unicode="&#xac7e;" 
 />
    <glyph glyph-name="uniAC7F" unicode="&#xac7f;" 
 />
    <glyph glyph-name="uniAC80" unicode="&#xac80;" 
d="M384 466.5q-106 -118.5 -302 -173.5l-43 84q149 41 235.5 117t100.5 176h-288v86h403q0 -171 -106 -289.5zM191 271h581v-340h-581v340zM666 17v169h-369v-169h369zM493 591h171v218h108v-501h-108v194h-171v89z" />
    <glyph glyph-name="uniAC81" unicode="&#xac81;" 
d="M771 809v-480h-107v181h-171v87h171v212h107zM280.5 501.5q83.5 71.5 95.5 169.5h-287v87h403q0 -172 -104 -285t-304 -165l-41 84q154 38 237.5 109.5zM188 288h107v-95h370v95h106v-358h-583v358zM665 16v93h-370v-93h370z" />
    <glyph glyph-name="uniAC82" unicode="&#xac82;" 
 />
    <glyph glyph-name="uniAC83" unicode="&#xac83;" 
d="M772 809v-595h-107v265h-170v88h170v242h107zM279 468.5q82 78.5 96 185.5h-284v87h400q0 -177 -101 -297.5t-298 -183.5l-46 84q151 46 233 124.5zM290 57q65 36 100 86.5t35 106.5v35h106v-35q0 -56 35 -106t100 -86t151 -50l-43 -84q-103 19 -179.5 66t-116.5 116
q-40 -70 -117 -117.5t-180 -66.5l-42 85q86 14 151 50z" />
    <glyph glyph-name="uniAC84" unicode="&#xac84;" 
d="M385.5 466.5q-106.5 -118.5 -302.5 -173.5l-42 84q149 41 235.5 117t100.5 176h-287v85h402q0 -170 -106.5 -288.5zM202.5 97.5q44.5 61.5 44.5 130.5v52h104v-52q0 -60 27.5 -114t81.5 -89q56 38 84.5 93t28.5 110v52h105v-52q0 -73 44 -133.5t127 -87.5l-53 -78
q-123 43 -173 160q-22 -57 -62.5 -100.5t-99.5 -67.5q-60 22 -100.5 64.5t-62.5 99.5q-24 -54 -66 -94t-102 -62l-54 78q82 29 126.5 90.5zM496 591h169v218h108v-501h-108v195h-169v88z" />
    <glyph glyph-name="uniAC85" unicode="&#xac85;" 
d="M772 809v-518h-108v193h-166v87h166v238h108zM279.5 481q84.5 77 96.5 179h-286v86h402q0 -176 -104 -294t-304 -175l-43 85q154 42 238.5 119zM219 196.5q37 40.5 104.5 62.5t156.5 22t156 -22t104 -62.5t37 -94.5t-37 -94.5t-104 -62t-156 -21.5q-90 0 -157 21.5
t-104 62t-37 94.5t37 94.5zM339 33q51 -24 141 -24t140.5 24t50.5 69t-50.5 70t-140.5 25t-141 -25t-51 -70t51 -69z" />
    <glyph glyph-name="uniAC86" unicode="&#xac86;" 
d="M395 468q-110 -115 -312 -164l-40 85q156 37 245 110.5t101 170.5h-299v85h415q0 -172 -110 -287zM292 39.5q61 26.5 95.5 63.5t38.5 78h-237v86h592v-86h-240q4 -40 38.5 -76.5t95 -63.5t139.5 -38l-39 -80q-101 14 -177 55t-115 100q-38 -60 -114 -100.5t-179 -54.5
l-39 80q80 10 141 36.5zM495 585h170v224h107v-501h-107v188h-170v89z" />
    <glyph glyph-name="uniAC87" unicode="&#xac87;" 
 />
    <glyph glyph-name="uniAC88" unicode="&#xac88;" 
 />
    <glyph glyph-name="uniAC89" unicode="&#xac89;" 
d="M775 302v-79h-473v-67h459v-76h-459v-69h489v-80h-596v371h580zM281.5 509q83.5 71 95.5 168h-289v86h405q0 -172 -104.5 -284.5t-305.5 -162.5l-39 85q154 37 237.5 108zM497 596h167v213h108v-470h-108v170h-167v87z" />
    <glyph glyph-name="uniAC8A" unicode="&#xac8a;" 
d="M386 470q-107 -116 -302 -169l-41 85q148 38 234.5 112t100.5 171h-289v86h404q0 -169 -107 -285zM164 19h128v175h-119v85h606v-85h-118v-175h129v-85h-626v85zM555 19v175h-158v-175h158zM494 587h170v222h108v-488h-108v179h-170v87z" />
    <glyph glyph-name="uniAC8B" unicode="&#xac8b;" 
d="M381 481q-101 -108 -303 -157l-37 83q154 36 234.5 105t91.5 165h-277v85h392q0 -173 -101 -281zM162 287h258v95h109v-95h256v-82h-623v82zM291 139q67 33 183 33q117 0 184 -33t67 -93q0 -59 -67 -92t-184 -33q-116 0 -183 33t-67 92q0 60 67 93zM372.5 8
q35.5 -13 101.5 -13t102 13t36 38t-36 38t-102 13t-101.5 -13t-35.5 -38t35.5 -38zM493 612h171v197h108v-469h-108v185h-171v87z" />
    <glyph glyph-name="uniAC8C" unicode="&#xac8c;" 
d="M795 809v-889h-103v889h103zM230 370q68 106 80 244h-239v87h347q0 -132 -35 -243h123v330h101v-825h-101v410h-158q-79 -159 -259 -266l-62 77q135 80 203 186z" />
    <glyph glyph-name="uniAC8D" unicode="&#xac8d;" 
 />
    <glyph glyph-name="uniAC8E" unicode="&#xac8e;" 
 />
    <glyph glyph-name="uniAC8F" unicode="&#xac8f;" 
 />
    <glyph glyph-name="uniAC90" unicode="&#xac90;" 
d="M788 809v-664h-102v664h102zM310 640h-231v86h342q0 -108 -34 -194h120v260h100v-623h-100v277h-165q-84 -123 -256 -196l-53 79q253 102 277 311zM203 227h108v-203h510v-87h-618v290z" />
    <glyph glyph-name="uniAC91" unicode="&#xac91;" 
 />
    <glyph glyph-name="uniAC92" unicode="&#xac92;" 
 />
    <glyph glyph-name="uniAC93" unicode="&#xac93;" 
 />
    <glyph glyph-name="uniAC94" unicode="&#xac94;" 
d="M788 809v-449h-102v449h102zM230 513.5q66 66.5 79 157.5h-227v86h340q0 -86 -24 -157h109v192h100v-428h-100v151h-151q-82 -122 -266 -188l-51 79q125 41 191 107.5zM191 320h597v-230h-487v-74h518v-85h-625v238h487v68h-490v83z" />
    <glyph glyph-name="uniAC95" unicode="&#xac95;" 
 />
    <glyph glyph-name="uniAC96" unicode="&#xac96;" 
 />
    <glyph glyph-name="uniAC97" unicode="&#xac97;" 
 />
    <glyph glyph-name="uniAC98" unicode="&#xac98;" 
 />
    <glyph glyph-name="uniAC99" unicode="&#xac99;" 
 />
    <glyph glyph-name="uniAC9A" unicode="&#xac9a;" 
 />
    <glyph glyph-name="uniAC9B" unicode="&#xac9b;" 
 />
    <glyph glyph-name="uniAC9C" unicode="&#xac9c;" 
d="M395 573h111v219h101v-486h-101v181h-151q-81 -132 -262 -208l-55 78q126 51 193.5 126t80.5 176h-231v87h341q0 -95 -27 -173zM194 258h594v-325h-594v325zM682 19v155h-382v-155h382zM685 809h103v-511h-103v511z" />
    <glyph glyph-name="uniAC9D" unicode="&#xac9d;" 
d="M394 582h112v210h101v-465h-101v168h-154q-79 -124 -264 -194l-52 78q129 46 194 116.5t77 167.5h-225v86h337q0 -93 -25 -167zM194 286h107v-92h381v92h106v-353h-594v353zM682 18v92h-381v-92h381zM685 809h103v-488h-103v488z" />
    <glyph glyph-name="uniAC9E" unicode="&#xac9e;" 
 />
    <glyph glyph-name="uniAC9F" unicode="&#xac9f;" 
d="M788 809v-584h-102v584h102zM228.5 460.5q67.5 78.5 80.5 184.5h-232v86h343q0 -96 -26 -173h113v233h100v-489h-100v169h-151q-82 -140 -267 -222l-53 79q125 54 192.5 132.5zM290.5 55q66.5 35 103 83.5t36.5 100.5v32h107v-32q0 -52 36.5 -100.5t103.5 -83.5t153 -47
l-41 -85q-105 17 -184.5 64t-121.5 115q-41 -68 -120.5 -115t-184.5 -64l-40 85q86 12 152.5 47z" />
    <glyph glyph-name="uniACA0" unicode="&#xaca0;" 
d="M396 569h111v222h101v-479h-101v171h-153q-82 -129 -263 -205l-53 79q248 98 274 302h-232v87h345q0 -100 -29 -177zM206 94q45 61 45 130v47h104v-47q0 -59 27 -113t81 -89q55 38 84 93t29 109v47h105v-47q0 -74 44 -133.5t127 -86.5l-52 -79q-63 22 -106.5 63t-66.5 97
q-22 -56 -62.5 -100t-99.5 -68q-116 45 -163 165q-24 -53 -66.5 -93.5t-103.5 -63.5l-53 79q82 29 127 90zM686 809h103v-508h-103v508z" />
    <glyph glyph-name="uniACA1" unicode="&#xaca1;" 
d="M397 568h109v223h101v-490h-101v181h-149q-83 -137 -270 -216l-54 79q128 52 196.5 129t81.5 181h-234v87h346q0 -93 -26 -174zM269.5 217.5q82.5 45.5 223.5 45.5t223 -45.5t82 -124.5t-82 -124.5t-223 -45.5t-223.5 45.5t-82.5 124.5t82.5 124.5zM347.5 28
q52.5 -23 145.5 -23t145 23t52 65t-52 65t-145 23t-145.5 -23t-52.5 -65t52.5 -65zM685 809h103v-539h-103v539z" />
    <glyph glyph-name="uniACA2" unicode="&#xaca2;" 
 />
    <glyph glyph-name="uniACA3" unicode="&#xaca3;" 
 />
    <glyph glyph-name="uniACA4" unicode="&#xaca4;" 
 />
    <glyph glyph-name="uniACA5" unicode="&#xaca5;" 
 />
    <glyph glyph-name="uniACA6" unicode="&#xaca6;" 
 />
    <glyph glyph-name="uniACA7" unicode="&#xaca7;" 
 />
    <glyph glyph-name="uniACA8" unicode="&#xaca8;" 
d="M472 575h192v234h107v-889h-107v327h-225v87h225v155h-212q-79 -266 -368 -410l-56 84q163 82 247.5 197.5t98.5 269.5h-306v86h415q0 -78 -11 -141z" />
    <glyph glyph-name="uniACA9" unicode="&#xaca9;" 
d="M493 659h171v150h108v-529h-108v104h-210v87h210v102h-197q-45 -103 -142 -176t-239 -111l-41 84q152 40 240 117.5t102 178.5h-295v86h410q0 -48 -9 -93zM171 242h601v-319h-108v234h-493v85z" />
    <glyph glyph-name="uniACAA" unicode="&#xacaa;" 
d="M493 668h171v141h108v-511h-108v93h-211v87h211v103h-197q-43 -103 -139.5 -176t-239.5 -111l-43 85q150 39 238.5 115t102.5 176h-294v85h409q0 -42 -8 -87zM145 257h297v-337h-108v252h-189v85zM482 257h290v-337h-108v252h-182v85z" />
    <glyph glyph-name="uniACAB" unicode="&#xacab;" 
 />
    <glyph glyph-name="uniACAC" unicode="&#xacac;" 
d="M773 809v-657h-109v194h-214v88h214v113h-201q-46 -102 -141.5 -178t-230.5 -119l-45 85q148 48 238 131t104 189h-295v86h411q0 -57 -12 -108h172v176h109zM198 215h109v-191h487v-87h-596v278z" />
    <glyph glyph-name="uniACAD" unicode="&#xacad;" 
 />
    <glyph glyph-name="uniACAE" unicode="&#xacae;" 
 />
    <glyph glyph-name="uniACAF" unicode="&#xacaf;" 
d="M489 676h175v133h108v-499h-108v87h-213v87h213v104h-200q-43 -105 -140 -180t-241 -114l-41 85q150 39 237 115t101 176h-293v86h408q0 -41 -6 -80zM192 265h582v-86h-475v-163h491v-85h-598v334z" />
    <glyph glyph-name="uniACB0" unicode="&#xacb0;" 
d="M772 809v-449h-108v77h-212v82h212v89h-201q-81 -200 -381 -269l-36 87q153 33 234.5 100t92.5 159h-278v86h397q0 -45 -7 -81h179v119h108zM191 324h581v-234h-472v-76h495v-85h-602v242h471v68h-473v85z" />
    <glyph glyph-name="uniACB1" unicode="&#xacb1;" 
 />
    <glyph glyph-name="uniACB2" unicode="&#xacb2;" 
 />
    <glyph glyph-name="uniACB3" unicode="&#xacb3;" 
 />
    <glyph glyph-name="uniACB4" unicode="&#xacb4;" 
 />
    <glyph glyph-name="uniACB5" unicode="&#xacb5;" 
 />
    <glyph glyph-name="uniACB6" unicode="&#xacb6;" 
 />
    <glyph glyph-name="uniACB7" unicode="&#xacb7;" 
d="M772 809v-446h-107v78h-215v82h215v89h-204q-80 -196 -379 -264l-36 86q151 32 233 97t94 156h-278v87h396q0 -42 -6 -80h180v115h107zM135 309h284v-220h-178v-76q73 1 117.5 4t91.5 12l10 -82q-56 -10 -111.5 -13t-160.5 -3h-52v234h179v63h-180v81zM454 266h128v76
h104v-76h130v-79h-362v79zM518.5 126q45.5 33 114.5 33q70 0 114.5 -33t44.5 -87t-44.5 -87t-114.5 -33q-69 0 -114.5 33.5t-45.5 86.5q0 54 45.5 87zM585 4q18 -12 48 -12q29 0 47.5 12.5t18.5 34.5q0 23 -18.5 35.5t-47.5 12.5t-47.5 -12.5t-18.5 -35.5t18 -35z" />
    <glyph glyph-name="uniACB8" unicode="&#xacb8;" 
d="M664 494v98h-201q-42 -107 -139 -183t-242 -116l-42 84q150 41 236.5 117t100.5 176h-290v86h405q0 -40 -6 -78h178v131h108v-503h-108v101h-212v87h212zM191 270h581v-339h-581v339zM666 17v167h-369v-167h369z" />
    <glyph glyph-name="uniACB9" unicode="&#xacb9;" 
d="M664 499v96h-199q-80 -210 -380 -287l-42 84q155 38 238.5 109.5t95.5 169.5h-288v87h404q0 -39 -6 -77h177v128h107v-480h-107v83h-209v87h209zM188 288h107v-95h370v95h106v-358h-583v358zM665 16v93h-370v-93h370z" />
    <glyph glyph-name="uniACBA" unicode="&#xacba;" 
 />
    <glyph glyph-name="uniACBB" unicode="&#xacbb;" 
d="M665 465v103h-202q-80 -218 -371 -308l-45 84q151 45 234 124.5t96 185.5h-286v87h401q0 -49 -7 -88h180v156h107v-598h-107v167h-212v87h212zM290 57q65 36 100 86.5t35 107.5v31h106v-31q0 -56 35 -106.5t100 -86.5t151 -50l-43 -84q-103 19 -179.5 66t-116.5 117
q-40 -70 -117 -118t-180 -67l-42 85q86 14 151 50z" />
    <glyph glyph-name="uniACBC" unicode="&#xacbc;" 
d="M665 489v99h-201q-42 -106 -139 -181t-241 -114l-41 84q149 40 236 116.5t101 176.5h-290v85h405q0 -44 -7 -80h177v134h108v-501h-108v94h-210v87h210zM202.5 97.5q44.5 61.5 44.5 130.5v52h104v-52q0 -60 27 -114t82 -90q56 38 84.5 93.5t28.5 110.5v52h105v-52
q0 -73 44 -133.5t127 -87.5l-53 -78q-123 43 -173 160q-22 -57 -62.5 -100.5t-99.5 -67.5q-60 22 -100.5 64.5t-62.5 99.5q-24 -54 -66 -94t-102 -62l-54 78q82 29 126.5 90.5z" />
    <glyph glyph-name="uniACBD" unicode="&#xacbd;" 
d="M664 474v99h-201q-42 -106 -137.5 -180t-241.5 -116l-42 85q154 42 238.5 119t96.5 179h-287v86h404q0 -49 -7 -88h177v151h108v-521h-108v100h-211v86h211zM218.5 195q36.5 40 104 61.5t157.5 21.5t157 -21.5t103.5 -61.5t36.5 -94t-36.5 -94t-104 -61.5t-156.5 -21.5
q-90 0 -157.5 21.5t-104 61.5t-36.5 94t36.5 94zM339.5 32.5q50.5 -24.5 140.5 -24.5t140.5 24.5t50.5 68.5q0 45 -50.5 69t-140.5 24t-140.5 -24t-50.5 -69q0 -44 50.5 -68.5z" />
    <glyph glyph-name="uniACBE" unicode="&#xacbe;" 
 />
    <glyph glyph-name="uniACBF" unicode="&#xacbf;" 
 />
    <glyph glyph-name="uniACC0" unicode="&#xacc0;" 
 />
    <glyph glyph-name="uniACC1" unicode="&#xacc1;" 
d="M664 509v93h-198q-40 -105 -137 -177t-246 -109l-40 85q155 37 238.5 108t95.5 168h-289v86h406q0 -41 -6 -79h176v125h108v-470h-108v89h-212v81h212zM195 302h580v-79h-473v-67h459v-76h-459v-69h489v-80h-596v371z" />
    <glyph glyph-name="uniACC2" unicode="&#xacc2;" 
 />
    <glyph glyph-name="uniACC3" unicode="&#xacc3;" 
 />
    <glyph glyph-name="uniACC4" unicode="&#xacc4;" 
d="M511 347v136h-124q-65 -237 -300 -376l-61 77q133 80 201.5 186t80.5 244h-237v87h343q0 -67 -9 -132h106v219h101v-825h-101v298h-140v86h140zM692 809h102v-889h-102v889z" />
    <glyph glyph-name="uniACC5" unicode="&#xacc5;" 
 />
    <glyph glyph-name="uniACC6" unicode="&#xacc6;" 
 />
    <glyph glyph-name="uniACC7" unicode="&#xacc7;" 
 />
    <glyph glyph-name="uniACC8" unicode="&#xacc8;" 
d="M510 425v109h-124q-69 -188 -302 -289l-52 78q251 105 276 317h-229v86h339q0 -55 -9 -106h101v172h101v-621h-101v168h-140v86h140zM199 230h108v-206h510v-87h-618v293zM686 809h102v-660h-102v660z" />
    <glyph glyph-name="uniACC9" unicode="&#xacc9;" 
 />
    <glyph glyph-name="uniACCA" unicode="&#xacca;" 
 />
    <glyph glyph-name="uniACCB" unicode="&#xaccb;" 
 />
    <glyph glyph-name="uniACCC" unicode="&#xaccc;" 
d="M510 518v83h-114q-64 -187 -306 -274l-51 79q124 41 190 107.5t79 157.5h-226v86h338q0 -34 -5 -74h95v109h101v-430h-101v74h-125v82h125zM191 320h597v-230h-487v-77h518v-84h-625v240h487v68h-490v83zM686 809h102v-451h-102v451z" />
    <glyph glyph-name="uniACCD" unicode="&#xaccd;" 
 />
    <glyph glyph-name="uniACCE" unicode="&#xacce;" 
 />
    <glyph glyph-name="uniACCF" unicode="&#xaccf;" 
 />
    <glyph glyph-name="uniACD0" unicode="&#xacd0;" 
 />
    <glyph glyph-name="uniACD1" unicode="&#xacd1;" 
 />
    <glyph glyph-name="uniACD2" unicode="&#xacd2;" 
 />
    <glyph glyph-name="uniACD3" unicode="&#xacd3;" 
 />
    <glyph glyph-name="uniACD4" unicode="&#xacd4;" 
 />
    <glyph glyph-name="uniACD5" unicode="&#xacd5;" 
d="M509 497v87h-116q-32 -97 -107 -167.5t-199 -117.5l-52 79q128 46 193.5 117t77.5 168h-224v86h335q0 -40 -5 -83h97v126h102v-467h-102v89h-121v83h121zM194 283h107v-90h381v90h106v-349h-594v349zM682 19v90h-381v-90h381zM685 809h103v-490h-103v490z" />
    <glyph glyph-name="uniACD6" unicode="&#xacd6;" 
 />
    <glyph glyph-name="uniACD7" unicode="&#xacd7;" 
d="M507 471v93h-113q-64 -209 -305 -316l-55 79q125 54 192.5 133t80.5 185h-230v86h341q0 -39 -5 -82h94v142h100v-502h-100v97h-121v85h121zM290.5 53q66.5 34 103 81t36.5 99v29h107v-29q0 -52 36.5 -99t103 -81t153.5 -46l-40 -83q-105 16 -185 61.5t-122 112.5
q-41 -67 -121.5 -112.5t-185.5 -61.5l-39 83q87 12 153.5 46zM686 809h102v-596h-102v596z" />
    <glyph glyph-name="uniACD8" unicode="&#xacd8;" 
 />
    <glyph glyph-name="uniACD9" unicode="&#xacd9;" 
 />
    <glyph glyph-name="uniACDA" unicode="&#xacda;" 
 />
    <glyph glyph-name="uniACDB" unicode="&#xacdb;" 
 />
    <glyph glyph-name="uniACDC" unicode="&#xacdc;" 
 />
    <glyph glyph-name="uniACDD" unicode="&#xacdd;" 
 />
    <glyph glyph-name="uniACDE" unicode="&#xacde;" 
 />
    <glyph glyph-name="uniACDF" unicode="&#xacdf;" 
 />
    <glyph glyph-name="uniACE0" unicode="&#xace0;" 
d="M753 728v-86q0 -114 -5.5 -205.5t-28.5 -214.5l-108 12q23 115 28.5 205t5.5 202h-527v87h635zM34 123h297v311h107v-311h400v-88h-804v88z" />
    <glyph glyph-name="uniACE1" unicode="&#xace1;" 
d="M347 394v173h106v-173h383v-86h-800v86h311zM120 222h615v-303h-109v216h-506v87zM128 763h611v-65q0 -70 -3.5 -126t-18.5 -124l-107 9q14 61 18 112.5t4 107.5h-504v86z" />
    <glyph glyph-name="uniACE2" unicode="&#xace2;" 
 />
    <glyph glyph-name="uniACE3" unicode="&#xace3;" 
 />
    <glyph glyph-name="uniACE4" unicode="&#xace4;" 
d="M739 758v-63q0 -73 -4 -132.5t-20 -132.5l-107 12q14 66 19 120t5 110h-504v86h611zM36 376h311v174h106v-174h383v-86h-800v86zM132 209h108v-186h520v-87h-628v273z" />
    <glyph glyph-name="uniACE5" unicode="&#xace5;" 
 />
    <glyph glyph-name="uniACE6" unicode="&#xace6;" 
 />
    <glyph glyph-name="uniACE7" unicode="&#xace7;" 
d="M739 770v-74q0 -72 -4 -124t-20 -113l-107 11q15 58 19.5 105.5t4.5 109.5h-504v85h611zM36 417h311v155h106v-155h383v-86h-800v86zM131 249h605v-86h-497v-146h510v-87h-618v319z" />
    <glyph glyph-name="uniACE8" unicode="&#xace8;" 
d="M739 774v-55q0 -58 -3 -105.5t-14 -104.5l-105 8q15 88 15 172h-504v85h611zM36 467h311v138h106v-138h383v-85h-800v85zM126 316h615v-229h-506v-75h529v-85h-636v235h506v69h-508v85z" />
    <glyph glyph-name="uniACE9" unicode="&#xace9;" 
 />
    <glyph glyph-name="uniACEA" unicode="&#xacea;" 
d="M739 770v-58q0 -61 -3 -112.5t-16 -112.5l-106 11q18 94 18 187h-504v85h611zM36 446h311v148h106v-148h383v-86h-800v86zM117 294h288v-214h-183v-74q71 1 113.5 4t85.5 11l8 -79q-52 -11 -103 -13.5t-158 -2.5h-50v228h183v62h-184v78zM457 294h291v-368h-291v368z
M657 6v210h-109v-210h109z" />
    <glyph glyph-name="uniACEB" unicode="&#xaceb;" 
 />
    <glyph glyph-name="uniACEC" unicode="&#xacec;" 
d="M662 309v-85q0 -72 37.5 -133t111.5 -92l-58 -75q-100 45 -142 149q-44 -105 -141 -149l-54 69l5 -51q-50 -10 -98 -12.5t-156 -2.5h-49v226h183v64h-184v77h288v-214h-183v-74q67 1 108 4t84 11l2 -20q72 33 108.5 94t36.5 129v85h101zM36 449h311v149h106v-149h383v-86
h-800v86zM128 774h611v-66q0 -63 -3 -112t-16 -105l-106 12q11 51 14.5 94t3.5 92h-504v85z" />
    <glyph glyph-name="uniACED" unicode="&#xaced;" 
 />
    <glyph glyph-name="uniACEE" unicode="&#xacee;" 
 />
    <glyph glyph-name="uniACEF" unicode="&#xacef;" 
d="M560 258v71h104v-71h138v-78h-378v78h136zM36 459h311v147h106v-147h383v-85h-800v85zM114 303h278v-217h-176v-73q78 0 122 2.5t89 10.5l10 -77q-52 -11 -102.5 -13.5t-167.5 -2.5h-52v227h177v65h-178v78zM128 778h611v-55q0 -61 -3 -111.5t-16 -110.5l-106 11
q10 51 13.5 92.5t4.5 89.5h-504v84zM500.5 121.5q42.5 31.5 111.5 31.5t112 -31.5t43 -85.5q0 -53 -43 -84.5t-112 -31.5t-111.5 31.5t-42.5 84.5q0 54 42.5 85.5zM566.5 2q17.5 -12 45.5 -12t45 12t17 34q0 23 -16.5 34.5t-45.5 11.5q-28 0 -45.5 -12t-17.5 -34t17.5 -34z
" />
    <glyph glyph-name="uniACF0" unicode="&#xacf0;" 
d="M738 250v-320h-609v320h609zM36 419h311v160h106v-160h383v-85h-800v85zM128 772h611v-73q0 -72 -4 -123.5t-20 -112.5l-107 12q15 56 19.5 104t4.5 107h-504v86zM633 15v150h-398v-150h398z" />
    <glyph glyph-name="uniACF1" unicode="&#xacf1;" 
d="M739 776v-60q0 -66 -4 -119.5t-19 -118.5l-107 9q23 98 23 202h-504v87h611zM36 434h311v151h106v-151h383v-86h-800v86zM135 287h106v-95h389v95h105v-357h-600v357zM630 16v95h-389v-95h389z" />
    <glyph glyph-name="uniACF2" unicode="&#xacf2;" 
 />
    <glyph glyph-name="uniACF3" unicode="&#xacf3;" 
d="M739 767v-66q0 -70 -4 -125t-19 -121l-105 11q13 60 17 109.5t4 106.5h-504v85h611zM36 400h311v171h106v-171h383v-85h-800v85zM241.5 49q66.5 32 102 77.5t35.5 96.5v32h107v-32q0 -51 35.5 -96.5t101.5 -77.5t155 -43l-38 -84q-107 16 -186.5 59.5t-120.5 108.5
q-41 -65 -121 -108.5t-186 -59.5l-40 84q89 11 155.5 43z" />
    <glyph glyph-name="uniACF4" unicode="&#xacf4;" 
 />
    <glyph glyph-name="uniACF5" unicode="&#xacf5;" 
d="M597.5 232q70.5 -20 109 -57.5t38.5 -88.5t-38.5 -88.5t-109 -57.5t-165.5 -20q-144 0 -228.5 44t-84.5 122q0 51 38.5 88.5t109 57.5t165.5 20t165.5 -20zM36 404h311v162h106v-162h383v-86h-800v86zM128 767h611v-75q0 -72 -4 -123.5t-21 -112.5l-106 11
q15 58 19.5 105.5t4.5 108.5h-504v86zM280.5 24q54.5 -22 151.5 -22t151.5 22t54.5 62t-54.5 62t-151.5 22t-151.5 -22t-54.5 -62t54.5 -62z" />
    <glyph glyph-name="uniACF6" unicode="&#xacf6;" 
d="M746 263v-85h-251q13 -64 89.5 -112t196.5 -62l-37 -81q-108 14 -188 54.5t-120 103.5q-40 -63 -120 -103.5t-188 -54.5l-37 81q120 14 196.5 62t89.5 112h-251v85h620zM36 430h311v150h106v-150h383v-86h-800v86zM128 773h611v-70q0 -67 -4 -117.5t-20 -108.5l-106 11
q14 54 18.5 99t4.5 100h-504v86z" />
    <glyph glyph-name="uniACF7" unicode="&#xacf7;" 
 />
    <glyph glyph-name="uniACF8" unicode="&#xacf8;" 
 />
    <glyph glyph-name="uniACF9" unicode="&#xacf9;" 
 />
    <glyph glyph-name="uniACFA" unicode="&#xacfa;" 
 />
    <glyph glyph-name="uniACFB" unicode="&#xacfb;" 
 />
    <glyph glyph-name="uniACFC" unicode="&#xacfc;" 
d="M526 718v-63q0 -88 -4 -166t-20 -180l-106 9q15 90 20 164t5 149h-348v87h453zM197 195v268h106v-265q152 5 268 20l6 -78q-206 -34 -540 -34l-11 88q110 0 171 1zM618 809h107v-364h130v-89h-130v-436h-107v889z" />
    <glyph glyph-name="uniACFD" unicode="&#xacfd;" 
d="M526 751v-54q0 -65 -4 -121.5t-18 -124.5l-104 12q19 94 21 202h-343v86h448zM197 384v173h107v-170q155 7 270 23l7 -77q-123 -23 -258 -30t-288 -7l-11 86q111 0 173 2zM141 217h595v-294h-108v208h-487v86zM628 809h108v-238h116v-88h-116v-227h-108v553z" />
    <glyph glyph-name="uniACFE" unicode="&#xacfe;" 
 />
    <glyph glyph-name="uniACFF" unicode="&#xacff;" 
 />
    <glyph glyph-name="uniAD00" unicode="&#xad00;" 
d="M527 743v-53q0 -67 -4 -126.5t-18 -134.5l-105 12q20 102 22 215h-344v87h449zM197 359v181h107v-178q156 7 271 23l7 -77q-123 -22 -260 -29.5t-287 -7.5l-11 86q111 0 173 2zM157 202h107v-178h501v-87h-608v265zM628 809h108v-279h116v-88h-116v-300h-108v667z" />
    <glyph glyph-name="uniAD01" unicode="&#xad01;" 
 />
    <glyph glyph-name="uniAD02" unicode="&#xad02;" 
 />
    <glyph glyph-name="uniAD03" unicode="&#xad03;" 
 />
    <glyph glyph-name="uniAD04" unicode="&#xad04;" 
d="M526 767v-49q0 -57 -3.5 -109t-16.5 -114l-104 10q17 85 19 178h-343v84h448zM197 437v149h106v-147q160 7 272 20l8 -74q-123 -21 -258 -27.5t-290 -6.5l-10 84q111 0 172 2zM140 299h596v-219h-488v-71h519v-81h-626v227h487v64h-488v80zM628 809h108v-197h116v-88
h-116v-190h-108v475z" />
    <glyph glyph-name="uniAD05" unicode="&#xad05;" 
 />
    <glyph glyph-name="uniAD06" unicode="&#xad06;" 
d="M401 281v-208h-185v-66q73 0 115 2.5t83 11.5l8 -78q-51 -11 -102.5 -13.5t-158.5 -2.5h-50v218h186v59h-187v77h291zM197 435v150h106v-147q163 7 272 21l8 -75q-123 -21 -256 -27.5t-292 -6.5l-10 84q111 0 172 1zM78 767h448v-49q0 -58 -3.5 -110t-16.5 -114l-104 11
q17 84 19 178h-343v84zM447 281h289v-354h-289v354zM643 7v194h-103v-194h103zM628 809h108v-202h116v-88h-116v-200h-108v490z" />
    <glyph glyph-name="uniAD07" unicode="&#xad07;" 
 />
    <glyph glyph-name="uniAD08" unicode="&#xad08;" 
 />
    <glyph glyph-name="uniAD09" unicode="&#xad09;" 
 />
    <glyph glyph-name="uniAD0A" unicode="&#xad0a;" 
 />
    <glyph glyph-name="uniAD0B" unicode="&#xad0b;" 
 />
    <glyph glyph-name="uniAD0C" unicode="&#xad0c;" 
d="M526 759v-50q0 -61 -3.5 -114.5t-17.5 -119.5l-105 9q19 88 21 190h-343v85h448zM197 406v155h107v-151q148 5 271 22l7 -77q-122 -22 -252.5 -28.5t-293.5 -7.5l-12 86q111 0 173 1zM150 241h586v-307h-586v307zM631 19v138h-374v-138h374zM628 809h108v-221h116v-89
h-116v-216h-108v526z" />
    <glyph glyph-name="uniAD0D" unicode="&#xad0d;" 
d="M526 763v-50q0 -58 -3.5 -110.5t-16.5 -116.5l-104 12q17 84 19 179h-343v86h448zM197 426v148h106v-145q165 7 275 21l7 -78q-124 -20 -259.5 -26.5t-291.5 -6.5l-11 86q113 0 174 1zM151 274h107v-84h371v84h107v-343h-585v343zM629 17v90h-371v-90h371zM628 809h108
v-210h116v-88h-116v-203h-108v501z" />
    <glyph glyph-name="uniAD0E" unicode="&#xad0e;" 
 />
    <glyph glyph-name="uniAD0F" unicode="&#xad0f;" 
d="M526 757v-50q0 -63 -4 -118.5t-20 -123.5l-105 8q22 96 24 198h-343v86h448zM197 386v169h107v-165q149 5 272 22l7 -78q-123 -21 -256.5 -27.5t-291.5 -6.5l-11 85q111 0 173 1zM264 50q65 31 99 75t34 93v29h114v-29q0 -49 34.5 -93t99.5 -75t154 -42l-40 -84
q-106 15 -185 58t-120 107q-40 -64 -119 -107t-186 -58l-39 84q89 11 154 42zM628 809h108v-258h116v-90h-116v-258h-108v606z" />
    <glyph glyph-name="uniAD10" unicode="&#xad10;" 
d="M329 247v-24q0 -56 27.5 -109.5t81.5 -87.5q55 35 83.5 88.5t28.5 108.5v24h106v-22q0 -72 43 -130t126 -84l-52 -78q-121 42 -171 153q-22 -55 -63 -97.5t-100 -65.5q-59 22 -99.5 63.5t-62.5 96.5q-52 -108 -170 -150l-53 78q83 28 126.5 86.5t43.5 127.5v22h105z
M197 405v156h107v-153q154 5 271 20l7 -77q-123 -21 -255.5 -27t-290.5 -6l-12 86q112 0 173 1zM78 759h448v-50q0 -61 -3.5 -114.5t-17.5 -119.5l-105 9q19 88 21 190h-343v85zM628 809h108v-221h116v-89h-116v-217h-108v527z" />
    <glyph glyph-name="uniAD11" unicode="&#xad11;" 
d="M526 757v-53q0 -63 -3.5 -116.5t-17.5 -120.5l-105 8q19 92 21 196h-343v86h448zM197 396v166h107v-163q162 7 271 21l7 -77q-213 -35 -546 -35l-12 87q112 0 173 1zM221 207.5q81 43.5 221 43.5t221 -43.5t81 -119.5q0 -78 -81 -122.5t-221 -44.5t-221 44.5t-81 122.5
q0 76 81 119.5zM299.5 26.5q50.5 -21.5 142.5 -21.5t142.5 21.5t50.5 61.5q0 38 -50.5 59t-142.5 21t-142.5 -21t-50.5 -59q0 -40 50.5 -61.5zM628 809h108v-229h116v-89h-116v-229h-108v547z" />
    <glyph glyph-name="uniAD12" unicode="&#xad12;" 
 />
    <glyph glyph-name="uniAD13" unicode="&#xad13;" 
 />
    <glyph glyph-name="uniAD14" unicode="&#xad14;" 
 />
    <glyph glyph-name="uniAD15" unicode="&#xad15;" 
 />
    <glyph glyph-name="uniAD16" unicode="&#xad16;" 
 />
    <glyph glyph-name="uniAD17" unicode="&#xad17;" 
 />
    <glyph glyph-name="uniAD18" unicode="&#xad18;" 
d="M440 711v-64q0 -85 -3.5 -157.5t-18.5 -166.5l-97 8q21 139 21 295h-283v85h381zM153 215v249h99v-247q132 5 217 17l6 -77q-162 -32 -439 -32l-14 89q83 0 131 1zM511 792h101v-347h84v364h102v-889h-102v438h-84v-394h-101v828z" />
    <glyph glyph-name="uniAD19" unicode="&#xad19;" 
 />
    <glyph glyph-name="uniAD1A" unicode="&#xad1a;" 
 />
    <glyph glyph-name="uniAD1B" unicode="&#xad1b;" 
 />
    <glyph glyph-name="uniAD1C" unicode="&#xad1c;" 
d="M442 741v-58q0 -68 -3 -125t-15 -128l-101 10q19 107 19 215h-273v86h373zM158 360v177h99v-174q127 5 216 16l6 -76q-165 -30 -445 -30l-11 86q85 0 135 1zM174 205h110v-181h532v-87h-642v268zM511 792h100v-255h81v272h103v-672h-103v313h-81v-291h-100v633z" />
    <glyph glyph-name="uniAD1D" unicode="&#xad1d;" 
 />
    <glyph glyph-name="uniAD1E" unicode="&#xad1e;" 
d="M568 238v61h104v-61h164v-77h-432v77h164zM158 419v161h99v-157q127 5 215 20l7 -75q-160 -34 -443 -34l-13 84q85 0 135 1zM69 760h374v-52q0 -58 -2.5 -108t-13.5 -111l-100 9q13 79 15 177h-273v85zM144 253h106v-226q98 10 146 38l27 -82q-80 -46 -231 -46h-48v316z
M494 110q48 30 126 30q77 0 125 -30t48 -80t-48 -80t-125 -30q-78 0 -126 30t-48 80t48 80zM511 791h101v-196h80v214h103v-483h-103v182h-80v-178h-101v461zM564 -0.5q21 -10.5 56 -10.5q34 0 55 10.5t21 30.5q0 19 -21 29.5t-55 10.5q-35 0 -56 -10.5t-21 -29.5
q0 -20 21 -30.5z" />
    <glyph glyph-name="uniAD1F" unicode="&#xad1f;" 
 />
    <glyph glyph-name="uniAD20" unicode="&#xad20;" 
d="M442 760v-52q0 -58 -2.5 -108t-12.5 -111l-100 9q13 79 15 177h-273v85h373zM158 430v150h99v-147q116 5 215 17l6 -76q-154 -28 -443 -30l-12 84q85 0 135 2zM171 291h624v-215h-516v-67h542v-82h-649v224h517v60h-518v80zM511 792h101v-191h80v208h103v-483h-103v189
h-80v-185h-101v462z" />
    <glyph glyph-name="uniAD21" unicode="&#xad21;" 
 />
    <glyph glyph-name="uniAD22" unicode="&#xad22;" 
d="M438 289v-212h-201v-70q68 0 115.5 3t98.5 11l9 -77q-64 -11 -123 -14t-153 -3h-51v222h202v62h-203v78h306zM157 433v149h100v-146q128 5 215 16l6 -74q-162 -30 -443 -30l-12 83q85 0 134 2zM68 760h374v-52q0 -58 -2.5 -108t-12.5 -111l-100 9q13 79 15 177h-274v85z
M487 289h307v-362h-307v362zM511 792h100v-188h81v205h102v-480h-102v188h-81v-184h-100v459zM696 8v202h-110v-202h110z" />
    <glyph glyph-name="uniAD23" unicode="&#xad23;" 
 />
    <glyph glyph-name="uniAD24" unicode="&#xad24;" 
 />
    <glyph glyph-name="uniAD25" unicode="&#xad25;" 
 />
    <glyph glyph-name="uniAD26" unicode="&#xad26;" 
 />
    <glyph glyph-name="uniAD27" unicode="&#xad27;" 
 />
    <glyph glyph-name="uniAD28" unicode="&#xad28;" 
 />
    <glyph glyph-name="uniAD29" unicode="&#xad29;" 
d="M442 759v-55q0 -61 -3 -113.5t-15 -115.5l-100 6q16 85 18 193h-274v85h374zM157 411v157h100v-154q128 5 215 16l6 -75q-160 -28 -445 -30l-11 85q85 0 135 1zM176 269h106v-83h405v83h107v-338h-618v338zM687 17v85h-405v-85h405zM511 792h100v-203h81v220h102v-505
h-102v197h-81v-189h-100v480z" />
    <glyph glyph-name="uniAD2A" unicode="&#xad2a;" 
 />
    <glyph glyph-name="uniAD2B" unicode="&#xad2b;" 
 />
    <glyph glyph-name="uniAD2C" unicode="&#xad2c;" 
d="M443 751v-55q0 -63 -3 -116t-14 -118l-98 10q15 100 15 193h-274v86h374zM158 394v165h100v-162q141 8 215 19l6 -74q-158 -32 -443 -32l-12 83q84 0 134 1zM203 98q44 60 44 132v22h104v-22q0 -59 27.5 -113.5t82.5 -89.5q55 37 83.5 91.5t28.5 111.5v22h104v-22
q0 -74 44.5 -134t128.5 -86l-53 -79q-63 21 -106.5 61.5t-66.5 95.5q-23 -56 -63.5 -99t-98.5 -66q-115 45 -163 163q-24 -53 -67 -93.5t-104 -61.5l-53 79q84 28 128 88zM512 792h100v-209h81v226h102v-525h-102v212h-81v-204h-100v500z" />
    <glyph glyph-name="uniAD2D" unicode="&#xad2d;" 
d="M442 746v-57q0 -64 -2.5 -117.5t-12.5 -118.5l-100 8q15 95 15 199h-274v86h374zM157 387v160h100v-157q123 5 214 19l6 -75q-95 -20 -206.5 -26.5t-236.5 -7.5l-11 86q84 0 134 1zM249 195.5q83 41.5 231 41.5t231 -41.5t83 -116.5q0 -77 -83 -118t-231 -41t-231 41
t-83 118q0 75 83 116.5zM480 2q203 0 203 77q0 76 -203 76t-203 -76q0 -77 203 -77zM511 791h100v-213h81v231h102v-559h-102v241h-81v-212h-100v512z" />
    <glyph glyph-name="uniAD2E" unicode="&#xad2e;" 
 />
    <glyph glyph-name="uniAD2F" unicode="&#xad2f;" 
 />
    <glyph glyph-name="uniAD30" unicode="&#xad30;" 
 />
    <glyph glyph-name="uniAD31" unicode="&#xad31;" 
 />
    <glyph glyph-name="uniAD32" unicode="&#xad32;" 
 />
    <glyph glyph-name="uniAD33" unicode="&#xad33;" 
 />
    <glyph glyph-name="uniAD34" unicode="&#xad34;" 
d="M550 709v-57q0 -83 -4 -159.5t-20 -175.5l-106 12q24 145 24 294h-352v86h458zM217 190v250h106v-247q176 7 292 22l8 -79q-132 -21 -274 -28t-300 -7l-14 88q118 0 182 1zM667 810h108v-892h-108v892z" />
    <glyph glyph-name="uniAD35" unicode="&#xad35;" 
d="M540 751v-54q0 -66 -3.5 -123t-16.5 -125l-105 11q19 96 21 205h-337v86h441zM219 379v168h104v-165q153 5 283 22l6 -78q-128 -21 -263.5 -27.5t-300.5 -7.5l-13 86q119 0 184 2zM158 221h612v-301h-107v214h-505v87zM663 809h107v-547h-107v547z" />
    <glyph glyph-name="uniAD36" unicode="&#xad36;" 
 />
    <glyph glyph-name="uniAD37" unicode="&#xad37;" 
 />
    <glyph glyph-name="uniAD38" unicode="&#xad38;" 
d="M546 746v-63q0 -69 -4 -126t-19 -125l-104 13q13 61 17 111t4 104h-346v86h452zM222 357v179h104v-176q154 5 280 19l6 -76q-223 -35 -565 -35l-14 87q123 0 189 2zM185 198h107v-174h502v-87h-609v261zM664 809h107v-670h-107v670z" />
    <glyph glyph-name="uniAD39" unicode="&#xad39;" 
 />
    <glyph glyph-name="uniAD3A" unicode="&#xad3a;" 
 />
    <glyph glyph-name="uniAD3B" unicode="&#xad3b;" 
 />
    <glyph glyph-name="uniAD3C" unicode="&#xad3c;" 
d="M539 766v-50q0 -58 -4 -110t-18 -114l-104 10q19 83 21 179h-336v85h441zM220 434v151h105v-148q147 5 281 21l6 -75q-130 -20 -270 -27t-294 -7l-14 84q120 0 186 1zM168 293h604v-216h-496v-69h528v-81h-634v224h496v63h-498v79zM664 809h108v-478h-108v478z" />
    <glyph glyph-name="uniAD3D" unicode="&#xad3d;" 
 />
    <glyph glyph-name="uniAD3E" unicode="&#xad3e;" 
 />
    <glyph glyph-name="uniAD3F" unicode="&#xad3f;" 
 />
    <glyph glyph-name="uniAD40" unicode="&#xad40;" 
 />
    <glyph glyph-name="uniAD41" unicode="&#xad41;" 
 />
    <glyph glyph-name="uniAD42" unicode="&#xad42;" 
 />
    <glyph glyph-name="uniAD43" unicode="&#xad43;" 
 />
    <glyph glyph-name="uniAD44" unicode="&#xad44;" 
d="M770 809v-534h-107v534h107zM219 398v153h104v-150q160 7 282 23l7 -74q-128 -23 -264.5 -30.5t-300.5 -8.5l-12 85q118 0 184 2zM100 756h440v-53q0 -63 -3 -116.5t-15 -118.5l-106 9q10 53 13.5 97.5t4.5 94.5h-334v87zM174 234h596v-303h-596v303zM665 16v134h-386
v-134h386z" />
    <glyph glyph-name="uniAD45" unicode="&#xad45;" 
d="M770 808v-500h-107v500h107zM221 413v148h104v-145q159 5 280 20l7 -75q-129 -20 -269 -26.5t-296 -6.5l-12 84q121 0 186 1zM100 763h442v-56q0 -61 -3 -112.5t-15 -114.5l-105 10q18 94 18 189h-337v84zM173 271h106v-86h385v86h106v-340h-597v340zM664 17v85h-385v-85
h385z" />
    <glyph glyph-name="uniAD46" unicode="&#xad46;" 
 />
    <glyph glyph-name="uniAD47" unicode="&#xad47;" 
d="M771 809v-612h-107v612h107zM219 390v156h104v-153q156 5 283 19l6 -76q-223 -35 -564 -35l-12 87q55 0 183 2zM100 755h441v-68q0 -67 -3 -118t-15 -110l-106 13q12 53 15.5 98.5t3.5 98.5h-336v86zM282 54q65 33 100 79.5t35 98.5v23h109v-23q0 -52 35 -98.5t100 -79.5
t152 -45l-41 -84q-104 16 -182 61.5t-118 111.5q-41 -66 -119 -111.5t-182 -61.5l-41 84q87 12 152 45z" />
    <glyph glyph-name="uniAD48" unicode="&#xad48;" 
 />
    <glyph glyph-name="uniAD49" unicode="&#xad49;" 
d="M770 809v-552h-107v552h107zM219 389v157h104v-154q160 5 282 20l7 -75q-129 -21 -261.5 -27t-303.5 -7l-12 85q119 0 184 1zM100 756h440v-63q0 -66 -3 -120.5t-16 -118.5l-104 12q18 95 18 205h-335v85zM243 204.5q82 43.5 225 43.5q142 0 224 -43.5t82 -120.5
q0 -78 -81.5 -121t-224.5 -43t-225 43t-82 121q0 77 82 120.5zM324 24q51 -21 144 -21q94 0 144 20.5t50 60.5t-50 60.5t-144 20.5q-93 0 -144 -21t-51 -60t51 -60z" />
    <glyph glyph-name="uniAD4A" unicode="&#xad4a;" 
 />
    <glyph glyph-name="uniAD4B" unicode="&#xad4b;" 
 />
    <glyph glyph-name="uniAD4C" unicode="&#xad4c;" 
 />
    <glyph glyph-name="uniAD4D" unicode="&#xad4d;" 
 />
    <glyph glyph-name="uniAD4E" unicode="&#xad4e;" 
 />
    <glyph glyph-name="uniAD4F" unicode="&#xad4f;" 
 />
    <glyph glyph-name="uniAD50" unicode="&#xad50;" 
d="M756 728v-91q0 -113 -5 -201t-26 -203l-106 11q20 108 25 195t5 198v4h-535v87h642zM34 123h181v286h106v-286h115v286h105v-286h297v-88h-804v88z" />
    <glyph glyph-name="uniAD51" unicode="&#xad51;" 
 />
    <glyph glyph-name="uniAD52" unicode="&#xad52;" 
 />
    <glyph glyph-name="uniAD53" unicode="&#xad53;" 
 />
    <glyph glyph-name="uniAD54" unicode="&#xad54;" 
d="M747 760v-68q0 -74 -3 -132t-16 -129l-106 10q12 64 15.5 118.5t3.5 114.5h-518v86h624zM36 367h184v174h105v-174h119v174h105v-174h287v-86h-800v86zM132 205h108v-182h520v-87h-628v269z" />
    <glyph glyph-name="uniAD55" unicode="&#xad55;" 
 />
    <glyph glyph-name="uniAD56" unicode="&#xad56;" 
 />
    <glyph glyph-name="uniAD57" unicode="&#xad57;" 
 />
    <glyph glyph-name="uniAD58" unicode="&#xad58;" 
d="M747 778v-61q0 -60 -2.5 -107t-13.5 -102l-104 10q14 82 14 174h-518v86h624zM36 463h185v147h106v-147h114v147h105v-147h290v-85h-800v85zM126 316h615v-229h-506v-75h529v-85h-636v235h506v69h-508v85z" />
    <glyph glyph-name="uniAD59" unicode="&#xad59;" 
 />
    <glyph glyph-name="uniAD5A" unicode="&#xad5a;" 
 />
    <glyph glyph-name="uniAD5B" unicode="&#xad5b;" 
 />
    <glyph glyph-name="uniAD5C" unicode="&#xad5c;" 
 />
    <glyph glyph-name="uniAD5D" unicode="&#xad5d;" 
 />
    <glyph glyph-name="uniAD5E" unicode="&#xad5e;" 
 />
    <glyph glyph-name="uniAD5F" unicode="&#xad5f;" 
 />
    <glyph glyph-name="uniAD60" unicode="&#xad60;" 
d="M738 250v-320h-609v320h609zM36 413h184v154h105v-154h119v154h105v-154h287v-86h-800v86zM123 774h624v-62q0 -67 -3 -121.5t-16 -119.5l-105 10q18 96 18 207h-518v86zM633 16v149h-398v-149h398z" />
    <glyph glyph-name="uniAD61" unicode="&#xad61;" 
d="M745 777v-58q0 -66 -3.5 -121t-17.5 -123l-105 12q20 100 20 203h-518v87h624zM36 429h185v155h105v-155h111v155h106v-155h293v-87h-800v87zM135 286h106v-94h389v94h105v-356h-600v356zM630 15v95h-389v-95h389z" />
    <glyph glyph-name="uniAD62" unicode="&#xad62;" 
 />
    <glyph glyph-name="uniAD63" unicode="&#xad63;" 
d="M754 771v-77q0 -73 -3.5 -126t-16.5 -115l-106 10q13 58 17 107.5t4 114.5h-524v86h629zM34 396h189v173h105v-173h112v173h105v-173h293v-87h-804v87zM241.5 49q66.5 32 102 77.5t35.5 96.5v32h107v-32q0 -51 35.5 -96.5t101.5 -77.5t155 -43l-38 -84
q-107 16 -186.5 59.5t-120.5 108.5q-41 -65 -121 -108.5t-186 -59.5l-40 84q89 11 155.5 43z" />
    <glyph glyph-name="uniAD64" unicode="&#xad64;" 
 />
    <glyph glyph-name="uniAD65" unicode="&#xad65;" 
d="M747 768v-64q0 -68 -3 -123t-16 -122l-106 10q19 98 19 213h-518v86h624zM36 399h184v160h105v-160h119v160h105v-160h287v-86h-800v86zM157.5 174.5q38.5 37.5 109 57.5t165.5 20t165.5 -20t109 -57.5t38.5 -88.5t-38.5 -88.5t-109 -57.5t-165.5 -20q-144 0 -228.5 44
t-84.5 122q0 51 38.5 88.5zM280.5 24q54.5 -22 151.5 -22t151.5 22t54.5 62t-54.5 62t-151.5 22t-151.5 -22t-54.5 -62t54.5 -62z" />
    <glyph glyph-name="uniAD66" unicode="&#xad66;" 
 />
    <glyph glyph-name="uniAD67" unicode="&#xad67;" 
 />
    <glyph glyph-name="uniAD68" unicode="&#xad68;" 
 />
    <glyph glyph-name="uniAD69" unicode="&#xad69;" 
 />
    <glyph glyph-name="uniAD6A" unicode="&#xad6a;" 
 />
    <glyph glyph-name="uniAD6B" unicode="&#xad6b;" 
 />
    <glyph glyph-name="uniAD6C" unicode="&#xad6c;" 
d="M739 754v-78q0 -86 -4 -152t-19 -150h122v-88h-350v-368h-109v368h-345v88h574q16 81 20.5 147.5t4.5 146.5h-502v86h608z" />
    <glyph glyph-name="uniAD6D" unicode="&#xad6d;" 
d="M741 768v-68q0 -69 -3.5 -122.5t-16.5 -119.5h118v-87h-349v-142h254v-309h-107v224h-520v85h266v142h-349v87h580q13 62 17 114t4 110h-500v86h606z" />
    <glyph glyph-name="uniAD6E" unicode="&#xad6e;" 
 />
    <glyph glyph-name="uniAD6F" unicode="&#xad6f;" 
 />
    <glyph glyph-name="uniAD70" unicode="&#xad70;" 
d="M742 765v-74q0 -76 -3.5 -134.5t-17.5 -130.5h118v-86h-344v-200h-107v200h-354v86h579q14 70 18 127t4 126h-500v86h607zM132 220h106v-197h518v-87h-624v284z" />
    <glyph glyph-name="uniAD71" unicode="&#xad71;" 
 />
    <glyph glyph-name="uniAD72" unicode="&#xad72;" 
 />
    <glyph glyph-name="uniAD73" unicode="&#xad73;" 
d="M741 770v-69q0 -69 -3 -122t-16 -117h117v-86h-349v-128h253v-84h-505v-149h515v-85h-622v318h252v128h-349v86h581q12 61 16 112.5t4 108.5h-500v87h606z" />
    <glyph glyph-name="uniAD74" unicode="&#xad74;" 
d="M741 774v-59q0 -61 -3 -110t-14 -108h115v-86h-350v-94h252v-231h-506v-74h529v-85h-636v234h506v71h-508v85h256v94h-348v86h582q19 94 19 192h-500v85h606z" />
    <glyph glyph-name="uniAD75" unicode="&#xad75;" 
d="M741 775v-59q0 -61 -3 -111.5t-14 -110.5h115v-87h-350v-114h257v-370h-105v284h-181v81h-45v-213h-191v-68q100 1 152 5t101 16l11 -80q-58 -13 -121 -17.5t-190 -4.5h-57v226h191v61h-193v80h264v114h-348v87h582q19 96 19 195h-500v86h606z" />
    <glyph glyph-name="uniAD76" unicode="&#xad76;" 
d="M741 775v-60q0 -62 -3 -113t-15 -112h116v-87h-351v-109h260v-367h-291v351h-52v-198h-183v-73q74 1 115.5 3.5t83.5 10.5l8 -79q-51 -10 -100 -12.5t-161 -2.5h-50v226h183v63h-184v78h265v109h-348v87h581q20 98 20 199h-500v86h606zM657 6v210h-109v-210h109z" />
    <glyph glyph-name="uniAD77" unicode="&#xad77;" 
 />
    <glyph glyph-name="uniAD78" unicode="&#xad78;" 
 />
    <glyph glyph-name="uniAD79" unicode="&#xad79;" 
 />
    <glyph glyph-name="uniAD7A" unicode="&#xad7a;" 
 />
    <glyph glyph-name="uniAD7B" unicode="&#xad7b;" 
d="M741 776v-55q0 -60 -3 -111.5t-14 -113.5h115v-87h-354v-118h-93v-211h-176v-67q78 0 122 2.5t89 10.5l10 -77q-52 -11 -102.5 -13.5t-167.5 -2.5h-52v223h177v61h-178v78h263v114h-343v87h582q11 54 14.5 99t4.5 96h-500v85h606zM424 257h136v75h104v-75h138v-79h-378
v79zM500.5 123q42.5 32 111.5 32t112 -32t43 -86q0 -55 -43 -86.5t-112 -31.5t-111.5 31.5t-42.5 86.5q0 54 42.5 86zM566.5 1q17.5 -13 45.5 -13q29 0 46 13t17 36t-17.5 35.5t-45.5 12.5t-45.5 -12.5t-17.5 -35.5t17.5 -36z" />
    <glyph glyph-name="uniAD7C" unicode="&#xad7c;" 
d="M739 772v-68q0 -69 -3 -122.5t-15 -118.5h118v-86h-350v-130h251v-317h-609v317h251v130h-348v86h579q13 62 17 114t4 109h-502v86h607zM635 16v147h-399v-147h399z" />
    <glyph glyph-name="uniAD7D" unicode="&#xad7d;" 
d="M739 775v-69q0 -67 -3 -119.5t-15 -116.5h118v-85h-352v-137h-107v137h-346v85h580q12 60 16 111t4 107h-502v87h607zM132 294h107v-99h392v99h106v-364h-605v364zM631 16v95h-392v-95h392z" />
    <glyph glyph-name="uniAD7E" unicode="&#xad7e;" 
 />
    <glyph glyph-name="uniAD7F" unicode="&#xad7f;" 
d="M740 772v-59q0 -66 -3 -121.5t-16 -124.5h118v-87h-351v-126h-106v126h-348v87h580q21 107 21 220h-500v85h605zM243 42q66 28 101.5 67.5t35.5 81.5v27h109v-27q0 -44 35 -83t100.5 -66.5t153.5 -37.5l-36 -81q-108 13 -188 52.5t-121 99.5q-40 -60 -119.5 -99.5
t-185.5 -52.5l-37 81q86 10 152 38z" />
    <glyph glyph-name="uniAD80" unicode="&#xad80;" 
 />
    <glyph glyph-name="uniAD81" unicode="&#xad81;" 
d="M741 773v-66q0 -70 -3.5 -124.5t-16.5 -120.5h118v-86h-350v-121q121 -8 189 -51.5t68 -115.5q0 -80 -82.5 -124t-228.5 -44q-145 0 -227.5 44t-82.5 124q0 72 68 115.5t189 51.5v121h-348v86h579q14 63 18 115t4 111h-500v85h606zM285 26q52 -21 150 -21q99 0 151 21
t52 62t-52 62t-151 21q-98 0 -150 -21t-52 -62t52 -62z" />
    <glyph glyph-name="uniAD82" unicode="&#xad82;" 
d="M740 771v-56q0 -64 -3 -119t-15 -124h117v-87h-350v-118h257v-86h-252q12 -66 89 -114.5t198 -61.5l-37 -82q-108 14 -188 55t-120 104q-40 -63 -119.5 -104t-188.5 -55l-37 82q121 13 198 61.5t89 114.5h-252v86h256v118h-348v87h581q11 59 15 108t5 104h-500v87h605z
" />
    <glyph glyph-name="uniAD83" unicode="&#xad83;" 
 />
    <glyph glyph-name="uniAD84" unicode="&#xad84;" 
 />
    <glyph glyph-name="uniAD85" unicode="&#xad85;" 
 />
    <glyph glyph-name="uniAD86" unicode="&#xad86;" 
 />
    <glyph glyph-name="uniAD87" unicode="&#xad87;" 
 />
    <glyph glyph-name="uniAD88" unicode="&#xad88;" 
d="M778 809v-889h-108v243h-187v85h187v561h108zM397 407q20 117 22 247h-322v87h428v-54q0 -70 -3.5 -132t-17.5 -141q67 6 102 10l6 -78q-117 -17 -253 -25v-358h-108v353q-101 -4 -214 -4l-14 87q248 2 374 8z" />
    <glyph glyph-name="uniAD89" unicode="&#xad89;" 
d="M779 809v-569h-107v62h-183v78h183v429h107zM402 507q17 90 19 176h-312v85h416v-43q0 -53 -3 -102t-13 -109l92 9l8 -77q-107 -16 -252 -26v-179h-107v174q-101 -4 -212 -4l-13 86q248 2 377 10zM161 204h618v-283h-108v198h-510v85z" />
    <glyph glyph-name="uniAD8A" unicode="&#xad8a;" 
 />
    <glyph glyph-name="uniAD8B" unicode="&#xad8b;" 
 />
    <glyph glyph-name="uniAD8C" unicode="&#xad8c;" 
d="M778 809v-670h-108v108h-181v84h181v478h108zM401 476q17 102 19 199h-312v86h419v-33q0 -130 -17 -243q31 3 91 11l7 -77q-107 -18 -233 -28v-196h-107v190q-101 -5 -227 -5l-14 87q224 0 374 9zM153 208h107v-184h539v-87h-646v271z" />
    <glyph glyph-name="uniAD8D" unicode="&#xad8d;" 
 />
    <glyph glyph-name="uniAD8E" unicode="&#xad8e;" 
 />
    <glyph glyph-name="uniAD8F" unicode="&#xad8f;" 
 />
    <glyph glyph-name="uniAD90" unicode="&#xad90;" 
d="M779 809v-499h-107v43h-183v72h183v384h107zM400 536q15 74 19 155h-304v86h409v-31q0 -110 -17 -201q40 4 99 11l7 -73q-117 -21 -257 -29v-143h-107v137q-111 -3 -206 -3l-13 82q223 0 370 9zM169 279h610v-209h-502v-63h532v-80h-638v216h502v58h-504v78z" />
    <glyph glyph-name="uniAD91" unicode="&#xad91;" 
 />
    <glyph glyph-name="uniAD92" unicode="&#xad92;" 
 />
    <glyph glyph-name="uniAD93" unicode="&#xad93;" 
 />
    <glyph glyph-name="uniAD94" unicode="&#xad94;" 
 />
    <glyph glyph-name="uniAD95" unicode="&#xad95;" 
 />
    <glyph glyph-name="uniAD96" unicode="&#xad96;" 
 />
    <glyph glyph-name="uniAD97" unicode="&#xad97;" 
 />
    <glyph glyph-name="uniAD98" unicode="&#xad98;" 
 />
    <glyph glyph-name="uniAD99" unicode="&#xad99;" 
 />
    <glyph glyph-name="uniAD9A" unicode="&#xad9a;" 
 />
    <glyph glyph-name="uniAD9B" unicode="&#xad9b;" 
 />
    <glyph glyph-name="uniAD9C" unicode="&#xad9c;" 
d="M780 809v-534h-108v49h-182v80h182v405h108zM405 526q15 86 17 163h-312v86h416v-43q0 -50 -2.5 -95.5t-11.5 -101.5q31 3 91 11l7 -78q-111 -19 -252 -29v-162h-107v156q-101 -4 -212 -4l-13 86q248 2 379 11zM221.5 98q42.5 57 42.5 125v21h104v-21q0 -55 26 -107
t77 -86q52 36 78.5 87.5t26.5 105.5v21h106v-21q0 -70 42.5 -127t123.5 -82l-52 -79q-60 20 -102.5 59t-65.5 91q-21 -53 -60 -94.5t-96 -63.5q-111 43 -156 157q-51 -108 -166 -149l-52 79q81 27 123.5 84z" />
    <glyph glyph-name="uniAD9D" unicode="&#xad9d;" 
d="M778 809v-563h-107v60h-182v77h182v426h107zM403 505q18 89 20 178h-311v85h414v-46q0 -53 -3 -101t-14 -107q36 3 95 11l7 -75q-115 -21 -255 -29v-168h-107v162q-68 -3 -207 -5l-14 85q247 2 375 10zM250.5 196.5q81.5 41.5 227.5 41.5q145 0 226.5 -41.5t81.5 -117.5
t-81.5 -117.5t-226.5 -41.5q-146 0 -227.5 41.5t-81.5 117.5t81.5 117.5zM330 21.5q51 -19.5 148 -19.5t147.5 19.5t50.5 57.5q0 37 -50.5 56.5t-147.5 19.5q-98 0 -148.5 -19.5t-50.5 -56.5q0 -38 51 -57.5z" />
    <glyph glyph-name="uniAD9E" unicode="&#xad9e;" 
 />
    <glyph glyph-name="uniAD9F" unicode="&#xad9f;" 
 />
    <glyph glyph-name="uniADA0" unicode="&#xada0;" 
 />
    <glyph glyph-name="uniADA1" unicode="&#xada1;" 
 />
    <glyph glyph-name="uniADA2" unicode="&#xada2;" 
 />
    <glyph glyph-name="uniADA3" unicode="&#xada3;" 
 />
    <glyph glyph-name="uniADA4" unicode="&#xada4;" 
d="M800 809v-889h-102v889h102zM304 415q20 107 22 214h-257v86h359v-43q0 -61 -3.5 -119t-16.5 -131q29 2 70 8l7 -76q-79 -15 -182 -22v-339h-102v333q-83 -4 -169 -4l-10 87q160 0 282 6zM376 256h149v536h100v-828h-100v208h-149v84z" />
    <glyph glyph-name="uniADA5" unicode="&#xada5;" 
 />
    <glyph glyph-name="uniADA6" unicode="&#xada6;" 
 />
    <glyph glyph-name="uniADA7" unicode="&#xada7;" 
 />
    <glyph glyph-name="uniADA8" unicode="&#xada8;" 
 />
    <glyph glyph-name="uniADA9" unicode="&#xada9;" 
 />
    <glyph glyph-name="uniADAA" unicode="&#xadaa;" 
 />
    <glyph glyph-name="uniADAB" unicode="&#xadab;" 
 />
    <glyph glyph-name="uniADAC" unicode="&#xadac;" 
 />
    <glyph glyph-name="uniADAD" unicode="&#xadad;" 
 />
    <glyph glyph-name="uniADAE" unicode="&#xadae;" 
 />
    <glyph glyph-name="uniADAF" unicode="&#xadaf;" 
 />
    <glyph glyph-name="uniADB0" unicode="&#xadb0;" 
 />
    <glyph glyph-name="uniADB1" unicode="&#xadb1;" 
 />
    <glyph glyph-name="uniADB2" unicode="&#xadb2;" 
 />
    <glyph glyph-name="uniADB3" unicode="&#xadb3;" 
 />
    <glyph glyph-name="uniADB4" unicode="&#xadb4;" 
d="M793 224v-293h-621v293h621zM303 510q18 82 20 162h-247v85h349v-37q0 -50 -3 -97t-14 -105q28 2 72 8l7 -75q-91 -16 -180 -22v-162h-102v156q-84 -4 -172 -4l-10 84q162 0 280 7zM686 14v127h-408v-127h408zM372 393h149v400h101v-526h-101v48h-149v78zM691 809h102
v-548h-102v548z" />
    <glyph glyph-name="uniADB5" unicode="&#xadb5;" 
 />
    <glyph glyph-name="uniADB6" unicode="&#xadb6;" 
 />
    <glyph glyph-name="uniADB7" unicode="&#xadb7;" 
d="M794 809v-635h-103v635h103zM303 495q18 84 20 167h-246v86h348v-39q0 -51 -3 -99t-15 -108l73 9l8 -77q-86 -15 -181 -23v-208h-101v202q-84 -4 -172 -4l-11 87q162 0 280 7zM289 41q66 28 100.5 68t34.5 87v18h107v-18q0 -47 34 -87t99 -68t154 -38l-38 -81
q-107 14 -185 53t-118 98q-41 -60 -120 -98.5t-187 -52.5l-38 81q91 10 157 38zM372 371h149v420h101v-572h-101v75h-149v77z" />
    <glyph glyph-name="uniADB8" unicode="&#xadb8;" 
d="M794 809v-548h-102v548h102zM304 510q18 82 20 162h-247v85h349v-37q0 -50 -3 -97.5t-14 -105.5q28 2 72 8l7 -74q-91 -16 -180 -22v-162h-102v156q-84 -4 -172 -4l-11 84q163 0 281 7zM201.5 90.5q44.5 55.5 44.5 121.5v19h104v-19q0 -53 28 -104t82 -84
q55 34 83.5 84.5t28.5 103.5v19h104v-19q0 -68 45 -123.5t128 -78.5l-51 -78q-63 19 -107 57.5t-68 91.5q-22 -54 -63 -95t-99 -63q-116 42 -163 156q-24 -51 -68 -89t-105 -58l-51 78q83 25 127.5 80.5zM372 393h150v400h101v-526h-101v48h-150v78z" />
    <glyph glyph-name="uniADB9" unicode="&#xadb9;" 
 />
    <glyph glyph-name="uniADBA" unicode="&#xadba;" 
 />
    <glyph glyph-name="uniADBB" unicode="&#xadbb;" 
 />
    <glyph glyph-name="uniADBC" unicode="&#xadbc;" 
 />
    <glyph glyph-name="uniADBD" unicode="&#xadbd;" 
 />
    <glyph glyph-name="uniADBE" unicode="&#xadbe;" 
 />
    <glyph glyph-name="uniADBF" unicode="&#xadbf;" 
 />
    <glyph glyph-name="uniADC0" unicode="&#xadc0;" 
d="M780 809v-889h-107v889h107zM394 402q24 126 26 256h-318v87h424v-44q0 -70 -4 -137.5t-19 -155.5q39 3 115 11l7 -80q-106 -15 -256 -24v-346h-108v341q-103 -4 -219 -4l-14 89q218 0 366 7z" />
    <glyph glyph-name="uniADC1" unicode="&#xadc1;" 
d="M767 809v-531h-107v531h107zM395 473q19 98 21 207h-307v86h413v-56q0 -60 -3 -112.5t-15 -115.5q52 5 101 12l7 -77q-111 -20 -241 -28v-153h396v-319h-107v232h-503v87h106v147q-100 -5 -221 -5l-13 87q235 0 366 8z" />
    <glyph glyph-name="uniADC2" unicode="&#xadc2;" 
 />
    <glyph glyph-name="uniADC3" unicode="&#xadc3;" 
 />
    <glyph glyph-name="uniADC4" unicode="&#xadc4;" 
d="M407 453q18 109 20 213h-317v85h422v-39q0 -61 -3 -119t-15 -132q35 3 93 11l7 -75q-103 -18 -222 -28v-189h-107v182q-107 -5 -240 -5l-14 87q225 0 376 9zM154 209h107v-185h530v-87h-637v272zM660 809h107v-665h-107v665z" />
    <glyph glyph-name="uniADC5" unicode="&#xadc5;" 
 />
    <glyph glyph-name="uniADC6" unicode="&#xadc6;" 
 />
    <glyph glyph-name="uniADC7" unicode="&#xadc7;" 
 />
    <glyph glyph-name="uniADC8" unicode="&#xadc8;" 
d="M767 809v-459h-107v459h107zM402 513q17 90 19 175h-307v85h413v-40q0 -53 -3 -102.5t-15 -110.5q49 3 97 9l7 -76q-118 -16 -245 -24v-117h399v-227h-486v-75h518v-83h-626v234h487v69h-488v82h89v112q-103 -4 -215 -4l-14 85q221 0 370 8z" />
    <glyph glyph-name="uniADC9" unicode="&#xadc9;" 
 />
    <glyph glyph-name="uniADCA" unicode="&#xadca;" 
 />
    <glyph glyph-name="uniADCB" unicode="&#xadcb;" 
 />
    <glyph glyph-name="uniADCC" unicode="&#xadcc;" 
 />
    <glyph glyph-name="uniADCD" unicode="&#xadcd;" 
 />
    <glyph glyph-name="uniADCE" unicode="&#xadce;" 
 />
    <glyph glyph-name="uniADCF" unicode="&#xadcf;" 
 />
    <glyph glyph-name="uniADD0" unicode="&#xadd0;" 
d="M767 809v-514h-107v514h107zM399 470q17 95 17 204h-307v86h413v-59q0 -61 -2.5 -111t-11.5 -111q48 4 97 12l7 -77q-120 -22 -239 -29v-136h394v-318h-588v318h86v129q-74 -3 -223 -5l-13 87q242 2 370 10zM662 16v149h-377v-149h377z" />
    <glyph glyph-name="uniADD1" unicode="&#xadd1;" 
d="M767 809v-504h-107v504h107zM400 505q19 87 21 187h-312v87h418v-56q0 -58 -3 -106t-14 -105l94 9l7 -77q-102 -15 -244 -24v-139h-108v133q-103 -4 -218 -4l-13 86q246 2 372 9zM169 266h106v-82h386v82h106v-335h-598v335zM661 16v87h-386v-87h386z" />
    <glyph glyph-name="uniADD2" unicode="&#xadd2;" 
 />
    <glyph glyph-name="uniADD3" unicode="&#xadd3;" 
d="M767 809v-625h-108v625h108zM401 471q11 57 15 105t5 103h-305v87h411v-56q0 -62 -3 -114.5t-14 -116.5q32 3 94 11l7 -77q-112 -19 -249 -29v-183h-108v178q-99 -4 -206 -4l-13 87q221 0 366 9zM305.5 49.5q65.5 31.5 100.5 76.5t35 97v28h109v-28q0 -51 34 -96
t97.5 -76.5t148.5 -43.5l-40 -84q-103 16 -179 60t-115 108q-41 -65 -119.5 -108.5t-184.5 -59.5l-41 84q89 11 154.5 42.5z" />
    <glyph glyph-name="uniADD4" unicode="&#xadd4;" 
 />
    <glyph glyph-name="uniADD5" unicode="&#xadd5;" 
d="M766 809v-553h-108v553h108zM400 464q11 59 15 108t5 105h-305v86h411v-56q0 -63 -3 -116.5t-14 -118.5q32 3 94 11l7 -78q-102 -17 -249 -28v-130q45 7 105 7q143 0 224 -44t81 -123t-81 -122.5t-224 -43.5q-144 0 -225 43.5t-81 122.5q0 42 24 74.5t69 54.5v156
q-111 -3 -206 -3l-13 87q236 0 366 8zM321.5 25.5q50.5 -21.5 144.5 -21.5t144.5 21.5t50.5 61.5q0 41 -50.5 62t-144.5 21t-144.5 -21t-50.5 -62q0 -40 50.5 -61.5z" />
    <glyph glyph-name="uniADD6" unicode="&#xadd6;" 
 />
    <glyph glyph-name="uniADD7" unicode="&#xadd7;" 
 />
    <glyph glyph-name="uniADD8" unicode="&#xadd8;" 
 />
    <glyph glyph-name="uniADD9" unicode="&#xadd9;" 
 />
    <glyph glyph-name="uniADDA" unicode="&#xadda;" 
 />
    <glyph glyph-name="uniADDB" unicode="&#xaddb;" 
 />
    <glyph glyph-name="uniADDC" unicode="&#xaddc;" 
d="M732 756v-62q0 -83 -4.5 -155t-21.5 -168h132v-87h-199v-366h-107v366h-198v-366h-108v366h-192v87h564q28 143 28 297h-494v88h600z" />
    <glyph glyph-name="uniADDD" unicode="&#xaddd;" 
 />
    <glyph glyph-name="uniADDE" unicode="&#xadde;" 
 />
    <glyph glyph-name="uniADDF" unicode="&#xaddf;" 
 />
    <glyph glyph-name="uniADE0" unicode="&#xade0;" 
d="M742 765v-73q0 -74 -3.5 -131t-16.5 -127h117v-87h-209v-201h-105v201h-118v-201h-105v201h-268v87h581q13 68 16.5 123t3.5 122h-503v86h610zM124 223h107v-200h534v-87h-641v287z" />
    <glyph glyph-name="uniADE1" unicode="&#xade1;" 
 />
    <glyph glyph-name="uniADE2" unicode="&#xade2;" 
 />
    <glyph glyph-name="uniADE3" unicode="&#xade3;" 
 />
    <glyph glyph-name="uniADE4" unicode="&#xade4;" 
d="M741 775v-59q0 -60 -2.5 -109t-13.5 -108h114v-85h-206v-97h108v-231h-506v-74h529v-85h-636v234h506v71h-508v85h113v97h-205v85h583q18 95 18 190h-500v86h606zM527 317v97h-181v-97h181z" />
    <glyph glyph-name="uniADE5" unicode="&#xade5;" 
 />
    <glyph glyph-name="uniADE6" unicode="&#xade6;" 
 />
    <glyph glyph-name="uniADE7" unicode="&#xade7;" 
 />
    <glyph glyph-name="uniADE8" unicode="&#xade8;" 
 />
    <glyph glyph-name="uniADE9" unicode="&#xade9;" 
 />
    <glyph glyph-name="uniADEA" unicode="&#xadea;" 
 />
    <glyph glyph-name="uniADEB" unicode="&#xadeb;" 
 />
    <glyph glyph-name="uniADEC" unicode="&#xadec;" 
d="M739 772v-68q0 -68 -3 -121.5t-15 -118.5h118v-85h-206v-132h107v-317h-609v317h108v132h-205v85h579q13 62 17 113.5t4 108.5h-502v86h607zM635 16v147h-399v-147h399zM527 247v132h-181v-132h181z" />
    <glyph glyph-name="uniADED" unicode="&#xaded;" 
 />
    <glyph glyph-name="uniADEE" unicode="&#xadee;" 
 />
    <glyph glyph-name="uniADEF" unicode="&#xadef;" 
 />
    <glyph glyph-name="uniADF0" unicode="&#xadf0;" 
 />
    <glyph glyph-name="uniADF1" unicode="&#xadf1;" 
 />
    <glyph glyph-name="uniADF2" unicode="&#xadf2;" 
 />
    <glyph glyph-name="uniADF3" unicode="&#xadf3;" 
 />
    <glyph glyph-name="uniADF4" unicode="&#xadf4;" 
 />
    <glyph glyph-name="uniADF5" unicode="&#xadf5;" 
 />
    <glyph glyph-name="uniADF6" unicode="&#xadf6;" 
 />
    <glyph glyph-name="uniADF7" unicode="&#xadf7;" 
 />
    <glyph glyph-name="uniADF8" unicode="&#xadf8;" 
d="M736 723v-99q0 -120 -5.5 -213t-27.5 -217l-108 10q23 116 28.5 208.5t5.5 211.5v13h-510v86h617zM34 130h804v-88h-804v88z" />
    <glyph glyph-name="uniADF9" unicode="&#xadf9;" 
d="M741 768v-62q0 -71 -3 -130t-16 -134h117v-87h-805v87h580q21 118 21 239h-500v87h606zM119 238h626v-320h-108v236h-518v84z" />
    <glyph glyph-name="uniADFA" unicode="&#xadfa;" 
 />
    <glyph glyph-name="uniADFB" unicode="&#xadfb;" 
 />
    <glyph glyph-name="uniADFC" unicode="&#xadfc;" 
d="M742 758v-74q0 -78 -3.5 -139t-17.5 -136h118v-87h-805v87h579q14 73 18 132.5t4 130.5h-500v86h607zM138 236h107v-212h522v-87h-629v299z" />
    <glyph glyph-name="uniADFD" unicode="&#xadfd;" 
 />
    <glyph glyph-name="uniADFE" unicode="&#xadfe;" 
 />
    <glyph glyph-name="uniADFF" unicode="&#xadff;" 
d="M741 766v-69q0 -72 -3.5 -128t-17.5 -124h119v-86h-805v86h578q14 65 18.5 119.5t4.5 115.5h-500v86h606zM131 255h612v-87h-505v-153h515v-86h-622v326z" />
    <glyph glyph-name="uniAE00" unicode="&#xae00;" 
d="M741 773v-60q0 -62 -3 -112.5t-15 -112.5h116v-86h-805v86h581q20 95 20 198h-500v87h606zM126 329h615v-239h-506v-78h529v-85h-636v243h506v76h-508v83z" />
    <glyph glyph-name="uniAE01" unicode="&#xae01;" 
d="M741 770v-61q0 -67 -3.5 -120.5t-17.5 -121.5h119v-86h-805v86h579q22 104 22 217h-500v86h606zM118 299h297v-221h-191v-70q99 0 151.5 4t101.5 16l11 -80q-57 -13 -119.5 -17t-191.5 -4h-57v227h191v65h-193v80zM460 299h286v-377h-105v291h-181v86z" />
    <glyph glyph-name="uniAE02" unicode="&#xae02;" 
d="M405 303v-220h-183v-77q71 1 113.5 4t85.5 11l8 -79q-52 -11 -103 -13.5t-158 -2.5h-50v232h183v67h-184v78h288zM34 470h580q21 104 21 214h-500v86h606v-61q0 -66 -3.5 -119t-17.5 -120h119v-86h-805v86zM457 303h291v-377h-291v377zM657 6v218h-109v-218h109z" />
    <glyph glyph-name="uniAE03" unicode="&#xae03;" 
 />
    <glyph glyph-name="uniAE04" unicode="&#xae04;" 
 />
    <glyph glyph-name="uniAE05" unicode="&#xae05;" 
 />
    <glyph glyph-name="uniAE06" unicode="&#xae06;" 
 />
    <glyph glyph-name="uniAE07" unicode="&#xae07;" 
d="M560 264v69h104v-69h138v-80h-378v80h136zM34 471h580q21 103 21 213h-500v85h606v-61q0 -66 -3.5 -118.5t-16.5 -118.5h118v-87h-805v87zM114 303h278v-219h-176v-74q78 0 122.5 2.5t88.5 11.5l10 -79q-52 -10 -102.5 -12.5t-167.5 -2.5h-52v229h177v66h-178v78z
M500.5 124q42.5 32 111.5 32q68 0 111.5 -32.5t43.5 -85.5q0 -54 -43 -86t-112 -32t-111.5 32t-42.5 86t42.5 86zM566.5 2q17.5 -13 45.5 -13q29 0 46 13t17 36t-17 34.5t-46 11.5q-28 0 -45.5 -12t-17.5 -34q0 -23 17.5 -36z" />
    <glyph glyph-name="uniAE08" unicode="&#xae08;" 
d="M741 766v-69q0 -73 -3.5 -128.5t-18.5 -125.5h120v-87h-805v87h578q14 66 18.5 120t4.5 116h-500v87h606zM131 252h609v-322h-609v322zM635 15v152h-399v-152h399z" />
    <glyph glyph-name="uniAE09" unicode="&#xae09;" 
d="M240 302v-104h393v104h106v-372h-605v372h106zM34 456h579q14 64 18 117t4 112h-500v87h606v-69q0 -70 -3.5 -124t-17.5 -123h119v-88h-805v88zM633 16v99h-393v-99h393z" />
    <glyph glyph-name="uniAE0A" unicode="&#xae0a;" 
 />
    <glyph glyph-name="uniAE0B" unicode="&#xae0b;" 
d="M736 765v-62q0 -75 -4 -138.5t-20 -145.5h123v-86h-800v86h570q25 125 25 259h-498v87h604zM242 49q66 32 101.5 78t35.5 98v34h107v-34q0 -52 35.5 -98t101.5 -78t155 -43l-39 -84q-107 16 -186.5 59.5t-120.5 109.5q-41 -65 -120.5 -109t-185.5 -60l-39 84
q89 11 155 43z" />
    <glyph glyph-name="uniAE0C" unicode="&#xae0c;" 
 />
    <glyph glyph-name="uniAE0D" unicode="&#xae0d;" 
d="M741 765v-69q0 -73 -3.5 -130.5t-18.5 -127.5h120v-87h-805v87h577q15 67 19.5 122.5t4.5 117.5h-500v87h606zM208 217q83 45 227 45q145 0 228 -45t83 -125q0 -82 -83 -127t-228 -45t-227.5 45t-82.5 127q0 80 83 125zM285 28.5q52 -21.5 150 -21.5t150.5 21.5
t52.5 63.5q0 41 -52.5 62.5t-150.5 21.5q-97 0 -149.5 -21.5t-52.5 -62.5q0 -42 52 -63.5z" />
    <glyph glyph-name="uniAE0E" unicode="&#xae0e;" 
 />
    <glyph glyph-name="uniAE0F" unicode="&#xae0f;" 
 />
    <glyph glyph-name="uniAE10" unicode="&#xae10;" 
 />
    <glyph glyph-name="uniAE11" unicode="&#xae11;" 
 />
    <glyph glyph-name="uniAE12" unicode="&#xae12;" 
 />
    <glyph glyph-name="uniAE13" unicode="&#xae13;" 
d="M382 282v75h107v-75h274v-81h-655v81h274zM34 488h581q20 95 20 198h-500v86h606v-59q0 -62 -3 -113t-15 -112h116v-86h-805v86zM235.5 136q69.5 32 199.5 32t199.5 -31.5t69.5 -92.5t-69 -92t-200 -31q-130 0 -199.5 31t-69.5 92q0 60 69.5 92zM318 6q39 -12 117 -12
q79 0 118 12t39 38q0 49 -157 49q-156 0 -156 -49q0 -26 39 -38z" />
    <glyph glyph-name="uniAE14" unicode="&#xae14;" 
d="M541 707v-72q0 -90 -4.5 -162.5t-23.5 -165.5l-106 12q17 85 22 153t5 149h-340v86h447zM338 226.5q141 5.5 267 22.5l6 -79q-129 -23 -269.5 -30.5t-295.5 -7.5l-12 89q163 0 304 5.5zM653 809h108v-889h-108v889z" />
    <glyph glyph-name="uniAE15" unicode="&#xae15;" 
 />
    <glyph glyph-name="uniAE16" unicode="&#xae16;" 
 />
    <glyph glyph-name="uniAE17" unicode="&#xae17;" 
 />
    <glyph glyph-name="uniAE18" unicode="&#xae18;" 
 />
    <glyph glyph-name="uniAE19" unicode="&#xae19;" 
 />
    <glyph glyph-name="uniAE1A" unicode="&#xae1a;" 
 />
    <glyph glyph-name="uniAE1B" unicode="&#xae1b;" 
 />
    <glyph glyph-name="uniAE1C" unicode="&#xae1c;" 
d="M767 809v-457h-107v457h107zM400 488q19 98 21 192h-307v86h413v-44q0 -56 -3 -108.5t-15 -116.5q33 3 97 11l7 -77q-130 -23 -269.5 -30.5t-300.5 -8.5l-14 86q244 2 371 10zM172 312h595v-227h-486v-75h518v-83h-626v234h487v69h-488v82z" />
    <glyph glyph-name="uniAE1D" unicode="&#xae1d;" 
 />
    <glyph glyph-name="uniAE1E" unicode="&#xae1e;" 
 />
    <glyph glyph-name="uniAE1F" unicode="&#xae1f;" 
 />
    <glyph glyph-name="uniAE20" unicode="&#xae20;" 
 />
    <glyph glyph-name="uniAE21" unicode="&#xae21;" 
 />
    <glyph glyph-name="uniAE22" unicode="&#xae22;" 
 />
    <glyph glyph-name="uniAE23" unicode="&#xae23;" 
 />
    <glyph glyph-name="uniAE24" unicode="&#xae24;" 
 />
    <glyph glyph-name="uniAE25" unicode="&#xae25;" 
 />
    <glyph glyph-name="uniAE26" unicode="&#xae26;" 
 />
    <glyph glyph-name="uniAE27" unicode="&#xae27;" 
 />
    <glyph glyph-name="uniAE28" unicode="&#xae28;" 
 />
    <glyph glyph-name="uniAE29" unicode="&#xae29;" 
 />
    <glyph glyph-name="uniAE2A" unicode="&#xae2a;" 
 />
    <glyph glyph-name="uniAE2B" unicode="&#xae2b;" 
 />
    <glyph glyph-name="uniAE2C" unicode="&#xae2c;" 
 />
    <glyph glyph-name="uniAE2D" unicode="&#xae2d;" 
 />
    <glyph glyph-name="uniAE2E" unicode="&#xae2e;" 
 />
    <glyph glyph-name="uniAE2F" unicode="&#xae2f;" 
 />
    <glyph glyph-name="uniAE30" unicode="&#xae30;" 
d="M769 809v-889h-108v889h108zM296 359.5q86 114.5 100 270.5h-312v86h422q0 -213 -95 -372.5t-315 -266.5l-57 85q171 83 257 197.5z" />
    <glyph glyph-name="uniAE31" unicode="&#xae31;" 
d="M392 463q-109 -119 -310 -172l-42 84q154 39 242.5 116t102.5 178h-294v86h410q0 -173 -109 -292zM167 252h600v-333h-107v247h-493v86zM660 809h107v-519h-107v519z" />
    <glyph glyph-name="uniAE32" unicode="&#xae32;" 
 />
    <glyph glyph-name="uniAE33" unicode="&#xae33;" 
 />
    <glyph glyph-name="uniAE34" unicode="&#xae34;" 
d="M767 809v-646h-108v646h108zM289 468.5q90 81.5 104 186.5h-297v88h413q0 -176 -109.5 -301t-310.5 -185l-42 85q152 45 242 126.5zM183 217h107v-193h496v-87h-603v280z" />
    <glyph glyph-name="uniAE35" unicode="&#xae35;" 
 />
    <glyph glyph-name="uniAE36" unicode="&#xae36;" 
 />
    <glyph glyph-name="uniAE37" unicode="&#xae37;" 
d="M387 466q-107 -118 -305 -172l-41 84q150 40 236.5 115.5t100.5 174.5h-291v88h407q0 -172 -107 -290zM193 266h581v-86h-473v-164h490v-85h-598v335zM666 809h107v-501h-107v501z" />
    <glyph glyph-name="uniAE38" unicode="&#xae38;" 
d="M768 809v-449h-108v449h108zM291.5 526q82.5 66 92.5 160h-291v86h409q0 -175 -104.5 -280.5t-312.5 -150.5l-37 87q161 32 243.5 98zM183 320h585v-230h-476v-78h502v-83h-609v240h475v68h-477v83z" />
    <glyph glyph-name="uniAE39" unicode="&#xae39;" 
 />
    <glyph glyph-name="uniAE3A" unicode="&#xae3a;" 
d="M767 809v-465h-107v465h107zM288 521q84 68 95 162h-292v85h410q0 -172 -106 -280.5t-309 -152.5l-38 85q156 33 240 101zM140 303h295v-219h-192v-72q72 1 115.5 4t89.5 12l8 -82q-56 -10 -109.5 -13t-154.5 -3h-50v230h190v62h-192v81zM480 303h287v-373h-287v373z
M676 9v215h-104v-215h104z" />
    <glyph glyph-name="uniAE3B" unicode="&#xae3b;" 
 />
    <glyph glyph-name="uniAE3C" unicode="&#xae3c;" 
 />
    <glyph glyph-name="uniAE3D" unicode="&#xae3d;" 
 />
    <glyph glyph-name="uniAE3E" unicode="&#xae3e;" 
 />
    <glyph glyph-name="uniAE3F" unicode="&#xae3f;" 
 />
    <glyph glyph-name="uniAE40" unicode="&#xae40;" 
d="M390.5 465q-109.5 -119 -309.5 -171l-41 86q153 39 242 115t103 175h-296v86h411q0 -172 -109.5 -291zM185 271h582v-340h-582v340zM662 17v169h-371v-169h371zM660 809h107v-497h-107v497z" />
    <glyph glyph-name="uniAE41" unicode="&#xae41;" 
d="M767 809v-483h-107v483h107zM289 508.5q83 69.5 94 167.5h-293v86h411q0 -347 -419 -442l-37 85q161 34 244 103.5zM185 290h106v-96h370v96h106v-359h-582v359zM661 17v93h-370v-93h370z" />
    <glyph glyph-name="uniAE42" unicode="&#xae42;" 
 />
    <glyph glyph-name="uniAE43" unicode="&#xae43;" 
d="M767 809v-592h-107v592h107zM288.5 469q87.5 80 101.5 187h-296v86h410q0 -177 -107.5 -300t-309.5 -183l-41 85q155 45 242.5 125zM282 54q65 35 100 84t35 104v32h112v-32q0 -55 35 -104t99.5 -84t150.5 -48l-42 -84q-104 18 -182 66t-118 117q-40 -70 -118 -117.5
t-183 -65.5l-40 84q86 13 151 48z" />
    <glyph glyph-name="uniAE44" unicode="&#xae44;" 
d="M391.5 464.5q-109.5 -118.5 -309.5 -170.5l-41 86q153 39 242 115t103 175h-296v85h411q0 -172 -109.5 -290.5zM198.5 98.5q44.5 61.5 44.5 130.5v52h103v-52q0 -59 27.5 -113.5t82.5 -90.5q55 38 83.5 94t28.5 110v52h106v-52q0 -74 44 -134t127 -88l-54 -77
q-123 43 -171 159q-23 -57 -63.5 -100.5t-98.5 -67.5q-117 45 -164 165q-24 -53 -66.5 -93.5t-102.5 -62.5l-54 77q83 30 127.5 91.5zM661 810h107v-502h-107v502z" />
    <glyph glyph-name="uniAE45" unicode="&#xae45;" 
d="M765 809v-528h-107v528h107zM280 479q90 79 103 182h-293v87h409q0 -173 -110.5 -295.5t-307.5 -178.5l-42 83q151 43 241 122zM248 226.5q81 46.5 221 46.5t220.5 -46.5t80.5 -129.5t-80.5 -129.5t-220.5 -46.5t-221 46.5t-81 129.5t81 129.5zM325.5 29
q50.5 -24 143.5 -24t143.5 24t50.5 68t-50.5 67.5t-143.5 23.5t-143.5 -23.5t-50.5 -67.5t50.5 -68z" />
    <glyph glyph-name="uniAE46" unicode="&#xae46;" 
d="M393 467.5q-109 -114.5 -311 -164.5l-37 85q153 38 240 110.5t100 169.5h-295v86h412q0 -172 -109 -286.5zM292.5 40q61.5 27 95.5 64.5t36 79.5h-238v85h590v-85h-243q2 -42 36 -79.5t96.5 -64.5t146.5 -37l-37 -80q-103 13 -180 51.5t-117 97.5q-39 -58 -115.5 -97
t-178.5 -52l-36 80q83 10 144.5 37zM658 809h108v-495h-108v495z" />
    <glyph glyph-name="uniAE47" unicode="&#xae47;" 
 />
    <glyph glyph-name="uniAE48" unicode="&#xae48;" 
 />
    <glyph glyph-name="uniAE49" unicode="&#xae49;" 
 />
    <glyph glyph-name="uniAE4A" unicode="&#xae4a;" 
d="M401 468q-110 -113 -309 -160l-42 84q156 35 244.5 106.5t100.5 166.5h-300v86h416q0 -170 -110 -283zM170 19h120v179h-111v85h599v-85h-111v-179h120v-85h-617v85zM561 19v179h-166v-179h166zM659 809h108v-481h-108v481z" />
    <glyph glyph-name="uniAE4B" unicode="&#xae4b;" 
 />
    <glyph glyph-name="uniAE4C" unicode="&#xae4c;" 
d="M737 809v-355h123v-89h-123v-445h-107v889h107zM150.5 378q39.5 109 45.5 251h-139v87h241q0 -127 -15.5 -229.5t-57.5 -196.5t-118 -178l-85 61q89 96 128.5 205zM398.5 345.5q36.5 123.5 42.5 283.5h-114v87h215q0 -136 -14 -247t-54 -216.5t-115 -197.5l-85 60
q88 107 124.5 230.5z" />
    <glyph glyph-name="uniAE4D" unicode="&#xae4d;" 
d="M729 809v-230h124v-89h-124v-210h-107v529h107zM146.5 514q38.5 61 48.5 148h-135v86h237q0 -143 -45 -240.5t-155 -175.5l-68 67q79 54 117.5 115zM143 241h586v-322h-107v235h-479v87zM396.5 492q38.5 72 46.5 170h-112v86h214q0 -150 -42.5 -258t-148.5 -195l-76 62
q80 63 118.5 135z" />
    <glyph glyph-name="uniAE4E" unicode="&#xae4e;" 
d="M729 809v-213h124v-89h-124v-209h-107v511h107zM146.5 520.5q38.5 60.5 48.5 147.5h-135v85h237q0 -141 -45 -238t-155 -174l-68 66q79 53 117.5 113.5zM116 256h292v-336h-107v250h-185v86zM396.5 500q38.5 71 46.5 168h-112v85h214q0 -148 -42.5 -254.5t-147.5 -192.5
l-77 61q80 62 118.5 133zM446 256h283v-336h-105v250h-178v86z" />
    <glyph glyph-name="uniAE4F" unicode="&#xae4f;" 
 />
    <glyph glyph-name="uniAE50" unicode="&#xae50;" 
d="M251.5 480q-44.5 -108 -152.5 -194l-70 66q79 61 117.5 131t48.5 166h-135v87h236q0 -148 -44.5 -256zM157 214h108v-190h497v-87h-605v277zM396 463q39 80 47 186h-115v87h217q0 -160 -43.5 -277.5t-155.5 -211.5l-71 67q82 69 121 149zM622 809h107v-274h124v-89h-124
v-286h-107v649z" />
    <glyph glyph-name="uniAE51" unicode="&#xae51;" 
 />
    <glyph glyph-name="uniAE52" unicode="&#xae52;" 
 />
    <glyph glyph-name="uniAE53" unicode="&#xae53;" 
 />
    <glyph glyph-name="uniAE54" unicode="&#xae54;" 
d="M729 809v-181h124v-89h-124v-181h-107v451h107zM141.5 546.5q38.5 53.5 49.5 131.5h-134v86h236q0 -134 -45 -223.5t-150 -163.5l-69 67q74 49 112.5 102.5zM148 319h581v-230h-473v-74h506v-84h-612v237h474v69h-476v82zM394.5 529q37.5 62 47.5 149h-116v86h218
q0 -141 -43 -239t-147 -177l-74 63q77 56 114.5 118z" />
    <glyph glyph-name="uniAE55" unicode="&#xae55;" 
 />
    <glyph glyph-name="uniAE56" unicode="&#xae56;" 
d="M729 809v-185h124v-88h-124v-193h-107v466h107zM142 544.5q38 53.5 49 130.5h-134v86h237q0 -132 -45.5 -221.5t-149.5 -163.5l-69 67q74 48 112 101.5zM106 299h287v-218h-182v-72q65 1 108.5 4t89.5 12l9 -80q-54 -11 -105 -13.5t-155 -2.5h-50v228h181v62h-183v80z
M395.5 522.5q37.5 63.5 46.5 152.5h-116v86h218q0 -143 -42.5 -242.5t-147.5 -179.5l-74 63q78 57 115.5 120.5zM442 299h287v-370h-287v370zM636 7v213h-101v-213h101z" />
    <glyph glyph-name="uniAE57" unicode="&#xae57;" 
 />
    <glyph glyph-name="uniAE58" unicode="&#xae58;" 
 />
    <glyph glyph-name="uniAE59" unicode="&#xae59;" 
 />
    <glyph glyph-name="uniAE5A" unicode="&#xae5a;" 
 />
    <glyph glyph-name="uniAE5B" unicode="&#xae5b;" 
 />
    <glyph glyph-name="uniAE5C" unicode="&#xae5c;" 
d="M252.5 512.5q-44.5 -98.5 -154.5 -176.5l-69 67q79 54 117.5 115.5t48.5 149.5h-135v86h237q0 -143 -44.5 -241.5zM160 260h569v-329h-569v329zM624 16v159h-358v-159h358zM395 497q39 73 47 171h-114v86h215q0 -151 -42 -259.5t-147 -195.5l-77 62q79 63 118 136z
M622 809h107v-206h124v-88h-124v-214h-107v508z" />
    <glyph glyph-name="uniAE5D" unicode="&#xae5d;" 
d="M252 521q-45 -96 -153 -174l-69 67q79 54 117 113t48 144h-135v86h237q0 -140 -45 -236zM158 285h106v-93h359v93h106v-355h-571v355zM623 16v92h-359v-92h359zM396 504.5q38 70.5 46 166.5h-114v86h215q0 -147 -42 -253.5t-145 -192.5l-77 61q79 62 117 132.5zM622 809
h107v-193h124v-88h-124v-204h-107v485z" />
    <glyph glyph-name="uniAE5E" unicode="&#xae5e;" 
 />
    <glyph glyph-name="uniAE5F" unicode="&#xae5f;" 
d="M251 501q-43 -99 -150 -179l-70 66q77 56 114.5 118t47.5 151h-136v87h237q0 -144 -43 -243zM264.5 54.5q64.5 33.5 99.5 81.5t35 102v20h107v-20q0 -54 35 -102t100.5 -81.5t151.5 -46.5l-43 -84q-103 17 -179.5 62.5t-117.5 112.5q-41 -67 -118 -112.5t-180 -62.5
l-41 84q86 13 150.5 46.5zM395 484.5q39 73.5 47 172.5h-115v87h216q0 -153 -42 -262.5t-147 -197.5l-77 62q79 65 118 138.5zM622 809h107v-239h124v-88h-124v-266h-107v593z" />
    <glyph glyph-name="uniAE60" unicode="&#xae60;" 
d="M256.5 512.5q-44.5 -97.5 -154.5 -176.5l-69 68q79 54 117 114.5t48 147.5h-135v86h238q0 -142 -44.5 -239.5zM189 97q44 61 44 131v40h104v-40q0 -60 27 -114t82 -90q55 38 84 94t29 110v40h106v-40q0 -74 43 -134t126 -88l-53 -78q-62 22 -105 62.5t-66 95.5
q-22 -56 -62.5 -99.5t-99.5 -67.5q-116 45 -163 165q-24 -53 -66.5 -93.5t-101.5 -62.5l-54 78q82 30 126 91zM398 496q38 72 46 170h-113v86h216q0 -150 -42 -258t-147 -195l-77 63q79 62 117 134zM622 809h107v-206h124v-88h-124v-207h-107v501z" />
    <glyph glyph-name="uniAE61" unicode="&#xae61;" 
d="M252.5 512.5q-44.5 -98.5 -154.5 -176.5l-69 67q79 54 117.5 115.5t48.5 149.5h-135v86h237q0 -143 -44.5 -241.5zM225 219.5q80 45.5 218 45.5q137 0 216.5 -45.5t79.5 -126.5t-79.5 -126.5t-216.5 -45.5q-138 0 -218 45.5t-80 126.5t80 126.5zM301 27.5
q50 -22.5 142 -22.5q91 0 140.5 22.5t49.5 65.5q0 42 -49 64t-141 22t-142 -22t-50 -64q0 -43 50 -65.5zM395.5 499q38.5 72 46.5 169h-114v86h215q0 -150 -42 -257.5t-146 -193.5l-77 61q79 63 117.5 135zM622 809h107v-209h124v-88h-124v-222h-107v519z" />
    <glyph glyph-name="uniAE62" unicode="&#xae62;" 
 />
    <glyph glyph-name="uniAE63" unicode="&#xae63;" 
 />
    <glyph glyph-name="uniAE64" unicode="&#xae64;" 
 />
    <glyph glyph-name="uniAE65" unicode="&#xae65;" 
d="M248 536.5q-45 -89.5 -150 -164.5l-69 67q74 49 112.5 102.5t49.5 131.5h-134v86h236q0 -133 -45 -222.5zM161 292h574v-77h-467v-64h458v-76h-458v-68h486v-76h-593v361zM394.5 524q37.5 62 47.5 149h-116v86h218q0 -141 -43 -238.5t-147 -176.5l-74 63q77 55 114.5 117
zM622 809h107v-193h124v-89h-124v-194h-107v476z" />
    <glyph glyph-name="uniAE66" unicode="&#xae66;" 
 />
    <glyph glyph-name="uniAE67" unicode="&#xae67;" 
 />
    <glyph glyph-name="uniAE68" unicode="&#xae68;" 
d="M809 810v-889h-102v455h-84v-415h-101v832h101v-331h84v348h102zM125.5 382q30.5 105 35.5 236h-109v86h201q0 -175 -30.5 -314.5t-113.5 -256.5l-83 49q69 95 99.5 200zM336 347.5q29 119.5 33 270.5h-88v86h181q0 -193 -28.5 -346.5t-114.5 -280.5l-86 47
q74 104 103 223.5z" />
    <glyph glyph-name="uniAE69" unicode="&#xae69;" 
d="M797 809v-522h-101v222h-82v-217h-100v502h100v-198h82v213h101zM119 515.5q29 60.5 36 147.5h-103v87h202q0 -94 -12.5 -163.5t-45 -131t-92.5 -118.5l-78 60q64 58 93 118.5zM175 248h622v-328h-107v242h-515v86zM327.5 488q30.5 74 37.5 175h-87v87h186
q0 -154 -31.5 -261t-119.5 -199l-84 55q68 69 98.5 143z" />
    <glyph glyph-name="uniAE6A" unicode="&#xae6a;" 
 />
    <glyph glyph-name="uniAE6B" unicode="&#xae6b;" 
 />
    <glyph glyph-name="uniAE6C" unicode="&#xae6c;" 
d="M798 809v-654h-102v306h-82v-280h-100v613h100v-245h82v260h102zM122.5 496.5q29.5 64.5 36.5 155.5h-106v86h204q0 -97 -12 -168.5t-45 -135t-94 -122.5l-78 59q65 61 94.5 125.5zM184 223h107v-199h532v-87h-639v286zM331 469q29 77 34 183h-85v86h183
q0 -156 -29.5 -265.5t-114.5 -204.5l-84 54q67 70 96 147z" />
    <glyph glyph-name="uniAE6D" unicode="&#xae6d;" 
 />
    <glyph glyph-name="uniAE6E" unicode="&#xae6e;" 
 />
    <glyph glyph-name="uniAE6F" unicode="&#xae6f;" 
d="M804 254v-86h-523v-152h533v-85h-640v323h630zM120 524.5q29 59.5 36 145.5h-106v86h204q0 -94 -12 -162.5t-44 -129t-92 -117.5l-78 60q63 58 92 117.5zM329.5 496.5q28.5 72.5 34.5 173.5h-85v86h184q0 -101 -11 -177.5t-42 -145.5t-88 -132l-85 55q64 68 92.5 140.5z
M514 794h100v-198h82v213h102v-508h-102v208h-82v-203h-100v488z" />
    <glyph glyph-name="uniAE70" unicode="&#xae70;" 
d="M798 809v-457h-102v179h-81v-174h-101v437h101v-176h81v191h102zM121 547q29 51 37 128h-104v86h201q0 -88 -12.5 -151.5t-45 -118.5t-92.5 -107l-75 61q62 51 91 102zM200 315h598v-228h-487v-72h516v-84h-626v234h489v66h-490v84zM330 523q29 63 35 152h-87v86h187
q0 -95 -12 -165.5t-45 -133.5t-94 -121l-79 59q66 60 95 123z" />
    <glyph glyph-name="uniAE71" unicode="&#xae71;" 
 />
    <glyph glyph-name="uniAE72" unicode="&#xae72;" 
 />
    <glyph glyph-name="uniAE73" unicode="&#xae73;" 
 />
    <glyph glyph-name="uniAE74" unicode="&#xae74;" 
 />
    <glyph glyph-name="uniAE75" unicode="&#xae75;" 
 />
    <glyph glyph-name="uniAE76" unicode="&#xae76;" 
 />
    <glyph glyph-name="uniAE77" unicode="&#xae77;" 
 />
    <glyph glyph-name="uniAE78" unicode="&#xae78;" 
d="M797 809v-508h-101v208h-82v-203h-100v489h100v-199h82v213h101zM119.5 524.5q28.5 59.5 35.5 145.5h-105v86h204q0 -94 -12 -162.5t-44 -129t-92 -117.5l-78 60q63 58 91.5 117.5zM198 262h599v-331h-599v331zM329.5 496.5q28.5 72.5 34.5 173.5h-86v86h184
q0 -101 -11 -177.5t-41.5 -145.5t-87.5 -132l-85 55q64 68 92.5 140.5zM693 17v160h-390v-160h390z" />
    <glyph glyph-name="uniAE79" unicode="&#xae79;" 
d="M797 809v-484h-102v194h-79v-188h-101v461h101v-187h79v204h102zM125 534q29 59 36 145h-106v85h205q0 -93 -13 -161.5t-46 -128t-93 -115.5l-77 59q65 57 94 116zM198 288h107v-90h386v90h106v-358h-599v358zM335 511q27 70 32 168h-86v85h183q0 -101 -9.5 -173.5
t-38 -139t-84.5 -128.5l-86 52q62 66 89 136zM691 16v99h-386v-99h386z" />
    <glyph glyph-name="uniAE7A" unicode="&#xae7a;" 
 />
    <glyph glyph-name="uniAE7B" unicode="&#xae7b;" 
d="M798 809v-577h-101v269h-81v-194h-101v485h101v-203h81v220h101zM123 504q28 64 35 156h-105v86h202q0 -97 -11 -168t-42 -134t-90 -122l-80 57q63 61 91 125zM306 54.5q66 34.5 102.5 83.5t36.5 101v32h108v-32q0 -52 36.5 -101t102.5 -83.5t152 -47.5l-41 -84
q-105 17 -184 64.5t-120 116.5q-41 -69 -119.5 -116.5t-183.5 -64.5l-41 84q85 13 151 47.5zM332 474q29 79 34 186h-87v86h184q0 -105 -11 -184.5t-42.5 -152.5t-90.5 -139l-83 53q67 72 96 151z" />
    <glyph glyph-name="uniAE7C" unicode="&#xae7c;" 
d="M798 808v-508h-101v207h-80v-199h-101v485h101v-199h80v214h101zM122.5 517.5q28.5 58.5 35.5 143.5h-105v87h204q0 -93 -12 -161.5t-44.5 -128t-91.5 -115.5l-78 58q63 58 91.5 116.5zM216 97q44 61 44 129v39h105v-39q0 -59 27 -113t81 -89q55 38 83.5 93t28.5 109v39
h106v-39q0 -72 44 -132t127 -87l-52 -78q-63 22 -106.5 62.5t-66.5 95.5q-23 -56 -63.5 -99t-98.5 -67q-59 22 -100 64t-63 98q-25 -53 -67.5 -93t-102.5 -62l-52 79q82 29 126 90zM332 491.5q28 70.5 34 169.5h-87v87h184q0 -100 -11 -174.5t-41 -142t-87 -130.5l-83 55
q63 65 91 135.5z" />
    <glyph glyph-name="uniAE7D" unicode="&#xae7d;" 
d="M791 798v-537h-102v225h-80v-196h-100v492h100v-209h80v225h102zM114.5 495q28.5 60 35.5 147h-105v87h204q0 -94 -12 -163t-44 -129.5t-91 -117.5l-79 58q63 58 91.5 118zM221.5 168.5q37.5 37.5 107 58t163.5 20.5q93 0 162.5 -20.5t107 -58.5t37.5 -89q0 -79 -83 -124
t-224 -45q-143 0 -225.5 45t-82.5 124q0 52 37.5 89.5zM322 471q29 72 35 171h-86v87h185q0 -151 -30 -255.5t-115 -195.5l-83 55q65 66 94 138zM344.5 15q52.5 -22 147.5 -22q94 0 146 22t52 64t-52 64t-146 22q-95 0 -147.5 -22t-52.5 -64t52.5 -64z" />
    <glyph glyph-name="uniAE7E" unicode="&#xae7e;" 
 />
    <glyph glyph-name="uniAE7F" unicode="&#xae7f;" 
 />
    <glyph glyph-name="uniAE80" unicode="&#xae80;" 
 />
    <glyph glyph-name="uniAE81" unicode="&#xae81;" 
 />
    <glyph glyph-name="uniAE82" unicode="&#xae82;" 
 />
    <glyph glyph-name="uniAE83" unicode="&#xae83;" 
 />
    <glyph glyph-name="uniAE84" unicode="&#xae84;" 
d="M737 809v-227h123v-89h-123v-177h123v-89h-123v-307h-107v889h107zM150.5 378q39.5 109 45.5 251h-139v87h241q0 -127 -15.5 -229.5t-57.5 -196.5t-118 -178l-85 61q89 96 128.5 205zM398.5 345.5q36.5 123.5 42.5 283.5h-114v87h215q0 -136 -14 -247t-54 -216.5
t-115 -197.5l-85 60q88 107 124.5 230.5z" />
    <glyph glyph-name="uniAE85" unicode="&#xae85;" 
d="M729 809v-122h121v-89h-121v-100h121v-88h-121v-130h-107v529h107zM146.5 514q38.5 61 48.5 148h-135v86h237q0 -143 -45 -240.5t-155 -175.5l-68 67q79 54 117.5 115zM143 241h586v-322h-107v235h-479v87zM396.5 492q38.5 72 46.5 170h-112v86h214q0 -150 -43 -258
t-148 -195l-76 62q80 63 118.5 135z" />
    <glyph glyph-name="uniAE86" unicode="&#xae86;" 
d="M295 754q0 -142 -43.5 -239.5t-148.5 -176.5l-77 69q75 54 112 112.5t47 143.5h-130v91h240zM105 261h303v-342h-107v255h-196v87zM393.5 498.5q35.5 69.5 44.5 164.5h-110v91h219q0 -148 -40 -255.5t-134 -196.5l-87 62q72 65 107.5 134.5zM447 261h297v-342h-109v255
h-188v87zM639 809h106v-121h106v-90h-106v-108h106v-90h-106v-106h-106v515z" />
    <glyph glyph-name="uniAE87" unicode="&#xae87;" 
 />
    <glyph glyph-name="uniAE88" unicode="&#xae88;" 
 />
    <glyph glyph-name="uniAE89" unicode="&#xae89;" 
 />
    <glyph glyph-name="uniAE8A" unicode="&#xae8a;" 
 />
    <glyph glyph-name="uniAE8B" unicode="&#xae8b;" 
 />
    <glyph glyph-name="uniAE8C" unicode="&#xae8c;" 
d="M729 809v-96h119v-85h-119v-80h119v-86h-119v-104h-107v451h107zM141.5 546.5q38.5 53.5 49.5 131.5h-134v86h236q0 -134 -45 -223.5t-150 -163.5l-69 67q74 49 112.5 102.5zM148 319h581v-230h-473v-74h506v-84h-612v237h474v69h-476v82zM394.5 529q37.5 62 47.5 149
h-116v86h218q0 -141 -43 -239t-147 -177l-74 63q77 56 114.5 118z" />
    <glyph glyph-name="uniAE8D" unicode="&#xae8d;" 
d="M744 308v-388h-111v302h-183v86h294zM139 550q38 50 49 124h-131v90h241q0 -131 -45.5 -219.5t-147.5 -161.5l-76 69q72 48 110 98zM106 308h307v-226h-197v-75q88 1 142 4.5t111 14.5l9 -84q-68 -12 -134.5 -15.5t-177.5 -3.5h-58v234h199v67h-201v84zM398.5 530
q34.5 59 43.5 144h-110v90h220q0 -139 -38.5 -234.5t-129.5 -175.5l-89 61q69 56 103.5 115zM639 809h106v-103h106v-89h-106v-89h106v-87h-106v-90h-106v458z" />
    <glyph glyph-name="uniAE8E" unicode="&#xae8e;" 
 />
    <glyph glyph-name="uniAE8F" unicode="&#xae8f;" 
 />
    <glyph glyph-name="uniAE90" unicode="&#xae90;" 
 />
    <glyph glyph-name="uniAE91" unicode="&#xae91;" 
 />
    <glyph glyph-name="uniAE92" unicode="&#xae92;" 
 />
    <glyph glyph-name="uniAE93" unicode="&#xae93;" 
 />
    <glyph glyph-name="uniAE94" unicode="&#xae94;" 
 />
    <glyph glyph-name="uniAE95" unicode="&#xae95;" 
 />
    <glyph glyph-name="uniAE96" unicode="&#xae96;" 
 />
    <glyph glyph-name="uniAE97" unicode="&#xae97;" 
 />
    <glyph glyph-name="uniAE98" unicode="&#xae98;" 
 />
    <glyph glyph-name="uniAE99" unicode="&#xae99;" 
 />
    <glyph glyph-name="uniAE9A" unicode="&#xae9a;" 
 />
    <glyph glyph-name="uniAE9B" unicode="&#xae9b;" 
 />
    <glyph glyph-name="uniAE9C" unicode="&#xae9c;" 
 />
    <glyph glyph-name="uniAE9D" unicode="&#xae9d;" 
 />
    <glyph glyph-name="uniAE9E" unicode="&#xae9e;" 
 />
    <glyph glyph-name="uniAE9F" unicode="&#xae9f;" 
 />
    <glyph glyph-name="uniAEA0" unicode="&#xaea0;" 
d="M254 704q0 -176 -31 -314.5t-114 -254.5l-84 47q69 94 99 197.5t36 234.5h-110v90h204zM335 348.5q30 120.5 35 265.5h-87v90h182q0 -188 -30.5 -344t-112.5 -284l-87 47q70 105 100 225.5zM522 792h98v-188h89v205h98v-891h-98v328h-89v-284h-98v830zM709 338v174h-89
v-174h89z" />
    <glyph glyph-name="uniAEA1" unicode="&#xaea1;" 
 />
    <glyph glyph-name="uniAEA2" unicode="&#xaea2;" 
 />
    <glyph glyph-name="uniAEA3" unicode="&#xaea3;" 
 />
    <glyph glyph-name="uniAEA4" unicode="&#xaea4;" 
 />
    <glyph glyph-name="uniAEA5" unicode="&#xaea5;" 
 />
    <glyph glyph-name="uniAEA6" unicode="&#xaea6;" 
 />
    <glyph glyph-name="uniAEA7" unicode="&#xaea7;" 
 />
    <glyph glyph-name="uniAEA8" unicode="&#xaea8;" 
 />
    <glyph glyph-name="uniAEA9" unicode="&#xaea9;" 
 />
    <glyph glyph-name="uniAEAA" unicode="&#xaeaa;" 
 />
    <glyph glyph-name="uniAEAB" unicode="&#xaeab;" 
 />
    <glyph glyph-name="uniAEAC" unicode="&#xaeac;" 
 />
    <glyph glyph-name="uniAEAD" unicode="&#xaead;" 
 />
    <glyph glyph-name="uniAEAE" unicode="&#xaeae;" 
 />
    <glyph glyph-name="uniAEAF" unicode="&#xaeaf;" 
 />
    <glyph glyph-name="uniAEB0" unicode="&#xaeb0;" 
 />
    <glyph glyph-name="uniAEB1" unicode="&#xaeb1;" 
 />
    <glyph glyph-name="uniAEB2" unicode="&#xaeb2;" 
 />
    <glyph glyph-name="uniAEB3" unicode="&#xaeb3;" 
 />
    <glyph glyph-name="uniAEB4" unicode="&#xaeb4;" 
 />
    <glyph glyph-name="uniAEB5" unicode="&#xaeb5;" 
 />
    <glyph glyph-name="uniAEB6" unicode="&#xaeb6;" 
 />
    <glyph glyph-name="uniAEB7" unicode="&#xaeb7;" 
 />
    <glyph glyph-name="uniAEB8" unicode="&#xaeb8;" 
 />
    <glyph glyph-name="uniAEB9" unicode="&#xaeb9;" 
 />
    <glyph glyph-name="uniAEBA" unicode="&#xaeba;" 
 />
    <glyph glyph-name="uniAEBB" unicode="&#xaebb;" 
 />
    <glyph glyph-name="uniAEBC" unicode="&#xaebc;" 
d="M767 809v-889h-108v466h-149q-40 -190 -155 -331l-85 60q88 107 125 231t43 283h-114v87h214q0 -143 -14 -244h135v337h108zM149.5 378q39.5 109 45.5 251h-139v87h240q0 -127 -15.5 -229.5t-57.5 -196.5t-118 -178l-84 61q89 96 128.5 205z" />
    <glyph glyph-name="uniAEBD" unicode="&#xaebd;" 
d="M767 241v-321h-108v234h-495v87h603zM145 514q38 62 48 150h-133v86h235q0 -143 -44 -242t-152 -178l-70 67q78 55 116 117zM395 492q38 73 46 172h-114v86h216q0 -96 -15 -166h131v225h108v-529h-108v218h-155q-47 -118 -151 -207l-75 63q79 65 117 138z" />
    <glyph glyph-name="uniAEBE" unicode="&#xaebe;" 
d="M767 809v-517h-108v208h-157q-44 -112 -148 -199l-75 61q78 64 116 136t46 170h-115v85h217q0 -96 -15 -166h131v222h108zM145 520q38 61 48 148h-133v85h235q0 -142 -44 -240t-152 -176l-70 67q78 55 116 116zM136 255h298v-335h-107v248h-191v87zM473 255h294v-335
h-107v248h-187v87z" />
    <glyph glyph-name="uniAEBF" unicode="&#xaebf;" 
 />
    <glyph glyph-name="uniAEC0" unicode="&#xaec0;" 
d="M767 806v-648h-108v307h-152q-45 -118 -153 -209l-72 66q82 66 119.5 144.5t45.5 185.5h-113v87h214q0 -111 -16 -188h127v255h108zM152.5 492q38.5 67 47.5 160h-133v87h235q0 -148 -44 -252.5t-154 -189.5l-70 68q80 60 118.5 127zM180 214h107v-190h502v-87h-609v277z
" />
    <glyph glyph-name="uniAEC1" unicode="&#xaec1;" 
 />
    <glyph glyph-name="uniAEC2" unicode="&#xaec2;" 
 />
    <glyph glyph-name="uniAEC3" unicode="&#xaec3;" 
 />
    <glyph glyph-name="uniAEC4" unicode="&#xaec4;" 
d="M253.5 549q-44.5 -88 -148.5 -161l-69 66q73 49 110.5 100.5t48.5 127.5h-132v87h235q0 -132 -44.5 -220zM178 315h588v-230h-480v-75h505v-84h-612v238h480v67h-481v84zM398.5 532q36.5 62 45.5 150h-116v87h218q0 -93 -15 -157h128v197h107v-455h-107v173h-155
q-44 -100 -144 -176l-74 63q76 56 112.5 118z" />
    <glyph glyph-name="uniAEC5" unicode="&#xaec5;" 
 />
    <glyph glyph-name="uniAEC6" unicode="&#xaec6;" 
 />
    <glyph glyph-name="uniAEC7" unicode="&#xaec7;" 
 />
    <glyph glyph-name="uniAEC8" unicode="&#xaec8;" 
 />
    <glyph glyph-name="uniAEC9" unicode="&#xaec9;" 
 />
    <glyph glyph-name="uniAECA" unicode="&#xaeca;" 
 />
    <glyph glyph-name="uniAECB" unicode="&#xaecb;" 
 />
    <glyph glyph-name="uniAECC" unicode="&#xaecc;" 
d="M251 515q-44 -97 -152 -177l-70 68q78 55 116 115t47 146h-132v86h235q0 -141 -44 -238zM177 270h590v-339h-590v339zM396 498q37 71 45 169h-113v86h215q0 -91 -14 -161h130v216h108v-500h-108v197h-155q-43 -114 -147 -202l-76 61q78 63 115 134zM661 17v167h-378v-167
h378z" />
    <glyph glyph-name="uniAECD" unicode="&#xaecd;" 
d="M767 809v-477h-108v178h-153q-43 -110 -143 -194l-76 61q76 62 112.5 132t44.5 167h-112v85h214q0 -95 -15 -165h128v213h108zM149 531q38 60 48 145h-132v85h234q0 -141 -44 -237t-152 -174l-69 67q77 54 115 114zM184 290h106v-94h371v94h106v-359h-583v359zM661 17v95
h-371v-95h371z" />
    <glyph glyph-name="uniAECE" unicode="&#xaece;" 
 />
    <glyph glyph-name="uniAECF" unicode="&#xaecf;" 
d="M767 809v-603h-107v278h-155q-43 -111 -144 -198l-77 62q79 64 116 137.5t45 172.5h-113v87h214q0 -100 -15 -174h129v238h107zM149 508q38 62 48 150h-132v87h235q0 -144 -44.5 -242.5t-153.5 -178.5l-69 67q78 55 116 117zM284.5 56.5q65.5 35.5 100.5 85t35 105.5v26
h107v-26q0 -55 34.5 -104.5t99 -85t150.5 -48.5l-43 -85q-102 19 -178 66t-117 115q-40 -70 -117.5 -117t-181.5 -65l-41 84q86 14 151.5 49.5z" />
    <glyph glyph-name="uniAED0" unicode="&#xaed0;" 
d="M252 514q-44 -97 -152 -175l-69 67q78 54 116 115t48 147h-134v85h235q0 -142 -44 -239zM198.5 97.5q44.5 61.5 44.5 130.5v43h104v-43q0 -59 27 -113.5t81 -90.5q55 38 84 94t29 110v43h105v-43q0 -73 44 -133.5t127 -87.5l-54 -78q-122 43 -172 159
q-22 -56 -62.5 -99.5t-98.5 -67.5q-116 45 -163 165q-24 -53 -66.5 -93.5t-103.5 -63.5l-52 78q82 29 126.5 90.5zM397 500.5q37 70.5 45 167.5h-113v85h215q0 -95 -15 -165h131v220h108v-506h-108v199h-157q-44 -110 -145 -195l-75 62q77 62 114 132.5z" />
    <glyph glyph-name="uniAED1" unicode="&#xaed1;" 
d="M767 808v-531h-108v218h-160q-46 -106 -145 -190l-75 61q78 62 116 133.5t46 167.5h-114v86h216q0 -97 -17 -172h133v227h108zM145 520q38 61 48 147h-133v86h235q0 -142 -44.5 -239.5t-153.5 -176.5l-69 67q79 55 117 116zM210.5 188q36.5 40 104.5 61t158 21t158 -21
t104.5 -61t36.5 -93t-36.5 -92.5t-104 -60.5t-158.5 -21t-158.5 21t-104 60.5t-36.5 92.5t36.5 93zM331.5 27.5q51.5 -24.5 141.5 -24.5t141.5 24.5t51.5 67.5q0 44 -51 67.5t-142 23.5t-142 -23.5t-51 -67.5q0 -43 51.5 -67.5z" />
    <glyph glyph-name="uniAED2" unicode="&#xaed2;" 
 />
    <glyph glyph-name="uniAED3" unicode="&#xaed3;" 
d="M252.5 532.5q-43.5 -91.5 -150.5 -167.5l-70 68q76 49 113.5 105.5t47.5 137.5h-133v86h236q0 -138 -43.5 -229.5zM272.5 33q61.5 23 99 54.5t46.5 66.5h-250v80h253v86h109v-86h253v-80h-249q9 -33 46 -65t98.5 -55t138.5 -31l-35 -80q-106 11 -185.5 49.5t-120.5 94.5
q-41 -56 -122 -94.5t-187 -49.5l-34 80q78 7 139.5 30zM396.5 519q36.5 66 44.5 157h-112v86h215q0 -93 -15 -160h131v206h107v-505h-107v213h-158q-41 -100 -142 -183l-75 61q75 59 111.5 125z" />
    <glyph glyph-name="uniAED4" unicode="&#xaed4;" 
 />
    <glyph glyph-name="uniAED5" unicode="&#xaed5;" 
d="M289 766q0 -131 -43 -220t-142 -163l-75 68q70 49 105.5 99.5t45.5 125.5h-126v90h235zM160 307h620v-80h-513v-71h504v-75h-504v-72h527v-79h-634v377zM382.5 529q33.5 60 42.5 147h-113v90h223q0 -78 -12 -144h143v187h108v-458h-108v183h-167q-40 -102 -131 -186
l-87 62q68 59 101.5 119z" />
    <glyph glyph-name="uniAED6" unicode="&#xaed6;" 
 />
    <glyph glyph-name="uniAED7" unicode="&#xaed7;" 
 />
    <glyph glyph-name="uniAED8" unicode="&#xaed8;" 
d="M220.5 381.5q-29.5 -143.5 -110.5 -264.5l-83 47q69 98 98 207t34 247h-108v88h199q0 -181 -29.5 -324.5zM325.5 343q27.5 122 30.5 275h-78v88h170q0 -137 -10 -237h90v319h100v-825h-100v419h-102q-32 -184 -119 -314l-83 47q74 106 101.5 228zM696 809h103v-889h-103
v889z" />
    <glyph glyph-name="uniAED9" unicode="&#xaed9;" 
d="M795 809v-525h-102v525h102zM121.5 518q28.5 59 35.5 145h-102v87h200q0 -138 -30.5 -231.5t-113.5 -176.5l-78 58q60 59 88.5 118zM170 246h625v-326h-107v239h-518v87zM323.5 488q29.5 74 35.5 175h-82v87h180q0 -96 -9 -160h79v201h100v-500h-100v212h-96
q-32 -117 -119 -211l-84 54q66 68 95.5 142z" />
    <glyph glyph-name="uniAEDA" unicode="&#xaeda;" 
 />
    <glyph glyph-name="uniAEDB" unicode="&#xaedb;" 
 />
    <glyph glyph-name="uniAEDC" unicode="&#xaedc;" 
d="M292 218v-188h524v-87h-631v275h107zM123 495.5q29 65.5 35 157.5h-102v87h199q0 -97 -12 -169t-43.5 -136t-90.5 -124l-80 56q65 63 94 128.5zM324.5 466.5q28.5 78.5 34.5 186.5h-81v87h179q0 -111 -11 -181h82v233h100v-621h-100v301h-100q-33 -117 -117 -210l-83 54
q68 72 96.5 150.5zM694 808h103v-654h-103v654z" />
    <glyph glyph-name="uniAEDD" unicode="&#xaedd;" 
 />
    <glyph glyph-name="uniAEDE" unicode="&#xaede;" 
 />
    <glyph glyph-name="uniAEDF" unicode="&#xaedf;" 
 />
    <glyph glyph-name="uniAEE0" unicode="&#xaee0;" 
 />
    <glyph glyph-name="uniAEE1" unicode="&#xaee1;" 
 />
    <glyph glyph-name="uniAEE2" unicode="&#xaee2;" 
 />
    <glyph glyph-name="uniAEE3" unicode="&#xaee3;" 
 />
    <glyph glyph-name="uniAEE4" unicode="&#xaee4;" 
 />
    <glyph glyph-name="uniAEE5" unicode="&#xaee5;" 
 />
    <glyph glyph-name="uniAEE6" unicode="&#xaee6;" 
 />
    <glyph glyph-name="uniAEE7" unicode="&#xaee7;" 
 />
    <glyph glyph-name="uniAEE8" unicode="&#xaee8;" 
d="M795 808v-510h-102v510h102zM121.5 519q28.5 61 35.5 150h-102v86h199q0 -94 -12 -163.5t-43.5 -131t-89.5 -118.5l-79 56q63 60 91.5 121zM198 262h597v-331h-597v331zM324 493.5q29 73.5 35 175.5h-83v86h181q0 -97 -11 -170h82v207h100v-489h-100v196h-101
q-33 -111 -116 -200l-82 53q66 68 95 141.5zM689 17v160h-385v-160h385z" />
    <glyph glyph-name="uniAEE9" unicode="&#xaee9;" 
 />
    <glyph glyph-name="uniAEEA" unicode="&#xaeea;" 
 />
    <glyph glyph-name="uniAEEB" unicode="&#xaeeb;" 
d="M796 808v-586h-102v586h102zM122 508q29 63 36 152h-102v87h199q0 -95 -12 -165.5t-43.5 -133t-89.5 -119.5l-80 56q63 60 92 123zM299 60q66 34 102.5 82t36.5 100v27h111v-27q0 -52 36 -100t102 -82t152 -47l-41 -84q-105 17 -184 64.5t-120 115.5q-41 -69 -120.5 -116
t-184.5 -64l-42 84q86 13 152 47zM325.5 479q28.5 76 33.5 181h-81v87h179q0 -98 -9 -165h79v209h101v-490h-101v194h-96q-31 -120 -117 -216l-83 53q66 71 94.5 147z" />
    <glyph glyph-name="uniAEEC" unicode="&#xaeec;" 
 />
    <glyph glyph-name="uniAEED" unicode="&#xaeed;" 
d="M796 808v-535h-103v535h103zM121.5 515.5q28.5 60.5 35.5 148.5h-101v87h199q0 -95 -12 -165t-43.5 -131t-89.5 -118l-80 58q63 60 91.5 120.5zM249 210q85 44 235 44t234.5 -44t84.5 -123q0 -80 -84.5 -123.5t-234.5 -43.5t-235 43.5t-85 123.5q0 79 85 123zM326 488
q28 74 33 176h-81v87h179q0 -101 -9 -168h80v208h100v-490h-100v194h-99q-31 -112 -113 -204l-83 53q65 70 93 144zM328.5 24.5q54.5 -21.5 155.5 -21.5t154.5 21.5t53.5 62.5q0 40 -53.5 61.5t-154.5 21.5t-155.5 -21.5t-54.5 -61.5q0 -41 54.5 -62.5z" />
    <glyph glyph-name="uniAEEE" unicode="&#xaeee;" 
 />
    <glyph glyph-name="uniAEEF" unicode="&#xaeef;" 
 />
    <glyph glyph-name="uniAEF0" unicode="&#xaef0;" 
 />
    <glyph glyph-name="uniAEF1" unicode="&#xaef1;" 
 />
    <glyph glyph-name="uniAEF2" unicode="&#xaef2;" 
 />
    <glyph glyph-name="uniAEF3" unicode="&#xaef3;" 
 />
    <glyph glyph-name="uniAEF4" unicode="&#xaef4;" 
d="M767 809v-889h-108v337h-190q-43 -110 -113 -197l-88 57q86 108 124.5 232.5t44.5 279.5h-111v87h213q0 -75 -4 -134h124v227h108zM149 384q40 108 47 245h-138v87h241q0 -187 -42.5 -331.5t-151.5 -264.5l-82 61q86 95 126 203zM659 343v152h-132q-12 -86 -30 -152h162z
" />
    <glyph glyph-name="uniAEF5" unicode="&#xaef5;" 
 />
    <glyph glyph-name="uniAEF6" unicode="&#xaef6;" 
 />
    <glyph glyph-name="uniAEF7" unicode="&#xaef7;" 
 />
    <glyph glyph-name="uniAEF8" unicode="&#xaef8;" 
d="M659 428v126h-133q-17 -87 -58 -160t-114 -138l-74 65q79 68 115.5 146.5t44.5 184.5h-109v87h210q0 -56 -4 -99h122v166h108v-650h-108v187h-148v85h148zM151 491.5q38 67.5 47 160.5h-131v87h233q0 -148 -43 -252.5t-152 -189.5l-71 68q79 59 117 126.5zM180 213h107
v-189h502v-87h-609v276z" />
    <glyph glyph-name="uniAEF9" unicode="&#xaef9;" 
 />
    <glyph glyph-name="uniAEFA" unicode="&#xaefa;" 
 />
    <glyph glyph-name="uniAEFB" unicode="&#xaefb;" 
 />
    <glyph glyph-name="uniAEFC" unicode="&#xaefc;" 
d="M659 520v92h-131q-17 -78 -57 -140.5t-112 -118.5l-74 63q75 55 111 116.5t44 149.5h-113v87h216q0 -40 -3 -76h119v116h107v-455h-107v84h-141v82h141zM146.5 555q37.5 51 48.5 127h-132v87h235q0 -132 -44.5 -219.5t-148.5 -159.5l-69 67q73 47 110.5 98zM178 315h588
v-230h-480v-75h505v-84h-612v238h480v67h-481v84z" />
    <glyph glyph-name="uniAEFD" unicode="&#xaefd;" 
 />
    <glyph glyph-name="uniAEFE" unicode="&#xaefe;" 
 />
    <glyph glyph-name="uniAEFF" unicode="&#xaeff;" 
 />
    <glyph glyph-name="uniAF00" unicode="&#xaf00;" 
 />
    <glyph glyph-name="uniAF01" unicode="&#xaf01;" 
 />
    <glyph glyph-name="uniAF02" unicode="&#xaf02;" 
 />
    <glyph glyph-name="uniAF03" unicode="&#xaf03;" 
 />
    <glyph glyph-name="uniAF04" unicode="&#xaf04;" 
 />
    <glyph glyph-name="uniAF05" unicode="&#xaf05;" 
 />
    <glyph glyph-name="uniAF06" unicode="&#xaf06;" 
 />
    <glyph glyph-name="uniAF07" unicode="&#xaf07;" 
d="M660 458v109h-134q-18 -84 -58 -152.5t-109 -129.5l-77 61q77 65 113.5 138.5t44.5 173.5h-110v87h212q0 -53 -4 -92h122v156h107v-606h-107v166h-145v89h145zM149 508q38 62 48 150h-132v87h235q0 -144 -44.5 -242.5t-153.5 -178.5l-69 67q78 55 116 117zM285 54
q65 34 100 82.5t35 103.5v22h107v-22q0 -55 34.5 -103t99 -82t150.5 -47l-42 -84q-102 17 -179 63t-117 114q-41 -68 -118.5 -114.5t-180.5 -63.5l-41 84q87 13 152 47z" />
    <glyph glyph-name="uniAF08" unicode="&#xaf08;" 
d="M660 481v104h-135q-18 -82 -58.5 -150t-110.5 -128l-76 61q77 62 113.5 132.5t44.5 167.5h-109v85h211q0 -43 -3 -82h123v137h108v-506h-108v92h-145v87h145zM147 521q38 61 48 147h-134v85h235q0 -142 -44 -239t-152 -175l-69 67q78 54 116 115zM198.5 97.5
q44.5 61.5 44.5 130.5v43h104v-43q0 -59 27 -113.5t81 -90.5q55 38 84 94t29 110v43h105v-43q0 -73 44 -133.5t127 -87.5l-54 -78q-122 43 -172 159q-22 -56 -62.5 -99.5t-98.5 -67.5q-116 45 -163 165q-24 -53 -66.5 -93.5t-103.5 -63.5l-52 78q82 29 126.5 90.5z" />
    <glyph glyph-name="uniAF09" unicode="&#xaf09;" 
d="M767 808v-531h-108v120h-145v87h145v98h-133q-18 -82 -59.5 -150t-112.5 -127l-75 61q78 62 116 133.5t46 167.5h-114v86h216q0 -43 -3 -84h119v139h108zM145 520q38 61 48 147h-133v86h235q0 -142 -44.5 -239.5t-153.5 -176.5l-69 67q79 55 117 116zM210.5 188
q36.5 40 104.5 61t158 21t158 -21t104.5 -61t36.5 -93t-36.5 -92.5t-104 -60.5t-158.5 -21t-158.5 21t-104 60.5t-36.5 92.5t36.5 93zM331.5 27.5q51.5 -24.5 141.5 -24.5t141.5 24.5t51.5 67.5q0 44 -51 67.5t-142 23.5t-142 -23.5t-51 -67.5q0 -43 51.5 -67.5z" />
    <glyph glyph-name="uniAF0A" unicode="&#xaf0a;" 
 />
    <glyph glyph-name="uniAF0B" unicode="&#xaf0b;" 
 />
    <glyph glyph-name="uniAF0C" unicode="&#xaf0c;" 
 />
    <glyph glyph-name="uniAF0D" unicode="&#xaf0d;" 
d="M770 295v-80h-479v-63h466v-77h-466v-65h494v-79h-601v364h586zM148.5 535.5q37.5 58.5 47.5 143.5h-130v86h232q0 -141 -43.5 -236t-151.5 -172l-69 67q77 53 114.5 111.5zM388.5 515q37.5 69 45.5 164h-106v86h207q0 -43 -3 -82h127v126h108v-476h-108v83h-146v84h146
v99h-139q-17 -82 -58 -149.5t-113 -125.5l-76 61q78 61 115.5 130z" />
    <glyph glyph-name="uniAF0E" unicode="&#xaf0e;" 
 />
    <glyph glyph-name="uniAF0F" unicode="&#xaf0f;" 
 />
    <glyph glyph-name="uniAF10" unicode="&#xaf10;" 
d="M220.5 381.5q-29.5 -143.5 -110.5 -264.5l-83 47q69 98 98 207t34 247h-108v88h199q0 -181 -29.5 -324.5zM325.5 343q27.5 122 30.5 275h-78v88h170q0 -44 -2 -132h83v214h101v-825h-101v298h-132q-32 -106 -90 -193l-83 47q74 106 101.5 228zM529 347v140h-89
q-9 -85 -21 -140h110zM696 809h103v-889h-103v889z" />
    <glyph glyph-name="uniAF11" unicode="&#xaf11;" 
 />
    <glyph glyph-name="uniAF12" unicode="&#xaf12;" 
 />
    <glyph glyph-name="uniAF13" unicode="&#xaf13;" 
 />
    <glyph glyph-name="uniAF14" unicode="&#xaf14;" 
 />
    <glyph glyph-name="uniAF15" unicode="&#xaf15;" 
 />
    <glyph glyph-name="uniAF16" unicode="&#xaf16;" 
 />
    <glyph glyph-name="uniAF17" unicode="&#xaf17;" 
 />
    <glyph glyph-name="uniAF18" unicode="&#xaf18;" 
 />
    <glyph glyph-name="uniAF19" unicode="&#xaf19;" 
 />
    <glyph glyph-name="uniAF1A" unicode="&#xaf1a;" 
 />
    <glyph glyph-name="uniAF1B" unicode="&#xaf1b;" 
 />
    <glyph glyph-name="uniAF1C" unicode="&#xaf1c;" 
 />
    <glyph glyph-name="uniAF1D" unicode="&#xaf1d;" 
 />
    <glyph glyph-name="uniAF1E" unicode="&#xaf1e;" 
 />
    <glyph glyph-name="uniAF1F" unicode="&#xaf1f;" 
 />
    <glyph glyph-name="uniAF20" unicode="&#xaf20;" 
 />
    <glyph glyph-name="uniAF21" unicode="&#xaf21;" 
 />
    <glyph glyph-name="uniAF22" unicode="&#xaf22;" 
 />
    <glyph glyph-name="uniAF23" unicode="&#xaf23;" 
 />
    <glyph glyph-name="uniAF24" unicode="&#xaf24;" 
 />
    <glyph glyph-name="uniAF25" unicode="&#xaf25;" 
 />
    <glyph glyph-name="uniAF26" unicode="&#xaf26;" 
 />
    <glyph glyph-name="uniAF27" unicode="&#xaf27;" 
 />
    <glyph glyph-name="uniAF28" unicode="&#xaf28;" 
 />
    <glyph glyph-name="uniAF29" unicode="&#xaf29;" 
 />
    <glyph glyph-name="uniAF2A" unicode="&#xaf2a;" 
 />
    <glyph glyph-name="uniAF2B" unicode="&#xaf2b;" 
 />
    <glyph glyph-name="uniAF2C" unicode="&#xaf2c;" 
d="M375 726v-40q0 -94 -10 -189t-49 -233l-106 18q33 107 45 193t14 165h-175v86h281zM34 130h365v276h106v-276h332v-87h-803v87zM443 726h310v-59q0 -101 -5.5 -189t-27.5 -210l-107 12q20 106 26.5 192t6.5 168h-203v86z" />
    <glyph glyph-name="uniAF2D" unicode="&#xaf2d;" 
d="M754 771v-48q0 -67 -4.5 -127t-22.5 -136l-104 12q24 104 26 213h-205v86h310zM36 396h363v165h106v-165h331v-87h-800v87zM101 771h273v-36q0 -64 -7.5 -129t-36.5 -147l-103 15q38 113 42 211h-168v86zM122 229h615v-306h-109v220h-506v86z" />
    <glyph glyph-name="uniAF2E" unicode="&#xaf2e;" 
 />
    <glyph glyph-name="uniAF2F" unicode="&#xaf2f;" 
 />
    <glyph glyph-name="uniAF30" unicode="&#xaf30;" 
d="M754 766v-51q0 -70 -4.5 -132.5t-22.5 -142.5l-104 12q24 112 26 228h-205v86h310zM36 375h363v167h106v-167h331v-86h-800v86zM101 766h273v-40q0 -69 -8 -136t-37 -153l-104 19q40 115 44 224h-168v86zM139 215h108v-192h505v-87h-613v279z" />
    <glyph glyph-name="uniAF31" unicode="&#xaf31;" 
 />
    <glyph glyph-name="uniAF32" unicode="&#xaf32;" 
d="M540 253v65h104v-65h150v-79h-405v79h151zM36 437h363v145h106v-145h331v-87h-800v87zM101 774h273v-41q0 -61 -7.5 -119.5t-36.5 -129.5l-104 17q39 102 43 188h-168v85zM124 263h104v-232q85 3 167 26l15 -86q-106 -29 -238 -29h-48v321zM478 118.5q45 31.5 114 31.5
t114 -31.5t45 -83.5t-45 -83t-114 -31t-114 31t-45 83t45 83.5zM444 774h310v-44q0 -61 -4.5 -117.5t-22.5 -127.5l-103 12q23 101 25 192h-205v85zM543 2.5q19 -11.5 49 -11.5t49 11.5t19 32.5t-19 32.5t-49 11.5t-49 -11.5t-19 -32.5t19 -32.5z" />
    <glyph glyph-name="uniAF33" unicode="&#xaf33;" 
d="M754 771v-47q0 -65 -4.5 -124.5t-22.5 -132.5l-104 11q24 107 26 207h-205v86h310zM36 410h363v159h106v-159h331v-88h-800v88zM101 771h273v-35q0 -62 -7.5 -125.5t-36.5 -144.5l-103 15q36 103 42 204h-168v86zM131 232h605v-86h-497v-129h510v-87h-618v302z" />
    <glyph glyph-name="uniAF34" unicode="&#xaf34;" 
d="M754 783v-43q0 -59 -4.5 -113.5t-21.5 -122.5l-104 13q21 84 25 180h-205v86h310zM36 459h362v137h106v-137h332v-85h-800v85zM101 783h273v-41q0 -59 -7.5 -115.5t-36.5 -125.5l-104 16q39 97 43 180h-168v86zM136 311h598v-227h-489v-72h520v-85h-627v236h489v65h-491
v83z" />
    <glyph glyph-name="uniAF35" unicode="&#xaf35;" 
 />
    <glyph glyph-name="uniAF36" unicode="&#xaf36;" 
 />
    <glyph glyph-name="uniAF37" unicode="&#xaf37;" 
 />
    <glyph glyph-name="uniAF38" unicode="&#xaf38;" 
 />
    <glyph glyph-name="uniAF39" unicode="&#xaf39;" 
 />
    <glyph glyph-name="uniAF3A" unicode="&#xaf3a;" 
 />
    <glyph glyph-name="uniAF3B" unicode="&#xaf3b;" 
 />
    <glyph glyph-name="uniAF3C" unicode="&#xaf3c;" 
d="M754 774v-49q0 -66 -4.5 -125.5t-22.5 -135.5l-105 11q25 104 27 213h-205v86h310zM36 411h363v156h106v-156h331v-87h-800v87zM101 774h273v-36q0 -64 -7.5 -128t-36.5 -146l-103 15q38 112 42 209h-168v86zM134 242h603v-312h-603v312zM631 16v141h-392v-141h392z" />
    <glyph glyph-name="uniAF3D" unicode="&#xaf3d;" 
d="M754 775v-47q0 -66 -4.5 -125.5t-22.5 -133.5l-105 11q25 107 27 210h-205v85h310zM36 420h363v149h106v-149h331v-86h-800v86zM101 775h273v-34q0 -64 -7.5 -128t-36.5 -145l-103 15q38 111 42 207h-168v85zM138 278h106v-87h383v87h107v-348h-596v348zM627 17v91h-383
v-91h383z" />
    <glyph glyph-name="uniAF3E" unicode="&#xaf3e;" 
 />
    <glyph glyph-name="uniAF3F" unicode="&#xaf3f;" 
d="M754 768v-49q0 -67 -4.5 -128t-22.5 -136l-105 12q25 103 27 214h-205v87h310zM36 397h363v161h106v-161h331v-86h-800v86zM244.5 50q66.5 32 101.5 78t35 99v32h108v-32q0 -53 35.5 -99t102 -78t155.5 -43l-39 -85q-108 17 -187.5 60.5t-120.5 109.5
q-41 -66 -120.5 -109.5t-186.5 -60.5l-39 85q89 11 155.5 43zM101 768h273v-36q0 -65 -7.5 -130t-36.5 -148l-103 15q38 113 42 212h-168v87z" />
    <glyph glyph-name="uniAF40" unicode="&#xaf40;" 
 />
    <glyph glyph-name="uniAF41" unicode="&#xaf41;" 
d="M661.5 211.5q82.5 -44.5 82.5 -124.5q0 -78 -82.5 -122.5t-227.5 -44.5q-144 0 -226.5 44t-82.5 123q0 80 82 124.5t227 44.5t227.5 -44.5zM36 402h363v161h106v-161h331v-87h-800v87zM101 770h273v-35q0 -64 -7.5 -128t-36.5 -146l-103 15q38 113 42 210h-168v84z
M286.5 25q51.5 -21 147.5 -21t148 21t52 62t-52 62.5t-148 21.5t-147.5 -21.5t-51.5 -62.5t51.5 -62zM444 770h310v-48q0 -66 -4.5 -125.5t-22.5 -134.5l-105 11q25 104 27 213h-205v84z" />
    <glyph glyph-name="uniAF42" unicode="&#xaf42;" 
d="M754 773v-48q0 -65 -4.5 -124.5t-22.5 -133.5l-105 11q25 103 27 210h-205v85h310zM36 415h363v156h106v-156h331v-86h-800v86zM273 64q73 43 97 103h-241v85h616v-85h-242q24 -60 97 -103.5t180 -57.5l-40 -83q-107 16 -185.5 60t-118.5 110q-39 -66 -118.5 -109.5
t-185.5 -60.5l-40 84q108 14 181 57zM101 773h273v-34q0 -64 -7.5 -128t-36.5 -145l-103 16q38 111 42 206h-168v85z" />
    <glyph glyph-name="uniAF43" unicode="&#xaf43;" 
d="M754 777v-44q0 -62 -4.5 -119t-22.5 -127l-103 12q23 100 25 192h-205v86h310zM36 441h363v137h106v-137h331v-86h-800v86zM236.5 36q60.5 23 96.5 56t45 70h-242v84h245v79h109v-79h245v-84h-242q9 -37 45 -70t96.5 -56t136.5 -31l-37 -81q-103 12 -181 50.5t-118 96.5
q-40 -58 -118 -96.5t-181 -50.5l-36 81q76 8 136.5 31zM101 777h273v-41q0 -62 -7.5 -120.5t-36.5 -130.5l-104 17q39 103 43 189h-168v86z" />
    <glyph glyph-name="uniAF44" unicode="&#xaf44;" 
 />
    <glyph glyph-name="uniAF45" unicode="&#xaf45;" 
d="M754 783v-43q0 -59 -4.5 -114.5t-21.5 -122.5l-104 12q21 85 25 182h-205v86h310zM36 452h362v138h106v-138h332v-86h-800v86zM101 783h273v-41q0 -60 -7.5 -117t-36.5 -126l-104 17q39 98 43 181h-168v86zM134 294h609v-80h-502v-62h481v-77h-481v-66h509v-79h-616v364z
" />
    <glyph glyph-name="uniAF46" unicode="&#xaf46;" 
 />
    <glyph glyph-name="uniAF47" unicode="&#xaf47;" 
 />
    <glyph glyph-name="uniAF48" unicode="&#xaf48;" 
d="M260 711v-55q0 -86 -8 -163t-40 -180l-98 20q27 85 36 153.5t10 137.5h-110v87h210zM269 193v244h100v-240q107 6 214 20l6 -79q-215 -37 -549 -37l-11 88q125 0 240 4zM306 711h245v-65q0 -85 -4 -157.5t-19 -164.5l-98 14q21 135 21 286h-145v87zM630 809h107v-366h118
v-88h-118v-435h-107v889z" />
    <glyph glyph-name="uniAF49" unicode="&#xaf49;" 
d="M260 752v-50q0 -66 -6 -126t-30 -135l-100 15q33 108 35 209h-102v87h203zM264 379v164h98v-161q116 6 217 18l7 -77q-123 -21 -255 -27t-292 -6l-10 86q151 0 235 3zM133 220h606v-297h-107v211h-499v86zM303 752h237v-56q0 -66 -4.5 -123.5t-21.5 -127.5l-102 13
q15 59 20 107t6 100h-135v87zM632 809h107v-240h109v-88h-109v-223h-107v551z" />
    <glyph glyph-name="uniAF4A" unicode="&#xaf4a;" 
 />
    <glyph glyph-name="uniAF4B" unicode="&#xaf4b;" 
 />
    <glyph glyph-name="uniAF4C" unicode="&#xaf4c;" 
 />
    <glyph glyph-name="uniAF4D" unicode="&#xaf4d;" 
 />
    <glyph glyph-name="uniAF4E" unicode="&#xaf4e;" 
 />
    <glyph glyph-name="uniAF4F" unicode="&#xaf4f;" 
 />
    <glyph glyph-name="uniAF50" unicode="&#xaf50;" 
d="M260 763v-44q0 -59 -6 -114t-29 -123l-100 15q31 92 33 180h-101v86h203zM264 432v141h98v-138q125 7 223 19l6 -75q-125 -21 -261 -27.5t-292 -6.5l-10 84q152 0 236 3zM140 294h599v-217h-489v-68h518v-82h-626v225h490v62h-492v80zM303 763h237v-50q0 -59 -4 -111.5
t-20 -115.5l-101 13q21 88 23 178h-135v86zM632 809h107v-203h109v-87h-109v-190h-107v480z" />
    <glyph glyph-name="uniAF51" unicode="&#xaf51;" 
 />
    <glyph glyph-name="uniAF52" unicode="&#xaf52;" 
 />
    <glyph glyph-name="uniAF53" unicode="&#xaf53;" 
 />
    <glyph glyph-name="uniAF54" unicode="&#xaf54;" 
 />
    <glyph glyph-name="uniAF55" unicode="&#xaf55;" 
 />
    <glyph glyph-name="uniAF56" unicode="&#xaf56;" 
 />
    <glyph glyph-name="uniAF57" unicode="&#xaf57;" 
 />
    <glyph glyph-name="uniAF58" unicode="&#xaf58;" 
 />
    <glyph glyph-name="uniAF59" unicode="&#xaf59;" 
 />
    <glyph glyph-name="uniAF5A" unicode="&#xaf5a;" 
 />
    <glyph glyph-name="uniAF5B" unicode="&#xaf5b;" 
 />
    <glyph glyph-name="uniAF5C" unicode="&#xaf5c;" 
d="M260 755v-48q0 -66 -6 -125.5t-30 -133.5l-100 15q33 106 35 207h-102v85h203zM264 387v160h98v-156q135 7 217 18l7 -75q-123 -21 -253.5 -27t-293.5 -6l-10 84q151 0 235 2zM187.5 95q41.5 57 41.5 124v25h104v-25q0 -56 28 -108t82 -86q55 35 83.5 87.5t28.5 106.5v25
h106v-25q0 -70 40.5 -126.5t120.5 -82.5l-51 -78q-60 20 -101.5 58.5t-63.5 90.5q-23 -54 -63.5 -95t-98.5 -63q-115 43 -163 157q-23 -51 -64 -89.5t-98 -58.5l-53 78q80 28 121.5 85zM303 755h237v-54q0 -66 -4 -122.5t-20 -126.5l-101 13q21 95 23 205h-135v85zM632 809
h107v-223h109v-89h-109v-218h-107v530z" />
    <glyph glyph-name="uniAF5D" unicode="&#xaf5d;" 
d="M666.5 203.5q80.5 -42.5 80.5 -118.5t-80.5 -119t-221.5 -43t-221 43t-80 119t80 118.5t221 42.5t221.5 -42.5zM264 388v162h98v-158q135 9 217 21l7 -77q-123 -23 -258.5 -30t-288.5 -7l-10 86q150 0 235 3zM57 755h203v-48q0 -66 -6 -125.5t-30 -133.5l-100 15
q33 106 35 207h-102v85zM301.5 26q49.5 -20 143.5 -20t143 20t49 59t-49 59t-143 20t-143.5 -20t-49.5 -59t49.5 -59zM303 755h237v-53q0 -66 -4.5 -122t-21.5 -125l-102 11q15 58 20 105.5t6 98.5h-135v85zM632 809h107v-231h109v-88h-109v-232h-107v551z" />
    <glyph glyph-name="uniAF5E" unicode="&#xaf5e;" 
 />
    <glyph glyph-name="uniAF5F" unicode="&#xaf5f;" 
 />
    <glyph glyph-name="uniAF60" unicode="&#xaf60;" 
 />
    <glyph glyph-name="uniAF61" unicode="&#xaf61;" 
 />
    <glyph glyph-name="uniAF62" unicode="&#xaf62;" 
 />
    <glyph glyph-name="uniAF63" unicode="&#xaf63;" 
 />
    <glyph glyph-name="uniAF64" unicode="&#xaf64;" 
d="M310 435v-217q105 7 176 16l6 -77q-170 -32 -457 -32l-12 87q124 0 197 3v220h90zM41 709h180v-49q0 -77 -7 -149t-33 -166l-93 13q38 133 40 264h-87v87zM260 709h207v-70q0 -86 -3 -150t-17 -145l-92 13q13 74 16.5 134.5t3.5 130.5h-115v87zM522 792h100v-339h75v356
h102v-889h-102v446h-75v-405h-100v831z" />
    <glyph glyph-name="uniAF65" unicode="&#xaf65;" 
d="M315 548v-159q88 4 172 14l8 -76q-173 -30 -458 -30l-12 85q90 0 199 3v163h91zM46 753h179v-42q0 -64 -6.5 -124.5t-31.5 -135.5l-88 24q31 98 35 190h-88v88zM184 228h614v-309h-107v222h-507v87zM262 753h208v-55q0 -66 -3.5 -121.5t-16.5 -122.5l-90 9
q11 56 14.5 102.5t4.5 99.5h-117v88zM525 791h101v-213h70v231h102v-546h-102v228h-70v-223h-101v523z" />
    <glyph glyph-name="uniAF66" unicode="&#xaf66;" 
 />
    <glyph glyph-name="uniAF67" unicode="&#xaf67;" 
 />
    <glyph glyph-name="uniAF68" unicode="&#xaf68;" 
 />
    <glyph glyph-name="uniAF69" unicode="&#xaf69;" 
 />
    <glyph glyph-name="uniAF6A" unicode="&#xaf6a;" 
 />
    <glyph glyph-name="uniAF6B" unicode="&#xaf6b;" 
 />
    <glyph glyph-name="uniAF6C" unicode="&#xaf6c;" 
 />
    <glyph glyph-name="uniAF6D" unicode="&#xaf6d;" 
 />
    <glyph glyph-name="uniAF6E" unicode="&#xaf6e;" 
 />
    <glyph glyph-name="uniAF6F" unicode="&#xaf6f;" 
 />
    <glyph glyph-name="uniAF70" unicode="&#xaf70;" 
 />
    <glyph glyph-name="uniAF71" unicode="&#xaf71;" 
 />
    <glyph glyph-name="uniAF72" unicode="&#xaf72;" 
 />
    <glyph glyph-name="uniAF73" unicode="&#xaf73;" 
 />
    <glyph glyph-name="uniAF74" unicode="&#xaf74;" 
 />
    <glyph glyph-name="uniAF75" unicode="&#xaf75;" 
 />
    <glyph glyph-name="uniAF76" unicode="&#xaf76;" 
 />
    <glyph glyph-name="uniAF77" unicode="&#xaf77;" 
 />
    <glyph glyph-name="uniAF78" unicode="&#xaf78;" 
d="M316 548v-158q109 5 173 14l8 -77q-168 -28 -459 -30l-13 86q91 0 200 3v162h91zM47 752h179v-42q0 -64 -6.5 -124t-32.5 -135l-87 24q33 102 35 190h-88v87zM210 77.5q44 57.5 44 125.5v25h104v-25q0 -56 27.5 -108.5t82.5 -86.5q55 36 83.5 88.5t28.5 106.5v25h106v-25
q0 -70 43.5 -127t125.5 -82l-52 -78q-62 21 -105 59.5t-66 91.5q-49 -117 -164 -160q-59 22 -99.5 63.5t-62.5 95.5q-24 -52 -67 -90.5t-104 -59.5l-51 78q82 26 126 83.5zM263 752h207v-54q0 -66 -3 -121.5t-16 -122.5l-90 9q11 56 14.5 102.5t4.5 99.5h-117v87zM526 791
h101v-214h70v232h102v-550h-102v231h-70v-221h-101v522z" />
    <glyph glyph-name="uniAF79" unicode="&#xaf79;" 
d="M798 809v-554h-102v235h-70v-206h-100v507h100v-213h70v231h102zM224 388v162h91v-157q108 7 173 17l7 -77q-169 -34 -458 -34l-12 86q88 0 199 3zM46 753h179v-41q0 -64 -6.5 -124.5t-31.5 -134.5l-88 23q33 102 35 191h-88v86zM259 205.5q83 42.5 231 42.5
q147 0 230 -43t83 -120q0 -78 -83.5 -121.5t-229.5 -43.5q-148 0 -231 43.5t-83 121.5t83 120.5zM262 753h208v-54q0 -66 -3.5 -121t-16.5 -124l-90 10q11 57 14.5 103.5t4.5 99.5h-117v86zM338 23q52 -21 152 -21q98 0 150.5 21t52.5 62q0 40 -52.5 61t-150.5 21
q-99 0 -151.5 -21t-52.5 -61q0 -41 52 -62z" />
    <glyph glyph-name="uniAF7A" unicode="&#xaf7a;" 
 />
    <glyph glyph-name="uniAF7B" unicode="&#xaf7b;" 
 />
    <glyph glyph-name="uniAF7C" unicode="&#xaf7c;" 
 />
    <glyph glyph-name="uniAF7D" unicode="&#xaf7d;" 
 />
    <glyph glyph-name="uniAF7E" unicode="&#xaf7e;" 
 />
    <glyph glyph-name="uniAF7F" unicode="&#xaf7f;" 
 />
    <glyph glyph-name="uniAF80" unicode="&#xaf80;" 
d="M268 711v-56q0 -87 -7.5 -164.5t-37.5 -180.5l-98 19q26 87 34.5 156.5t9.5 138.5h-111v87h210zM287 192v253h99v-249q142 9 228 21l6 -79q-130 -23 -269.5 -30t-303.5 -7l-9 88q161 0 249 3zM320 711h251v-65q0 -86 -4 -159.5t-20 -165.5l-98 14q14 83 18.5 150.5
t4.5 138.5h-152v87zM662 809h108v-889h-108v889z" />
    <glyph glyph-name="uniAF81" unicode="&#xaf81;" 
 />
    <glyph glyph-name="uniAF82" unicode="&#xaf82;" 
 />
    <glyph glyph-name="uniAF83" unicode="&#xaf83;" 
 />
    <glyph glyph-name="uniAF84" unicode="&#xaf84;" 
d="M386 529v-168q137 7 222 18l7 -76q-128 -21 -266.5 -28.5t-301.5 -8.5l-9 87q131 0 248 4v172h100zM70 739h206v-50q0 -67 -6.5 -127t-31.5 -134l-99 14q36 110 38 210h-107v87zM172 198h108v-174h515v-87h-623v261zM323 739h250v-56q0 -66 -4 -123t-20 -127l-99 11
q14 59 19 107.5t6 100.5h-152v87zM662 809h108v-658h-108v658z" />
    <glyph glyph-name="uniAF85" unicode="&#xaf85;" 
 />
    <glyph glyph-name="uniAF86" unicode="&#xaf86;" 
 />
    <glyph glyph-name="uniAF87" unicode="&#xaf87;" 
 />
    <glyph glyph-name="uniAF88" unicode="&#xaf88;" 
d="M274 766v-45q0 -61 -6 -116t-28 -123l-98 14q30 91 34 185h-108v85h206zM284 431v149h99v-146q129 7 226 20l6 -75q-130 -21 -268.5 -28t-299.5 -8l-15 84q133 0 252 4zM164 293h606v-217h-496v-67h523v-82h-631v224h497v62h-499v80zM322 766h249v-51q0 -61 -4 -113.5
t-20 -115.5l-98 12q21 90 23 183h-150v85zM662 809h108v-481h-108v481z" />
    <glyph glyph-name="uniAF89" unicode="&#xaf89;" 
 />
    <glyph glyph-name="uniAF8A" unicode="&#xaf8a;" 
 />
    <glyph glyph-name="uniAF8B" unicode="&#xaf8b;" 
 />
    <glyph glyph-name="uniAF8C" unicode="&#xaf8c;" 
 />
    <glyph glyph-name="uniAF8D" unicode="&#xaf8d;" 
 />
    <glyph glyph-name="uniAF8E" unicode="&#xaf8e;" 
 />
    <glyph glyph-name="uniAF8F" unicode="&#xaf8f;" 
 />
    <glyph glyph-name="uniAF90" unicode="&#xaf90;" 
d="M769 809v-531h-107v531h107zM286 391v164h99v-159q126 7 225 19l5 -78q-129 -21 -270.5 -28t-298.5 -7l-8 86q116 0 248 3zM69 750h206v-47q0 -63 -6 -120.5t-29 -128.5l-98 13q18 57 25 103.5t9 93.5h-107v86zM172 234h597v-303h-597v303zM664 16v134h-386v-134h386z
M322 750h251v-52q0 -64 -4.5 -119t-21.5 -121l-97 11q22 96 24 195h-152v86z" />
    <glyph glyph-name="uniAF91" unicode="&#xaf91;" 
d="M278 268v-85h385v85h106v-337h-597v337h106zM286 404v159h99v-154q126 7 225 19l5 -78q-128 -21 -267 -28.5t-302 -8.5l-8 87q131 0 248 4zM69 756h206v-47q0 -64 -6 -121.5t-29 -128.5l-98 14q18 57 25 103.5t9 93.5h-107v86zM663 16v86h-385v-86h385zM322 756h251v-53
q0 -63 -4.5 -118t-21.5 -121l-97 11q13 55 18 100.5t6 94.5h-152v86zM662 809h107v-511h-107v511z" />
    <glyph glyph-name="uniAF92" unicode="&#xaf92;" 
 />
    <glyph glyph-name="uniAF93" unicode="&#xaf93;" 
 />
    <glyph glyph-name="uniAF94" unicode="&#xaf94;" 
 />
    <glyph glyph-name="uniAF95" unicode="&#xaf95;" 
d="M693 206q81 -43 81 -121t-81 -121t-223 -43t-223 43t-81 121t81 121t223 43t223 -43zM286 387v165h99v-161q112 6 225 20l6 -78q-128 -21 -268 -28t-302 -8l-8 86q131 0 248 4zM69 748h206v-48q0 -63 -6 -120.5t-29 -128.5l-98 14q18 57 25 103t9 93h-107v87zM324.5 24
q50.5 -21 145.5 -21q96 0 146 21t50 61t-50 61t-146 21q-95 0 -145.5 -21t-50.5 -61t50.5 -61zM322 748h251v-53q0 -63 -4.5 -118t-21.5 -121l-97 10q22 96 24 195h-152v87zM662 809h107v-549h-107v549z" />
    <glyph glyph-name="uniAF96" unicode="&#xaf96;" 
 />
    <glyph glyph-name="uniAF97" unicode="&#xaf97;" 
 />
    <glyph glyph-name="uniAF98" unicode="&#xaf98;" 
 />
    <glyph glyph-name="uniAF99" unicode="&#xaf99;" 
 />
    <glyph glyph-name="uniAF9A" unicode="&#xaf9a;" 
 />
    <glyph glyph-name="uniAF9B" unicode="&#xaf9b;" 
 />
    <glyph glyph-name="uniAF9C" unicode="&#xaf9c;" 
d="M349 726v-48q0 -75 -5.5 -137t-28.5 -147h90v-264h91v264h103v-264h238v-88h-803v88h266v214q-8 -27 -26 -76l-102 29q41 103 55.5 184t16.5 157h-161v88h266zM424 726h336v-60q0 -98 -6.5 -188.5t-30.5 -214.5l-104 13q35 181 35 362h-230v88z" />
    <glyph glyph-name="uniAF9D" unicode="&#xaf9d;" 
 />
    <glyph glyph-name="uniAF9E" unicode="&#xaf9e;" 
 />
    <glyph glyph-name="uniAF9F" unicode="&#xaf9f;" 
 />
    <glyph glyph-name="uniAFA0" unicode="&#xafa0;" 
 />
    <glyph glyph-name="uniAFA1" unicode="&#xafa1;" 
 />
    <glyph glyph-name="uniAFA2" unicode="&#xafa2;" 
 />
    <glyph glyph-name="uniAFA3" unicode="&#xafa3;" 
 />
    <glyph glyph-name="uniAFA4" unicode="&#xafa4;" 
d="M323 449v112q-8 -29 -19 -55l-109 22q33 90 39 168h-141v88h254v-35q0 -40 -3 -79.5t-15 -86.5h100v-134h82v134h106v-134h218v-88h-805v88h293zM136 297h598v-219h-489v-67h520v-83h-627v227h489v59h-491v83zM420 784h335v-33q0 -55 -4 -113t-19 -130l-108 15
q17 97 19 173h-223v88z" />
    <glyph glyph-name="uniAFA5" unicode="&#xafa5;" 
 />
    <glyph glyph-name="uniAFA6" unicode="&#xafa6;" 
 />
    <glyph glyph-name="uniAFA7" unicode="&#xafa7;" 
 />
    <glyph glyph-name="uniAFA8" unicode="&#xafa8;" 
 />
    <glyph glyph-name="uniAFA9" unicode="&#xafa9;" 
 />
    <glyph glyph-name="uniAFAA" unicode="&#xafaa;" 
 />
    <glyph glyph-name="uniAFAB" unicode="&#xafab;" 
 />
    <glyph glyph-name="uniAFAC" unicode="&#xafac;" 
 />
    <glyph glyph-name="uniAFAD" unicode="&#xafad;" 
 />
    <glyph glyph-name="uniAFAE" unicode="&#xafae;" 
 />
    <glyph glyph-name="uniAFAF" unicode="&#xafaf;" 
 />
    <glyph glyph-name="uniAFB0" unicode="&#xafb0;" 
 />
    <glyph glyph-name="uniAFB1" unicode="&#xafb1;" 
 />
    <glyph glyph-name="uniAFB2" unicode="&#xafb2;" 
 />
    <glyph glyph-name="uniAFB3" unicode="&#xafb3;" 
 />
    </font>
</defs>
</svg>
