<?xml version="1.0" standalone="no"?>
<!DOCTYPE svg PUBLIC "-//W3C//DTD SVG 1.1//EN" "http://www.w3.org/Graphics/SVG/1.1/DTD/svg11.dtd" >
<svg xmlns="http://www.w3.org/2000/svg" xmlns:xlink="http://www.w3.org/1999/xlink" version="1.1">
<metadata>
Created by FontForge 20170731 at Sat May 13 05:03:38 2023
 By Aleksey,,,
Copyright (c) 2022 Sunn.
</metadata>
<defs>
<font id="SUIT-Bold" horiz-adv-x="874" >
  <font-face 
    font-family="SUIT"
    font-weight="700"
    font-stretch="normal"
    units-per-em="1000"
    panose-1="0 0 0 0 0 0 0 0 0 0"
    ascent="800"
    descent="-200"
    x-height="520"
    cap-height="733"
    bbox="-62 -237 1292 867"
    underline-thickness="50"
    underline-position="-175"
    unicode-range="U+0020-FFE6"
  />
<missing-glyph horiz-adv-x="1000" 
 />
    <glyph glyph-name=".notdef" horiz-adv-x="1000" 
 />
    <glyph glyph-name=".null" horiz-adv-x="0" 
 />
    <glyph glyph-name="nonmarkingreturn" horiz-adv-x="333" 
 />
    <glyph glyph-name="space" unicode=" " horiz-adv-x="230" 
 />
    <glyph glyph-name="space" unicode="&#xa0;" horiz-adv-x="230" 
 />
    <glyph glyph-name="exclam" unicode="!" horiz-adv-x="355" 
d="M237 204h-116l-21 565h155zM131 88q19 19 48 19q30 0 48.5 -19t18.5 -48q0 -30 -18.5 -49t-48.5 -19q-29 0 -48 19t-19 49q0 29 19 48z" />
    <glyph glyph-name="quotedbl" unicode="&#x22;" horiz-adv-x="451" 
d="M179 533h-88l-16 260h120zM376 791l-15 -260h-89l-15 260h119z" />
    <glyph glyph-name="numbersign" unicode="#" horiz-adv-x="811" 
d="M631 565h126v-112h-135l-17 -185h127v-113h-134l-16 -166h-115l17 166h-188l-15 -166h-116l15 166h-126v113h134l16 185h-124v112h134l15 168h116l-15 -168h187l14 168h116zM489 268l18 185h-186l-19 -185h187z" />
    <glyph glyph-name="dollar" unicode="$" horiz-adv-x="635" 
d="M371 807v-62q53 -10 99.5 -37t71.5 -65l-99 -69q-20 33 -72 48v-204l30 -12q5 -1 23 -8q74 -25 112 -79t38 -120q0 -53 -24.5 -102.5t-70.5 -83t-108 -40.5v-53h-98v57q-72 14 -129 57t-83 107l111 47q13 -32 39.5 -54.5t61.5 -33.5v228q-60 25 -90 45q-46 32 -71.5 78.5
t-25.5 97.5q0 43 20 86q21 44 66 74t101 39v59h98zM207 550q0 -22 11 -42.5t32 -34.5q5 -4 23 -13v165q-21 -5 -36.5 -16t-22.5 -26q-7 -19 -7 -33zM432 134.5q23 29.5 23 62.5q0 29 -17.5 52.5t-52.5 35.5l-14 5v-195q38 10 61 39.5z" />
    <glyph glyph-name="percent" unicode="%" horiz-adv-x="1066" 
d="M710 733h120l-467 -742h-117zM101.5 645q26.5 46 71.5 73t99 27t99 -27t71 -73t26 -102t-26 -102t-71 -73t-99 -27t-99 27t-71.5 73t-26.5 102t26.5 102zM211 478.5q25 -26.5 61 -26.5t61 26.5t25 64.5t-25 64.5t-61 26.5t-61 -26.5t-25 -64.5t25 -64.5zM625 289
q26 46 71 73t100 27q54 0 98.5 -27t70.5 -73t26 -102t-26 -102t-70.5 -73t-98.5 -27q-55 0 -100 27t-71 73t-26 102t26 102zM734 122.5q25 -26.5 62 -26.5q36 0 60.5 26.5t24.5 64.5t-24.5 64.5t-60.5 26.5q-37 0 -62 -26.5t-25 -64.5t25 -64.5z" />
    <glyph glyph-name="ampersand" unicode="&#x26;" horiz-adv-x="795" 
d="M593 -10l-56 62q-94 -82 -210 -82q-107 0 -163 45t-72.5 95.5t-16.5 83.5q0 22 9 58t36 79t76 77q-33 34 -51 67t-18 78q0 43 23.5 87t69 73.5t107.5 29.5t108 -28.5t70.5 -72.5t24.5 -89q0 -54 -32 -96t-95 -80l128 -139q6 10 40 70q4 9 14 27l109 -61l-14 -26
q-3 -5 -21 -38t-40 -64l146 -156h-172zM224.5 127.5q25.5 -33.5 102.5 -33.5q67 0 123 48l-163 176q-52 -26 -70 -62t-18 -62q0 -33 25.5 -66.5zM262.5 522q10.5 -14 34.5 -37l18 -17q51 25 71 43.5t20 41.5q0 28 -20 46.5t-59 18.5q-40 0 -57.5 -18.5t-17.5 -46.5
q0 -17 10.5 -31z" />
    <glyph glyph-name="quotesingle" unicode="'" horiz-adv-x="264" 
d="M177 533h-89l-16 260h120z" />
    <glyph glyph-name="parenleft" unicode="(" horiz-adv-x="417" 
d="M138.5 146q34.5 -117 88.5 -203h125q-62 86 -101 202.5t-39 215.5t39 215.5t101 202.5h-125q-54 -86 -88.5 -203t-34.5 -215t34.5 -215z" />
    <glyph glyph-name="parenright" unicode=")" horiz-adv-x="417" 
d="M278.5 576q-34.5 117 -88.5 203h-125q62 -85 101 -202t39 -216t-39 -216t-101 -202h125q54 86 88.5 203t34.5 215t-34.5 215z" />
    <glyph glyph-name="asterisk" unicode="*" horiz-adv-x="556" 
d="M329 441l128 41l31 -98l-127 -39l84 -114l-80 -64l-87 116l-87 -116l-78 65l83 113l-128 39l32 98l126 -41l-1 136h105z" />
    <glyph glyph-name="plus" unicode="+" horiz-adv-x="725" 
d="M422 429h240v-120h-240v-239h-119v239h-240v120h240v240h119v-240z" />
    <glyph glyph-name="comma" unicode="," horiz-adv-x="304" 
d="M120 -150h-88l40 248h123z" />
    <glyph glyph-name="hyphen" unicode="-" horiz-adv-x="568" 
d="M505 428v-120h-442v120h442z" />
    <glyph glyph-name="period" unicode="." horiz-adv-x="283" 
d="M165 87q19 -19 19 -48t-19 -48.5t-48 -19.5q-30 0 -49 19.5t-19 48.5t19 48t49 19q29 0 48 -19z" />
    <glyph glyph-name="slash" unicode="/" horiz-adv-x="448" 
d="M167 -60h-121l216 836h120z" />
    <glyph glyph-name="zero" unicode="0" horiz-adv-x="653" 
d="M411 127.5q36 33.5 56 94t20 140.5q0 79 -20 139.5t-56 94t-84 33.5t-84.5 -33.5t-56.5 -94t-20 -139.5q0 -80 20 -140.5t56.5 -94t84.5 -33.5t84 33.5zM82 554.5q36 84.5 99.5 131.5t145.5 47q81 0 145 -47t99.5 -131.5t35.5 -192.5t-35.5 -193t-99.5 -132.5t-145 -47.5
q-82 0 -145.5 47.5t-99.5 132.5t-36 193t36 192.5z" />
    <glyph glyph-name="one" unicode="1" horiz-adv-x="435" 
d="M340 -4l-120 1v602l-135 -67l-45 102l180 92h120v-730z" />
    <glyph glyph-name="two" unicode="2" horiz-adv-x="583" 
d="M128 158q36 32 52 46q76 67 120.5 110t74.5 88t30 87q0 59 -33.5 96t-85.5 37q-41 0 -78.5 -26.5t-56.5 -68.5l-104 46q31 70 98 115t141 45q70 0 124 -31t84.5 -86.5t30.5 -126.5t-40.5 -137.5t-96.5 -119.5t-149 -131h297v-105h-460l-10 105q26 25 62 57z" />
    <glyph glyph-name="three" unicode="3" horiz-adv-x="597" 
d="M521 297q30 -48 30 -95q0 -61 -32 -109.5t-89.5 -75.5t-131.5 -27q-73 0 -130 28.5t-89 78.5t-32 114h120q0 -50 36.5 -82.5t94.5 -32.5q60 0 98.5 32.5t38.5 82.5t-38 81.5t-97 31.5h-51v99h53q54 0 88 28.5t34 73.5q0 44 -33.5 72.5t-85.5 28.5q-51 0 -83.5 -28.5
t-32.5 -73.5h-120q0 60 30 107.5t83.5 74t122.5 26.5q68 0 121 -25.5t83 -70.5t30 -103q0 -43 -27 -87.5t-71 -71.5q50 -29 80 -77z" />
    <glyph glyph-name="four" unicode="4" horiz-adv-x="620" 
d="M488 281h86v-103h-86v-182h-119v182h-312l-10 103l327 445h114v-445zM369 281v248l-182 -248h182z" />
    <glyph glyph-name="five" unicode="5" horiz-adv-x="608" 
d="M73 330l26 396h400v-105h-285l-11 -160q49 20 96 20q76 0 135.5 -31.5t93 -87.5t33.5 -128t-33.5 -128.5t-93 -88t-135.5 -31.5q-60 0 -112.5 25t-89.5 69.5t-50 100.5l117 28q10 -49 48 -79.5t87 -30.5q63 0 102.5 38t39.5 97t-39.5 97t-102.5 38q-25 0 -55 -15t-51 -39
z" />
    <glyph glyph-name="six" unicode="6" horiz-adv-x="609" 
d="M403 133q39 39 39 101t-39 101.5t-100 39.5q-60 0 -98 -39.5t-38 -101.5t38 -101t98 -39q61 0 100 39zM88 374l198 355h138l-143 -252q24 3 26 3q74 -1 132 -32.5t90.5 -87t32.5 -126.5t-33 -127t-91.5 -87t-133.5 -31t-133.5 31t-91 87t-32.5 127q0 67 41 140z" />
    <glyph glyph-name="seven" unicode="7" horiz-adv-x="570" 
d="M108 -8l283 634l-327 -1v105h449l10 -104l-283 -634h-132z" />
    <glyph glyph-name="eight" unicode="8" horiz-adv-x="599" 
d="M396 118q37 34 37 87q0 55 -37.5 90t-95.5 35t-95.5 -35t-37.5 -90q0 -53 37 -87t96 -34t96 34zM81 300q34 50 87 80q-44 30 -72.5 74t-28.5 84q0 58 30 103.5t83 71t120 25.5q68 0 121 -25.5t82.5 -71t29.5 -103.5q0 -40 -28.5 -84.5t-72.5 -73.5q53 -30 87 -80t34 -98
q0 -64 -32.5 -113.5t-90 -77.5t-130.5 -28q-74 0 -131.5 28t-89.5 77.5t-32 113.5q0 48 34 98zM218.5 461q31.5 -29 81.5 -29t81.5 29t31.5 75q0 45 -31.5 73t-81.5 28t-81.5 -28t-31.5 -73q0 -46 31.5 -75z" />
    <glyph glyph-name="nine" unicode="9" horiz-adv-x="609" 
d="M205.5 590q-38.5 -39 -38.5 -101t38.5 -101.5t99.5 -39.5q60 0 98.5 39.5t38.5 101.5t-38.5 101t-98.5 39q-61 0 -99.5 -39zM79.5 616q32.5 56 91 87t133.5 31t133.5 -31t91.5 -87t33 -127q0 -66 -42 -140l-198 -354h-138l144 251q-18 -2 -27 -2q-74 0 -132 31.5t-90 87
t-32 126.5t32.5 127z" />
    <glyph glyph-name="colon" unicode=":" horiz-adv-x="303" 
d="M199 577q18 -18 18 -47q0 -28 -18 -46.5t-47 -18.5q-28 0 -46.5 18.5t-18.5 46.5q0 29 18.5 47t46.5 18q29 0 47 -18zM105.5 241q18.5 18 46.5 18q29 0 47 -18t18 -47q0 -28 -18 -46.5t-47 -18.5q-28 0 -46.5 18.5t-18.5 46.5q0 29 18.5 47z" />
    <glyph glyph-name="semicolon" unicode=";" horiz-adv-x="314" 
d="M149 8h-88l40 248h123zM117.5 579q18.5 18 46.5 18q29 0 47 -18t18 -47t-18.5 -47.5t-46.5 -18.5t-46.5 18.5t-18.5 47.5t18.5 47z" />
    <glyph glyph-name="less" unicode="&#x3c;" horiz-adv-x="650" 
d="M495 752l85 -86l-301 -301l301 -302l-85 -85l-387 387z" />
    <glyph glyph-name="equal" unicode="=" horiz-adv-x="682" 
d="M579 562v-118h-476v118h476zM103 287h476v-118h-476v118z" />
    <glyph glyph-name="greater" unicode="&#x3e;" horiz-adv-x="650" 
d="M155 -22l-85 85l302 302l-301 301l84 86l387 -387z" />
    <glyph glyph-name="question" unicode="?" horiz-adv-x="569" 
d="M214.5 -9q-19.5 19 -19.5 49q0 29 19.5 48t48.5 19t48 -19t19 -48q0 -30 -19 -49t-48 -19t-48.5 19zM133.5 736.5q67.5 48.5 144.5 48.5q71 0 125.5 -28.5t84.5 -80t30 -117.5q0 -60 -32 -116t-107 -112q-25 -19 -37 -34t-16.5 -35.5t-3.5 -57.5l-121 -2q-1 79 24 131.5
t82 95.5q54 40 72 67.5t18 62.5q0 47 -33 76.5t-86 29.5q-40 0 -75.5 -26.5t-51.5 -68.5l-113 42q28 76 95.5 124.5z" />
    <glyph glyph-name="at" unicode="@" horiz-adv-x="1064" 
d="M574 218.5q27 17.5 43.5 48t16.5 67.5t-16.5 67.5t-43.5 47.5t-59 17q-53 0 -87 -37t-34 -95q0 -59 34 -96t87 -37q32 0 59 17.5zM128 585q63 107 170 170t234 63q126 0 233.5 -63t170.5 -170t63 -234q0 -55 -19 -97.5t-49 -69.5q-22 -21 -54.5 -34t-56.5 -13
q-33 0 -73.5 13t-66.5 42q-75 -81 -170 -81q-60 0 -108 28.5t-74.5 79t-26.5 115.5q0 64 26.5 114.5t74.5 78.5t108 28q64 0 121 -40v40h98v-241q0 -26 19 -50t57 -24q24 0 46 14q16 10 26.5 34.5t10.5 62.5q0 97 -48 178.5t-130 129.5t-178 48q-97 0 -178.5 -48
t-129.5 -130t-48 -178t48 -178t129.5 -130t178.5 -48t181 50l57 -96q-108 -64 -238 -64q-127 0 -234 62.5t-170 169.5t-63 234t63 234z" />
    <glyph glyph-name="A" unicode="A" horiz-adv-x="857" 
d="M797 -11h-129l-78 197h-322l-79 -197h-129l300 744h142zM549 290l-118 297l-122 -297h240z" />
    <glyph glyph-name="B" unicode="B" horiz-adv-x="671" 
d="M77 733h306q59 0 105.5 -26t72.5 -72t26 -104q0 -37 -18 -75.5t-47 -66.5q3 -2 7.5 -4.5t9.5 -6.5q42 -28 68.5 -77t26.5 -98q0 -62 -26 -110.5t-73 -76t-106 -27.5h-352v744zM413 93q46 0 74 30t28 79q0 53 -28 85.5t-74 32.5h-216v-227h216zM379 423q41 2 65.5 29
t24.5 71q0 48 -27 77t-71 29h-174v-206h182z" />
    <glyph glyph-name="C" unicode="C" horiz-adv-x="733" 
d="M244.5 29.5q-83.5 48.5 -130 135t-46.5 196.5q0 111 46.5 197.5t130 134.5t189.5 48q75 0 142 -29.5t118 -81.5l-78 -80q-32 40 -81 63t-103 23q-73 0 -128 -34.5t-85.5 -96.5t-30.5 -144t30.5 -144.5t86.5 -96.5t129 -34q56 0 101 23t76 60l83 -77q-109 -112 -260 -111
q-106 0 -189.5 48.5z" />
    <glyph glyph-name="D" unicode="D" horiz-adv-x="769" 
d="M461 127q57 33 88.5 93.5t31.5 140.5t-31.5 140.5t-88.5 93.5t-133 33l-130 -1v-532l130 -1q76 0 133 33zM78 733h252q107 0 191.5 -47.5t132 -132t47.5 -192.5t-47.5 -192.5t-132 -132t-191.5 -47.5h-252v744z" />
    <glyph glyph-name="E" unicode="E" horiz-adv-x="651" 
d="M595 629h-409v-205h356v-104h-356v-227h409v-104h-529v744h529v-104z" />
    <glyph glyph-name="F" unicode="F" horiz-adv-x="631" 
d="M595 629h-399v-215h335v-103h-335v-322h-120v744h519v-104z" />
    <glyph glyph-name="G" unicode="G" horiz-adv-x="870" 
d="M792 314q0 -102 -43 -176.5t-122 -115t-184 -41.5q-108 0 -192.5 48.5t-132 135t-47.5 196.5t47.5 196.5t132 134.5t192.5 48q115 0 196 -52t121 -127l-102 -54q-28 54 -83.5 91t-132.5 37q-75 0 -132 -34t-88 -96t-31 -144t31 -144.5t88 -96.5t132 -34q101 2 165.5 51
t65.5 147h-219v97h338v-67z" />
    <glyph glyph-name="H" unicode="H" horiz-adv-x="757" 
d="M679 -11h-120v330h-361v-330h-120v744h120v-310h361v310h120v-744z" />
    <glyph glyph-name="I" unicode="I" horiz-adv-x="275" 
d="M198 733v-744h-120v744h120z" />
    <glyph glyph-name="J" unicode="J" horiz-adv-x="592" 
d="M486 96q-31 -54 -85.5 -84t-124.5 -30q-68 0 -129.5 39t-90.5 101l107 52q18 -38 50 -62.5t65 -24.5q52 0 85.5 37t33.5 96v513h120v-514q0 -69 -31 -123z" />
    <glyph glyph-name="K" unicode="K" horiz-adv-x="767" 
d="M411 408l299 -419h-148l-234 327l-131 -148v-179h-120v743h120v-382l345 383h163z" />
    <glyph glyph-name="L" unicode="L" horiz-adv-x="612" 
d="M196 93h360v-104h-480v744h120v-640z" />
    <glyph glyph-name="M" unicode="M" horiz-adv-x="945" 
d="M197 531v-542h-120v744h132l262 -415l262 415h133v-744h-120v542l-275 -413z" />
    <glyph glyph-name="N" unicode="N" horiz-adv-x="793" 
d="M719 -11h-132l-392 553v-553h-120v744h132l392 -555v555h120v-744z" />
    <glyph glyph-name="O" unicode="O" horiz-adv-x="886" 
d="M575 120q57 34 88.5 96.5t31.5 144.5t-31.5 144.5t-88.5 96.5t-132 34t-132 -34t-88.5 -96.5t-31.5 -144.5t31.5 -144.5t88.5 -96.5t132 -34t132 34zM118.5 557.5q47.5 86.5 132 135t192.5 48.5t192.5 -48.5t132 -135t47.5 -196.5t-47.5 -196.5t-132 -135t-192.5 -48.5
t-192.5 48.5t-132 135t-47.5 196.5t47.5 196.5z" />
    <glyph glyph-name="P" unicode="P" horiz-adv-x="692" 
d="M479 381q36 39 36 104t-36 104.5t-95 39.5h-188l1 -287h187q59 0 95 39zM77 733h311q72 0 128 -31.5t87 -88t31 -128.5t-31 -128t-87 -87.5t-128 -31.5h-191v-249h-120v744z" />
    <glyph glyph-name="Q" unicode="Q" horiz-adv-x="890" 
d="M686.5 292.5q8.5 35.5 8.5 67.5q0 82 -31.5 144.5t-88.5 96.5t-132 34t-132 -34t-88.5 -96.5t-31.5 -144.5t31.5 -144t88.5 -96t132 -34q42 0 83.5 14t67.5 37l-102 109l86 80l87 -95q13 26 21.5 61.5zM118.5 556.5q47.5 86.5 132 135t192.5 48.5t192.5 -48.5t132 -135
t47.5 -196.5q-1 -54 -19 -114.5t-46 -103.5l76 -81l-85 -80l-73 78q-40 -34 -103 -56t-122 -22q-108 0 -192.5 48t-132 134.5t-47.5 196.5t47.5 196.5z" />
    <glyph glyph-name="R" unicode="R" horiz-adv-x="744" 
d="M487.5 381q35.5 40 35.5 105q0 64 -35.5 103.5t-93.5 39.5h-196v-288h196q58 0 93.5 40zM78 733h335q67 0 119.5 -31.5t81.5 -88t29 -127.5q0 -76 -39 -135.5t-121 -94.5l195 -267h-149l-182 249h-149v-249h-120v744z" />
    <glyph glyph-name="S" unicode="S" horiz-adv-x="674" 
d="M249.5 115.5q46.5 -28.5 93.5 -28.5q67 0 108.5 29.5t41.5 78.5q0 32 -21 54t-52 36t-86 32q-73 24 -119.5 47t-79.5 66t-33 111q0 60 33 105t90 68.5t128 23.5q76 0 144.5 -42.5t99.5 -126.5l-106 -39q-20 55 -58 80t-80 25q-58 0 -94.5 -26t-36.5 -68q0 -32 21 -54.5
t53 -37t87 -34.5q73 -26 118.5 -49t78 -64.5t32.5 -106.5q0 -63 -33.5 -111t-94.5 -74t-141 -26q-83 0 -153.5 43.5t-117.5 122.5l98 56q33 -62 79.5 -90.5z" />
    <glyph glyph-name="T" unicode="T" horiz-adv-x="666" 
d="M609 629h-215v-640h-120v640h-217v104h552v-104z" />
    <glyph glyph-name="U" unicode="U" horiz-adv-x="770" 
d="M227.5 20.5q-70.5 38.5 -109.5 107.5t-39 157v448h120v-447q0 -87 51.5 -140t136.5 -53t137 53t52 140v447h120v-448q0 -88 -39 -157t-109.5 -107.5t-160.5 -38.5q-89 0 -159.5 38.5z" />
    <glyph glyph-name="V" unicode="V" horiz-adv-x="849" 
d="M505 -11h-142l-303 744h129l243 -613l229 613h129z" />
    <glyph glyph-name="W" unicode="W" horiz-adv-x="1159" 
d="M880 -11h-109l-183 555l-171 -555h-109l-241 744h126l170 -546l159 545h130l165 -545l150 546h126z" />
    <glyph glyph-name="X" unicode="X" horiz-adv-x="839" 
d="M494 362l285 -373h-152l-207 277l-209 -277h-151l285 373l-285 371h151l209 -276l207 275l152 1z" />
    <glyph glyph-name="Y" unicode="Y" horiz-adv-x="829" 
d="M474 280v-291h-120v291l-294 453h143l211 -341l212 341h143z" />
    <glyph glyph-name="Z" unicode="Z" horiz-adv-x="647" 
d="M609 626l-420 -533h420v-104h-571v107l420 533h-420v104h571v-107z" />
    <glyph glyph-name="bracketleft" unicode="[" horiz-adv-x="383" 
d="M318 665h-105v-610h105v-116h-215v841h215v-115z" />
    <glyph glyph-name="backslash" unicode="\" horiz-adv-x="448" 
d="M186 776l216 -836h-121l-215 836h120z" />
    <glyph glyph-name="bracketright" unicode="]" horiz-adv-x="383" 
d="M280 780v-841h-215v116h105v610h-105v115h215z" />
    <glyph glyph-name="asciicircum" unicode="^" horiz-adv-x="545" 
d="M495 377l11 -26h-108l-126 261l-125 -261h-108l177 376h113z" />
    <glyph glyph-name="underscore" unicode="_" horiz-adv-x="572" 
d="M532 2v-118h-478v118h478z" />
    <glyph glyph-name="grave" unicode="`" horiz-adv-x="308" 
d="M205 783l40 -239h-88l-75 239h123z" />
    <glyph glyph-name="a" unicode="a" horiz-adv-x="653" 
d="M386.5 105q33.5 22 54 61t20.5 86t-20.5 85.5t-54 60.5t-72.5 22q-64 0 -102.5 -46t-38.5 -122t38.5 -122.5t102.5 -46.5q39 0 72.5 22zM85 389.5q32 60.5 89 94.5t130 34q44 0 85 -21t71 -62v85h120v-531h-120v79q-31 -41 -71.5 -62t-84.5 -21q-73 0 -130 34t-89 94.5
t-32 138.5q0 77 32 137.5z" />
    <glyph glyph-name="b" unicode="b" horiz-adv-x="656" 
d="M270.5 4q-45.5 19 -77.5 64v-79h-120v744h120v-296q32 47 76.5 65t81.5 18q73 0 130.5 -34t89.5 -94.5t32 -138.5t-32 -139t-89.5 -95t-130.5 -34q-35 0 -80.5 19zM213 165q20 -39 54.5 -61.5t74.5 -22.5q64 0 102.5 46.5t38.5 122.5q0 77 -38.5 123.5t-102.5 46.5
q-40 0 -74.5 -23t-54.5 -62t-20 -85t20 -85z" />
    <glyph glyph-name="c" unicode="c" horiz-adv-x="508" 
d="M356 112.5q32 14.5 55 37.5l79 -83q-34 -36 -87.5 -58.5t-102.5 -22.5q-78 0 -139 34t-95 95t-34 138q0 78 34 138.5t95 94.5t139 34q53 0 103 -22t87 -59l-79 -82q-24 23 -55.5 37t-59.5 14q-65 0 -104.5 -42.5t-39.5 -112.5t39.5 -112.5t104.5 -42.5q28 0 60 14.5z" />
    <glyph glyph-name="d" unicode="d" horiz-adv-x="656" 
d="M174.5 19q-57.5 34 -89.5 95t-32 139t32 139t89.5 95t130.5 34q37 0 82 -19.5t76 -65.5v297h120v-744h-120v80q-31 -44 -77 -64t-81 -20q-73 0 -130.5 34zM211.5 127.5q38.5 -46.5 102.5 -46.5q40 0 74.5 22.5t54.5 61.5t20 85t-20 85.5t-54.5 62.5t-74.5 23
q-64 0 -102.5 -47t-38.5 -124q0 -76 38.5 -122.5z" />
    <glyph glyph-name="e" unicode="e" horiz-adv-x="611" 
d="M400 385.5q-33 36.5 -91 36.5q-56 0 -96 -36t-48 -88h277q-9 51 -42 87.5zM85.5 391.5q32.5 60.5 90.5 94.5t132 34q104 0 153.5 -50.5t67.5 -92.5q23 -52 23 -122q0 -16 -1 -29t-1 -16h-385q9 -54 51 -89t93 -35q42 0 69.5 12.5t36 22t20.5 24.5l96 -41q-24 -49 -81 -83
t-142 -34q-74 0 -132 33.5t-90.5 94t-32.5 138.5t32.5 138.5z" />
    <glyph glyph-name="f" unicode="f" horiz-adv-x="464" 
d="M131 -11v419h-95v104h95v52q0 52 23.5 94t65 66.5t93.5 24.5q32 0 64.5 -10t51.5 -26l-57 -87q-25 19 -50 19q-8 0 -12 -1q-26 -3 -42.5 -25t-16.5 -55v-52h153v-104h-153v-419h-120z" />
    <glyph glyph-name="g" unicode="g" horiz-adv-x="653" 
d="M389 108q34 23 53 61.5t19 84.5q0 44 -19 82.5t-53 61.5t-77 23q-62 0 -100.5 -46t-38.5 -121q0 -76 38.5 -122.5t100.5 -46.5q43 0 77 23zM85 390.5q32 60.5 89 94t130 33.5q43 0 86.5 -20t70.5 -61v83h120v-496q-1 -75 -33.5 -134.5t-92.5 -93t-141 -33.5
q-71 0 -130.5 28.5t-96.5 88.5l93 64q30 -41 60.5 -59.5t73.5 -18.5q69 0 107.5 40t39.5 103v62q-32 -43 -74.5 -64t-82.5 -21q-73 0 -130 34t-89 95t-32 138t32 137.5z" />
    <glyph glyph-name="h" unicode="h" horiz-adv-x="628" 
d="M410 372.5q-30 40.5 -79 40.5q-37 0 -67.5 -21t-48 -57t-17.5 -79v-267h-120v744h120v-291q25 34 62 51.5t72 17.5q66 0 118 -29.5t81 -82t29 -119.5v-291h-120v275q0 68 -30 108.5z" />
    <glyph glyph-name="i" unicode="i" horiz-adv-x="276" 
d="M201 515v-526h-120v526h120zM93.5 729.5q18.5 18.5 47.5 18.5t47 -18t18 -47t-18 -47.5t-47 -18.5t-47.5 18.5t-18.5 47.5q0 28 18.5 46.5z" />
    <glyph glyph-name="j" unicode="j" horiz-adv-x="262" 
d="M24 -118q20 0 34 18.5t14 43.5v571h120v-571q0 -51 -21.5 -91t-60 -62.5t-86.5 -22.5q-33 0 -86 11l27 113q40 -10 59 -10zM84.5 729.5q18.5 18.5 47.5 18.5t47 -18t18 -47t-18 -47.5t-47 -18.5t-47.5 18.5t-18.5 47.5q0 28 18.5 46.5z" />
    <glyph glyph-name="k" unicode="k" horiz-adv-x="593" 
d="M197 300l189 220h162l-208 -237l201 -294h-145l-142 207l-57 -70v-137h-120v744h120v-433z" />
    <glyph glyph-name="l" unicode="l" horiz-adv-x="246" 
d="M183 733v-744h-120v744h120z" />
    <glyph glyph-name="m" unicode="m" horiz-adv-x="953" 
d="M733 380.5q-30 38.5 -77 38.5q-50 0 -83 -39t-33 -94v-297h-120v293q0 60 -29.5 98.5t-75.5 38.5q-50 0 -83 -41t-33 -101v-288h-120v531h120v-90q22 39 57.5 63t76.5 24q48 0 92 -29.5t65 -75.5q27 46 77.5 75.5t99.5 29.5q64 0 113 -29.5t76 -82t27 -120.5v-296h-120
v293q0 60 -30 98.5z" />
    <glyph glyph-name="n" unicode="n" horiz-adv-x="624" 
d="M410.5 381q-32.5 38 -91.5 38q-35 0 -64.5 -18t-46.5 -51t-16 -75v-286h-120v531h120v-89q22 37 64 61.5t85 24.5q52 0 102.5 -23.5t85 -77t34.5 -138.5v-289h-120v286q0 68 -32.5 106z" />
    <glyph glyph-name="o" unicode="o" horiz-adv-x="620" 
d="M409.5 131q37.5 46 37.5 122t-38 122.5t-99 46.5q-62 0 -99.5 -46.5t-37.5 -122.5t37.5 -122t99.5 -46t99.5 46zM85.5 391.5q32.5 60.5 91 94.5t133.5 34t133.5 -34t91 -94.5t32.5 -138.5t-32.5 -138.5t-91 -94.5t-133.5 -34t-133.5 34t-91 94.5t-32.5 138.5t32.5 138.5z
" />
    <glyph glyph-name="p" unicode="p" horiz-adv-x="660" 
d="M449.5 130.5q38.5 46.5 38.5 123.5q0 76 -38.5 122.5t-102.5 46.5q-40 0 -74.5 -22.5t-54.5 -61.5t-20 -85t20 -85t54.5 -62t74.5 -23q64 0 102.5 46.5zM78 520h120v-82q29 42 76 62.5t82 20.5q73 0 130 -34t89.5 -95t32.5 -138t-32.5 -138.5t-89.5 -95.5t-130 -34
q-36 0 -82.5 20t-75.5 64v-301h-120v751z" />
    <glyph glyph-name="q" unicode="q" horiz-adv-x="651" 
d="M388 110q34 22 54 60t20 84t-20 85t-54.5 61.5t-74.5 22.5q-63 0 -101.5 -46.5t-38.5 -122.5q0 -75 38.5 -120.5t101.5 -45.5q41 0 75 22zM85 392q32 61 89.5 95t130.5 34q36 0 84.5 -20.5t73.5 -62.5v82h120v-751h-120v301q-25 -44 -73 -64t-85 -20q-73 0 -130.5 34
t-89.5 95t-32 139q0 77 32 138z" />
    <glyph glyph-name="r" unicode="r" horiz-adv-x="384" 
d="M252 494q45 27 93 27v-107q-46 0 -82.5 -24.5t-57 -63t-20.5 -77.5v-260h-118v531h118v-96q22 43 67 70z" />
    <glyph glyph-name="s" unicode="s" horiz-adv-x="519" 
d="M196.5 101.5q32.5 -21.5 61.5 -21.5q40 0 63 16t23 44q0 23 -23.5 37.5t-75.5 33.5t-86.5 36.5t-59 48.5t-24.5 77q0 70 54 110t139 40q55 0 108.5 -31.5t74.5 -93.5l-98 -36q-13 37 -37 50t-48 13q-35 0 -54 -14t-19 -38q0 -22 23 -35.5t75 -33.5q54 -20 88 -37.5
t58.5 -48t24.5 -76.5q0 -72 -56 -116t-150 -44q-61 0 -117.5 35t-84.5 92l90 51q18 -37 50.5 -58.5z" />
    <glyph glyph-name="t" unicode="t" horiz-adv-x="447" 
d="M211 8.5q-38 21.5 -60 60.5t-22 88v253h-92v103h92v149h120v-149h114v-103h-114v-248q0 -25 13.5 -43t34.5 -18q21 -1 55 9l26 -113q-40 -10 -81 -10q-48 0 -86 21.5z" />
    <glyph glyph-name="u" unicode="u" horiz-adv-x="625" 
d="M226 121q34 -36 90 -36q58 0 93 37.5t34 99.5v298h120v-531h-120v77q-21 -37 -61.5 -58t-87.5 -21q-64 0 -114.5 28.5t-79 80.5t-28.5 121v303h120v-300q0 -63 34 -99z" />
    <glyph glyph-name="v" unicode="v" horiz-adv-x="639" 
d="M370 -11h-105l-222 531h130l145 -379l147 379h132z" />
    <glyph glyph-name="w" unicode="w" horiz-adv-x="845" 
d="M645 -11h-114l-106 357l-105 -357h-114l-158 531h124l93 -356l98 356h122l100 -356l92 356h124z" />
    <glyph glyph-name="x" unicode="x" horiz-adv-x="624" 
d="M385 253l193 -264h-147l-119 172l-116 -172h-149l191 264l-195 267h149l120 -179l120 179h149z" />
    <glyph glyph-name="y" unicode="y" horiz-adv-x="643" 
d="M153 -221l109 256l-217 485h133l146 -354l142 354h131l-313 -741h-131z" />
    <glyph glyph-name="z" unicode="z" horiz-adv-x="521" 
d="M470 400l-276 -313h276v-98h-419v114l281 319h-281v98h419v-120z" />
    <glyph glyph-name="braceleft" unicode="{" horiz-adv-x="382" 
d="M133 432.5q21 17.5 21 54.5v155q0 58 35.5 96t89.5 38h37v-106h-37q-14 0 -16.5 -4t-2.5 -24v-155q0 -37 -14 -69t-39 -56q25 -24 39 -56t14 -69v-156q0 -20 2.5 -24t16.5 -4h37v-106h-37q-54 0 -89.5 38t-35.5 96v156q0 37 -21 54.5t-68 17.5v106q47 0 68 17.5z" />
    <glyph glyph-name="bar" unicode="|" horiz-adv-x="337" 
d="M216 735v-749h-95v749h95z" />
    <glyph glyph-name="braceright" unicode="}" horiz-adv-x="382" 
d="M248 291.5q-21 -17.5 -21 -54.5v-156q0 -58 -35.5 -96t-89.5 -38h-37v106h37q14 0 16.5 4t2.5 24v156q0 37 14 69t39 56q-25 24 -39 56t-14 69v155q0 20 -2.5 24t-16.5 4h-37v106h37q54 0 89.5 -38t35.5 -96v-155q0 -37 21 -54.5t68 -17.5v-106q-47 0 -68 -17.5z" />
    <glyph glyph-name="asciitilde" unicode="~" horiz-adv-x="755" 
d="M139.5 461q50.5 35 108.5 35q25 0 58.5 -10t56.5 -25l84 -53q12 -7 25.5 -12t21.5 -5q23 0 44 16.5t31 42.5l116 -45q-24 -62 -77 -100t-114 -38q-22 0 -54.5 10t-57.5 25l-86 54q-11 7 -25.5 11.5t-24.5 4.5q-20 0 -38.5 -14.5t-27.5 -36.5l-115 47q24 58 74.5 93z" />
    <glyph glyph-name="yen" unicode="&#xa5;" horiz-adv-x="797" 
d="M506 428h123v-109h-177v-64h173v-109h-173v-146h-108v146h-179v109h179v64h-175v109h122l-218 294h126l199 -259l195 259h131z" />
    <glyph glyph-name="copyright" unicode="&#xa9;" horiz-adv-x="1084" 
d="M146.5 580q61.5 105 166.5 166.5t229 61.5t229 -61.5t166.5 -166.5t61.5 -229q0 -123 -61.5 -228t-166.5 -166.5t-229 -61.5t-229 61.5t-166.5 166.5t-61.5 228q0 124 61.5 229zM236 174.5q48 -81.5 129 -129.5t177 -48t177 48t129 129.5t48 176.5q0 96 -47.5 177.5
t-129 129t-177.5 47.5t-177.5 -47.5t-129 -129t-47.5 -177.5q0 -95 48 -176.5zM344.5 482q30.5 56 85 87.5t124.5 31.5q49 0 93 -18.5t77 -52.5l-73 -69q-20 20 -46 31.5t-54 11.5q-63 0 -103 -42t-40 -108t40 -108t103 -42q28 0 54 11.5t46 31.5l73 -69q-33 -33 -77 -52.5
t-93 -19.5q-70 0 -124.5 31.5t-85 88t-30.5 128.5t30.5 128z" />
    <glyph glyph-name="uni00AD" unicode="&#xad;" horiz-adv-x="602" 
d="M539 428v-120h-476v120h476z" />
    <glyph glyph-name="registered" unicode="&#xae;" horiz-adv-x="529" 
d="M299 536h60l-50 68q18 8 28.5 24.5t10.5 37.5q0 31 -19.5 50t-49.5 19h-95v-199h48v60h23zM72 745.5q30 51.5 81.5 81.5t111.5 30t111 -30t81 -81t30 -112t-30 -111.5t-80.5 -80.5t-111.5 -30t-112 30t-81 81t-30 111t30 111.5zM123.5 552q21.5 -37 59 -58.5t82.5 -21.5
q44 0 81.5 21.5t59 58.5t21.5 82t-21.5 82.5t-59 59t-81.5 21.5q-45 0 -82.5 -21.5t-59 -59t-21.5 -82.5t21.5 -82zM232 691h45q11 0 17.5 -7t6.5 -18q0 -10 -6.5 -17t-17.5 -7h-45v49z" />
    <glyph glyph-name="degree" unicode="&#xb0;" horiz-adv-x="449" 
d="M280.5 810q30.5 -18 48 -49t17.5 -67t-17.5 -66.5t-48 -48t-66.5 -17.5q-37 0 -67.5 17.5t-48.5 48t-18 66.5t18 67t48.5 49t67.5 18q36 0 66.5 -18zM177 658q15 -15 36 -15q22 0 37 15t15 37q0 21 -15 36t-37 15q-21 0 -36 -15t-15 -36q0 -22 15 -37z" />
    <glyph glyph-name="plusminus" unicode="&#xb1;" horiz-adv-x="654" 
d="M386 511h185v-119h-185v-184h-119v184h-184v119h184v184h119v-184zM83 123h488v-119h-488v119z" />
    <glyph glyph-name="uni00B2" unicode="&#xb2;" horiz-adv-x="359" 
d="M94 534l20 18q58 50 90 86t32 67q0 30 -16.5 48.5t-42.5 18.5q-22 0 -42 -15t-29 -39l-68 30q17 43 56 70t83 27q61 0 99.5 -39t38.5 -101q0 -53 -39 -102t-106 -105h151v-70h-261l-10 66q14 14 44 40z" />
    <glyph glyph-name="uni00B3" unicode="&#xb3;" horiz-adv-x="366" 
d="M312 599.5q16 -26.5 16 -51.5q0 -53 -40.5 -87.5t-104.5 -34.5q-67 0 -107 37t-38 96h79q-3 -28 15.5 -45t50.5 -17q30 0 49.5 15.5t19.5 40.5t-19 41t-49 16h-35v66h35q28 0 45 14t17 36t-16.5 36t-43.5 14q-28 0 -44 -15.5t-13 -40.5h-79q-2 56 36 91t100 35
q60 0 97.5 -32.5t37.5 -82.5q0 -23 -14.5 -47.5t-36.5 -40.5q26 -17 42 -43.5z" />
    <glyph glyph-name="paragraph" unicode="&#xb6;" horiz-adv-x="1000" 
d="M499 -52h80v715h59v-715h80v812h-219q-69 0 -123 -30.5t-84.5 -84.5t-30.5 -123t30.5 -123t84.5 -84.5t123 -30.5v-336z" />
    <glyph glyph-name="periodcentered" unicode="&#xb7;" horiz-adv-x="503" 
d="M310 426.5q23 -22.5 23 -58.5q0 -35 -23 -58t-58 -23q-36 0 -59 23t-23 58q0 36 23 58.5t59 22.5q35 0 58 -22.5z" />
    <glyph glyph-name="uni00B9" unicode="&#xb9;" horiz-adv-x="253" 
d="M215 428h-78v328l-68 -30l-31 66l104 49h73v-413z" />
    <glyph glyph-name="multiply" unicode="&#xd7;" horiz-adv-x="722" 
d="M570 70l-209 206l-208 -206l-84 83l209 209l-209 206l85 85l206 -211l209 211l84 -85l-207 -208l206 -208z" />
    <glyph glyph-name="divide" unicode="&#xf7;" horiz-adv-x="725" 
d="M63 425h599v-120h-599v120zM316 195.5q20 19.5 48 19.5t47.5 -19.5t19.5 -47.5t-19.5 -48t-47.5 -20t-48 20t-20 48t20 47.5zM315.5 631.5q19.5 19.5 48.5 19.5q28 0 47.5 -19.5t19.5 -47.5t-19.5 -47.5t-47.5 -19.5q-29 0 -48.5 19.5t-19.5 47.5t19.5 47.5z" />
    <glyph glyph-name="uni2015" unicode="&#x2015;" horiz-adv-x="994" 
d="M931 428v-120h-869v120h869z" />
    <glyph glyph-name="quoteleft" unicode="&#x2018;" horiz-adv-x="308" 
d="M157 794h88l-40 -260h-123z" />
    <glyph glyph-name="quoteright" unicode="&#x2019;" horiz-adv-x="307" 
d="M150 534h-88l41 259h122z" />
    <glyph glyph-name="quotedblleft" unicode="&#x201c;" horiz-adv-x="501" 
d="M346 791h89l-41 -259h-122zM160 794h88l-40 -260h-123z" />
    <glyph glyph-name="quotedblright" unicode="&#x201d;" horiz-adv-x="501" 
d="M154 534h-88l41 259h122zM293 791h123l-75 -260h-88z" />
    <glyph glyph-name="twodotenleader" unicode="&#x2025;" horiz-adv-x="664" 
d="M331 421q17 12 40 12q29 0 47 -18t18 -47t-18.5 -47.5t-46.5 -18.5q-23 0 -40 12q-15 -12 -39 -12q-28 0 -46.5 18.5t-18.5 47.5t18.5 47t46.5 18q24 0 39 -12z" />
    <glyph glyph-name="ellipsis" unicode="&#x2026;" horiz-adv-x="834" 
d="M209 414q18 -18 18 -47q0 -28 -18 -46.5t-47 -18.5q-28 0 -46.5 18.5t-18.5 46.5q0 29 18.5 47t46.5 18q29 0 47 -18zM369.5 414.5q18.5 18.5 47.5 18.5t47 -18t18 -47t-18.5 -47.5t-46.5 -18.5t-47 19t-19 47t18.5 46.5zM625.5 415q18.5 18 46.5 18q29 0 47 -18t18 -47
t-18.5 -47.5t-46.5 -18.5t-46.5 18.5t-18.5 47.5t18.5 47z" />
    <glyph glyph-name="minute" unicode="&#x2032;" horiz-adv-x="307" 
d="M150 544h-88l41 239h122z" />
    <glyph glyph-name="second" unicode="&#x2033;" horiz-adv-x="501" 
d="M154 544h-88l41 239h122zM293 781h123l-75 -240h-88z" />
    <glyph glyph-name="uni203B" unicode="&#x203b;" horiz-adv-x="911" 
d="M455 444l253 255l81 -82l-253 -253l252 -253l-81 -81l-252 253l-254 -254l-79 80l252 254l-254 254l81 81zM130 411.5q17 17.5 44 17.5t44 -17.5t17 -43.5q0 -27 -17 -44.5t-44 -17.5t-44 17.5t-17 44.5q0 26 17 43.5zM412 119q17 17 44 17t44 -17t17 -44t-17 -44.5
t-44 -17.5t-44 17.5t-17 44.5t17 44zM412 705q17 17 44 17t44 -17t17 -44t-17 -44t-44 -17t-44 17t-17 44t17 44zM696 411.5q17 17.5 44 17.5t44.5 -17.5t17.5 -43.5q0 -27 -17.5 -44.5t-44.5 -17.5t-44 17.5t-17 44.5q0 26 17 43.5z" />
    <glyph glyph-name="uni2074" unicode="&#x2074;" horiz-adv-x="378" 
d="M293 599h47v-69h-47v-100h-78v100h-167l-10 65l183 248h72v-244zM215 599v112l-82 -112h82z" />
    <glyph glyph-name="uni2081" unicode="&#x2081;" horiz-adv-x="253" 
d="M215 -122l-78 1v328l-68 -31l-31 67l104 49h73v-414z" />
    <glyph glyph-name="uni2082" unicode="&#x2082;" horiz-adv-x="359" 
d="M89 -18l25 22q60 52 91 87t31 67q0 29 -16.5 48t-42.5 19q-22 0 -42 -15t-29 -39l-68 30q17 43 56 70t83 27q61 0 99.5 -39t38.5 -101q0 -54 -38.5 -102t-106.5 -106h151v-70h-261l-10 67z" />
    <glyph glyph-name="uni2083" unicode="&#x2083;" horiz-adv-x="366" 
d="M312 50.5q16 -24.5 16 -52.5q0 -53 -40.5 -87.5t-104.5 -34.5q-67 0 -107 37t-38 96h79q-3 -25 13.5 -44t52.5 -19q34 0 51.5 17t17.5 40q0 24 -16 40t-52 16h-35v66h35q30 0 46 15t16 36q0 20 -15 34.5t-45 14.5q-31 0 -45.5 -16.5t-11.5 -39.5h-79q-2 55 36 90.5
t100 35.5q59 0 97 -32.5t38 -82.5q0 -26 -14 -48.5t-37 -39.5q26 -17 42 -41.5z" />
    <glyph glyph-name="uni2084" unicode="&#x2084;" horiz-adv-x="378" 
d="M293 46h47v-69h-47v-100h-78v100h-167l-10 65l183 249h72v-245zM215 46v113l-82 -113h82z" />
    <glyph glyph-name="uni20A9" unicode="&#x20a9;" horiz-adv-x="1088" 
d="M910 442h102v-110h-127l-77 -332h-131l-75 332h-116l-74 -332h-131l-77 332h-128v110h102l-65 280h103l65 -280h130l65 279h137l65 -279h130l65 280h102zM346 162l40 170h-79zM578 442l-34 150l-33 -150h67zM743 162l39 170h-79z" />
    <glyph glyph-name="Euro" unicode="&#x20ac;" horiz-adv-x="806" 
d="M293 46.5q-87 59.5 -126 161.5h-110v111h85q-1 12 -1 37t1 37h-85v110h109q39 103 126.5 162.5t204.5 59.5q73 0 138 -28.5t114 -79.5l-74 -86q-33 33 -84.5 55t-99.5 22q-63 0 -114 -28t-82 -77h127v-110h-164q-2 -24 -2 -37t2 -37h164v-111h-126q31 -50 81.5 -77.5
t113.5 -27.5q48 0 99.5 22t84.5 56l74 -86q-49 -51 -114 -79.5t-138 -28.5q-117 0 -204 59.5z" />
    <glyph glyph-name="uni2103" unicode="&#x2103;" horiz-adv-x="1080" 
d="M285.5 811q30.5 -18 48.5 -49t18 -68q0 -35 -18 -65.5t-48.5 -48t-66.5 -17.5t-67 17.5t-49 48t-18 65.5q0 37 18 68t49 49t67 18t66.5 -18zM182.5 659q15.5 -15 35.5 -15q22 0 37 15t15 36q0 22 -15 37t-37 15q-20 0 -35.5 -15t-15.5 -37q0 -21 15.5 -36zM426.5 557
q45.5 86 126.5 134.5t185 48.5q72 0 138 -29.5t115 -81.5l-84 -87q-33 35 -76 56t-94 21q-69 0 -122.5 -33t-83.5 -91.5t-30 -133.5t30 -134t83.5 -92t122.5 -33q97 0 170 77l84 -85q-49 -53 -114.5 -83t-138.5 -30q-104 0 -185 48.5t-126.5 135t-45.5 196.5t45.5 196z" />
    <glyph glyph-name="uni2109" unicode="&#x2109;" horiz-adv-x="1071" 
d="M284.5 808q30.5 -18 48.5 -49t18 -67t-18 -66.5t-48.5 -48t-66.5 -17.5t-66.5 18t-48.5 48t-18 66t18 67t48.5 49t66.5 18t66.5 -18zM182 656q15 -15 37 -15q20 0 35.5 15.5t15.5 35.5q0 22 -15.5 37.5t-35.5 15.5q-22 0 -37 -15.5t-15 -37.5q0 -21 15 -36zM469 730h498
v-116h-366v-193h299v-121h-299v-312h-132v742z" />
    <glyph glyph-name="trademark" unicode="&#x2122;" horiz-adv-x="969" 
d="M401 783h-126v-369h-85v369h-125v84h336v-84zM452 860h84l143 -240l141 240h84v-446h-84v296l-109 -202h-65l-110 202v-296h-84v446z" />
    <glyph glyph-name="arrowleft" unicode="&#x2190;" horiz-adv-x="1000" 
d="M212 363l387 388l85 -87l-301 -301l302 -301l-86 -86z" />
    <glyph glyph-name="arrowup" unicode="&#x2191;" horiz-adv-x="1000" 
d="M113 210l387 386l387 -386l-86 -85l-301 301l-302 -302z" />
    <glyph glyph-name="arrowright" unicode="&#x2192;" horiz-adv-x="1000" 
d="M315 62l302 301l-301 301l85 87l387 -388l-387 -387z" />
    <glyph glyph-name="arrowdown" unicode="&#x2193;" horiz-adv-x="1000" 
d="M113 478l85 85l302 -302l301 301l86 -84l-387 -387z" />
    <glyph glyph-name="arrowboth" unicode="&#x2194;" horiz-adv-x="1000" 
d="M36 365l234 235l74 -73l-107 -106l520 -4l-106 106l76 76l236 -233l-236 -236l-71 73l105 106l-519 4l106 -106l-78 -77z" />
    <glyph glyph-name="arrowupdn" unicode="&#x2195;" horiz-adv-x="1000" 
d="M265 197l73 71l106 -105l4 386l-106 -107l-77 78l235 234l235 -234l-73 -74l-106 107l-4 -386l106 105l76 -75l-233 -236z" />
    <glyph glyph-name="uni2196" unicode="&#x2196;" horiz-adv-x="1000" 
d="M659 722v-120h-321l532 -529l-84 -84l-530 531v-321h-120v523h523z" />
    <glyph glyph-name="uni2197" unicode="&#x2197;" horiz-adv-x="1000" 
d="M867 199h-121v321l-530 -531l-83 84l532 529h-322v120h524v-523z" />
    <glyph glyph-name="uni2198" unicode="&#x2198;" horiz-adv-x="1000" 
d="M343 0v120h322l-532 529l83 84l530 -532v323h121v-524h-524z" />
    <glyph glyph-name="uni2199" unicode="&#x2199;" horiz-adv-x="1000" 
d="M136 524h120v-323l530 532l84 -84l-532 -529h321v-120h-523v524z" />
    <glyph glyph-name="uni2219" unicode="&#x2219;" horiz-adv-x="527" 
d="M322 426.5q23 -22.5 23 -58.5q0 -35 -23 -58t-58 -23q-36 0 -59 23t-23 58q0 36 23 58.5t59 22.5q35 0 58 -22.5z" />
    <glyph glyph-name="approxequal" unicode="&#x2248;" horiz-adv-x="737" 
d="M137.5 557q49.5 36 106.5 36q24 0 57 -10.5t56 -26.5l81 -52q25 -16 41 -16q22 -1 41.5 15t29.5 43l117 -44q-23 -62 -75 -100.5t-111 -38.5q-22 0 -54 10t-57 26l-82 54q-10 7 -23 11t-23 4q-18 0 -35 -14t-26 -36l-116 45q23 58 72.5 94zM141.5 315.5
q49.5 35.5 105.5 35.5q24 0 57 -10t57 -26l81 -52q27 -17 44 -17q20 0 39 16t29 42l117 -42q-22 -63 -73.5 -101.5t-111.5 -38.5q-21 0 -53 10t-58 25l-82 54q-10 7 -24 11.5t-22 4.5q-18 0 -35.5 -14t-25.5 -36l-116 45q22 58 71.5 93.5z" />
    <glyph glyph-name="circleplus" unicode="&#x2295;" horiz-adv-x="1084" 
d="M146.5 580q61.5 105 166.5 166.5t229 61.5t229 -61.5t166.5 -166.5t61.5 -229q0 -123 -61.5 -228t-166.5 -166.5t-229 -61.5t-229 61.5t-166.5 166.5t-61.5 228q0 124 61.5 229zM236 174.5q48 -81.5 129 -129.5t177 -48t177 48t129 129.5t48 176.5q0 96 -47.5 177.5
t-129 129t-177.5 47.5t-177.5 -47.5t-129 -129t-47.5 -177.5q0 -95 48 -176.5zM317 395h176v176h101v-176h176v-102h-176v-175h-101v175h-176v102z" />
    <glyph glyph-name="uni2296" unicode="&#x2296;" horiz-adv-x="1084" 
d="M146.5 580q61.5 105 166.5 166.5t229 61.5t229 -61.5t166.5 -166.5t61.5 -229q0 -123 -61.5 -228t-166.5 -166.5t-229 -61.5t-229 61.5t-166.5 166.5t-61.5 228q0 124 61.5 229zM236 174.5q48 -81.5 129 -129.5t177 -48t177 48t129 129.5t48 176.5q0 96 -47.5 177.5
t-129 129t-177.5 47.5t-177.5 -47.5t-129 -129t-47.5 -177.5q0 -95 48 -176.5zM309 395h453v-102h-453v102z" />
    <glyph glyph-name="circlemultiply" unicode="&#x2297;" horiz-adv-x="1084" 
d="M146.5 580q61.5 105 166.5 166.5t229 61.5t229 -61.5t166.5 -166.5t61.5 -229q0 -123 -61.5 -228t-166.5 -166.5t-229 -61.5t-229 61.5t-166.5 166.5t-61.5 228q0 124 61.5 229zM236 174.5q48 -81.5 129 -129.5t177 -48t177 48t129 129.5t48 176.5q0 96 -47.5 177.5
t-129 129t-177.5 47.5t-177.5 -47.5t-129 -129t-47.5 -177.5q0 -95 48 -176.5zM390 119l153 154l153 -153l71 72l-152 153l152 152l-71 73l-153 -154l-154 153l-70 -72l152 -152l-152 -153z" />
    <glyph glyph-name="uni2460" unicode="&#x2460;" horiz-adv-x="1072" 
d="M123.5 593.5q59.5 101.5 161.5 161.5t222 60t222 -60t162 -162t60 -222t-60 -222t-162 -161.5t-222 -59.5t-222 59.5t-161.5 161.5t-59.5 222q0 121 59.5 222.5zM197 192.5q49 -82.5 131.5 -131.5t178.5 -49q97 0 179.5 48.5t131 131.5t48.5 179q0 97 -48.5 179.5
t-131 131t-179.5 48.5q-96 0 -179 -48.5t-131.5 -131t-48.5 -179.5q0 -96 49 -178.5zM489 605h78v-473h-80v386l-80 -37l-33 69z" />
    <glyph glyph-name="uni2461" unicode="&#x2461;" horiz-adv-x="1072" 
d="M123.5 593.5q59.5 101.5 161.5 161.5t222 60t222 -60t162 -162t60 -222t-60 -222t-162 -161.5t-222 -59.5t-222 59.5t-161.5 161.5t-59.5 222q0 121 59.5 222.5zM197 192.5q49 -82.5 131.5 -131.5t178.5 -49q97 0 179.5 48.5t131 131.5t48.5 179q0 97 -48.5 179.5
t-131 131t-179.5 48.5q-96 0 -179 -48.5t-131.5 -131t-48.5 -179.5q0 -96 49 -178.5zM410 595.5q44 29.5 93 29.5q68 0 112 -44t44 -114q0 -44 -26 -86.5t-61.5 -77.5t-91.5 -83h185v-72h-296l-10 70q15 15 49 45q18 16 27 23q74 66 108 104.5t34 76.5q0 37 -21 60t-53 23
q-26 0 -50 -17.5t-36 -44.5l-71 31q20 47 64 76.5z" />
    <glyph glyph-name="uni2462" unicode="&#x2462;" horiz-adv-x="1072" 
d="M123.5 593.5q59.5 101.5 161.5 161.5t222 60t222 -60t162 -162t60 -222t-60 -222t-162 -161.5t-222 -59.5t-222 59.5t-161.5 161.5t-59.5 222q0 121 59.5 222.5zM197 192.5q49 -82.5 131.5 -131.5t178.5 -49q97 0 179.5 48.5t131 131.5t48.5 179q0 97 -48.5 179.5
t-131 131t-179.5 48.5q-96 0 -179 -48.5t-131.5 -131t-48.5 -179.5q0 -96 49 -178.5zM428 281q-2 -33 21 -54t62 -21q38 0 61.5 20t23.5 51t-23.5 50.5t-60.5 19.5h-36v68h37q33 0 54.5 18t21.5 46q0 27 -21 44.5t-53 17.5q-34 0 -54 -18.5t-18 -47.5h-82q-1 61 42 100
t112 39q67 0 109.5 -36.5t42.5 -93.5q0 -27 -17.5 -55.5t-45.5 -46.5q31 -19 50.5 -50t19.5 -60q0 -61 -46 -100t-117 -39q-74 0 -119.5 41.5t-44.5 106.5h81z" />
    <glyph glyph-name="uni2463" unicode="&#x2463;" horiz-adv-x="1072" 
d="M123.5 593.5q59.5 101.5 161.5 161.5t222 60t222 -60t162 -162t60 -222t-60 -222t-162 -161.5t-222 -59.5t-222 59.5t-161.5 161.5t-59.5 222q0 121 59.5 222.5zM197 192.5q49 -82.5 131.5 -131.5t178.5 -49q97 0 179.5 48.5t131 131.5t48.5 179q0 97 -48.5 179.5
t-131 131t-179.5 48.5q-96 0 -179 -48.5t-131.5 -131t-48.5 -179.5q0 -96 49 -178.5zM528 614h75v-285h57v-71h-57v-118h-80v118h-196l-10 69zM523 329v149l-109 -149h109z" />
    <glyph glyph-name="uni2464" unicode="&#x2464;" horiz-adv-x="1072" 
d="M123.5 593.5q59.5 101.5 161.5 161.5t222 60t222 -60t162 -162t60 -222t-60 -222t-162 -161.5t-222 -59.5t-222 59.5t-161.5 161.5t-59.5 222q0 121 59.5 222.5zM197 192.5q49 -82.5 131.5 -131.5t178.5 -49q97 0 179.5 48.5t131 131.5t48.5 179q0 97 -48.5 179.5
t-131 131t-179.5 48.5q-96 0 -179 -48.5t-131.5 -131t-48.5 -179.5q0 -96 49 -178.5zM423 270q7 -32 31 -52t55 -20q38 0 62.5 24t24.5 61t-24.5 61t-62.5 24q-17 0 -36 -9.5t-32 -25.5l-79 13l14 255h263v-72h-185l-8 -97q14 5 31.5 8.5t31.5 3.5q48 0 86.5 -20.5t60 -57.5
t21.5 -83q0 -71 -47 -116t-121 -45q-61 0 -107 36t-58 93z" />
    <glyph glyph-name="uni2465" unicode="&#x2465;" horiz-adv-x="1072" 
d="M123.5 593.5q59.5 101.5 161.5 161.5t222 60t222 -60t162 -162t60 -222t-60 -222t-162 -161.5t-222 -59.5t-222 59.5t-161.5 161.5t-59.5 222q0 121 59.5 222.5zM197 192.5q49 -82.5 131.5 -131.5t178.5 -49q97 0 179.5 48.5t131 131.5t48.5 179q0 97 -48.5 179.5
t-131 131t-179.5 48.5q-96 0 -179 -48.5t-131.5 -131t-48.5 -179.5q0 -96 49 -178.5zM343.5 332.5q6.5 22.5 16.5 38.5l135 241h94l-91 -161q4 1 11 1q72 -2 117.5 -47t45.5 -113q0 -70 -46.5 -115t-120.5 -45t-121 44.5t-47 115.5q0 18 6.5 40.5zM442.5 228.5
q23.5 -24.5 61.5 -24.5t62.5 24.5t24.5 63.5t-24.5 63.5t-62.5 24.5t-61.5 -24.5t-23.5 -63.5t23.5 -63.5z" />
    <glyph glyph-name="uni2466" unicode="&#x2466;" horiz-adv-x="1072" 
d="M123.5 593.5q59.5 101.5 161.5 161.5t222 60t222 -60t162 -162t60 -222t-60 -222t-162 -161.5t-222 -59.5t-222 59.5t-161.5 161.5t-59.5 222q0 121 59.5 222.5zM197 192.5q49 -82.5 131.5 -131.5t178.5 -49q97 0 179.5 48.5t131 131.5t48.5 179q0 97 -48.5 179.5
t-131 131t-179.5 48.5q-96 0 -179 -48.5t-131.5 -131t-48.5 -179.5q0 -96 49 -178.5zM367 598h289l10 -69l-183 -409h-89l182 406h-209v72z" />
    <glyph glyph-name="uni2467" unicode="&#x2467;" horiz-adv-x="1072" 
d="M123.5 593.5q59.5 101.5 161.5 161.5t222 60t222 -60t162 -162t60 -222t-60 -222t-162 -161.5t-222 -59.5t-222 59.5t-161.5 161.5t-59.5 222q0 121 59.5 222.5zM197 192.5q49 -82.5 131.5 -131.5t178.5 -49q97 0 179.5 48.5t131 131.5t48.5 179q0 97 -48.5 179.5
t-131 131t-179.5 48.5q-96 0 -179 -48.5t-131.5 -131t-48.5 -179.5q0 -96 49 -178.5zM366 336.5q21 31.5 54 51.5q-27 20 -44.5 48.5t-17.5 52.5q0 58 42.5 95t109.5 37t109 -37t42 -95q0 -25 -17 -53.5t-45 -47.5q33 -20 54 -51.5t21 -62.5q0 -63 -45.5 -103t-118.5 -40
t-119 40t-46 103q0 31 21 62.5zM449.5 222q23.5 -21 60.5 -21q36 0 59.5 21t23.5 55t-23.5 55.5t-59.5 21.5q-37 0 -60.5 -21.5t-23.5 -55.5t23.5 -55zM458.5 442q19.5 -18 51.5 -18q31 0 50.5 18t19.5 46t-19.5 45.5t-50.5 17.5t-51 -17.5t-20 -45.5t19.5 -46z" />
    <glyph glyph-name="uni2468" unicode="&#x2468;" horiz-adv-x="1072" 
d="M285 -12.5q-102 59.5 -161.5 161.5t-59.5 222q0 121 59.5 222.5t161.5 161.5t222 60t222 -60t162 -162t60 -222t-60 -222t-162 -161.5t-222 -59.5t-222 59.5zM197 192.5q49 -82.5 131.5 -131.5t178.5 -49q97 0 179.5 48.5t131 131.5t48.5 179q0 97 -48.5 179.5t-131 131
t-179.5 48.5q-96 0 -179 -48.5t-131.5 -131t-48.5 -179.5q0 -96 49 -178.5zM391 566.5q47 44.5 121 44.5q73 0 120 -44.5t47 -114.5q0 -20 -7 -43t-18 -40l-133 -237h-93l90 159q-15 0 -22 1q-67 7 -109.5 51.5t-42.5 108.5q0 70 47 114.5zM450 387q24 -25 62 -25t62 25
t24 65q0 39 -24 63.5t-62 24.5t-62 -24.5t-24 -63.5q0 -40 24 -65z" />
    <glyph glyph-name="uni2469" unicode="&#x2469;" horiz-adv-x="1072" 
d="M285 -12.5q-102 59.5 -161.5 161.5t-59.5 222q0 121 59.5 222.5t161.5 161.5t222 60t222 -60t162 -162t60 -222t-60 -222t-162 -161.5t-222 -59.5t-222 59.5zM197 192.5q49 -82.5 131.5 -131.5t178.5 -49q97 0 179.5 48.5t131 131.5t48.5 179q0 97 -48.5 179.5t-131 131
t-179.5 48.5q-96 0 -179 -48.5t-131.5 -131t-48.5 -179.5q0 -96 49 -178.5zM347 562h66v-384l-70 1v307l-62 -28l-28 58zM476.5 472.5q19.5 45.5 54.5 71t79 25.5t79 -25.5t54.5 -71t19.5 -103.5t-19.5 -104t-54.5 -72t-79 -26t-79 26t-54.5 72t-19.5 104t19.5 103.5z
M551 272.5q23 -37.5 59 -37.5t59 37.5t23 96.5q0 58 -23 95t-59 37t-59 -37t-23 -95q0 -59 23 -96.5z" />
    <glyph glyph-name="uni246A" unicode="&#x246a;" horiz-adv-x="1072" 
d="M123.5 593.5q59.5 101.5 161.5 161.5t222 60t222 -60t162 -162t60 -222t-60 -222t-162 -161.5t-222 -59.5t-222 59.5t-161.5 161.5t-59.5 222q0 121 59.5 222.5zM197 192.5q49 -82.5 131.5 -131.5t178.5 -49q97 0 179.5 48.5t131 131.5t48.5 179q0 97 -48.5 179.5
t-131 131t-179.5 48.5q-96 0 -179 -48.5t-131.5 -131t-48.5 -179.5q0 -96 49 -178.5zM375 562h66v-384l-70 1v307l-62 -28l-28 58zM615 562h66v-384l-70 1v307l-62 -28l-28 58z" />
    <glyph glyph-name="uni246B" unicode="&#x246b;" horiz-adv-x="1072" 
d="M285 -12.5q-102 59.5 -161.5 161.5t-59.5 222q0 121 59.5 222.5t161.5 161.5t222 60t222 -60t162 -162t60 -222t-60 -222t-162 -161.5t-222 -59.5t-222 59.5zM197 192.5q49 -82.5 131.5 -131.5t178.5 -49q97 0 179.5 48.5t131 131.5t48.5 179q0 97 -48.5 179.5t-131 131
t-179.5 48.5q-96 0 -179 -48.5t-131.5 -131t-48.5 -179.5q0 -96 49 -178.5zM357 562h66v-384l-70 1v307l-62 -28l-28 58zM521.5 544q35.5 25 75.5 25q56 0 91.5 -36t35.5 -93q0 -48 -34.5 -90.5t-97.5 -97.5l-9 -8h146v-62h-239l-10 59q28 28 41 37q1 1 22 19q59 53 85 83.5
t26 59.5t-16 46.5t-41 17.5q-20 0 -39 -14.5t-28 -36.5l-60 28q16 38 51.5 63z" />
    <glyph glyph-name="uni246C" unicode="&#x246c;" horiz-adv-x="1072" 
d="M123.5 593.5q59.5 101.5 161.5 161.5t222 60t222 -60t162 -162t60 -222t-60 -222t-162 -161.5t-222 -59.5t-222 59.5t-161.5 161.5t-59.5 222q0 121 59.5 222.5zM197 192.5q49 -82.5 131.5 -131.5t178.5 -49q97 0 179.5 48.5t131 131.5t48.5 179q0 97 -48.5 179.5
t-131 131t-179.5 48.5q-96 0 -179 -48.5t-131.5 -131t-48.5 -179.5q0 -96 49 -178.5zM357 562h66v-384l-70 1v307l-62 -28l-28 58zM537 301q-3 -26 15 -42.5t49 -16.5q29 0 47.5 15t18.5 39t-18.5 39.5t-46.5 15.5h-31v58h32q26 0 42 13.5t16 35.5q0 20 -16 33.5t-41 13.5
q-27 0 -42.5 -14.5t-12.5 -37.5h-70q-2 50 33 82.5t92 32.5q55 0 89.5 -30t34.5 -77q0 -21 -13.5 -44t-35.5 -37q24 -15 39.5 -39.5t15.5 -48.5q0 -50 -37.5 -81.5t-95.5 -31.5q-61 0 -98 34.5t-35 87.5h69z" />
    <glyph glyph-name="uni246D" unicode="&#x246d;" horiz-adv-x="1072" 
d="M123.5 593.5q59.5 101.5 161.5 161.5t222 60t222 -60t162 -162t60 -222t-60 -222t-162 -161.5t-222 -59.5t-222 59.5t-161.5 161.5t-59.5 222q0 121 59.5 222.5zM197 192.5q49 -82.5 131.5 -131.5t178.5 -49q97 0 179.5 48.5t131 131.5t48.5 179q0 97 -48.5 179.5
t-131 131t-179.5 48.5q-96 0 -179 -48.5t-131.5 -131t-48.5 -179.5q0 -96 49 -178.5zM357 562h66v-384l-70 1v307l-62 -28l-28 58zM635 567h63v-228h45v-61h-45v-94h-68v94h-155l-10 58zM630 339v110l-81 -110h81z" />
    <glyph glyph-name="uni246E" unicode="&#x246e;" horiz-adv-x="1072" 
d="M123.5 593.5q59.5 101.5 161.5 161.5t222 60t222 -60t162 -162t60 -222t-60 -222t-162 -161.5t-222 -59.5t-222 59.5t-161.5 161.5t-59.5 222q0 121 59.5 222.5zM197 192.5q49 -82.5 131.5 -131.5t178.5 -49q97 0 179.5 48.5t131 131.5t48.5 179q0 97 -48.5 179.5
t-131 131t-179.5 48.5q-96 0 -179 -48.5t-131.5 -131t-48.5 -179.5q0 -96 49 -178.5zM357 562h66v-384l-70 1v307l-62 -28l-28 58zM538 295q4 -26 22.5 -42t43.5 -16q30 0 49 18.5t19 47.5t-19 47t-49 18q-13 0 -28 -7.5t-25 -19.5l-66 12l12 206h214v-62h-148l-7 -71
q28 8 48 8q61 0 99 -36.5t38 -94.5t-38 -94.5t-99 -36.5q-49 0 -86.5 30t-47.5 77z" />
    <glyph glyph-name="uni24C3" unicode="&#x24c3;" horiz-adv-x="934" 
d="M561 521v-207l-188 207h-78v-322h77v210l190 -210h78v322h-79zM152.5 542.5q48.5 83.5 132 132.5t182.5 49t182.5 -49t132 -132.5t48.5 -182.5t-48.5 -182.5t-132 -132t-182.5 -48.5t-182.5 48.5t-132 132t-48.5 182.5t48.5 182.5z" />
    <glyph glyph-name="uni24D8" unicode="&#x24d8;" horiz-adv-x="1084" 
d="M146.5 580q61.5 105 166.5 166.5t229 61.5t229 -61.5t166.5 -166.5t61.5 -229q0 -123 -61.5 -228t-166.5 -166.5t-229 -61.5t-229 61.5t-166.5 166.5t-61.5 228q0 124 61.5 229zM236 174.5q48 -81.5 129 -129.5t177 -48t177 48t129 129.5t48 176.5q0 96 -47.5 177.5
t-129 129t-177.5 47.5t-177.5 -47.5t-129 -129t-47.5 -177.5q0 -95 48 -176.5zM438 455h161v-379h-95v289h-66v90zM503.5 616q18.5 18 47.5 18t47 -18t18 -47t-18.5 -47.5t-46.5 -18.5q-29 0 -47.5 18.5t-18.5 47.5t18.5 47z" />
    <glyph glyph-name="filledbox" unicode="&#x25a0;" horiz-adv-x="1000" 
d="M870 733v-740h-740v740h740z" />
    <glyph glyph-name="uni25A1" unicode="&#x25a1;" horiz-adv-x="1000" 
d="M870 733v-740h-740v740h740zM760 103v520h-520v-520h520z" />
    <glyph glyph-name="uni25A3" unicode="&#x25a3;" horiz-adv-x="1000" 
d="M351 214l1 297h296v-296zM130 733h740v-740h-740v740zM760 103v520h-520v-520h520z" />
    <glyph glyph-name="triagup" unicode="&#x25b2;" horiz-adv-x="1000" 
d="M907 28h-813l407 666z" />
    <glyph glyph-name="uni25B3" unicode="&#x25b3;" horiz-adv-x="1000" 
d="M94 28l406 666l407 -666h-813zM748 122l-248 406l-248 -406h496z" />
    <glyph glyph-name="uni25B6" unicode="&#x25b6;" horiz-adv-x="1000" 
d="M187 -43v812l666 -406z" />
    <glyph glyph-name="uni25B7" unicode="&#x25b7;" horiz-adv-x="1000" 
d="M187 776l666 -405l-666 -407v812zM686 371l-407 247v-496z" />
    <glyph glyph-name="triagdn" unicode="&#x25bc;" horiz-adv-x="1000" 
d="M94 694h813l-406 -666z" />
    <glyph glyph-name="uni25BD" unicode="&#x25bd;" horiz-adv-x="1000" 
d="M500 28l-406 666h813zM500 195l248 407h-496z" />
    <glyph glyph-name="uni25C0" unicode="&#x25c0;" horiz-adv-x="1000" 
d="M813 769v-812l-666 406z" />
    <glyph glyph-name="uni25C1" unicode="&#x25c1;" horiz-adv-x="1000" 
d="M147 371l666 405v-812zM721 122v496l-407 -247z" />
    <glyph glyph-name="uni25C6" unicode="&#x25c6;" horiz-adv-x="1000" 
d="M943 363l-443 -443l-443 443l443 443z" />
    <glyph glyph-name="uni25C7" unicode="&#x25c7;" horiz-adv-x="1000" 
d="M943 363l-443 -443l-443 443l443 443zM500 52l312 311l-312 312l-311 -312z" />
    <glyph glyph-name="uni25C8" unicode="&#x25c8;" horiz-adv-x="1000" 
d="M321 363l179 178l178 -178l-178 -178zM500 806l443 -443l-443 -443l-443 443zM500 52l311 311l-311 312l-312 -312z" />
    <glyph glyph-name="circle" unicode="&#x25cb;" horiz-adv-x="1000" 
d="M637 123q63 37 100 100t37 137t-37 137t-100 100t-137 37t-137 -37t-100 -100t-37 -137t37 -137t100 -100t137 -37t137 37zM179 546q50 85 135 135t186 50t186 -50t135 -135t50 -186t-50 -186t-135 -135t-186 -50t-186 50t-135 135t-50 186t50 186z" />
    <glyph glyph-name="uni25CE" unicode="&#x25ce;" horiz-adv-x="1000" 
d="M637 123q63 37 100 100t37 137t-37 137t-100 100t-137 37q-75 0 -138 -37t-99.5 -100t-36.5 -137t36.5 -137t99.5 -100t138 -37q74 0 137 37zM179 546q50 85 135 135t186 50t186 -50t135 -135t50 -186t-50 -186t-135 -135t-186 -50t-186 50t-135 135t-50 186t50 186z
M339.5 453.5q24.5 42.5 67 67t93.5 24.5t93.5 -24.5t67 -67t24.5 -93.5t-24.5 -93.5t-67 -67t-93.5 -24.5t-93.5 24.5t-67 67t-24.5 93.5t24.5 93.5zM416.5 277q34.5 -35 83.5 -35q48 0 82.5 35t34.5 83t-34.5 83t-82.5 35q-49 0 -83.5 -35t-34.5 -83t34.5 -83z" />
    <glyph glyph-name="uni25CF" unicode="&#x25cf;" horiz-adv-x="1000" 
d="M314 39q-85 50 -135 135t-50 186t50 186t135 135t186 50t186 -50t135 -135t50 -186t-50 -186t-135 -135t-186 -50t-186 50z" />
    <glyph glyph-name="uni25D0" unicode="&#x25d0;" horiz-adv-x="1000" 
d="M637 123q63 37 100 100t37 137t-37 137t-100 100t-137 37v-548q74 0 137 37zM179 546q50 85 135 135t186 50t186 -50t135 -135t50 -186t-50 -186t-135 -135t-186 -50t-186 50t-135 135t-50 186t50 186z" />
    <glyph glyph-name="uni25D1" unicode="&#x25d1;" horiz-adv-x="1000" 
d="M363 597q-63 -37 -100 -100t-37 -137t37 -137t100 -100t137 -37v548q-74 0 -137 -37zM179 546q50 85 135 135t186 50t186 -50t135 -135t50 -186t-50 -186t-135 -135t-186 -50t-186 50t-135 135t-50 186t50 186z" />
    <glyph glyph-name="uni2605" unicode="&#x2605;" horiz-adv-x="1000" 
d="M613 487l316 -26l-246 -193l82 -319l-264 176l-265 -176l82 319l-246 193l316 26l113 293z" />
    <glyph glyph-name="uni2606" unicode="&#x2606;" horiz-adv-x="1000" 
d="M439 417l-178 -14l137 -108l-46 -184l149 99l148 -99l-46 184l137 108l-178 14l-61 161zM386 488l115 300l114 -300l321 -25l-249 -197l82 -325l-268 179l-269 -179l82 325l-249 197z" />
    <glyph glyph-name="uni260E" unicode="&#x260e;" horiz-adv-x="1000" 
d="M596 -17q63 -35 99 -35q16 0 26.5 5.5t18.5 12.5t11 9l77 65q44 37 44 64q0 11 -5.5 20t-12.5 16l-10 10l-75 76q-38 39 -68 39q-22 0 -41 -21l-44 -45q-65 65 -107 116l-16 18q-35 44 -53 69.5t-52 79.5l52 32q14 9 22 20t8 27q0 28 -24 65l-58 88q-2 3 -10 14.5
t-17.5 18t-20.5 6.5q-25 0 -64 -31l-80 -61q-2 -2 -14 -12t-18 -24.5t-6 -34.5q0 -32 14 -84q18 -68 69 -144t106 -147q147 -176 249 -232z" />
    <glyph glyph-name="uni260F" unicode="&#x260f;" horiz-adv-x="1000" 
d="M226 347q-55 82 -74 153q-14 53 -14 90q0 34 10 50.5t21 25t14 11.5l80 61q46 36 78 36q21 0 34.5 -12t20.5 -22.5l9 -13.5l58 -89q27 -40 27 -75q0 -42 -39 -66l-34 -21q29 -44 46 -67.5t47 -60.5q5 -7 31 -38t75 -80l28 29q25 27 57 27q40 0 83 -44l75 -76
q2 -2 12 -12.5t16 -23t6 -25.5q0 -38 -52 -80l-77 -66q-3 -2 -13.5 -11t-24 -14.5t-29.5 -5.5q-43 0 -112 38q-106 58 -254 237q-50 63 -105 145zM291.5 382.5q50.5 -75.5 97.5 -133.5q53 -64 112 -124.5t120 -93.5l24 -14q14 -8 24.5 -13t17.5 -5q5 0 12.5 4.5t16.5 11.5
l77 66q9 8 14.5 13t5.5 8t-8 11l-74 76q-10 10 -16.5 16t-9.5 6q-2 0 -7 -5l-81 -84q-75 76 -103.5 107t-61.5 71q-31 39 -56 74t-83 125l98 60q6 3 6 7q0 5 -17 30l-57 89q-7 10 -10 10t-9.5 -4.5t-14.5 -11.5l-80 -61q-13 -10 -17.5 -16t-4.5 -14t8 -35l9 -34
q17 -61 67.5 -136.5z" />
    <glyph glyph-name="uni261C" unicode="&#x261c;" horiz-adv-x="1000" 
d="M377 24h-13q-37 0 -62 25t-25 58q0 19 10 39q-17 12 -27 30t-10 38q0 19 10 39q-16 11 -25 29.5t-9 38.5q0 12 3 22h-92q-39 0 -65.5 22t-26.5 59t26.5 59t65.5 22h301l-41 40q-26 28 -26 65q0 39 26 65q27 27 65 27t65 -27l101 -101q29 -29 66.5 -44.5t78.5 -15.5h104
q32 0 55.5 -23.5t23.5 -55.5v-240q0 -28 -15 -51t-40 -34l-68 -31q-133 -56 -265 -56h-191v1zM108.5 410q1.5 -3 8.5 -4t20 -1h255v-62h-79q-15 0 -20 -4.5t-5 -17.5t5.5 -18t19.5 -5h114v-63h-84q-17 0 -24 -5t-7 -16t5.5 -16t20.5 -5h136v-62h-110q-13 0 -19 -5.5
t-6 -18.5q0 -11 5.5 -16t19.5 -5h133v-1h71q119 0 240 51l67 31q13 5 16 9.5t3 18.5v240q0 13 -2 15t-15 2h-104q-53 0 -102.5 20.5t-86.5 57.5l-101 101q-14 14 -21 14t-21 -14q-12 -13 -12 -21q0 -9 12 -21l150 -146h-454q-13 0 -20 -1t-8.5 -4t-1.5 -14t1.5 -14z" />
    <glyph glyph-name="uni261D" unicode="&#x261d;" horiz-adv-x="1000" 
d="M458 472v254q0 13 -1 20t-4 8.5t-13 1.5q-11 0 -14.5 -1.5t-4.5 -8.5t-1 -20v-454l-146 150q-12 13 -20 13t-21 -13q-14 -14 -14 -21t14 -21l101 -101q37 -37 57 -86t20 -103v-104q0 -13 2 -15t15 -2h240q14 0 19 3t10 16l31 67q51 121 51 240v146h-1v58q0 14 -5 19.5
t-16 5.5q-13 0 -18.5 -6t-5.5 -19v-110h-62v136q0 15 -5 20.5t-17 5.5q-11 0 -16 -7t-5 -24v-84h-63v114q0 15 -5 20.5t-18 5.5q-12 0 -17 -5.5t-5 -20.5v-78h-62zM168.5 366.5q-7.5 17.5 -7.5 34.5q0 37 28 65q26 26 65 26t64 -26l40 -41v301q0 39 22.5 65.5t59.5 26.5
t58.5 -26.5t21.5 -65.5v-91q11 3 22 3q20 0 38.5 -9.5t30.5 -25.5q18 10 38 10t38.5 -10t30.5 -27q18 10 39 10q33 0 58 -25t25 -62v-13h1v-191q0 -132 -56 -265l-31 -68q-11 -25 -34.5 -40t-51.5 -15h-240q-32 0 -55.5 23.5t-23.5 55.5v104q0 41 -15.5 79t-43.5 66
l-101 101q-13 13 -20.5 30.5z" />
    <glyph glyph-name="uni261E" unicode="&#x261e;" horiz-adv-x="1000" 
d="M609 405h255q13 0 20 1t8.5 4t1.5 14t-1.5 14t-8.5 4t-20 1h-454l150 146q12 12 12 21q0 8 -12 21q-14 14 -21 14t-21 -14l-101 -101q-37 -37 -86.5 -57.5t-102.5 -20.5h-104q-13 0 -15 -2t-2 -15v-240q0 -14 3 -18.5t16 -9.5l67 -31q121 -51 240 -51l121 1h83
q14 0 19.5 5t5.5 16q0 13 -6 18.5t-19 5.5h-110v62h136q15 0 20.5 5t5.5 16t-7 16t-24 5h-84v63h114q14 0 20 5t6 18t-5.5 17.5t-20.5 4.5h-79v62zM45 435q0 32 23.5 55.5t55.5 23.5h104q41 0 78.5 15.5t66.5 44.5l101 101q27 27 65 27t65 -27q26 -25 26 -65q0 -39 -26 -65
l-41 -40h301q39 0 65.5 -22t26.5 -59t-26.5 -59t-65.5 -22h-91q3 -10 3 -22q0 -20 -9.5 -38.5t-25.5 -30.5q10 -18 10 -38t-10 -38t-27 -30q10 -20 10 -39q0 -33 -25 -58t-62 -25l-204 -1q-132 0 -265 56l-68 31q-25 11 -40 34t-15 51v240z" />
    <glyph glyph-name="uni261F" unicode="&#x261f;" horiz-adv-x="1000" 
d="M840 261v-35q0 -37 -25 -62t-58 -25q-21 0 -39 10q-12 -17 -30.5 -27t-38.5 -10t-39 11q-11 -16 -29.5 -25.5t-38.5 -9.5q-11 0 -22 3v-92q0 -39 -21.5 -65.5t-58.5 -26.5t-59.5 26.5t-22.5 65.5v301l-40 -41q-13 -13 -29.5 -19.5t-34.5 -6.5q-37 0 -65 26
q-13 13 -20.5 30.5t-7.5 34.5q0 37 28 65l101 101q28 28 43.5 66t15.5 79v104q0 32 23.5 55.5t55.5 23.5h240q28 0 51.5 -15t34.5 -40l31 -68q55 -130 55 -265l1 -169h-1zM254 290q7 0 20 13l146 150v-454q0 -13 1 -20t4.5 -8.5t14.5 -1.5q10 0 13 1.5t4 8.5t1 20v255h62
v-79q0 -14 4.5 -19.5t17.5 -5.5t18 5.5t5 19.5v114h63v-84q0 -17 5 -24t16 -7q12 0 17 5.5t5 20.5v136h62v-110q0 -13 5.5 -19t18.5 -6q11 0 16 5.5t5 19.5v83h1l-1 121q0 118 -50 240l-31 67q-5 13 -10 16t-19 3h-240q-13 0 -15 -2t-2 -15v-104q0 -54 -20 -103t-57 -86
l-101 -101q-14 -14 -14 -21t14 -21q15 -13 21 -13z" />
    <glyph glyph-name="spade" unicode="&#x2660;" horiz-adv-x="1000" 
d="M213 147.5q-52 47.5 -69 118.5q-6 32 -6 65q0 34 7 66q24 77 82 144q44 53 95 99t149 126l30 24q32 -29 104 -91q63 -54 104 -91t65 -67q61 -69 82 -144q7 -31 7 -64q0 -34 -6 -67q-16 -71 -68.5 -118.5t-126.5 -47.5q-72 0 -126 57l14 -199h-97l14 199q-52 -57 -128 -57
q-74 0 -126 47.5z" />
    <glyph glyph-name="uni2661" unicode="&#x2661;" horiz-adv-x="1000" 
d="M806 370q18 31 28 65q7 27 7 55q0 27 -6 55q-30 126 -151 126q-28 0 -49.5 -12.5t-39 -33t-45.5 -60.5q-27 -37 -52 -69l-39 56q-30 44 -48.5 67t-42 37.5t-53.5 14.5q-119 0 -151 -126q-5 -33 -5 -57t6 -53q11 -34 28.5 -64.5t48.5 -66.5q48 -53 105.5 -104t150.5 -126
q30 26 84 71q79 67 115 99t59 60q32 35 50 66zM170.5 692.5q60.5 53.5 144.5 53.5q59 0 103 -34t82 -88q40 55 82.5 88.5t101.5 33.5q57 0 103.5 -25t77.5 -67.5t43 -93.5q7 -40 7 -72q0 -35 -9 -73q-24 -81 -93 -160q-27 -32 -69 -69.5t-122 -104.5q-82 -68 -122 -104
q-126 101 -192 158t-122 120q-67 76 -93 160q-8 35 -8 75q0 37 6 70q19 79 79.5 132.5z" />
    <glyph glyph-name="club" unicode="&#x2663;" horiz-adv-x="1000" 
d="M229.5 133.5q-38.5 22.5 -61 61t-22.5 83.5q0 46 22.5 85t61 62t85.5 23q17 0 32.5 -2.5t35.5 -6.5q-25 25 -39 58t-14 70q0 45 23 84t62 62t85 23t85 -23t62 -62t23 -84q0 -37 -13.5 -70t-38.5 -58q47 9 68 9q46 0 85 -23t61.5 -62t22.5 -85q0 -45 -22.5 -83.5
t-61.5 -61t-85 -22.5t-88 22.5t-64 58.5h-3l17 -248h-97l17 248h-2q-22 -37 -63.5 -59t-87.5 -22q-47 0 -85.5 22.5z" />
    <glyph glyph-name="heart" unicode="&#x2665;" horiz-adv-x="1000" 
d="M739.5 179.5q-46.5 -41.5 -116.5 -98.5q-108 -92 -123 -106q-128 102 -193.5 159t-121.5 120q-68 76 -93 161q-9 39 -9 75q0 31 7 71q12 51 42.5 94t77.5 68t104 25t102.5 -34.5t83.5 -87.5q40 56 82.5 89t102.5 33q57 0 104 -25t78 -68t42 -94q8 -37 8 -72
q0 -38 -10 -74q-23 -82 -93 -161q-28 -33 -74.5 -74.5z" />
    <glyph glyph-name="uni2669" unicode="&#x2669;" horiz-adv-x="540" 
d="M316.5 79q19.5 17 19.5 42t-17 40.5t-44 15.5q-33 0 -53 -18.5t-18 -46.5q3 -23 20 -36.5t41 -13.5q32 0 51.5 17zM143 224.5q41 42.5 110 49.5q19 2 42.5 -1.5t43.5 -12.5v494h99v-623q0 -66 -42.5 -112t-108.5 -53q-18 -2 -27 -2q-70 0 -114 43t-44 113q0 62 41 104.5z
" />
    <glyph glyph-name="musicalnote" unicode="&#x266a;" horiz-adv-x="723" 
d="M245 -36q-65 0 -108.5 37.5t-48.5 99.5q-1 7 -1 21q0 61 41.5 103t109.5 49q19 2 42.5 -1.5t43.5 -12.5v494h99q0 -42 6 -66t28 -47.5t71 -51.5q150 -88 150 -209h-99q0 28 -18 56.5t-83 66.5q-24 14 -55 37v-409q0 -66 -42.5 -112t-109.5 -53q-18 -2 -26 -2zM206.5 77
q17.5 -15 43.5 -15q32 0 51.5 17t19.5 43q0 25 -17 40t-44 15q-31 0 -51 -17t-20 -43q0 -25 17.5 -40z" />
    <glyph glyph-name="uni266C" unicode="&#x266c;" horiz-adv-x="932" 
d="M651 41q-65 0 -108.5 37.5t-48.5 99.5q-1 7 -1 21q0 61 41.5 103t109.5 49q18 2 41.5 -1.5t43.5 -12.5v381l-324 -99v-488q0 -66 -42.5 -112t-108.5 -53q-18 -2 -26 -2q-65 0 -108.5 37.5t-48.5 99.5q-1 7 -1 21q0 61 41.5 103t109.5 49q18 2 41.5 -1.5t43.5 -12.5v436
l451 136h71v-623q0 -66 -42 -112.5t-109 -53.5q-18 -2 -26 -2zM189 77q17 -15 44 -15q30 0 50 17t20 42t-17 40.5t-44 15.5q-31 0 -50.5 -17t-19.5 -43q0 -25 17 -40zM612 155q17 -15 42 -15q31 0 51.5 17t20.5 41q0 25 -16.5 40.5t-42.5 15.5q-32 0 -52 -16.5t-20 -42.5
q0 -25 17 -40z" />
    <glyph glyph-name="uni26A0" unicode="&#x26a0;" horiz-adv-x="1084" 
d="M146.5 580q61.5 105 166.5 166.5t229 61.5t229 -61.5t166.5 -166.5t61.5 -229q0 -123 -61.5 -228t-166.5 -166.5t-229 -61.5t-229 61.5t-166.5 166.5t-61.5 228q0 124 61.5 229zM236 174.5q48 -81.5 129 -129.5t177 -48t177 48t129 129.5t48 176.5q0 96 -47.5 177.5
t-129 129t-177.5 47.5t-177.5 -47.5t-129 -129t-47.5 -177.5q0 -95 48 -176.5zM605 623l-13 -372h-100l-12 372h125zM499.5 175q17.5 17 44.5 17t44 -17t17 -44t-17 -44t-44 -17t-44.5 17t-17.5 44t17.5 44z" />
    <glyph glyph-name="uni2713" unicode="&#x2713;" horiz-adv-x="904" 
d="M326 2l-293 359l90 73l201 -239l413 543l95 -74z" />
    <glyph glyph-name="uni3008" unicode="&#x3008;" horiz-adv-x="552" 
d="M229 359l250 -418h-121l-252 418l256 417h122z" />
    <glyph glyph-name="uni3009" unicode="&#x3009;" horiz-adv-x="552" 
d="M190 776l256 -417l-252 -418h-121l250 418l-255 417h122z" />
    <glyph glyph-name="uni300A" unicode="&#x300a;" horiz-adv-x="665" 
d="M214 356l186 -418h-106l-186 418l189 418h105zM489 774h106l-190 -418l187 -418h-106l-185 418z" />
    <glyph glyph-name="uni300B" unicode="&#x300b;" horiz-adv-x="665" 
d="M367 774l190 -418l-187 -418h-105l186 418l-188 418h104zM176 774l188 -418l-185 -418h-106l186 418l-189 418h106z" />
    <glyph glyph-name="uni300C" unicode="&#x300c;" horiz-adv-x="403" 
d="M337 678h-135v-208h-98v306h233v-98z" />
    <glyph glyph-name="uni300D" unicode="&#x300d;" horiz-adv-x="403" 
d="M66 34h135v209h98v-307h-233v98z" />
    <glyph glyph-name="uni300E" unicode="&#x300e;" horiz-adv-x="404" 
d="M338 668h-126v-210h-108v315h234v-105zM169 496v214h133v21h-155v-235h22z" />
    <glyph glyph-name="uni300F" unicode="&#x300f;" horiz-adv-x="404" 
d="M66 38h127v209h107v-315h-234v106zM257 -26v236h-22v-215h-133v-21h155z" />
    <glyph glyph-name="uni3010" unicode="&#x3010;" horiz-adv-x="352" 
d="M227 573q-24 -117 -24 -215t24 -215t61 -203h-186v836h186q-37 -86 -61 -203z" />
    <glyph glyph-name="uni3011" unicode="&#x3011;" horiz-adv-x="352" 
d="M250 776v-836h-186q37 86 61 203t24 215t-24 215t-61 203h186z" />
    <glyph glyph-name="uni3014" unicode="&#x3014;" horiz-adv-x="413" 
d="M208 625v-545l140 -56l-39 -101l-206 82v694l206 82l39 -101z" />
    <glyph glyph-name="uni3015" unicode="&#x3015;" horiz-adv-x="413" 
d="M104 781l206 -82v-694l-206 -82l-39 101l141 56v545l-141 55z" />
    <glyph glyph-name="uni3131" unicode="&#x3131;" 
d="M720 609v-480h-122v381h-444v99h566z" />
    <glyph glyph-name="uni3132" unicode="&#x3132;" 
d="M425 609v-480h-121v381h-205v99h326zM469 609h312v-480h-122v382h-190v98z" />
    <glyph glyph-name="uni3133" unicode="&#x3133;" 
d="M402 607v-393q75 33 109 96.5t34 144.5v159h117v-159q0 -86 38 -151.5t121 -95.5l-63 -88q-107 42 -154 149q-47 -107 -155 -149l-47 66v-57h-123v378h-178v100h301z" />
    <glyph glyph-name="uni3134" unicode="&#x3134;" 
d="M279 609v-369h451v-98h-575v467h124z" />
    <glyph glyph-name="uni3135" unicode="&#x3135;" 
d="M236 610v-394q88 3 154 19l3 -20q68 37 97.5 106.5t29.5 158.5v29h-121v99h362v-99h-123v-29q0 -97 36.5 -170.5t120.5 -107.5l-67 -91q-104 48 -149 159q-43 -110 -144 -158l-35 46l3 -21q-54 -13 -107 -17t-135 -4h-50v494h125z" />
    <glyph glyph-name="uni3136" unicode="&#x3136;" 
d="M232 597v-373q88 2 158 19l12 -98q-53 -14 -105 -17.5t-137 -3.5h-50v473h122zM386 545h137v78h120v-78h124v-99h-381v99zM437 343.5q21 36.5 58 57.5t82 21q46 0 83 -21t58.5 -57.5t21.5 -82.5t-21.5 -83t-58.5 -57.5t-83 -20.5q-45 0 -82 20.5t-58 57.5t-21 83t21 82.5
zM536 212.5q16 -17.5 41 -17.5q27 0 43 17.5t16 48.5t-16 48.5t-43 17.5q-25 0 -41 -17.5t-16 -48.5t16 -48.5z" />
    <glyph glyph-name="uni3137" unicode="&#x3137;" 
d="M716 612v-99h-434v-286h441v-98h-565v483h558z" />
    <glyph glyph-name="uni3138" unicode="&#x3138;" 
d="M414 612v-99h-171v-271q94 2 175 19l10 -101q-57 -13 -111.5 -16.5t-143.5 -3.5h-53v472h294zM463 612h291v-99h-169v-275h173v-98h-295v472z" />
    <glyph glyph-name="uni3139" unicode="&#x3139;" 
d="M717 622v-292h-449v-101h463v-100h-581v298h450v97h-451v98h568z" />
    <glyph glyph-name="uni313A" unicode="&#x313a;" 
d="M417 616v-291h-184v-98q121 1 226 21l12 -98q-68 -13 -133.5 -17t-168.5 -4h-59v295h184v93h-186v99h309zM447 616h312v-485h-123v386h-189v99z" />
    <glyph glyph-name="uni313B" unicode="&#x313b;" 
d="M412 615v-290h-183v-98q113 3 197 19l11 -98q-63 -12 -123.5 -15.5t-150.5 -3.5h-55v295h182v93h-184v98h306zM458 617h321v-486h-321v486zM671 228v291h-105v-291h105z" />
    <glyph glyph-name="uni313C" unicode="&#x313c;" 
d="M412 615v-290h-183v-99q59 2 104.5 6t92.5 14l11 -98q-63 -12 -123 -16t-151 -4h-55v296h182v93h-184v98h306zM453 617h114v-144h98v144h114v-489h-326v489zM665 227v147h-98v-147h98z" />
    <glyph glyph-name="uni313D" unicode="&#x313d;" 
d="M410 615v-290h-182v-98q61 2 106.5 6.5t90.5 14.5l3 -23q65 35 94.5 96.5t29.5 138.5v160h117v-160q0 -86 36 -151t115 -96l-64 -87q-101 41 -146 146q-44 -105 -145 -146l-30 41l2 -16q-62 -14 -122 -18t-154 -4h-55v295h182v93h-183v98h305z" />
    <glyph glyph-name="uni313E" unicode="&#x313e;" 
d="M412 615v-290h-182v-97q111 2 197 21l12 -98q-61 -14 -121.5 -18t-154.5 -4h-55v295h183v93h-185v98h306zM460 616h308v-98h-186v-96h175v-98h-175v-97h193v-99h-315v488z" />
    <glyph glyph-name="uni313F" unicode="&#x313f;" 
d="M405 615v-290h-175v-97q57 1 102 5t90 15l12 -98q-61 -13 -120 -17t-151 -4h-55v295h174v93h-175v98h298zM439 227h45v289h-43v99h352v-99h-42v-289h45v-98h-357v98zM643 227v289h-52v-289h52z" />
    <glyph glyph-name="uni3140" unicode="&#x3140;" 
d="M396 615v-281h-158v-106q102 2 184 20l12 -99q-60 -12 -118 -16t-147 -4h-54v297h159v96h-160v93h282zM435 560h128v81h120v-81h119v-98h-367v98zM477.5 360q21.5 36 58.5 56.5t82 20.5q46 0 83 -20.5t58 -56.5t21 -81q0 -46 -21 -82.5t-58 -57t-83 -20.5q-45 0 -82 20.5
t-58.5 57t-21.5 82.5q0 45 21.5 81zM576 231q16 -17 42 -17t42 17t16 48q0 29 -16.5 46.5t-41.5 17.5t-41.5 -17.5t-16.5 -46.5q0 -31 16 -48z" />
    <glyph glyph-name="uni3141" unicode="&#x3141;" 
d="M723 608v-474h-567v474h567zM600 233v275h-321v-275h321z" />
    <glyph glyph-name="uni3142" unicode="&#x3142;" 
d="M279 622v-143h320v143h122v-494h-564v494h122zM599 236v134h-320v-134h320z" />
    <glyph glyph-name="uni3143" unicode="&#x3143;" 
d="M236 613v-141h81v141h113v-484h-307v484h113zM317 229v143h-81v-143h81zM460 614h112v-142h80v142h114v-484h-306v484zM652 230v143h-80v-143h80z" />
    <glyph glyph-name="uni3144" unicode="&#x3144;" 
d="M679 614v-159q0 -86 37.5 -151.5t120.5 -95.5l-62 -88q-108 42 -155 150q-47 -108 -155 -150l-34 48v-39h-306v484h112v-141h81v141h113v-393q68 34 99.5 95.5t31.5 139.5v159h117zM318 229v143h-81v-143h81z" />
    <glyph glyph-name="uni3145" unicode="&#x3145;" 
d="M501 625v-134q0 -103 66 -178t197 -102l-59 -98q-95 23 -162 71.5t-104 118.5q-37 -70 -104 -118.5t-162 -71.5l-59 98q130 28 196.5 102.5t66.5 177.5v134h124z" />
    <glyph glyph-name="uni3146" unicode="&#x3146;" 
d="M348 599v-70q0 -73 24 -142t76 -117q53 49 77.5 117t24.5 142v70h124v-68q0 -98 38.5 -175.5t126.5 -115.5l-67 -91q-114 53 -162 186q-48 -142 -162 -197q-113 56 -161 198q-46 -134 -160 -187l-68 90q87 39 126 117.5t39 174.5v68h124z" />
    <glyph glyph-name="uni3147" unicode="&#x3147;" 
d="M581.5 591.5q65.5 -32.5 103.5 -90.5t38 -129q0 -72 -38 -130t-103.5 -91t-143.5 -33t-143.5 33t-103.5 91t-38 130q0 71 38 129t103.5 90.5t143.5 32.5t143.5 -32.5zM318.5 264.5q47.5 -41.5 119.5 -41.5q46 0 84.5 18.5t60.5 52.5t22 78q0 43 -22 77t-60.5 52.5
t-84.5 18.5q-72 0 -119.5 -41t-47.5 -107t47.5 -107.5z" />
    <glyph glyph-name="uni3148" unicode="&#x3148;" 
d="M728 621v-99h-226v-27q0 -103 63 -179t187 -105l-57 -94q-92 24 -156 75t-99 123q-34 -72 -98.5 -123t-156.5 -75l-57 94q124 29 187 105t63 179v27h-220v99h570z" />
    <glyph glyph-name="uni3149" unicode="&#x3149;" 
d="M430 624v-98h-94q2 -104 27 -174t85 -107q60 37 85.5 107t27.5 174h-95v98h334v-98h-117q2 -105 40.5 -185t125.5 -120l-73 -97q-99 48 -148 158q-25 -61 -68.5 -103.5t-110.5 -67.5h-1q-68 25 -111.5 68t-67.5 105q-48 -110 -150 -160l-73 97q88 39 127 119.5t41 185.5
h-118v98h334z" />
    <glyph glyph-name="uni314A" unicode="&#x314a;" 
d="M376 544v133h124v-133h226v-100h-215v-11q0 -87 60.5 -149.5t184.5 -84.5l-56 -96q-98 21 -164 67.5t-99 116.5q-32 -70 -98 -116.5t-165 -67.5l-56 96q124 22 184.5 84.5t60.5 149.5v11h-214v100h227z" />
    <glyph glyph-name="uni314B" unicode="&#x314b;" 
d="M729 622v-502h-125v188l-444 -30l-15 107l459 20v118h-435v99h560z" />
    <glyph glyph-name="uni314C" unicode="&#x314c;" 
d="M720 614v-99h-442v-92h434v-98h-434v-99h450v-99h-574v487h566z" />
    <glyph glyph-name="uni314D" unicode="&#x314d;" 
d="M731 613v-98h-89v-296h102v-99h-607v99h103v296h-91v98h582zM519 219v296h-157v-296h157z" />
    <glyph glyph-name="uni314E" unicode="&#x314e;" 
d="M379 576v112h124v-112h233v-100h-592v100h235zM238 344q30 40 83.5 62t119.5 22q67 0 120 -22t83 -62t30 -90t-30 -90t-83 -62t-120 -22q-66 0 -119.5 22t-83.5 62t-30 90t30 90zM364.5 202.5q29.5 -18.5 76.5 -18.5t77 18.5t30 51.5t-30 52t-77 19t-76.5 -18.5
t-29.5 -52.5q0 -33 29.5 -51.5z" />
    <glyph glyph-name="uni314F" unicode="&#x314f;" 
d="M473 804v-343h186v-102h-186v-442h-124v887h124z" />
    <glyph glyph-name="uni3150" unicode="&#x3150;" 
d="M622 806v-886h-117v448h-119v-414h-116v837h116v-322h119v337h117z" />
    <glyph glyph-name="uni3151" unicode="&#x3151;" 
d="M449 805v-228h183v-102h-183v-150h183v-101h-183v-305h-123v886h123z" />
    <glyph glyph-name="uni3152" unicode="&#x3152;" 
d="M616 803v-886h-118v321h-112v-288h-116v841h116v-197h112v209h118zM498 339v153h-112v-153h112z" />
    <glyph glyph-name="uni3153" unicode="&#x3153;" 
d="M587 806v-887h-123v450h-190v102h190v335h123z" />
    <glyph glyph-name="uni3154" unicode="&#x3154;" 
d="M651 805v-886h-118v886h118zM212 470h132v320h115v-842h-115v420h-132v102z" />
    <glyph glyph-name="uni3155" unicode="&#x3155;" 
d="M590 804v-887h-123v317h-194v101h194v151h-194v102h194v216h123z" />
    <glyph glyph-name="uni3156" unicode="&#x3156;" 
d="M344 583v206h116v-842h-116v291h-144v100h144v144h-141v101h141zM529 804h118v-886h-118v886z" />
    <glyph glyph-name="uni3157" unicode="&#x3157;" 
d="M374 277v347h124v-347h343v-100h-809v100h342z" />
    <glyph glyph-name="uni3158" unicode="&#x3158;" 
d="M366 529v-297q114 5 204 16l11 -88q-210 -36 -540 -36l-13 101q140 0 217 2v302h121zM613 804h123v-345h117v-103h-117v-439h-123v887z" />
    <glyph glyph-name="uni3159" unicode="&#x3159;" 
d="M327 529v-273q80 4 153 14l10 -91q-166 -30 -441 -30l-11 100q46 0 176 2v278h113zM519 793h115v-342h69v355h117v-886h-117v431h-69v-399h-115v841z" />
    <glyph glyph-name="uni315A" unicode="&#x315a;" 
d="M416 522v-269q126 7 204 18l11 -90q-124 -21 -258.5 -28t-287.5 -7l-16 100q145 0 225 2v274h122zM667 807h124v-886h-124v886z" />
    <glyph glyph-name="uni315B" unicode="&#x315b;" 
d="M220 251v366h122v-366h195v366h123v-366h184v-100h-808v100h184z" />
    <glyph glyph-name="uni315C" unicode="&#x315c;" 
d="M843 515v-100h-342v-367h-124v367h-342v100h808z" />
    <glyph glyph-name="uni315D" unicode="&#x315d;" 
d="M814 806v-886h-125v240h-184v96h184v550h125zM356 433.5q141 5.5 269 20.5l9 -90q-104 -16 -240 -26v-353h-124v347q-99 -4 -209 -4l-16 99q170 1 311 6.5z" />
    <glyph glyph-name="uni315E" unicode="&#x315e;" 
d="M829 808v-887h-118v887h118zM275.5 423q124.5 5 217.5 17l8 -83q-74 -13 -166 -21v-353h-118v345q-102 -5 -166 -5l-11 95q111 0 235.5 5zM398 258h137v533h116v-842h-116v214h-137v95z" />
    <glyph glyph-name="uni315F" unicode="&#x315f;" 
d="M807 804v-887h-124v887h124zM371.5 413q140.5 5 267.5 18l7 -88q-110 -16 -226 -24v-335h-123v328q-103 -4 -219 -4l-15 99q168 1 308.5 6z" />
    <glyph glyph-name="uni3160" unicode="&#x3160;" 
d="M841 518v-100h-194v-369h-123v369h-179v-369h-124v369h-189v100h809z" />
    <glyph glyph-name="uni3161" unicode="&#x3161;" 
d="M841 432v-101h-809v101h809z" />
    <glyph glyph-name="uni3162" unicode="&#x3162;" 
d="M799 802v-886h-124v886h124zM360 286.5q139 4.5 262 19.5l7 -90q-128 -20 -264 -26.5t-296 -6.5l-14 99q166 0 305 4.5z" />
    <glyph glyph-name="uni3163" unicode="&#x3163;" 
d="M503 807v-887h-125v887h125z" />
    <glyph glyph-name="uni321C" unicode="&#x321c;" horiz-adv-x="1374" 
d="M113.5 133.5q-31.5 105.5 -31.5 217.5t31.5 217.5t91.5 200.5h125q-67 -94 -103.5 -199.5t-36.5 -218.5t36.5 -218.5t103.5 -199.5h-125q-60 95 -91.5 200.5zM319 316h729v-98h-313v-302h-109v302h-307v98zM492 507.5q58 30.5 90.5 72.5t37.5 89h-236v95h597v-95h-234
q5 -46 37.5 -88.5t91 -73t136.5 -41.5l-40 -95q-102 15 -176.5 63.5t-111.5 118.5q-37 -70 -111.5 -118.5t-176.5 -63.5l-40 95q78 11 136 41.5zM1147.5 132.5q36.5 105.5 36.5 218.5t-36.5 218.5t-103.5 199.5h125q60 -95 91.5 -200.5t31.5 -217.5t-31.5 -217.5
t-91.5 -200.5h-125q67 94 103.5 199.5z" />
    <glyph glyph-name="uni327C" unicode="&#x327c;" horiz-adv-x="1084" 
d="M146.5 570q61.5 105 166.5 166.5t229 61.5t229 -61.5t166.5 -166.5t61.5 -229q0 -123 -61.5 -228t-166.5 -166.5t-229 -61.5t-229 61.5t-166.5 166.5t-61.5 228q0 124 61.5 229zM236 164.5q48 -81.5 129 -129.5t177 -48t177 48t129 129.5t48 176.5q0 96 -47.5 177.5
t-129 129t-177.5 47.5t-177.5 -47.5t-129 -129t-47.5 -177.5q0 -95 48 -176.5zM440 590.5q49 34.5 105 34.5q77 0 125.5 -45t48.5 -118q0 -45 -22.5 -85.5t-75.5 -79.5q-23 -16 -28.5 -28t-5.5 -47l-106 -1q-1 56 17.5 94t59.5 68q33 25 44 40.5t11 35.5q0 27 -19 43.5
t-49 16.5q-23 0 -43.5 -15.5t-29.5 -39.5l-100 37q19 55 68 89.5zM494 160q16 16 41 16t41 -16t16 -41t-16 -41.5t-41 -16.5t-41 16t-16 42q0 25 16 41z" />
    <glyph glyph-name="uniAC00" unicode="&#xac00;" 
d="M732 814v-346h126v-102h-126v-449h-125v897h125zM267 359.5q85 111.5 102 261.5h-296v100h421q0 -213 -94 -377t-307 -271l-69 94q158 81 243 192.5z" />
    <glyph glyph-name="uniAC01" unicode="&#xac01;" 
d="M735 813v-211h121v-102h-121v-208h-124v521h124zM253.5 498.5q84.5 71.5 98.5 164.5h-287v98h421q0 -176 -107.5 -296t-307.5 -172l-51 96q149 38 233.5 109.5zM139 254h596v-338h-124v240h-472v98z" />
    <glyph glyph-name="uniAC02" unicode="&#xac02;" 
 />
    <glyph glyph-name="uniAC03" unicode="&#xac03;" 
 />
    <glyph glyph-name="uniAC04" unicode="&#xac04;" 
d="M735 812v-251h121v-102h-121v-289h-124v642h124zM258.5 473q85.5 76 99.5 173h-294v99h430q0 -180 -108 -304.5t-309 -182.5l-52 98q148 41 233.5 117zM158 235h124v-203h485v-99h-609v302z" />
    <glyph glyph-name="uniAC05" unicode="&#xac05;" 
 />
    <glyph glyph-name="uniAC06" unicode="&#xac06;" 
 />
    <glyph glyph-name="uniAC07" unicode="&#xac07;" 
d="M735 813v-200h121v-101h-121v-200h-124v501h124zM253.5 497.5q83.5 71.5 98.5 164.5h-287v99h421q0 -177 -107 -297.5t-308 -172.5l-49 97q148 38 231.5 109.5zM157 270h585v-98h-462v-147h479v-99h-602v344z" />
    <glyph glyph-name="uniAC08" unicode="&#xac08;" 
d="M735 813v-180h121v-102h-121v-166h-124v448h124zM261 534q82 63 93 146h-283v99h422q0 -176 -108 -286t-313 -152l-45 101q152 29 234 92zM146 329h589v-245h-465v-62h492v-97h-615v251h466v57h-467v96z" />
    <glyph glyph-name="uniAC09" unicode="&#xac09;" 
d="M735 813v-186h121v-102h-121v-182h-124v470h124zM262.5 526q80.5 64 91.5 150h-282v99h422q0 -179 -107 -290t-315 -155l-45 101q155 31 235.5 95zM112 304h300v-230h-178v-57q97 1 144 4t90 14l12 -91q-52 -13 -109.5 -16t-198.5 -3h-58v235h178v51h-180v93zM449 304
h286v-383h-122v286h-164v97z" />
    <glyph glyph-name="uniAC0A" unicode="&#xac0a;" 
d="M392 306v-227h-173v-56q60 1 102 4t85 10l10 -94q-56 -9 -111.5 -12t-152.5 -3h-52v237h172v48h-174v93h294zM262.5 530q80.5 62 90.5 146h-282v99h423q0 -352 -423 -437l-44 101q155 29 235.5 91zM438 306h297v-379h-297v379zM629 17v198h-84v-198h84zM611 813h124v-185
h121v-101h-121v-181h-124v467z" />
    <glyph glyph-name="uniAC0B" unicode="&#xac0b;" 
d="M735 813v-185h121v-101h-121v-187h-124v473h124zM262.5 535q80.5 62 90.5 146h-282v99h423q0 -352 -423 -437l-44 101q155 29 235.5 91zM100 298h291v-223h-170v-58q59 1 100 4t85 10l8 -89q-53 -10 -103.5 -12.5t-158.5 -2.5h-50v228h169v52h-171v91zM435 307h110v-96
h79v96h111v-381h-300v381zM624 21v99h-79v-99h79z" />
    <glyph glyph-name="uniAC0C" unicode="&#xac0c;" 
 />
    <glyph glyph-name="uniAC0D" unicode="&#xac0d;" 
 />
    <glyph glyph-name="uniAC0E" unicode="&#xac0e;" 
 />
    <glyph glyph-name="uniAC0F" unicode="&#xac0f;" 
 />
    <glyph glyph-name="uniAC10" unicode="&#xac10;" 
d="M735 813v-197h121v-102h-121v-202h-124v501h124zM253 498.5q84 70.5 99 163.5h-287v99h422q0 -177 -107.5 -296.5t-308.5 -172.5l-49 98q147 38 231 108.5zM156 277h579v-350h-579v350zM613 24v154h-335v-154h335z" />
    <glyph glyph-name="uniAC11" unicode="&#xac11;" 
d="M735 813v-194h121v-102h-121v-190h-124v486h124zM259 513.5q81 65.5 93 152.5h-279v99h417q0 -177 -106.5 -289.5t-310.5 -158.5l-46 100q151 31 232 96.5zM153 291h123v-87h336v87h123v-365h-582v365zM612 25v83h-336v-83h336z" />
    <glyph glyph-name="uniAC12" unicode="&#xac12;" 
d="M735 813v-189h121v-102h-121v-196h-124v487h124zM259 514q81 66 93 153h-282v98h419q0 -177 -105.5 -289.5t-310.5 -159.5l-46 100q151 32 232 98zM120 282h114v-86h95v86h113v-264q66 33 98.5 88.5t32.5 117.5v67h119v-66q0 -69 35.5 -126t107.5 -87l-63 -92
q-96 38 -140 134q-46 -94 -139 -134l-51 73v-64h-322v353zM329 23v81h-95v-81h95z" />
    <glyph glyph-name="uniAC13" unicode="&#xac13;" 
d="M386 440q-108 -125 -310 -182l-52 99q150 41 235 116.5t99 173.5h-286v99h422q0 -181 -108 -306zM263 67.5q64 36.5 96 85.5t32 103v27h123v-27q0 -53 32.5 -102.5t96 -85.5t153.5 -50l-49 -97q-103 18 -178 63.5t-116 112.5q-41 -67 -116.5 -113t-178.5 -64l-49 97
q90 14 154 50.5zM621 814h123v-232h112v-102h-112v-258h-123v592z" />
    <glyph glyph-name="uniAC14" unicode="&#xac14;" 
d="M735 814v-203h121v-101h-121v-196h-124v500h124zM254.5 498q83.5 72 97.5 165h-282v98h419q0 -177 -108 -298t-309 -174l-48 99q147 38 230.5 110zM181.5 103.5q41.5 60.5 41.5 131.5v45h120v-45q0 -58 25.5 -111t76.5 -89q52 38 78.5 92t26.5 108v45h122v-45
q0 -75 41 -134.5t125 -86.5l-61 -90q-120 41 -168 154q-24 -55 -64.5 -97t-97.5 -65q-116 42 -164 160q-51 -111 -164 -152l-62 90q83 29 124.5 89.5z" />
    <glyph glyph-name="uniAC15" unicode="&#xac15;" 
d="M735 813v-212h121v-102h-121v-206h-124v520h124zM255 485.5q84 73.5 98 168.5h-286v100h422q0 -179 -107 -302t-306 -179l-51 99q146 40 230 113.5zM182.5 194.5q37.5 41.5 105.5 63.5t158 22q89 0 157 -22t105 -63.5t37 -96.5t-37 -96.5t-105 -63.5t-157 -22
q-90 0 -158 22t-105.5 63.5t-37.5 96.5t37.5 96.5zM315.5 34q46.5 -22 130.5 -22t131 22t47 64t-46.5 64t-131.5 22q-84 0 -130.5 -22t-46.5 -64t46.5 -64z" />
    <glyph glyph-name="uniAC16" unicode="&#xac16;" 
d="M735 814v-208h121v-101h-121v-189h-124v498h124zM260 506.5q82 67.5 94 156.5h-284v98h420q0 -177 -106.5 -292t-311.5 -164l-45 99q151 35 233 102.5zM300.5 74.5q69.5 46.5 79.5 105.5h-231v97h598v-97h-231q7 -37 40 -71.5t91.5 -60.5t137.5 -37l-44 -94
q-103 14 -178 55t-114 100q-39 -59 -114 -99t-179 -54l-46 94q121 15 190.5 61.5z" />
    <glyph glyph-name="uniAC17" unicode="&#xac17;" 
d="M384.5 474.5q-107.5 -110.5 -313.5 -154.5l-44 100q153 30 234.5 94t92.5 148h-282v98h420q0 -175 -107.5 -285.5zM301 68q70 44 80 100h-240v97h243v90h124v-90h240v-97h-237q10 -56 80.5 -100t192.5 -57l-43 -93q-104 12 -179 48.5t-116 91.5q-40 -55 -115 -91.5
t-178 -48.5l-44 93q122 13 192 57zM611 813h124v-191h121v-102h-121v-197h-124v490z" />
    <glyph glyph-name="uniAC18" unicode="&#xac18;" 
 />
    <glyph glyph-name="uniAC19" unicode="&#xac19;" 
d="M735 813v-187h121v-101h-121v-182h-124v470h124zM265.5 511.5q79.5 60.5 89.5 142.5h-284v99h424q0 -348 -417 -426l-49 98q157 26 236.5 86.5zM151 307h588v-91h-465v-55h456v-87h-456v-57h485v-91h-608v381z" />
    <glyph glyph-name="uniAC1A" unicode="&#xac1a;" 
d="M735 813v-192h121v-101h-121v-193h-124v486h124zM258 509.5q84 66.5 96 151.5h-280v99h419q0 -175 -109.5 -288.5t-310.5 -159.5l-47 100q148 31 232 97.5zM144 26h116v165h-109v97h602v-97h-109v-165h120v-98h-620v98zM523 26v165h-141v-165h141z" />
    <glyph glyph-name="uniAC1B" unicode="&#xac1b;" 
d="M735 813v-182h121v-101h-121v-183h-124v466h124zM352 671h-287v99h424q0 -181 -103.5 -289t-314.5 -151l-44 98q303 58 325 243zM131 298h252v87h124v-87h253v-94h-629v94zM258 141.5q68 34.5 187 34.5q118 0 185.5 -34.5t67.5 -95.5q0 -62 -67 -96t-186 -34t-187 34
t-68 96q0 61 68 95.5zM341.5 13.5q34.5 -10.5 103.5 -10.5q137 0 137 43t-137 43q-138 0 -138 -43q0 -22 34.5 -32.5z" />
    <glyph glyph-name="uniAC1C" unicode="&#xac1c;" 
d="M797 813v-896h-119v456h-82v-417h-117v834h117v-317h82v340h119zM218.5 366.5q64.5 100.5 76.5 236.5h-231v99h353q0 -201 -73 -349t-252 -252l-72 86q134 79 198.5 179.5z" />
    <glyph glyph-name="uniAC1D" unicode="&#xac1d;" 
d="M793 813v-525h-118v216h-80v-214h-116v506h116v-192h80v209h118zM211.5 488.5q65.5 69.5 78.5 163.5h-226v98h354q0 -170 -82.5 -285t-255.5 -184l-58 91q124 47 189.5 116.5zM174 250h619v-334h-124v235h-495v99z" />
    <glyph glyph-name="uniAC1E" unicode="&#xac1e;" 
 />
    <glyph glyph-name="uniAC1F" unicode="&#xac1f;" 
 />
    <glyph glyph-name="uniAC20" unicode="&#xac20;" 
d="M793 813v-669h-117v313h-81v-287h-115v627h115v-241h81v257h117zM211.5 459.5q63.5 71.5 77.5 169.5h-222v98h349q0 -171 -80.5 -289t-251.5 -190l-60 89q124 51 187.5 122.5zM188 222h123v-188h507v-99h-630v287z" />
    <glyph glyph-name="uniAC21" unicode="&#xac21;" 
 />
    <glyph glyph-name="uniAC22" unicode="&#xac22;" 
 />
    <glyph glyph-name="uniAC23" unicode="&#xac23;" 
d="M800 250v-97h-486v-128h495v-99h-619v324h610zM215.5 486q63.5 70 76.5 166h-225v98h352q0 -172 -79 -287t-251 -185l-61 89q124 49 187.5 119zM480 798h115v-196h81v211h117v-522h-117v211h-81v-203h-115v499z" />
    <glyph glyph-name="uniAC24" unicode="&#xac24;" 
d="M793 813v-449h-117v167h-80v-161h-116v426h116v-166h80v183h117zM210 518.5q63 60.5 76 143.5h-216v98h345q0 -161 -81 -266t-249 -164l-57 90q119 38 182 98.5zM187 327h606v-242h-482v-62h512v-97h-635v250h484v55h-485v96z" />
    <glyph glyph-name="uniAC25" unicode="&#xac25;" 
 />
    <glyph glyph-name="uniAC26" unicode="&#xac26;" 
 />
    <glyph glyph-name="uniAC27" unicode="&#xac27;" 
 />
    <glyph glyph-name="uniAC28" unicode="&#xac28;" 
 />
    <glyph glyph-name="uniAC29" unicode="&#xac29;" 
 />
    <glyph glyph-name="uniAC2A" unicode="&#xac2a;" 
 />
    <glyph glyph-name="uniAC2B" unicode="&#xac2b;" 
 />
    <glyph glyph-name="uniAC2C" unicode="&#xac2c;" 
d="M793 813v-511h-118v206h-80v-200h-115v488h115v-189h80v206h118zM215.5 486q63.5 70 76.5 166h-225v98h352q0 -172 -79 -287t-251 -185l-61 89q124 49 187.5 119zM187 261h606v-331h-606v331zM672 28v136h-363v-136h363z" />
    <glyph glyph-name="uniAC2D" unicode="&#xac2d;" 
d="M793 813v-484h-118v185h-80v-179h-115v461h115v-182h80v199h118zM212 499.5q63 67.5 76 160.5h-218v98h347q0 -168 -80 -281.5t-249 -182.5l-60 91q121 47 184 114.5zM188 292h123v-84h361v84h121v-362h-605v362zM672 27v85h-361v-85h361z" />
    <glyph glyph-name="uniAC2E" unicode="&#xac2e;" 
 />
    <glyph glyph-name="uniAC2F" unicode="&#xac2f;" 
d="M341 444q-80 -120 -252 -195l-62 90q124 52 188.5 125.5t77.5 172.5h-224v99h352q0 -172 -80 -292zM295.5 63.5q65.5 34.5 99 82t33.5 97.5v29h123v-29q0 -50 33 -97.5t98 -82t155 -47.5l-46 -97q-106 17 -183.5 62t-118.5 111q-42 -66 -119.5 -111t-183.5 -62l-47 97
q91 13 156.5 47.5zM480 796h116v-203h80v220h117v-585h-117v265h-80v-180h-116v483z" />
    <glyph glyph-name="uniAC30" unicode="&#xac30;" 
d="M794 813v-503h-118v192h-80v-191h-116v485h116v-194h80v211h118zM212.5 489.5q64.5 68.5 77.5 161.5h-221v99h350q0 -169 -81.5 -283.5t-252.5 -183.5l-59 91q122 47 186.5 115.5zM198.5 102q42.5 60 42.5 131v42h119v-42q0 -58 25 -110.5t76 -88.5q53 38 79.5 91.5
t26.5 107.5v42h121v-42q0 -75 42 -134t126 -86l-60 -90q-121 41 -171 155q-23 -55 -63 -97t-98 -66q-116 43 -164 160q-50 -109 -168 -152l-59 90q83 29 125.5 89z" />
    <glyph glyph-name="uniAC31" unicode="&#xac31;" 
d="M793 813v-539h-118v225h-80v-196h-116v493h116v-197h80v214h118zM212.5 478q65.5 72 78.5 170h-220v99h349q0 -173 -82 -291.5t-255 -190.5l-60 92q124 49 189.5 121zM219 186.5q38 39.5 108 60.5t164 21t163.5 -21t107.5 -60.5t38 -92.5t-38 -93t-108 -61t-163 -21
q-94 0 -164 21t-108 61t-38 93t38 92.5zM353.5 34.5q48.5 -20.5 137.5 -20.5t136.5 20.5t47.5 59.5t-47.5 59t-136.5 20t-137.5 -20t-48.5 -59t48.5 -59.5z" />
    <glyph glyph-name="uniAC32" unicode="&#xac32;" 
 />
    <glyph glyph-name="uniAC33" unicode="&#xac33;" 
 />
    <glyph glyph-name="uniAC34" unicode="&#xac34;" 
 />
    <glyph glyph-name="uniAC35" unicode="&#xac35;" 
 />
    <glyph glyph-name="uniAC36" unicode="&#xac36;" 
 />
    <glyph glyph-name="uniAC37" unicode="&#xac37;" 
 />
    <glyph glyph-name="uniAC38" unicode="&#xac38;" 
d="M732 814v-225h125v-101h-125v-166h125v-102h-125v-303h-125v897h125zM267 359.5q85 111.5 102 261.5h-296v100h421q0 -213 -94 -377t-307 -271l-69 94q158 81 243 192.5z" />
    <glyph glyph-name="uniAC39" unicode="&#xac39;" 
d="M735 813v-120h121v-99h-121v-94h121v-99h-121v-109h-124v521h124zM253.5 498.5q84.5 71.5 98.5 164.5h-287v98h421q0 -176 -107.5 -296t-307.5 -172l-51 96q149 38 233.5 109.5zM139 254h596v-338h-124v240h-472v98z" />
    <glyph glyph-name="uniAC3A" unicode="&#xac3a;" 
 />
    <glyph glyph-name="uniAC3B" unicode="&#xac3b;" 
 />
    <glyph glyph-name="uniAC3C" unicode="&#xac3c;" 
d="M735 812v-151h121v-101h-121v-117h121v-100h-121v-173h-124v642h124zM258.5 473q85.5 76 99.5 173h-294v99h430q0 -180 -108 -304.5t-309 -182.5l-52 98q148 41 233.5 117zM158 235h124v-203h485v-99h-609v302z" />
    <glyph glyph-name="uniAC3D" unicode="&#xac3d;" 
 />
    <glyph glyph-name="uniAC3E" unicode="&#xac3e;" 
 />
    <glyph glyph-name="uniAC3F" unicode="&#xac3f;" 
 />
    <glyph glyph-name="uniAC40" unicode="&#xac40;" 
d="M735 813v-92h120v-98h-120v-76h120v-98h-120v-84h-124v448h124zM261 534q82 63 93 146h-283v99h422q0 -176 -108 -286t-313 -152l-45 101q152 29 234 92zM146 329h589v-245h-465v-62h492v-97h-615v251h466v57h-467v96z" />
    <glyph glyph-name="uniAC41" unicode="&#xac41;" 
 />
    <glyph glyph-name="uniAC42" unicode="&#xac42;" 
 />
    <glyph glyph-name="uniAC43" unicode="&#xac43;" 
 />
    <glyph glyph-name="uniAC44" unicode="&#xac44;" 
 />
    <glyph glyph-name="uniAC45" unicode="&#xac45;" 
 />
    <glyph glyph-name="uniAC46" unicode="&#xac46;" 
 />
    <glyph glyph-name="uniAC47" unicode="&#xac47;" 
 />
    <glyph glyph-name="uniAC48" unicode="&#xac48;" 
 />
    <glyph glyph-name="uniAC49" unicode="&#xac49;" 
 />
    <glyph glyph-name="uniAC4A" unicode="&#xac4a;" 
 />
    <glyph glyph-name="uniAC4B" unicode="&#xac4b;" 
d="M735 813v-137h119v-101h-119v-111h119v-100h-119v-142h-124v591h124zM259 473.5q85 75.5 99 173.5h-286v99h422q0 -181 -108 -306t-310 -182l-52 99q150 41 235 116.5zM263 67q64 36 96 85.5t32 103.5v27h123v-27q0 -54 32 -103t96 -85t154 -50l-50 -98
q-102 18 -177 63.5t-116 112.5q-41 -67 -116.5 -113t-178.5 -64l-49 98q90 14 154 50z" />
    <glyph glyph-name="uniAC4C" unicode="&#xac4c;" 
 />
    <glyph glyph-name="uniAC4D" unicode="&#xac4d;" 
d="M735 813v-123h118v-101h-118v-89h118v-101h-118v-106h-124v520h124zM255 485.5q84 73.5 98 168.5h-286v100h422q0 -179 -107 -302t-306 -179l-51 99q146 40 230 113.5zM182.5 194.5q37.5 41.5 105.5 63.5t158 22q89 0 157 -22t105 -63.5t37 -96.5t-37 -96.5t-105 -63.5
t-157 -22q-90 0 -158 22t-105.5 63.5t-37.5 96.5t37.5 96.5zM315 34q47 -22 131 -22t131 22t47 64t-46.5 64t-131.5 22t-131.5 -22t-46.5 -64t47 -64z" />
    <glyph glyph-name="uniAC4E" unicode="&#xac4e;" 
 />
    <glyph glyph-name="uniAC4F" unicode="&#xac4f;" 
 />
    <glyph glyph-name="uniAC50" unicode="&#xac50;" 
 />
    <glyph glyph-name="uniAC51" unicode="&#xac51;" 
 />
    <glyph glyph-name="uniAC52" unicode="&#xac52;" 
 />
    <glyph glyph-name="uniAC53" unicode="&#xac53;" 
 />
    <glyph glyph-name="uniAC54" unicode="&#xac54;" 
d="M797 813v-896h-119v327h-82v-288h-117v834h117v-196h82v219h119zM218.5 366.5q64.5 100.5 76.5 236.5h-231v99h353q0 -201 -73 -349t-252 -252l-72 86q134 79 198.5 179.5zM678 343v152h-82v-152h82z" />
    <glyph glyph-name="uniAC55" unicode="&#xac55;" 
 />
    <glyph glyph-name="uniAC56" unicode="&#xac56;" 
 />
    <glyph glyph-name="uniAC57" unicode="&#xac57;" 
 />
    <glyph glyph-name="uniAC58" unicode="&#xac58;" 
d="M793 813v-669h-117v197h-81v-171h-115v627h115v-144h81v160h117zM211.5 459.5q63.5 71.5 77.5 169.5h-222v98h349q0 -171 -80.5 -289t-251.5 -190l-60 89q124 51 187.5 122.5zM188 222h123v-188h507v-99h-630v287zM676 439v115h-81v-115h81z" />
    <glyph glyph-name="uniAC59" unicode="&#xac59;" 
 />
    <glyph glyph-name="uniAC5A" unicode="&#xac5a;" 
 />
    <glyph glyph-name="uniAC5B" unicode="&#xac5b;" 
 />
    <glyph glyph-name="uniAC5C" unicode="&#xac5c;" 
d="M793 813v-449h-117v85h-80v-79h-116v426h116v-88h80v105h117zM210 518q63 61 76 144h-216v99h345q0 -162 -81 -267.5t-249 -164.5l-57 90q119 38 182 99zM187 326h606v-243h-482v-62h512v-97h-635v250h484v56h-485v96zM676 542v73h-80v-73h80z" />
    <glyph glyph-name="uniAC5D" unicode="&#xac5d;" 
 />
    <glyph glyph-name="uniAC5E" unicode="&#xac5e;" 
 />
    <glyph glyph-name="uniAC5F" unicode="&#xac5f;" 
 />
    <glyph glyph-name="uniAC60" unicode="&#xac60;" 
 />
    <glyph glyph-name="uniAC61" unicode="&#xac61;" 
 />
    <glyph glyph-name="uniAC62" unicode="&#xac62;" 
 />
    <glyph glyph-name="uniAC63" unicode="&#xac63;" 
 />
    <glyph glyph-name="uniAC64" unicode="&#xac64;" 
 />
    <glyph glyph-name="uniAC65" unicode="&#xac65;" 
d="M793 813v-484h-118v97h-80v-91h-115v461h115v-92h80v109h118zM212 499.5q63 67.5 76 160.5h-218v98h347q0 -168 -80 -281.5t-249 -182.5l-60 91q121 47 184 114.5zM188 292h123v-84h361v84h121v-362h-605v362zM672 27v85h-361v-85h361zM675 524v81h-80v-81h80z" />
    <glyph glyph-name="uniAC66" unicode="&#xac66;" 
 />
    <glyph glyph-name="uniAC67" unicode="&#xac67;" 
 />
    <glyph glyph-name="uniAC68" unicode="&#xac68;" 
 />
    <glyph glyph-name="uniAC69" unicode="&#xac69;" 
 />
    <glyph glyph-name="uniAC6A" unicode="&#xac6a;" 
 />
    <glyph glyph-name="uniAC6B" unicode="&#xac6b;" 
 />
    <glyph glyph-name="uniAC6C" unicode="&#xac6c;" 
 />
    <glyph glyph-name="uniAC6D" unicode="&#xac6d;" 
 />
    <glyph glyph-name="uniAC6E" unicode="&#xac6e;" 
 />
    <glyph glyph-name="uniAC6F" unicode="&#xac6f;" 
 />
    <glyph glyph-name="uniAC70" unicode="&#xac70;" 
d="M778 812v-896h-124v451h-176v100h176v345h124zM265 360q79 109 94 261h-296v99h420q0 -144 -36 -260.5t-123.5 -214.5t-237.5 -173l-65 97q165 82 244 191z" />
    <glyph glyph-name="uniAC71" unicode="&#xac71;" 
d="M388 465.5q-105 -119.5 -303 -174.5l-48 97q143 38 225.5 109.5t97.5 164.5h-275v99h408q0 -176 -105 -295.5zM170 255h609v-336h-124v238h-485v98zM501 593h154v220h124v-522h-124v201h-154v101z" />
    <glyph glyph-name="uniAC72" unicode="&#xac72;" 
 />
    <glyph glyph-name="uniAC73" unicode="&#xac73;" 
 />
    <glyph glyph-name="uniAC74" unicode="&#xac74;" 
d="M780 813v-656h-125v293h-158v101h158v262h125zM268 467.5q86 78.5 102 178.5h-282v99h415q0 -179 -107.5 -308t-303.5 -192l-51 99q141 45 227 123.5zM194 223h125v-191h483v-99h-608v290z" />
    <glyph glyph-name="uniAC75" unicode="&#xac75;" 
 />
    <glyph glyph-name="uniAC76" unicode="&#xac76;" 
 />
    <glyph glyph-name="uniAC77" unicode="&#xac77;" 
d="M386.5 464.5q-105.5 -120.5 -304.5 -175.5l-47 96q144 39 226.5 111t97.5 166h-275v99h408q0 -176 -105.5 -296.5zM191 270h590v-98h-467v-147h484v-99h-607v344zM496 595h159v218h124v-501h-124v183h-159v100z" />
    <glyph glyph-name="uniAC78" unicode="&#xac78;" 
d="M779 813v-449h-124v157h-160v99h160v193h124zM262 533q77 63 89 148h-259v98h393q0 -343 -402 -438l-42 97q144 32 221 95zM189 329h590v-245h-465v-62h484v-97h-608v251h465v56h-466v97z" />
    <glyph glyph-name="uniAC79" unicode="&#xac79;" 
 />
    <glyph glyph-name="uniAC7A" unicode="&#xac7a;" 
d="M779 813v-463h-124v164h-157v98h157v201h124zM268.5 528.5q79.5 63.5 92.5 149.5h-273v98h405q0 -174 -103.5 -284t-305.5 -155l-43 95q148 33 227.5 96.5zM135 314h299v-232h-179v-61q62 1 104.5 4t87.5 11l10 -94q-56 -10 -111.5 -13t-156.5 -3h-53v242h179v54h-180v92
zM480 314h299v-388h-299v388zM672 16v207h-85v-207h85z" />
    <glyph glyph-name="uniAC7B" unicode="&#xac7b;" 
 />
    <glyph glyph-name="uniAC7C" unicode="&#xac7c;" 
 />
    <glyph glyph-name="uniAC7D" unicode="&#xac7d;" 
 />
    <glyph glyph-name="uniAC7E" unicode="&#xac7e;" 
 />
    <glyph glyph-name="uniAC7F" unicode="&#xac7f;" 
 />
    <glyph glyph-name="uniAC80" unicode="&#xac80;" 
d="M386 465.5q-105 -119.5 -303 -173.5l-48 96q143 38 225.5 109.5t97.5 164.5h-275v99h408q0 -176 -105 -295.5zM190 275h589v-348h-589v348zM657 24v153h-346v-153h346zM496 598h159v215h124v-502h-124v187h-159v100z" />
    <glyph glyph-name="uniAC81" unicode="&#xac81;" 
d="M779 813v-485h-124v178h-160v100h160v207h124zM267.5 505q79.5 67 92.5 158h-275v99h409q0 -352 -409 -457l-47 97q150 36 229.5 103zM186 288h122v-87h348v87h123v-362h-593v362zM656 25v80h-348v-80h348z" />
    <glyph glyph-name="uniAC82" unicode="&#xac82;" 
 />
    <glyph glyph-name="uniAC83" unicode="&#xac83;" 
d="M780 813v-597h-125v258h-157v100h157v239h125zM359 646h-271v99h404q0 -183 -98.5 -304t-299.5 -185l-52 97q289 86 317 293zM289 66q64 36 96 85t32 102v31h123v-31q0 -53 32.5 -101.5t96 -84.5t153.5 -50l-49 -97q-103 17 -178.5 62.5t-115.5 111.5
q-42 -66 -117.5 -112t-178.5 -64l-48 98q90 14 154 50z" />
    <glyph glyph-name="uniAC84" unicode="&#xac84;" 
d="M387.5 465.5q-105.5 -119.5 -303.5 -174.5l-48 97q144 38 226.5 109.5t97.5 164.5h-274v99h407q0 -176 -105.5 -295.5zM196.5 105q42.5 61 42.5 131v45h119v-45q0 -58 25.5 -111t77.5 -89q52 38 78.5 92t26.5 108v45h121v-45q0 -76 42 -135.5t127 -86.5l-62 -89
q-122 42 -170 155q-23 -55 -63.5 -97.5t-98.5 -66.5q-114 43 -163 161q-24 -53 -66 -92t-101 -60l-61 89q83 30 125.5 91zM498 598h158v215h124v-503h-124v187h-158v101z" />
    <glyph glyph-name="uniAC85" unicode="&#xac85;" 
d="M779 813v-514h-124v181h-154v100h154v233h124zM267 485q80 71 93 167h-274v100h407q0 -362 -408 -475l-48 97q150 40 230 111zM217.5 201.5q37.5 41.5 106 63.5t159.5 22q90 0 158 -22t105.5 -63.5t37.5 -97.5q0 -55 -37.5 -96.5t-105.5 -64t-158 -22.5t-159 22.5
t-106.5 64t-37.5 96.5q0 56 37.5 97.5zM350.5 39.5q47.5 -22.5 132.5 -22.5t132 22.5t47 64.5t-47 64.5t-132 22.5t-132.5 -22.5t-47.5 -64.5t47.5 -64.5z" />
    <glyph glyph-name="uniAC86" unicode="&#xac86;" 
d="M397 468.5q-109 -115.5 -315 -163.5l-44 98q152 34 236 102t97 157h-284v99h419q0 -177 -109 -292.5zM337.5 71q69.5 45 78.5 103h-231v100h601v-100h-236q6 -36 39 -69.5t92 -58t140 -34.5l-45 -93q-103 12 -178 51t-114 96q-39 -57 -114.5 -95.5t-180.5 -51.5l-43 93
q122 14 191.5 59zM497 592h158v221h125v-500h-125v178h-158v101z" />
    <glyph glyph-name="uniAC87" unicode="&#xac87;" 
 />
    <glyph glyph-name="uniAC88" unicode="&#xac88;" 
 />
    <glyph glyph-name="uniAC89" unicode="&#xac89;" 
d="M783 307v-91h-468v-54h453v-88h-453v-56h483v-91h-607v380h592zM269 515q80 67 92 157h-276v98h411q0 -177 -103.5 -290t-307.5 -162l-46 96q150 34 230 101zM498 605h157v208h124v-470h-124v162h-157v100z" />
    <glyph glyph-name="uniAC8A" unicode="&#xac8a;" 
d="M388.5 469.5q-106.5 -117.5 -303.5 -169.5l-46 98q143 36 225 105t97 159h-275v99h409q0 -174 -106.5 -291.5zM161 28h123v160h-113v97h614v-97h-112v-160h124v-98h-636v98zM551 28v160h-146v-160h146zM496 595h159v218h124v-488h-124v169h-159v101z" />
    <glyph glyph-name="uniAC8B" unicode="&#xac8b;" 
d="M382.5 482q-98.5 -108 -303.5 -156l-43 96q288 63 313 248h-263v97h395q0 -177 -98.5 -285zM160 292h253v92h125v-92h251v-93h-629v93zM289.5 137q67.5 33 185.5 33q119 0 186.5 -33t67.5 -93t-67.5 -93.5t-186.5 -33.5t-186 33.5t-67 93.5t67.5 93zM475 1q124 0 124 43
q0 41 -124 41t-124 -41q0 -43 124 -43zM495 621h160v192h124v-472h-124v180h-160v100z" />
    <glyph glyph-name="uniAC8C" unicode="&#xac8c;" 
d="M801 813v-896h-118v896h118zM218.5 370.5q65.5 100.5 78.5 236.5h-228v99h350q0 -135 -31 -239h106v326h116v-836h-116v411h-144q-79 -159 -260 -265l-70 87q133 80 198.5 180.5z" />
    <glyph glyph-name="uniAC8D" unicode="&#xac8d;" 
 />
    <glyph glyph-name="uniAC8E" unicode="&#xac8e;" 
 />
    <glyph glyph-name="uniAC8F" unicode="&#xac8f;" 
 />
    <glyph glyph-name="uniAC90" unicode="&#xac90;" 
d="M793 813v-668h-117v668h117zM214 462.5q64 71.5 77 168.5h-214v99h343q0 -105 -30 -191h105v257h115v-627h-115v271h-156q-81 -119 -253 -190l-60 91q124 50 188 121.5zM199 228h124v-196h505v-99h-629v295z" />
    <glyph glyph-name="uniAC91" unicode="&#xac91;" 
 />
    <glyph glyph-name="uniAC92" unicode="&#xac92;" 
 />
    <glyph glyph-name="uniAC93" unicode="&#xac93;" 
 />
    <glyph glyph-name="uniAC94" unicode="&#xac94;" 
d="M793 813v-449h-117v449h117zM216 517.5q62 60.5 75 144.5h-212v99h342q0 -84 -21 -153h95v188h115v-430h-115v145h-142q-79 -117 -261 -182l-58 90q120 38 182 98.5zM187 326h606v-242h-481v-61h511v-97h-635v249h483v55h-484v96z" />
    <glyph glyph-name="uniAC95" unicode="&#xac95;" 
 />
    <glyph glyph-name="uniAC96" unicode="&#xac96;" 
 />
    <glyph glyph-name="uniAC97" unicode="&#xac97;" 
 />
    <glyph glyph-name="uniAC98" unicode="&#xac98;" 
 />
    <glyph glyph-name="uniAC99" unicode="&#xac99;" 
 />
    <glyph glyph-name="uniAC9A" unicode="&#xac9a;" 
 />
    <glyph glyph-name="uniAC9B" unicode="&#xac9b;" 
 />
    <glyph glyph-name="uniAC9C" unicode="&#xac9c;" 
d="M397 579h97v217h115v-490h-115v175h-141q-79 -127 -259 -203l-61 89q121 49 184 119t76 165h-215v99h343q0 -93 -24 -171zM190 259h603v-329h-603v329zM672 27v135h-360v-135h360zM675 813h118v-515h-118v515z" />
    <glyph glyph-name="uniAC9D" unicode="&#xac9d;" 
d="M396 589h98v207h115v-469h-115v163h-144q-78 -120 -261 -188l-60 91q123 42 185.5 106.5t74.5 154.5h-209v99h338q0 -92 -22 -164zM188 288h123v-85h361v85h121v-358h-605v358zM672 27v79h-361v-79h361zM675 813h118v-491h-118v491z" />
    <glyph glyph-name="uniAC9E" unicode="&#xac9e;" 
 />
    <glyph glyph-name="uniAC9F" unicode="&#xac9f;" 
d="M793 813v-584h-117v584h117zM213.5 464q63.5 73 77.5 173h-218v99h346q0 -96 -23 -171h99v230h115v-489h-115v161h-141q-79 -136 -263 -219l-62 91q121 52 184.5 125zM288.5 63.5q65.5 34.5 99 82t33.5 98.5v28h123v-28q0 -51 33.5 -98.5t99 -82t157.5 -47.5l-47 -96
q-106 16 -184 61t-120 111q-43 -66 -121 -111t-184 -61l-46 96q91 13 156.5 47.5z" />
    <glyph glyph-name="uniACA0" unicode="&#xaca0;" 
d="M399 577h96v218h115v-481h-115v165h-142q-81 -128 -260 -202l-61 90q122 49 186 119t77 166h-217v99h346q0 -96 -25 -174zM198.5 102q42.5 60 42.5 131v42h119v-42q0 -58 25 -110.5t76 -88.5q53 38 79.5 91.5t26.5 107.5v42h121v-42q0 -75 42 -134t126 -86l-60 -90
q-121 43 -171 155q-49 -118 -161 -163q-116 43 -163 160q-52 -110 -168 -152l-60 90q83 29 125.5 89zM676 813h118v-510h-118v510z" />
    <glyph glyph-name="uniACA1" unicode="&#xaca1;" 
d="M399 577h95v218h116v-492h-116v176h-139q-81 -135 -268 -214l-60 92q123 50 188 121.5t79 169.5h-220v99h348q0 -90 -23 -170zM222 185.5q38 39.5 107.5 60.5t163.5 21t164 -21t108 -60.5t38 -92.5t-38 -92.5t-108 -60.5t-164 -21q-93 0 -163 21t-108 60.5t-38 92.5
t38 92.5zM356 33q49 -21 137 -21t136.5 21t48.5 60t-48 59.5t-137 20.5q-88 0 -137 -20.5t-49 -59.5t49 -60zM675 813h118v-539h-118v539z" />
    <glyph glyph-name="uniACA2" unicode="&#xaca2;" 
 />
    <glyph glyph-name="uniACA3" unicode="&#xaca3;" 
 />
    <glyph glyph-name="uniACA4" unicode="&#xaca4;" 
 />
    <glyph glyph-name="uniACA5" unicode="&#xaca5;" 
 />
    <glyph glyph-name="uniACA6" unicode="&#xaca6;" 
 />
    <glyph glyph-name="uniACA7" unicode="&#xaca7;" 
 />
    <glyph glyph-name="uniACA8" unicode="&#xaca8;" 
d="M474 582h180v231h124v-896h-124v321h-214v100h214v146h-201q-38 -130 -127.5 -233.5t-240.5 -178.5l-64 97q159 81 241 191.5t97 260.5h-295v99h420q0 -74 -10 -138z" />
    <glyph glyph-name="uniACA9" unicode="&#xaca9;" 
d="M497 667h158v146h124v-532h-124v96h-201v99h201v93h-187q-44 -104 -141 -176t-240 -111l-47 97q148 38 232.5 111t99.5 167h-282v99h415q0 -44 -8 -89zM170 243h609v-324h-124v226h-485v98z" />
    <glyph glyph-name="uniACAA" unicode="&#xacaa;" 
d="M497 677h158v136h124v-514h-124v88h-201v99h201v93h-186q-44 -104 -140.5 -176t-238.5 -110l-49 96q147 38 231 109t99 164h-281v99h414q0 -46 -7 -84zM141 261h303v-345h-124v246h-179v99zM483 261h296v-345h-124v246h-172v99z" />
    <glyph glyph-name="uniACAB" unicode="&#xacab;" 
 />
    <glyph glyph-name="uniACAC" unicode="&#xacac;" 
d="M780 813v-661h-125v187h-204v99h204v102h-190q-47 -102 -141.5 -176.5t-229.5 -117.5l-52 99q142 44 228.5 122.5t103.5 178.5h-284v99h418q0 -50 -10 -105h157v173h125zM194 216h125v-184h483v-99h-608v283z" />
    <glyph glyph-name="uniACAD" unicode="&#xacad;" 
 />
    <glyph glyph-name="uniACAE" unicode="&#xacae;" 
 />
    <glyph glyph-name="uniACAF" unicode="&#xacaf;" 
d="M491 685h164v128h124v-501h-124v80h-203v99h203v95h-191q-43 -106 -139.5 -180.5t-240.5 -112.5l-46 96q144 38 227.5 109t98.5 164h-280v99h412q0 -36 -5 -76zM191 270h590v-98h-467v-147h484v-99h-607v344z" />
    <glyph glyph-name="uniACB0" unicode="&#xacb0;" 
d="M779 813v-451h-124v69h-203v95h203v79h-193q-41 -100 -135.5 -165t-243.5 -98l-41 99q148 30 225 91.5t89 146.5h-264v99h401q0 -41 -6 -79h168v114h124zM189 328h590v-244h-465v-62h484v-97h-608v251h465v55h-466v97z" />
    <glyph glyph-name="uniACB1" unicode="&#xacb1;" 
 />
    <glyph glyph-name="uniACB2" unicode="&#xacb2;" 
 />
    <glyph glyph-name="uniACB3" unicode="&#xacb3;" 
 />
    <glyph glyph-name="uniACB4" unicode="&#xacb4;" 
 />
    <glyph glyph-name="uniACB5" unicode="&#xacb5;" 
 />
    <glyph glyph-name="uniACB6" unicode="&#xacb6;" 
 />
    <glyph glyph-name="uniACB7" unicode="&#xacb7;" 
d="M780 813v-445h-125v69h-204v92h204v80h-194q-81 -195 -378 -259l-41 99q147 29 224.5 89t89.5 143h-263v100h400q0 -41 -6 -79h168v111h125zM133 313h288v-230h-167v-63q63 1 106.5 4.5t89.5 11.5l11 -94q-57 -10 -114 -13t-160 -3h-53v243h168v53h-169v91zM455 271h122
v72h120v-72h125v-89h-367v89zM520 124.5q46 33.5 117 33.5q70 0 115.5 -33.5t45.5 -87.5q0 -55 -45 -88.5t-116 -33.5t-117 33.5t-46 88.5q0 54 46 87.5zM596 7.5q16 -10.5 41 -10.5q23 0 38.5 10.5t15.5 29.5t-15.5 28.5t-38.5 9.5q-25 0 -41 -9.5t-16 -28.5t16 -29.5z" />
    <glyph glyph-name="uniACB8" unicode="&#xacb8;" 
d="M655 504v87h-192q-41 -108 -137.5 -184t-242.5 -115l-47 96q143 38 226 109.5t98 164.5h-277v99h410q0 -33 -5 -71h167v123h124v-505h-124v95h-202v101h202zM190 272h589v-345h-589v345zM657 24v151h-346v-151h346z" />
    <glyph glyph-name="uniACB9" unicode="&#xacb9;" 
d="M655 506v85h-188q-80 -210 -381 -286l-47 97q150 36 230 103t92 158h-276v99h411q0 -34 -5 -72h164v123h124v-485h-124v78h-198v100h198zM186 288h122v-87h348v87h123v-362h-593v362zM656 25v80h-348v-80h348z" />
    <glyph glyph-name="uniACBA" unicode="&#xacba;" 
 />
    <glyph glyph-name="uniACBB" unicode="&#xacbb;" 
d="M655 472v92h-190q-79 -217 -371 -308l-52 98q292 86 319 292h-273v99h406q0 -38 -5 -83h166v151h125v-599h-125v160h-200v98h200zM289 66q64 36 96 85t32 102v29h123v-29q0 -53 32.5 -101.5t96 -84.5t153.5 -50l-49 -97q-103 17 -178.5 62.5t-115.5 111.5
q-42 -67 -117.5 -112t-178.5 -63l-48 97q90 14 154 50z" />
    <glyph glyph-name="uniACBC" unicode="&#xacbc;" 
d="M656 498v88h-191q-42 -106 -138.5 -180.5t-241.5 -114.5l-46 97q144 38 227 109.5t98 164.5h-278v99h411q0 -36 -5 -76h164v128h124v-503h-124v88h-200v100h200zM196.5 105q42.5 61 42.5 131v45h119v-45q0 -58 25.5 -111t77.5 -90q53 38 79 92.5t26 108.5v45h121v-45
q0 -76 42 -135.5t127 -86.5l-62 -89q-122 42 -170 155q-23 -55 -63.5 -97.5t-98.5 -66.5q-114 43 -163 161q-24 -53 -66 -92t-101 -60l-61 89q83 30 125.5 91z" />
    <glyph glyph-name="uniACBD" unicode="&#xacbd;" 
d="M655 483v87h-191q-82 -211 -378 -293l-48 97q151 40 231 111t92 167h-275v100h410q0 -44 -6 -83h165v144h124v-518h-124v89h-200v99h200zM217.5 198q37.5 41 106 63t159.5 22q90 0 158 -22t105.5 -63t37.5 -96t-37.5 -96t-105.5 -63t-158 -22q-91 0 -159.5 22t-106 63
t-37.5 96t37.5 96zM350.5 39q47.5 -22 132.5 -22t132 22t47 63q0 42 -47 64t-132 22t-132.5 -22t-47.5 -64q0 -41 47.5 -63z" />
    <glyph glyph-name="uniACBE" unicode="&#xacbe;" 
 />
    <glyph glyph-name="uniACBF" unicode="&#xacbf;" 
 />
    <glyph glyph-name="uniACC0" unicode="&#xacc0;" 
 />
    <glyph glyph-name="uniACC1" unicode="&#xacc1;" 
d="M655 517v84h-188q-81 -210 -382 -283l-46 96q150 34 230 101t93 157h-277v98h411q0 -36 -5 -76h164v119h124v-470h-124v81h-203v93h203zM191 307h592v-91h-468v-54h453v-88h-453v-56h483v-91h-607v380z" />
    <glyph glyph-name="uniACC2" unicode="&#xacc2;" 
 />
    <glyph glyph-name="uniACC3" unicode="&#xacc3;" 
 />
    <glyph glyph-name="uniACC4" unicode="&#xacc4;" 
d="M499 351v125h-111q-32 -115 -104.5 -208t-194.5 -165l-70 87q132 80 197 180.5t78 236.5h-225v99h347q0 -65 -8 -132h91v219h115v-836h-115v295h-128v99h128zM683 813h118v-896h-118v896z" />
    <glyph glyph-name="uniACC5" unicode="&#xacc5;" 
 />
    <glyph glyph-name="uniACC6" unicode="&#xacc6;" 
 />
    <glyph glyph-name="uniACC7" unicode="&#xacc7;" 
 />
    <glyph glyph-name="uniACC8" unicode="&#xacc8;" 
d="M497 430v99h-113q-35 -94 -109 -164.5t-191 -120.5l-60 91q124 51 188 124t77 172h-212v99h340q0 -57 -7 -102h87v168h115v-626h-115v161h-131v99h131zM195 229h124v-197h504v-99h-628v296zM676 813h117v-665h-117v665z" />
    <glyph glyph-name="uniACC9" unicode="&#xacc9;" 
 />
    <glyph glyph-name="uniACCA" unicode="&#xacca;" 
 />
    <glyph glyph-name="uniACCB" unicode="&#xaccb;" 
 />
    <glyph glyph-name="uniACCC" unicode="&#xaccc;" 
d="M497 524v73h-103q-32 -93 -107 -159t-196 -109l-59 90q119 39 181 99t75 144h-209v99h340q0 -40 -4 -69h82v104h115v-431h-115v65h-115v94h115zM187 326h606v-242h-481v-62h511v-97h-635v249h483v56h-484v96zM676 813h117v-451h-117v451z" />
    <glyph glyph-name="uniACCD" unicode="&#xaccd;" 
 />
    <glyph glyph-name="uniACCE" unicode="&#xacce;" 
 />
    <glyph glyph-name="uniACCF" unicode="&#xaccf;" 
 />
    <glyph glyph-name="uniACD0" unicode="&#xacd0;" 
 />
    <glyph glyph-name="uniACD1" unicode="&#xacd1;" 
 />
    <glyph glyph-name="uniACD2" unicode="&#xacd2;" 
 />
    <glyph glyph-name="uniACD3" unicode="&#xacd3;" 
 />
    <glyph glyph-name="uniACD4" unicode="&#xacd4;" 
 />
    <glyph glyph-name="uniACD5" unicode="&#xacd5;" 
d="M496 502v78h-105q-31 -96 -105 -164.5t-197 -115.5l-61 90q123 44 185 108.5t74 155.5h-207v99h336q0 -49 -5 -80h85v123h116v-472h-116v84h-110v94h110zM188 284h123v-83h361v83h121v-354h-605v354zM672 28v78h-361v-78h361zM675 813h118v-495h-118v495z" />
    <glyph glyph-name="uniACD6" unicode="&#xacd6;" 
 />
    <glyph glyph-name="uniACD7" unicode="&#xacd7;" 
d="M495 477v83h-103q-32 -103 -106.5 -180.5t-195.5 -132.5l-62 90q121 53 184 126.5t77 174.5h-216v99h344q0 -47 -5 -80h83v138h115v-502h-115v86h-112v98h112zM288.5 61.5q65.5 33.5 99 79.5t33.5 95v26h123v-26q0 -49 33.5 -95t99 -79.5t157.5 -45.5l-46 -96
q-106 15 -184.5 59t-120.5 108q-43 -64 -121.5 -108t-184.5 -59l-46 96q92 12 157.5 45.5zM676 813h117v-598h-117v598z" />
    <glyph glyph-name="uniACD8" unicode="&#xacd8;" 
 />
    <glyph glyph-name="uniACD9" unicode="&#xacd9;" 
 />
    <glyph glyph-name="uniACDA" unicode="&#xacda;" 
 />
    <glyph glyph-name="uniACDB" unicode="&#xacdb;" 
 />
    <glyph glyph-name="uniACDC" unicode="&#xacdc;" 
 />
    <glyph glyph-name="uniACDD" unicode="&#xacdd;" 
 />
    <glyph glyph-name="uniACDE" unicode="&#xacde;" 
 />
    <glyph glyph-name="uniACDF" unicode="&#xacdf;" 
 />
    <glyph glyph-name="uniACE0" unicode="&#xace0;" 
d="M762 736v-87q0 -115 -5.5 -208t-28.5 -219l-125 13q23 114 29 204.5t6 196.5h-524v100h648zM32 128h289v308h124v-308h397v-102h-810v102z" />
    <glyph glyph-name="uniACE1" unicode="&#xace1;" 
d="M335 400v168h124v-168h381v-99h-807v99h302zM116 223h621v-308h-125v209h-496v99zM124 768h619v-65q0 -70 -3.5 -127.5t-18.5 -127.5l-123 11q20 96 22 210h-496v99z" />
    <glyph glyph-name="uniACE2" unicode="&#xace2;" 
 />
    <glyph glyph-name="uniACE3" unicode="&#xace3;" 
 />
    <glyph glyph-name="uniACE4" unicode="&#xace4;" 
d="M743 762v-63q0 -73 -4 -133.5t-20 -133.5l-123 14q14 61 18.5 112t5.5 107h-496v97h619zM33 383h302v169h124v-169h381v-98h-807v98zM128 208h123v-177h512v-99h-635v276z" />
    <glyph glyph-name="uniACE5" unicode="&#xace5;" 
 />
    <glyph glyph-name="uniACE6" unicode="&#xace6;" 
 />
    <glyph glyph-name="uniACE7" unicode="&#xace7;" 
d="M743 774v-74q0 -72 -4 -125t-20 -115l-122 14q14 55 18.5 102t4.5 100h-496v98h619zM33 423h302v150h124v-150h381v-97h-807v97zM127 251h613v-98h-490v-128h503v-99h-626v325z" />
    <glyph glyph-name="uniACE8" unicode="&#xace8;" 
d="M743 779v-54q0 -57 -2.5 -105.5t-12.5 -106.5l-123 8q13 77 15 161h-496v97h619zM33 474h302v132h124v-132h381v-97h-807v97zM122 321h623v-239h-498v-63h521v-96h-644v243h498v58h-500v97z" />
    <glyph glyph-name="uniACE9" unicode="&#xace9;" 
 />
    <glyph glyph-name="uniACEA" unicode="&#xacea;" 
d="M743 775v-59q0 -62 -3 -113.5t-16 -111.5l-122 14q16 80 18 173h-496v97h619zM33 453h302v142h124v-142h381v-97h-807v97zM113 298h293v-225h-171v-60q68 1 107 3.5t78 9.5l7 -90q-48 -10 -97 -12t-164 -2h-51v235h172v52h-174v89zM456 298h296v-376h-296v376zM647 13
v196h-87v-196h87z" />
    <glyph glyph-name="uniACEB" unicode="&#xaceb;" 
 />
    <glyph glyph-name="uniACEC" unicode="&#xacec;" 
d="M670 311v-86q0 -71 36 -130t111 -89l-66 -86q-96 41 -140 140q-44 -98 -139 -140l-55 72l4 -56q-48 -9 -96 -11t-159 -2h-51v234h172v52h-174v89h293v-224h-171v-61q65 1 103 3.5t76 9.5l1 -16q70 33 104 91t34 124v86h117zM33 456h302v143h124v-143h381v-97h-807v97z
M124 778h619v-63q0 -64 -3 -113t-15 -106l-123 14q10 46 13.5 85.5t4.5 86.5h-496v96z" />
    <glyph glyph-name="uniACED" unicode="&#xaced;" 
 />
    <glyph glyph-name="uniACEE" unicode="&#xacee;" 
 />
    <glyph glyph-name="uniACEF" unicode="&#xacef;" 
d="M555 265v67h119v-67h132v-89h-383v89h132zM33 468h302v140h124v-140h381v-98h-807v98zM109 306h282v-225h-165v-61q75 1 116 3.5t83 9.5l11 -89q-52 -10 -104.5 -12.5t-167.5 -2.5h-53v236h165v52h-167v89zM124 782h619v-57q0 -61 -3 -111t-16 -109l-122 13q16 78 18 167
h-496v97zM499.5 120.5q43.5 32.5 113.5 32.5q71 0 115 -32.5t44 -86.5q0 -55 -44 -87t-115 -32q-70 0 -113.5 32t-43.5 87q0 54 43.5 86.5zM575 5.5q14 -9.5 38 -9.5q54 0 54 38q0 19 -14.5 28.5t-39.5 9.5q-24 0 -38 -9.5t-14 -28.5t14 -28.5z" />
    <glyph glyph-name="uniACF0" unicode="&#xacf0;" 
d="M741 252v-327h-616v327h616zM33 426h302v154h124v-154h381v-98h-807v98zM124 776h619v-73q0 -71 -4 -124t-20 -114l-122 14q14 54 18.5 100t4.5 99h-496v98zM620 24v132h-373v-132h373z" />
    <glyph glyph-name="uniACF1" unicode="&#xacf1;" 
d="M743 780v-57q0 -65 -4 -120t-19 -123l-123 11q21 92 23 191h-496v98h619zM34 438h301v148h124v-148h381v-97h-806v97zM129 286h122v-87h368v87h122v-361h-612v361zM619 24v82h-368v-82h368z" />
    <glyph glyph-name="uniACF2" unicode="&#xacf2;" 
 />
    <glyph glyph-name="uniACF3" unicode="&#xacf3;" 
d="M743 772v-70q0 -71 -3.5 -125.5t-17.5 -120.5l-123 13q21 96 21 204h-496v99h619zM33 406h302v167h124v-167h381v-98h-807v98zM240 57.5q66 31.5 98.5 75.5t32.5 92v28h124v-28q0 -48 32.5 -92t98 -75.5t159.5 -42.5l-44 -96q-109 15 -187.5 56.5t-121.5 103.5
q-42 -62 -120 -103.5t-187 -56.5l-45 96q94 11 160 42.5z" />
    <glyph glyph-name="uniACF4" unicode="&#xacf4;" 
 />
    <glyph glyph-name="uniACF5" unicode="&#xacf5;" 
d="M663 208q86 -45 86 -124q0 -52 -39 -90t-110.5 -58t-168.5 -20q-96 0 -167 20t-110 58t-39 90t39 90.5t110 58.5t167 20q146 0 232 -45zM33 411h302v157h124v-157h381v-99h-807v99zM124 771h619v-73q0 -72 -4 -125t-20 -115l-122 13q14 56 18.5 102.5t4.5 99.5h-496v98z
M288.5 28.5q50.5 -19.5 142.5 -19.5q94 0 144.5 19t50.5 56t-50.5 56.5t-144.5 19.5q-92 0 -142.5 -19.5t-50.5 -56.5q0 -36 50.5 -55.5z" />
    <glyph glyph-name="uniACF6" unicode="&#xacf6;" 
d="M749 269v-98h-244q16 -59 87.5 -102t193.5 -56l-43 -94q-109 13 -188 52t-119 98q-41 -60 -119.5 -98.5t-187.5 -51.5l-42 94q121 13 193 56t88 102h-246v98h627zM33 438h302v145h124v-145h381v-98h-807v98zM124 778h619v-70q0 -67 -4 -118.5t-20 -109.5l-122 14
q14 51 18.5 94.5t4.5 91.5h-496v98z" />
    <glyph glyph-name="uniACF7" unicode="&#xacf7;" 
 />
    <glyph glyph-name="uniACF8" unicode="&#xacf8;" 
 />
    <glyph glyph-name="uniACF9" unicode="&#xacf9;" 
 />
    <glyph glyph-name="uniACFA" unicode="&#xacfa;" 
 />
    <glyph glyph-name="uniACFB" unicode="&#xacfb;" 
 />
    <glyph glyph-name="uniACFC" unicode="&#xacfc;" 
d="M530 723v-71q0 -91 -4 -168t-21 -177l-121 10q24 149 24 307h-339v99h461zM187 201v265h122v-262q151 7 259 20l6 -90q-122 -21 -256 -28t-283 -7l-12 100q48 0 164 2zM610 813h123v-362h123v-102h-123v-432h-123v896z" />
    <glyph glyph-name="uniACFD" unicode="&#xacfd;" 
d="M530 756v-59q0 -66 -4 -122.5t-18 -124.5l-120 14q18 89 20 192h-336v100h458zM185 388v169h122v-165q139 6 263 24l7 -88q-123 -24 -258 -31.5t-288 -7.5l-12 98q106 0 166 1zM139 217h606v-298h-124v200h-482v98zM621 813h124v-234h109v-102h-109v-223h-124v559z" />
    <glyph glyph-name="uniACFE" unicode="&#xacfe;" 
 />
    <glyph glyph-name="uniACFF" unicode="&#xacff;" 
 />
    <glyph glyph-name="uniAD00" unicode="&#xad00;" 
d="M530 747v-55q0 -69 -4 -129.5t-18 -134.5l-120 14q18 95 20 206h-336v99h458zM185 364v175h122v-171q150 7 264 23l8 -88q-123 -23 -258 -30.5t-290 -8.5l-12 99q106 0 166 1zM150 201h124v-169h499v-99h-623v268zM621 813h124v-276h109v-101h-109v-294h-124v671z" />
    <glyph glyph-name="uniAD01" unicode="&#xad01;" 
 />
    <glyph glyph-name="uniAD02" unicode="&#xad02;" 
 />
    <glyph glyph-name="uniAD03" unicode="&#xad03;" 
 />
    <glyph glyph-name="uniAD04" unicode="&#xad04;" 
d="M530 774v-52q0 -60 -3.5 -111.5t-16.5 -111.5l-120 12q16 83 18 166h-336v97h458zM185 446v143h122v-140q157 5 264 18l8 -84q-123 -21 -258 -27.5t-291 -6.5l-11 96q107 0 166 1zM134 303h611v-230h-487v-57h516v-92h-639v235h486v53h-487v91zM621 813h124v-192h109
v-101h-109v-185h-124v478z" />
    <glyph glyph-name="uniAD05" unicode="&#xad05;" 
 />
    <glyph glyph-name="uniAD06" unicode="&#xad06;" 
d="M404 283v-216h-177v-55q70 1 109.5 3.5t78.5 10.5l8 -89q-49 -10 -98 -12t-166 -2h-52v226h177v48h-179v86h299zM185 443v143h122v-140q150 5 264 20l8 -86q-124 -21 -256.5 -27.5t-292.5 -6.5l-11 96q107 0 166 1zM72 774h458v-53q0 -60 -3.5 -111.5t-16.5 -112.5
l-120 12q16 84 18 168h-336v97zM449 283h296v-360h-296v360zM639 14v179h-84v-179h84zM621 813h124v-196h109v-100h-109v-197h-124v493z" />
    <glyph glyph-name="uniAD07" unicode="&#xad07;" 
 />
    <glyph glyph-name="uniAD08" unicode="&#xad08;" 
 />
    <glyph glyph-name="uniAD09" unicode="&#xad09;" 
 />
    <glyph glyph-name="uniAD0A" unicode="&#xad0a;" 
 />
    <glyph glyph-name="uniAD0B" unicode="&#xad0b;" 
 />
    <glyph glyph-name="uniAD0C" unicode="&#xad0c;" 
d="M530 766v-56q0 -63 -4 -116t-18 -118l-119 9q17 84 19 182h-336v99h458zM185 413v149h122v-145q160 7 264 22l8 -88q-123 -23 -256 -30t-292 -8l-12 99q106 0 166 1zM145 244h600v-314h-600v314zM624 28v119h-357v-119h357zM621 813h124v-217h109v-102h-109v-210h-124
v529z" />
    <glyph glyph-name="uniAD0D" unicode="&#xad0d;" 
d="M530 769v-53q0 -60 -3.5 -112.5t-16.5 -114.5l-120 12q16 85 18 169h-336v99h458zM185 435v141h122v-138q151 5 267 20l8 -89q-125 -21 -260.5 -27.5t-291.5 -6.5l-12 99q108 0 167 1zM145 273h123v-75h354v75h123v-347h-600v347zM622 26v77h-354v-77h354zM621 813h124
v-206h109v-101h-109v-199h-124v506z" />
    <glyph glyph-name="uniAD0E" unicode="&#xad0e;" 
 />
    <glyph glyph-name="uniAD0F" unicode="&#xad0f;" 
d="M530 762v-53q0 -64 -4 -119t-20 -123l-121 10q21 96 23 187h-336v98h458zM185 393v163h122v-159q161 7 265 22l7 -89q-124 -22 -259 -29t-289 -7l-12 98q107 0 166 1zM261 59.5q64 30.5 95.5 72.5t31.5 88v26h132v-26q0 -46 31.5 -88t96 -72.5t157.5 -41.5l-45 -98
q-108 14 -186 55t-119 103q-42 -62 -120 -103t-186 -55l-46 98q94 11 158 41.5zM621 813h124v-255h109v-103h-109v-253h-124v611z" />
    <glyph glyph-name="uniAD10" unicode="&#xad10;" 
d="M336 250v-21q0 -55 25 -106t76 -86q53 36 78.5 87t25.5 105v21h122v-20q0 -72 41.5 -128.5t126.5 -82.5l-60 -90q-120 40 -170 148q-50 -113 -163 -158q-114 42 -163 156q-49 -105 -167 -146l-61 90q84 27 126 84t42 127v20h121zM185 412v150h122v-147q150 5 264 20
l8 -88q-124 -21 -258 -28t-290 -7l-12 99q107 0 166 1zM72 766h458v-56q0 -63 -4 -116t-18 -118l-119 9q17 84 19 182h-336v99zM621 813h124v-218h109v-102h-109v-210h-124v530z" />
    <glyph glyph-name="uniAD11" unicode="&#xad11;" 
d="M530 763v-57q0 -64 -4 -117.5t-18 -118.5l-119 9q17 85 19 186h-336v98h458zM185 404v160h122v-157q154 7 264 20l8 -88q-124 -21 -260.5 -28t-287.5 -7l-12 99q107 0 166 1zM173.5 176.5q37.5 37.5 107 58t163.5 20.5t163.5 -20.5t107.5 -58.5t38 -89q0 -52 -37.5 -90.5
t-107.5 -59t-164 -20.5q-142 0 -225 45.5t-83 124.5q0 52 37.5 89.5zM308.5 32.5q46.5 -18.5 135.5 -18.5t135.5 18.5t46.5 54.5t-47 54.5t-135 18.5t-135 -18.5t-47 -54.5t46.5 -54.5zM621 813h124v-223h109v-102h-109v-223h-124v548z" />
    <glyph glyph-name="uniAD12" unicode="&#xad12;" 
 />
    <glyph glyph-name="uniAD13" unicode="&#xad13;" 
 />
    <glyph glyph-name="uniAD14" unicode="&#xad14;" 
 />
    <glyph glyph-name="uniAD15" unicode="&#xad15;" 
 />
    <glyph glyph-name="uniAD16" unicode="&#xad16;" 
 />
    <glyph glyph-name="uniAD17" unicode="&#xad17;" 
 />
    <glyph glyph-name="uniAD18" unicode="&#xad18;" 
d="M441 717v-68q0 -86 -3.5 -159.5t-17.5 -166.5l-113 9q21 140 21 286h-274v99h387zM139 220v247h114v-244q129 5 211 17l6 -90q-162 -32 -436 -32l-15 101q76 0 120 1zM504 797h115v-344h71v360h118v-896h-118v435h-71v-394h-115v839z" />
    <glyph glyph-name="uniAD19" unicode="&#xad19;" 
 />
    <glyph glyph-name="uniAD1A" unicode="&#xad1a;" 
 />
    <glyph glyph-name="uniAD1B" unicode="&#xad1b;" 
 />
    <glyph glyph-name="uniAD1C" unicode="&#xad1c;" 
d="M443 746v-59q0 -69 -3 -127.5t-16 -130.5l-114 11q16 97 18 206h-265v100h380zM145 364v175h113v-172q124 5 210 16l7 -88q-163 -31 -443 -31l-13 99q80 0 126 1zM167 204h126v-172h532v-99h-658v271zM505 796h115v-251h66v268h119v-677h-119v309h-66v-288h-115v639z" />
    <glyph glyph-name="uniAD1D" unicode="&#xad1d;" 
 />
    <glyph glyph-name="uniAD1E" unicode="&#xad1e;" 
d="M564 244v56h120v-56h157v-88h-436v88h159zM145 426v157h113v-153q122 5 210 19l7 -85q-96 -20 -207 -27t-235 -8l-14 96q79 0 126 1zM63 764h381v-51q0 -59 -2.5 -110t-13.5 -113l-114 10q12 81 14 167h-265v97zM141 256h121v-221q83 9 132 37l31 -95
q-45 -25 -103.5 -34.5t-131.5 -9.5h-49v323zM494.5 109q49.5 30 129.5 30q79 0 128.5 -30.5t49.5 -80.5q0 -52 -49.5 -82.5t-128.5 -30.5q-80 0 -129.5 30.5t-49.5 82.5q0 51 49.5 81zM505 795h116v-191h65v209h119v-486h-119v177h-65v-173h-116v464zM574.5 2.5
q18.5 -8.5 49.5 -8.5q30 0 48 8.5t18 25.5q0 16 -18 23.5t-48 7.5q-31 0 -49.5 -7.5t-18.5 -23.5q0 -17 18.5 -25.5z" />
    <glyph glyph-name="uniAD1F" unicode="&#xad1f;" 
 />
    <glyph glyph-name="uniAD20" unicode="&#xad20;" 
d="M443 764v-51q0 -59 -2.5 -110t-12.5 -113l-114 10q12 81 14 168h-265v96h380zM145 437v146h113v-142q124 5 210 16l7 -86q-168 -30 -442 -30l-14 95q80 0 126 1zM164 295h641v-226h-517v-54h540v-92h-663v232h517v49h-518v91zM505 796h116v-187h65v204h119v-486h-119v183
h-65v-179h-116v465z" />
    <glyph glyph-name="uniAD21" unicode="&#xad21;" 
 />
    <glyph glyph-name="uniAD22" unicode="&#xad22;" 
d="M444 293v-223h-194v-58q118 2 205 15l8 -89q-63 -10 -119 -12.5t-159 -2.5h-53v230h192v51h-194v89h314zM144 439v145h114v-141q124 5 210 16l6 -86q-154 -28 -441 -30l-14 95q79 0 125 1zM62 764h381v-51q0 -59 -2.5 -110t-12.5 -113l-115 10q13 80 15 168h-266v96z
M489 293h315v-370h-315v370zM504 796h116v-185h66v202h118v-483h-118v182h-66v-178h-116v462zM692 15v187h-90v-187h90z" />
    <glyph glyph-name="uniAD23" unicode="&#xad23;" 
 />
    <glyph glyph-name="uniAD24" unicode="&#xad24;" 
 />
    <glyph glyph-name="uniAD25" unicode="&#xad25;" 
 />
    <glyph glyph-name="uniAD26" unicode="&#xad26;" 
 />
    <glyph glyph-name="uniAD27" unicode="&#xad27;" 
 />
    <glyph glyph-name="uniAD28" unicode="&#xad28;" 
 />
    <glyph glyph-name="uniAD29" unicode="&#xad29;" 
d="M443 764v-56q0 -62 -3 -115t-15 -117l-114 8q15 87 17 183h-266v97h381zM144 417v154h114v-150q124 5 210 16l6 -86q-160 -28 -443 -30l-13 95q80 0 126 1zM170 268h123v-75h388v75h123v-342h-634v342zM681 26v73h-388v-73h388zM504 796h116v-200h66v217h118v-511h-118
v194h-66v-185h-116v485z" />
    <glyph glyph-name="uniAD2A" unicode="&#xad2a;" 
 />
    <glyph glyph-name="uniAD2B" unicode="&#xad2b;" 
 />
    <glyph glyph-name="uniAD2C" unicode="&#xad2c;" 
d="M444 756v-56q0 -63 -3 -116.5t-14 -119.5l-113 11q12 80 14 183h-265v98h381zM145 403v161h114v-157q116 5 210 18l7 -85q-94 -20 -203.5 -26.5t-239.5 -7.5l-13 96q79 0 125 1zM195.5 105.5q42.5 58.5 42.5 131.5v19h119v-19q0 -57 25.5 -109.5t77.5 -88.5
q53 37 78.5 89.5t25.5 108.5v19h122v-19q0 -75 42 -134t127 -85l-60 -90q-123 42 -172 153q-49 -117 -162 -162q-115 45 -163 160q-24 -52 -66.5 -91t-102.5 -60l-61 90q85 29 127.5 87.5zM505 796h116v-202h66v219h118v-526h-118v207h-66v-199h-116v501z" />
    <glyph glyph-name="uniAD2D" unicode="&#xad2d;" 
d="M443 751v-58q0 -63 -2.5 -117t-12.5 -121l-114 9q12 85 14 189h-266v98h381zM144 394v156h114v-152q116 5 208 18l7 -84q-156 -35 -441 -35l-13 96q79 0 125 1zM248 198.5q85 42.5 236 42.5q150 0 235 -42.5t85 -120.5t-85 -120.5t-235 -42.5q-151 0 -236 42.5t-85 120.5
t85 120.5zM484 9q193 0 193 69q0 70 -193 70q-98 0 -146 -17t-48 -53q0 -69 194 -69zM504 795h116v-208h66v226h118v-562h-118v236h-66v-207h-116v515z" />
    <glyph glyph-name="uniAD2E" unicode="&#xad2e;" 
 />
    <glyph glyph-name="uniAD2F" unicode="&#xad2f;" 
 />
    <glyph glyph-name="uniAD30" unicode="&#xad30;" 
 />
    <glyph glyph-name="uniAD31" unicode="&#xad31;" 
 />
    <glyph glyph-name="uniAD32" unicode="&#xad32;" 
 />
    <glyph glyph-name="uniAD33" unicode="&#xad33;" 
 />
    <glyph glyph-name="uniAD34" unicode="&#xad34;" 
d="M554 714v-66q0 -86 -4 -160t-18 -170l-122 13q23 139 23 285h-343v98h464zM206 194v245h122v-242q168 7 283 21l11 -89q-133 -22 -272.5 -29t-302.5 -7l-16 100q114 0 175 1zM662 814h123v-899h-123v899z" />
    <glyph glyph-name="uniAD35" unicode="&#xad35;" 
d="M546 756v-60q0 -67 -3.5 -123.5t-17.5 -125.5l-120 13q18 90 20 196h-328v100h449zM207 385v164h120v-161q165 7 278 21l6 -88q-129 -21 -264 -28t-300 -8l-16 99q114 0 176 1zM155 223h622v-307h-123v208h-499v99zM654 813h123v-549h-123v549z" />
    <glyph glyph-name="uniAD36" unicode="&#xad36;" 
 />
    <glyph glyph-name="uniAD37" unicode="&#xad37;" 
 />
    <glyph glyph-name="uniAD38" unicode="&#xad38;" 
d="M550 752v-70q0 -70 -3.5 -126.5t-17.5 -122.5l-121 16q21 96 21 204h-339v99h460zM212 363v175h120v-172q170 7 271 19l7 -88q-128 -21 -263 -27.5t-302 -7.5l-16 100q119 0 183 1zM181 198h123v-166h497v-99h-620v265zM655 813h123v-673h-123v673z" />
    <glyph glyph-name="uniAD39" unicode="&#xad39;" 
 />
    <glyph glyph-name="uniAD3A" unicode="&#xad3a;" 
 />
    <glyph glyph-name="uniAD3B" unicode="&#xad3b;" 
 />
    <glyph glyph-name="uniAD3C" unicode="&#xad3c;" 
d="M544 771v-52q0 -59 -3.5 -111.5t-17.5 -113.5l-120 13q17 82 19 167h-326v97h448zM210 443v143h120v-140q151 5 275 19l6 -84q-129 -21 -264 -28t-300 -8l-16 96q53 0 179 2zM164 297h615v-226h-491v-56h522v-92h-645v232h492v52h-493v90zM655 813h124v-480h-124v480z
" />
    <glyph glyph-name="uniAD3D" unicode="&#xad3d;" 
 />
    <glyph glyph-name="uniAD3E" unicode="&#xad3e;" 
 />
    <glyph glyph-name="uniAD3F" unicode="&#xad3f;" 
 />
    <glyph glyph-name="uniAD40" unicode="&#xad40;" 
 />
    <glyph glyph-name="uniAD41" unicode="&#xad41;" 
 />
    <glyph glyph-name="uniAD42" unicode="&#xad42;" 
 />
    <glyph glyph-name="uniAD43" unicode="&#xad43;" 
 />
    <glyph glyph-name="uniAD44" unicode="&#xad44;" 
d="M777 813v-539h-123v539h123zM207 403v149h120v-145q157 7 276 23l7 -85q-128 -23 -263.5 -31t-301.5 -10l-14 97q50 0 176 2zM97 761h448v-57q0 -64 -3 -117.5t-14 -118.5l-122 10q15 87 17 184h-326v99zM169 236h608v-310h-608v310zM657 24v114h-366v-114h366z" />
    <glyph glyph-name="uniAD45" unicode="&#xad45;" 
d="M777 811v-503h-123v503h123zM211 422v143h120v-140q172 7 272 19l7 -86q-129 -20 -269 -26.5t-296 -6.5l-14 95q54 0 180 2zM97 770h450v-58q0 -62 -3 -114.5t-14 -115.5l-120 11q15 84 17 179h-330v98zM170 272h122v-79h364v79h121v-346h-607v346zM656 25v73h-364v-73
h364z" />
    <glyph glyph-name="uniAD46" unicode="&#xad46;" 
 />
    <glyph glyph-name="uniAD47" unicode="&#xad47;" 
d="M778 813v-613h-123v613h123zM208 398v149h119v-146q153 5 277 19l7 -88q-130 -21 -268.5 -28t-295.5 -7l-15 100q114 0 176 1zM98 760h448v-71q0 -68 -3 -119.5t-15 -109.5l-122 14q11 50 14.5 93.5t3.5 94.5h-326v98zM282 62.5q64 33.5 96 79.5t32 96v18h126v-18
q0 -50 32 -96t96 -79.5t156 -46.5l-46 -95q-106 16 -183.5 60t-117.5 109q-40 -65 -117.5 -109t-183.5 -60l-45 95q91 13 155 46.5z" />
    <glyph glyph-name="uniAD48" unicode="&#xad48;" 
 />
    <glyph glyph-name="uniAD49" unicode="&#xad49;" 
d="M777 813v-552h-123v552h123zM207 396v152h120v-149q161 7 276 20l7 -85q-128 -21 -261 -27.5t-304 -7.5l-14 96q114 0 176 1zM97 762h449v-65q0 -68 -3.5 -123t-16.5 -119l-119 15q17 94 17 194h-327v98zM239.5 206q83.5 44 229.5 44q145 0 228.5 -44t83.5 -122
q0 -79 -83.5 -123.5t-228.5 -44.5q-146 0 -229.5 44.5t-83.5 123.5q0 78 83.5 122zM332 29.5q47 -18.5 137 -18.5t137 18.5t47 54.5q0 35 -47.5 53t-136.5 18q-90 0 -137 -18t-47 -53q0 -36 47 -54.5z" />
    <glyph glyph-name="uniAD4A" unicode="&#xad4a;" 
 />
    <glyph glyph-name="uniAD4B" unicode="&#xad4b;" 
 />
    <glyph glyph-name="uniAD4C" unicode="&#xad4c;" 
 />
    <glyph glyph-name="uniAD4D" unicode="&#xad4d;" 
 />
    <glyph glyph-name="uniAD4E" unicode="&#xad4e;" 
 />
    <glyph glyph-name="uniAD4F" unicode="&#xad4f;" 
 />
    <glyph glyph-name="uniAD50" unicode="&#xad50;" 
d="M767 736v-89q0 -113 -5.5 -203.5t-26.5 -209.5l-123 13q19 109 24.5 196.5t5.5 192.5h-532v100h657zM32 128h173v283h122v-283h99v283h122v-283h294v-102h-810v102z" />
    <glyph glyph-name="uniAD51" unicode="&#xad51;" 
 />
    <glyph glyph-name="uniAD52" unicode="&#xad52;" 
 />
    <glyph glyph-name="uniAD53" unicode="&#xad53;" 
 />
    <glyph glyph-name="uniAD54" unicode="&#xad54;" 
d="M754 764v-66q0 -74 -3 -133.5t-16 -130.5l-122 11q18 107 18 221h-512v98h635zM33 373h174v169h122v-169h105v169h121v-169h285v-98h-807v98zM128 205h123v-175h512v-98h-635v273z" />
    <glyph glyph-name="uniAD55" unicode="&#xad55;" 
 />
    <glyph glyph-name="uniAD56" unicode="&#xad56;" 
 />
    <glyph glyph-name="uniAD57" unicode="&#xad57;" 
 />
    <glyph glyph-name="uniAD58" unicode="&#xad58;" 
d="M754 783v-61q0 -60 -2.5 -108t-13.5 -103l-120 11q11 71 13 163h-512v98h635zM33 471h176v140h121v-140h101v140h121v-140h288v-97h-807v97zM122 321h623v-239h-498v-63h521v-96h-644v243h498v58h-500v97z" />
    <glyph glyph-name="uniAD59" unicode="&#xad59;" 
 />
    <glyph glyph-name="uniAD5A" unicode="&#xad5a;" 
 />
    <glyph glyph-name="uniAD5B" unicode="&#xad5b;" 
 />
    <glyph glyph-name="uniAD5C" unicode="&#xad5c;" 
 />
    <glyph glyph-name="uniAD5D" unicode="&#xad5d;" 
 />
    <glyph glyph-name="uniAD5E" unicode="&#xad5e;" 
 />
    <glyph glyph-name="uniAD5F" unicode="&#xad5f;" 
 />
    <glyph glyph-name="uniAD60" unicode="&#xad60;" 
d="M741 252v-327h-616v327h616zM33 419h174v149h122v-149h105v149h121v-149h285v-98h-807v98zM119 779h635v-63q0 -66 -3 -121t-16 -121l-121 11q15 85 17 196h-512v98zM620 24v132h-373v-132h373z" />
    <glyph glyph-name="uniAD61" unicode="&#xad61;" 
d="M752 781v-55q0 -65 -3.5 -122.5t-17.5 -127.5l-121 15q17 89 19 192h-514v98h637zM34 434h173v151h122v-151h96v151h122v-151h293v-98h-806v98zM129 286h122v-88h368v88h122v-360h-612v360zM619 24v82h-368v-82h368z" />
    <glyph glyph-name="uniAD62" unicode="&#xad62;" 
 />
    <glyph glyph-name="uniAD63" unicode="&#xad63;" 
d="M763 775v-78q0 -73 -3.5 -127t-16.5 -116l-122 11q12 56 15.5 105t3.5 107h-519v98h642zM32 401h178v169h122v-169h97v169h121v-169h292v-99h-810v99zM240 57.5q66 31.5 98.5 75.5t32.5 92v28h124v-28q0 -48 32.5 -92t98 -75.5t159.5 -42.5l-44 -96q-108 15 -187 56.5
t-122 104.5q-42 -63 -120.5 -104.5t-186.5 -56.5l-45 96q94 11 160 42.5z" />
    <glyph glyph-name="uniAD64" unicode="&#xad64;" 
 />
    <glyph glyph-name="uniAD65" unicode="&#xad65;" 
d="M754 772v-64q0 -68 -3 -124t-16 -124l-121 12q17 101 17 203h-512v97h635zM33 405h174v154h122v-154h105v154h121v-154h285v-99h-807v99zM154 174.5q39 38.5 110 58.5t167 20q146 0 232 -45t86 -124q0 -52 -39 -90t-110.5 -58t-168.5 -20q-96 0 -167 20t-110 58t-39 90
t39 90.5zM288.5 28.5q50.5 -19.5 142.5 -19.5q94 0 144.5 19t50.5 56t-50.5 56.5t-144.5 19.5q-92 0 -142.5 -19.5t-50.5 -56.5q0 -36 50.5 -55.5z" />
    <glyph glyph-name="uniAD66" unicode="&#xad66;" 
 />
    <glyph glyph-name="uniAD67" unicode="&#xad67;" 
 />
    <glyph glyph-name="uniAD68" unicode="&#xad68;" 
 />
    <glyph glyph-name="uniAD69" unicode="&#xad69;" 
 />
    <glyph glyph-name="uniAD6A" unicode="&#xad6a;" 
 />
    <glyph glyph-name="uniAD6B" unicode="&#xad6b;" 
 />
    <glyph glyph-name="uniAD6C" unicode="&#xad6c;" 
d="M746 760v-80q0 -86 -4 -152t-19 -150h119v-101h-347v-362h-125v362h-338v101h567q15 78 20 143.5t5 139.5h-499v99h621z" />
    <glyph glyph-name="uniAD6D" unicode="&#xad6d;" 
d="M746 773v-70q0 -70 -3 -123t-15 -117h115v-99h-345v-130h250v-318h-123v220h-512v98h261v130h-342v99h573q20 100 20 212h-493v98h614z" />
    <glyph glyph-name="uniAD6E" unicode="&#xad6e;" 
 />
    <glyph glyph-name="uniAD6F" unicode="&#xad6f;" 
 />
    <glyph glyph-name="uniAD70" unicode="&#xad70;" 
d="M747 771v-78q0 -76 -3 -133.5t-16 -127.5h115v-98h-338v-193h-125v193h-348v98h572q13 66 17 121.5t4 118.5h-493v99h615zM126 221h124v-190h511v-99h-635v289z" />
    <glyph glyph-name="uniAD71" unicode="&#xad71;" 
 />
    <glyph glyph-name="uniAD72" unicode="&#xad72;" 
 />
    <glyph glyph-name="uniAD73" unicode="&#xad73;" 
d="M746 774v-71q0 -68 -3 -120.5t-14 -114.5h114v-99h-345v-117h248v-97h-496v-131h508v-99h-631v327h247v117h-342v99h574q19 99 19 207h-493v99h614z" />
    <glyph glyph-name="uniAD74" unicode="&#xad74;" 
d="M746 778v-61q0 -60 -2.5 -108t-13.5 -106h113v-97h-345v-85h247v-240h-498v-62h521v-96h-644v242h498v59h-500v97h252v85h-342v97h575q16 83 18 178h-493v97h614z" />
    <glyph glyph-name="uniAD75" unicode="&#xad75;" 
d="M746 779v-61q0 -61 -2.5 -110t-13.5 -107h113v-99h-345v-105h252v-379h-121v282h-170v89h-43v-220h-180v-56q97 1 146 4.5t94 14.5l11 -89q-53 -14 -113 -17.5t-199 -3.5h-59v233h180v51h-182v91h260v105h-342v99h574q17 82 19 179h-493v99h614z" />
    <glyph glyph-name="uniAD76" unicode="&#xad76;" 
d="M746 778v-60q0 -62 -3 -112.5t-14 -110.5h114v-98h-346v-99h255v-375h-296v351h-50v-201h-171v-60q64 0 104 3t81 10l7 -90q-48 -9 -97 -11t-163 -2h-52v234h172v52h-174v89h260v99h-341v98h573q18 86 20 185h-493v98h614zM647 13v196h-87v-196h87z" />
    <glyph glyph-name="uniAD77" unicode="&#xad77;" 
 />
    <glyph glyph-name="uniAD78" unicode="&#xad78;" 
 />
    <glyph glyph-name="uniAD79" unicode="&#xad79;" 
 />
    <glyph glyph-name="uniAD7A" unicode="&#xad7a;" 
 />
    <glyph glyph-name="uniAD7B" unicode="&#xad7b;" 
d="M746 779v-54q0 -59 -2.5 -110t-12.5 -112h112v-98h-351v-113h-101v-217h-165v-55q75 1 116 3.5t83 9.5l11 -89q-52 -10 -104.5 -12.5t-167.5 -2.5h-53v232h165v49h-167v88h259v107h-336v98h575q16 83 18 179h-493v97h614zM423 260h132v74h119v-74h132v-88h-383v88z
M499.5 119.5q43.5 32.5 113.5 32.5q71 0 115 -32.5t44 -86.5t-44 -86t-115 -32q-70 0 -113.5 32t-43.5 86t43.5 86.5zM575 4q14 -10 38 -10q25 0 39.5 9.5t14.5 29.5t-14.5 30t-39.5 10q-23 0 -37.5 -10t-14.5 -30q0 -19 14 -29z" />
    <glyph glyph-name="uniAD7C" unicode="&#xad7c;" 
d="M745 777v-71q0 -68 -3 -121t-15 -116h116v-100h-345v-118h245v-325h-616v325h247v118h-342v100h572q19 100 19 209h-495v99h617zM622 24v130h-374v-130h374z" />
    <glyph glyph-name="uniAD7D" unicode="&#xad7d;" 
d="M745 779v-70q0 -67 -3 -119t-14 -113h115v-99h-348v-126h-123v126h-340v99h573q18 97 18 203h-495v99h617zM126 295h123v-93h370v93h123v-369h-616v369zM619 23v85h-370v-85h370z" />
    <glyph glyph-name="uniAD7E" unicode="&#xad7e;" 
 />
    <glyph glyph-name="uniAD7F" unicode="&#xad7f;" 
d="M746 777v-60q0 -66 -3 -121t-16 -124h116v-98h-346v-121h-124v121h-341v98h572q19 95 21 206h-493v99h614zM241 50.5q65 27.5 97.5 65.5t32.5 78v25h127v-25q0 -41 32 -79t96 -65.5t157 -36.5l-40 -93q-111 12 -190 49.5t-120 95.5q-42 -58 -120 -96t-186 -49l-42 93
q91 10 156 37.5z" />
    <glyph glyph-name="uniAD80" unicode="&#xad80;" 
 />
    <glyph glyph-name="uniAD81" unicode="&#xad81;" 
d="M746 779v-70q0 -69 -3 -122.5t-15 -117.5h115v-99h-345v-112q119 -10 185.5 -54t66.5 -116q0 -81 -83.5 -126.5t-230.5 -45.5t-230.5 45.5t-83.5 126.5q0 72 66.5 116t185.5 54v112h-342v99h572q21 99 21 212h-493v98h614zM436 14q190 0 190 74q0 73 -190 73t-190 -73
q0 -74 190 -74z" />
    <glyph glyph-name="uniAD82" unicode="&#xad82;" 
d="M746 775v-55q0 -64 -3 -119t-15 -124h115v-99h-345v-106h251v-97h-245q14 -60 86.5 -104t195.5 -57l-43 -95q-110 13 -188.5 52t-118.5 99q-41 -60 -119 -99t-188 -52l-42 95q122 13 194.5 57t87.5 104h-247v97h251v106h-341v99h574q17 93 19 200h-493v98h614z" />
    <glyph glyph-name="uniAD83" unicode="&#xad83;" 
 />
    <glyph glyph-name="uniAD84" unicode="&#xad84;" 
 />
    <glyph glyph-name="uniAD85" unicode="&#xad85;" 
 />
    <glyph glyph-name="uniAD86" unicode="&#xad86;" 
 />
    <glyph glyph-name="uniAD87" unicode="&#xad87;" 
 />
    <glyph glyph-name="uniAD88" unicode="&#xad88;" 
d="M790 813v-897h-126v235h-180v96h180v566h126zM385 410q21 115 23 236h-315v99h436v-56q0 -70 -3.5 -131.5t-17.5 -139.5q49 3 95 9l8 -88q-101 -16 -246 -27v-356h-123v350q-109 -3 -207 -3l-16 98q242 2 366 9z" />
    <glyph glyph-name="uniAD89" unicode="&#xad89;" 
d="M791 813v-574h-125v54h-176v89h176v431h125zM391 512q15 86 17 163h-302v98h423v-45q0 -52 -3 -99.5t-13 -107.5l89 9l8 -88q-118 -19 -246 -27v-175h-123v168q-97 -4 -204 -4l-16 99q244 2 370 9zM159 202h631v-285h-124v189h-507v96z" />
    <glyph glyph-name="uniAD8A" unicode="&#xad8a;" 
 />
    <glyph glyph-name="uniAD8B" unicode="&#xad8b;" 
 />
    <glyph glyph-name="uniAD8C" unicode="&#xad8c;" 
d="M789 813v-675h-124v100h-175v95h175v480h124zM390 482q16 106 18 187h-302v98h426v-31q0 -57 -3 -113.5t-15 -130.5q30 3 88 11l7 -88q-103 -18 -224 -28v-193h-114v-162h538v-99h-662v273h114v173q-132 -5 -221 -5l-15 99q219 0 365 9z" />
    <glyph glyph-name="uniAD8D" unicode="&#xad8d;" 
 />
    <glyph glyph-name="uniAD8E" unicode="&#xad8e;" 
 />
    <glyph glyph-name="uniAD8F" unicode="&#xad8f;" 
 />
    <glyph glyph-name="uniAD90" unicode="&#xad90;" 
d="M791 813v-501h-125v36h-176v80h176v385h125zM389 543q14 75 18 141h-294v98h415v-33q0 -109 -16 -196q36 3 95 11l9 -83q-108 -20 -252 -30v-138h-125v131q-93 -4 -197 -4l-14 94q237 2 361 9zM167 283h624v-220h-501v-51h529v-89h-651v223h500v48h-501v89z" />
    <glyph glyph-name="uniAD91" unicode="&#xad91;" 
 />
    <glyph glyph-name="uniAD92" unicode="&#xad92;" 
 />
    <glyph glyph-name="uniAD93" unicode="&#xad93;" 
 />
    <glyph glyph-name="uniAD94" unicode="&#xad94;" 
 />
    <glyph glyph-name="uniAD95" unicode="&#xad95;" 
 />
    <glyph glyph-name="uniAD96" unicode="&#xad96;" 
 />
    <glyph glyph-name="uniAD97" unicode="&#xad97;" 
 />
    <glyph glyph-name="uniAD98" unicode="&#xad98;" 
 />
    <glyph glyph-name="uniAD99" unicode="&#xad99;" 
 />
    <glyph glyph-name="uniAD9A" unicode="&#xad9a;" 
 />
    <glyph glyph-name="uniAD9B" unicode="&#xad9b;" 
 />
    <glyph glyph-name="uniAD9C" unicode="&#xad9c;" 
d="M792 813v-537h-126v41h-175v91h175v405h126zM393 532q14 79 16 150h-302v97h423v-42q0 -49 -2.5 -94t-11.5 -101q36 4 87 11l8 -89q-120 -21 -246 -30v-157h-123v151q-97 -4 -204 -4l-16 98q244 2 371 10zM217.5 103q40.5 56 40.5 124v18h120v-18q0 -53 24 -102.5
t73 -83.5q49 35 73 84.5t24 101.5v18h123v-18q0 -71 40 -126t122 -80l-60 -90q-117 38 -165 145q-22 -52 -61 -92t-95 -62q-110 42 -157 151q-51 -104 -163 -142l-60 90q81 26 121.5 82z" />
    <glyph glyph-name="uniAD9D" unicode="&#xad9d;" 
d="M790 813v-566h-125v50h-175v88h175v428h125zM391 510q16 78 20 166h-303v97h423v-47q0 -54 -3 -101.5t-14 -104.5q58 6 91 10l8 -85q-111 -19 -250 -29v-163h-124v156q-95 -4 -199 -4l-14 95q240 2 365 10zM248 195.5q83 41.5 233 41.5q149 0 232 -41.5t83 -118.5
t-83 -119t-232 -42q-150 0 -233 41.5t-83 119.5q0 77 83 118.5zM339 26.5q47 -16.5 142 -16.5t141.5 16.5t46.5 50.5q0 66 -188 66q-95 0 -142 -16t-47 -50t47 -50.5z" />
    <glyph glyph-name="uniAD9E" unicode="&#xad9e;" 
 />
    <glyph glyph-name="uniAD9F" unicode="&#xad9f;" 
 />
    <glyph glyph-name="uniADA0" unicode="&#xada0;" 
 />
    <glyph glyph-name="uniADA1" unicode="&#xada1;" 
 />
    <glyph glyph-name="uniADA2" unicode="&#xada2;" 
 />
    <glyph glyph-name="uniADA3" unicode="&#xada3;" 
 />
    <glyph glyph-name="uniADA4" unicode="&#xada4;" 
d="M812 813v-896h-118v896h118zM287 421q21 104 23 201h-245v98h363v-43q0 -61 -3.5 -118t-16.5 -129q43 4 66 7l8 -87q-75 -14 -174 -22v-339h-116v331q-88 -3 -162 -3l-12 98q153 0 269 6zM375 260h141v537h116v-838h-116v204h-141v97z" />
    <glyph glyph-name="uniADA5" unicode="&#xada5;" 
 />
    <glyph glyph-name="uniADA6" unicode="&#xada6;" 
 />
    <glyph glyph-name="uniADA7" unicode="&#xada7;" 
 />
    <glyph glyph-name="uniADA8" unicode="&#xada8;" 
 />
    <glyph glyph-name="uniADA9" unicode="&#xada9;" 
 />
    <glyph glyph-name="uniADAA" unicode="&#xadaa;" 
 />
    <glyph glyph-name="uniADAB" unicode="&#xadab;" 
 />
    <glyph glyph-name="uniADAC" unicode="&#xadac;" 
 />
    <glyph glyph-name="uniADAD" unicode="&#xadad;" 
 />
    <glyph glyph-name="uniADAE" unicode="&#xadae;" 
 />
    <glyph glyph-name="uniADAF" unicode="&#xadaf;" 
 />
    <glyph glyph-name="uniADB0" unicode="&#xadb0;" 
 />
    <glyph glyph-name="uniADB1" unicode="&#xadb1;" 
 />
    <glyph glyph-name="uniADB2" unicode="&#xadb2;" 
 />
    <glyph glyph-name="uniADB3" unicode="&#xadb3;" 
 />
    <glyph glyph-name="uniADB4" unicode="&#xadb4;" 
d="M803 226v-300h-635v300h635zM288 518q14 72 18 148h-233v98h352v-38q0 -50 -3 -96t-14 -103q44 4 65 7l7 -84q-71 -14 -169 -22v-162h-116v155q-81 -4 -165 -4l-11 95q153 0 269 6zM681 22v109h-391v-109h391zM368 398h144v399h115v-529h-115v40h-144v90zM685 813h118
v-552h-118v552z" />
    <glyph glyph-name="uniADB5" unicode="&#xadb5;" 
 />
    <glyph glyph-name="uniADB6" unicode="&#xadb6;" 
 />
    <glyph glyph-name="uniADB7" unicode="&#xadb7;" 
d="M804 813v-637h-119v637h119zM288 504q15 73 19 153h-234v98h352v-39q0 -50 -3 -97.5t-14 -105.5q41 4 65 7l8 -87q-71 -14 -169 -22v-207h-117v200q-81 -4 -165 -4l-11 98q153 0 269 6zM291 49q65 27 96.5 65.5t31.5 82.5v16h125v-16q0 -69 71.5 -120t210.5 -65l-43 -94
q-108 13 -184.5 50t-117.5 94q-42 -57 -120.5 -94t-187.5 -50l-43 94q96 10 161 37zM369 376h143v418h115v-568h-115v61h-143v89z" />
    <glyph glyph-name="uniADB8" unicode="&#xadb8;" 
d="M804 813v-552h-118v552h118zM289 519q14 70 18 147h-234v98h352v-38q0 -50 -3 -96t-14 -103q44 4 65 7l8 -84q-71 -14 -168 -22v-162h-118v155q-80 -4 -164 -4l-12 95q157 0 270 7zM194 96q43 54 43 120v16h120v-16q0 -52 25.5 -100.5t76.5 -81.5q52 34 78 82.5t26 99.5
v16h122v-16q0 -68 42.5 -121.5t127.5 -76.5l-58 -90q-123 37 -175 144q-23 -52 -63.5 -91.5t-98.5 -61.5q-115 42 -163 151q-24 -50 -67 -86.5t-104 -55.5l-59 90q84 24 127 78zM369 398h143v398h116v-528h-116v40h-143v90z" />
    <glyph glyph-name="uniADB9" unicode="&#xadb9;" 
 />
    <glyph glyph-name="uniADBA" unicode="&#xadba;" 
 />
    <glyph glyph-name="uniADBB" unicode="&#xadbb;" 
 />
    <glyph glyph-name="uniADBC" unicode="&#xadbc;" 
 />
    <glyph glyph-name="uniADBD" unicode="&#xadbd;" 
 />
    <glyph glyph-name="uniADBE" unicode="&#xadbe;" 
 />
    <glyph glyph-name="uniADBF" unicode="&#xadbf;" 
 />
    <glyph glyph-name="uniADC0" unicode="&#xadc0;" 
d="M791 813v-896h-125v896h125zM382 407q23 126 25 245h-309v99h432v-50q0 -71 -4 -136.5t-19 -150.5q71 6 108 10l9 -90q-117 -17 -248 -25v-344h-125v338q-97 -4 -210 -4l-15 101q236 2 356 7z" />
    <glyph glyph-name="uniADC1" unicode="&#xadc1;" 
d="M776 813v-539h-124v539h124zM382 478q18 96 20 194h-297v98h420v-55q0 -61 -3 -112.5t-15 -114.5q51 5 98 12l7 -88q-104 -19 -235 -29v-149h399v-319h-124v221h-496v98h97v141q-71 -3 -212 -5l-15 99q212 0 356 9z" />
    <glyph glyph-name="uniADC2" unicode="&#xadc2;" 
 />
    <glyph glyph-name="uniADC3" unicode="&#xadc3;" 
 />
    <glyph glyph-name="uniADC4" unicode="&#xadc4;" 
d="M393 458q16 86 20 200h-307v99h430v-46q0 -61 -3 -117t-14 -126q58 6 86 10l9 -86q-97 -19 -215 -29v-184h-124v176q-104 -5 -232 -5l-16 99q220 0 366 9zM147 207h123v-175h529v-99h-652v274zM653 813h123v-670h-123v670z" />
    <glyph glyph-name="uniADC5" unicode="&#xadc5;" 
 />
    <glyph glyph-name="uniADC6" unicode="&#xadc6;" 
 />
    <glyph glyph-name="uniADC7" unicode="&#xadc7;" 
 />
    <glyph glyph-name="uniADC8" unicode="&#xadc8;" 
d="M776 813v-461h-123v461h123zM390 519q15 77 19 163h-298v97h420v-47q0 -53 -3 -100.5t-14 -103.5q46 3 91 9l7 -85q-108 -17 -237 -25v-112h401v-237h-481v-61h511v-94h-634v243h480v56h-482v93h80v106q-68 -3 -207 -5l-15 96q213 0 362 7z" />
    <glyph glyph-name="uniADC9" unicode="&#xadc9;" 
 />
    <glyph glyph-name="uniADCA" unicode="&#xadca;" 
 />
    <glyph glyph-name="uniADCB" unicode="&#xadcb;" 
 />
    <glyph glyph-name="uniADCC" unicode="&#xadcc;" 
 />
    <glyph glyph-name="uniADCD" unicode="&#xadcd;" 
 />
    <glyph glyph-name="uniADCE" unicode="&#xadce;" 
 />
    <glyph glyph-name="uniADCF" unicode="&#xadcf;" 
 />
    <glyph glyph-name="uniADD0" unicode="&#xadd0;" 
d="M776 813v-519h-124v519h124zM386 476q14 84 16 190h-297v99h420v-60q0 -61 -2 -110.5t-11 -108.5q50 5 93 12l7 -89q-103 -19 -232 -29v-129h396v-325h-598v325h78v122q-96 -5 -215 -5l-15 99q215 0 360 9zM655 24v131h-356v-131h356z" />
    <glyph glyph-name="uniADD1" unicode="&#xadd1;" 
d="M776 813v-509h-124v509h124zM389 513q17 81 19 174h-303v100h426v-59q0 -57 -3 -104t-14 -103l88 9l8 -89q-108 -17 -237 -25v-130h-124v124q-99 -4 -209 -4l-14 99q240 2 363 8zM165 266h122v-74h366v74h123v-340h-611v340zM653 23v76h-366v-76h366z" />
    <glyph glyph-name="uniADD2" unicode="&#xadd2;" 
 />
    <glyph glyph-name="uniADD3" unicode="&#xadd3;" 
d="M776 813v-628h-124v628h124zM388 477q18 90 20 197h-296v99h419v-59q0 -62 -3 -113t-14 -114q56 6 88 10l8 -89q-104 -18 -242 -27v-181h-124v174q-106 -3 -198 -3l-15 98q212 0 357 8zM307 59q64 32 96 76t32 94v21h127v-21q0 -50 31 -94.5t93 -76t152 -43.5l-47 -96
q-104 16 -178 58.5t-114 105.5q-41 -63 -118.5 -105.5t-186.5 -58.5l-45 96q94 12 158 44z" />
    <glyph glyph-name="uniADD4" unicode="&#xadd4;" 
 />
    <glyph glyph-name="uniADD5" unicode="&#xadd5;" 
d="M775 813v-551h-124v551h124zM387 470q18 92 20 200h-296v99h419v-59q0 -62 -3 -114.5t-15 -115.5q60 6 89 10l8 -89q-112 -20 -242 -28v-123q43 7 101 7q146 0 229 -45t83 -125q0 -81 -83 -126t-229 -45q-147 0 -230 45t-83 126q0 82 88 127v152q-106 -3 -198 -3l-15 100
q230 0 357 7zM331 30.5q47 -19.5 137 -19.5t137 19.5t47 56.5t-47 55.5t-137 18.5t-137 -18.5t-47 -55.5t47 -56.5z" />
    <glyph glyph-name="uniADD6" unicode="&#xadd6;" 
 />
    <glyph glyph-name="uniADD7" unicode="&#xadd7;" 
 />
    <glyph glyph-name="uniADD8" unicode="&#xadd8;" 
 />
    <glyph glyph-name="uniADD9" unicode="&#xadd9;" 
 />
    <glyph glyph-name="uniADDA" unicode="&#xadda;" 
 />
    <glyph glyph-name="uniADDB" unicode="&#xaddb;" 
 />
    <glyph glyph-name="uniADDC" unicode="&#xaddc;" 
d="M738 761v-58q0 -82 -4.5 -156.5t-21.5 -171.5h130v-100h-193v-361h-123v361h-187v-361h-123v361h-184v100h556q26 136 28 286h-488v100h610z" />
    <glyph glyph-name="uniADDD" unicode="&#xaddd;" 
 />
    <glyph glyph-name="uniADDE" unicode="&#xadde;" 
 />
    <glyph glyph-name="uniADDF" unicode="&#xaddf;" 
 />
    <glyph glyph-name="uniADE0" unicode="&#xade0;" 
d="M747 770v-76q0 -75 -3 -131.5t-15 -124.5h114v-98h-204v-197h-121v197h-95v-197h-123v197h-268v98h574q12 64 15.5 118.5t3.5 115.5h-497v98h619zM117 224h124v-193h531v-99h-655v292z" />
    <glyph glyph-name="uniADE1" unicode="&#xade1;" 
 />
    <glyph glyph-name="uniADE2" unicode="&#xade2;" 
 />
    <glyph glyph-name="uniADE3" unicode="&#xade3;" 
 />
    <glyph glyph-name="uniADE4" unicode="&#xade4;" 
d="M746 779v-61q0 -59 -2.5 -107t-13.5 -105h113v-97h-202v-88h104v-240h-498v-62h521v-96h-644v242h498v59h-500v97h110v88h-200v97h575q16 82 18 176h-493v97h614zM518 321v88h-164v-88h164z" />
    <glyph glyph-name="uniADE5" unicode="&#xade5;" 
 />
    <glyph glyph-name="uniADE6" unicode="&#xade6;" 
 />
    <glyph glyph-name="uniADE7" unicode="&#xade7;" 
 />
    <glyph glyph-name="uniADE8" unicode="&#xade8;" 
 />
    <glyph glyph-name="uniADE9" unicode="&#xade9;" 
 />
    <glyph glyph-name="uniADEA" unicode="&#xadea;" 
 />
    <glyph glyph-name="uniADEB" unicode="&#xadeb;" 
 />
    <glyph glyph-name="uniADEC" unicode="&#xadec;" 
d="M745 777v-71q0 -68 -3 -121t-15 -115h116v-99h-202v-120h102v-325h-616v325h105v120h-200v99h572q19 99 19 208h-495v99h617zM622 24v130h-374v-130h374zM518 251v120h-164v-120h164z" />
    <glyph glyph-name="uniADED" unicode="&#xaded;" 
 />
    <glyph glyph-name="uniADEE" unicode="&#xadee;" 
 />
    <glyph glyph-name="uniADEF" unicode="&#xadef;" 
 />
    <glyph glyph-name="uniADF0" unicode="&#xadf0;" 
 />
    <glyph glyph-name="uniADF1" unicode="&#xadf1;" 
 />
    <glyph glyph-name="uniADF2" unicode="&#xadf2;" 
 />
    <glyph glyph-name="uniADF3" unicode="&#xadf3;" 
 />
    <glyph glyph-name="uniADF4" unicode="&#xadf4;" 
 />
    <glyph glyph-name="uniADF5" unicode="&#xadf5;" 
 />
    <glyph glyph-name="uniADF6" unicode="&#xadf6;" 
 />
    <glyph glyph-name="uniADF7" unicode="&#xadf7;" 
 />
    <glyph glyph-name="uniADF8" unicode="&#xadf8;" 
d="M741 730v-105q0 -124 -5.5 -216.5t-26.5 -215.5l-124 10q22 115 27.5 207t5.5 215v6h-503v99h626zM32 136h810v-101h-810v101z" />
    <glyph glyph-name="uniADF9" unicode="&#xadf9;" 
d="M746 773v-63q0 -71 -3 -130t-15 -133h115v-99h-811v99h574q11 63 14.5 115t4.5 112h-493v99h614zM117 240h632v-325h-123v227h-509v98z" />
    <glyph glyph-name="uniADFA" unicode="&#xadfa;" 
 />
    <glyph glyph-name="uniADFB" unicode="&#xadfb;" 
 />
    <glyph glyph-name="uniADFC" unicode="&#xadfc;" 
d="M747 762v-76q0 -78 -3.5 -138t-16.5 -133h116v-100h-811v100h571q14 68 18 125.5t4 123.5h-493v98h615zM134 236h123v-205h515v-99h-638v304z" />
    <glyph glyph-name="uniADFD" unicode="&#xadfd;" 
 />
    <glyph glyph-name="uniADFE" unicode="&#xadfe;" 
 />
    <glyph glyph-name="uniADFF" unicode="&#xadff;" 
d="M746 772v-73q0 -72 -3 -127.5t-16 -122.5h116v-99h-811v99h571q13 62 17.5 115t4.5 109h-494v99h615zM127 257h619v-98h-496v-135h508v-99h-631v332z" />
    <glyph glyph-name="uniAE00" unicode="&#xae00;" 
d="M746 777v-62q0 -61 -3 -110.5t-14 -109.5h114v-98h-811v98h574q17 85 19 183h-493v99h614zM122 333h623v-249h-498v-65h521v-97h-644v253h498v62h-500v96z" />
    <glyph glyph-name="uniAE01" unicode="&#xae01;" 
d="M746 774v-63q0 -66 -3 -118.5t-16 -118.5h116v-100h-811v100h572q19 92 21 201h-493v99h614zM114 301h302v-230h-180v-58q97 1 146 4.5t94 14.5l11 -89q-53 -14 -113 -17.5t-199 -3.5h-59v235h180v53h-182v91zM459 301h291v-383h-121v286h-170v97z" />
    <glyph glyph-name="uniAE02" unicode="&#xae02;" 
d="M406 306v-229h-171v-64q64 0 104 3t81 10l7 -90q-48 -10 -97 -12t-163 -2h-52v238h172v57h-174v89h293zM32 477h572q19 90 21 198h-493v100h614v-64q0 -66 -3 -117.5t-16 -116.5h116v-100h-811v100zM456 306h296v-384h-296v384zM647 13v203h-87v-203h87z" />
    <glyph glyph-name="uniAE03" unicode="&#xae03;" 
 />
    <glyph glyph-name="uniAE04" unicode="&#xae04;" 
 />
    <glyph glyph-name="uniAE05" unicode="&#xae05;" 
 />
    <glyph glyph-name="uniAE06" unicode="&#xae06;" 
 />
    <glyph glyph-name="uniAE07" unicode="&#xae07;" 
d="M555 268v66h119v-66h132v-89h-383v89h132zM32 477h572q19 91 21 198h-493v99h614v-64q0 -65 -3 -116.5t-16 -116.5h116v-99h-811v99zM109 305h282v-227h-165v-62q75 1 116 3.5t83 9.5l11 -88q-52 -11 -104.5 -13.5t-167.5 -2.5h-53v237h165v54h-167v89zM499.5 122
q43.5 33 113.5 33t114.5 -33t44.5 -87q0 -55 -44 -87.5t-115 -32.5q-70 0 -113.5 32.5t-43.5 87.5q0 54 43.5 87zM575 5q14 -10 38 -10q25 0 39.5 10t14.5 30t-14.5 29.5t-39.5 9.5q-24 0 -38 -10t-14 -29q0 -20 14 -30z" />
    <glyph glyph-name="uniAE08" unicode="&#xae08;" 
d="M746 772v-71q0 -73 -3.5 -128t-16.5 -124h117v-99h-811v99h571q13 62 17.5 115t4.5 109h-493v99h614zM127 253h616v-328h-616v328zM622 24v133h-374v-133h374z" />
    <glyph glyph-name="uniAE09" unicode="&#xae09;" 
d="M250 302v-96h371v96h123v-377h-616v377h122zM32 461h572q21 102 21 216h-493v99h614v-71q0 -71 -3.5 -124t-16.5 -120h117v-100h-811v100zM621 25v86h-371v-86h371z" />
    <glyph glyph-name="uniAE0A" unicode="&#xae0a;" 
 />
    <glyph glyph-name="uniAE0B" unicode="&#xae0b;" 
d="M740 770v-63q0 -75 -3.5 -138t-18.5 -144h121v-99h-806v99h562q13 69 18 127t6 119h-489v99h610zM240.5 58q65.5 32 98 76t32.5 93v31h124v-31q0 -49 32.5 -93t97.5 -76t159 -43l-44 -97q-108 15 -187 57t-121 105q-42 -63 -120.5 -105t-185.5 -57l-46 97q95 11 160.5 43
z" />
    <glyph glyph-name="uniAE0C" unicode="&#xae0c;" 
 />
    <glyph glyph-name="uniAE0D" unicode="&#xae0d;" 
d="M746 770v-72q0 -73 -3.5 -130t-16.5 -125h116v-99h-811v99h570q14 63 19 117t5 111h-493v99h614zM206 219.5q84 46.5 230 46.5t230 -46.5t84 -128.5q0 -83 -84 -129t-230 -46t-230 46t-84 129q0 82 84 128.5zM436 16q190 0 190 75t-190 75t-190 -75t190 -75z" />
    <glyph glyph-name="uniAE0E" unicode="&#xae0e;" 
 />
    <glyph glyph-name="uniAE0F" unicode="&#xae0f;" 
 />
    <glyph glyph-name="uniAE10" unicode="&#xae10;" 
 />
    <glyph glyph-name="uniAE11" unicode="&#xae11;" 
 />
    <glyph glyph-name="uniAE12" unicode="&#xae12;" 
 />
    <glyph glyph-name="uniAE13" unicode="&#xae13;" 
d="M373 287v69h124v-69h270v-93h-663v93h269zM32 495h574q17 85 19 183h-493v98h614v-61q0 -61 -3 -110.5t-14 -109.5h114v-98h-811v98zM232.5 134q70.5 32 201.5 32q132 0 202.5 -32t70.5 -92q0 -62 -70.5 -94t-202.5 -32q-131 0 -201.5 32t-70.5 94q0 60 70.5 92zM327 9.5
q35 -10.5 107 -10.5q73 0 108 10.5t35 32.5q0 21 -35 30.5t-108 9.5q-72 0 -107 -9.5t-35 -30.5q0 -22 35 -32.5z" />
    <glyph glyph-name="uniAE14" unicode="&#xae14;" 
d="M541 712v-76q0 -92 -4.5 -165t-22.5 -165l-122 14q16 82 21 149.5t5 144.5h-329v98h452zM599 255l8 -90q-128 -24 -264.5 -31.5t-300.5 -8.5l-12 101q359 0 569 29zM644 813h124v-896h-124v896z" />
    <glyph glyph-name="uniAE15" unicode="&#xae15;" 
 />
    <glyph glyph-name="uniAE16" unicode="&#xae16;" 
 />
    <glyph glyph-name="uniAE17" unicode="&#xae17;" 
 />
    <glyph glyph-name="uniAE18" unicode="&#xae18;" 
 />
    <glyph glyph-name="uniAE19" unicode="&#xae19;" 
 />
    <glyph glyph-name="uniAE1A" unicode="&#xae1a;" 
 />
    <glyph glyph-name="uniAE1B" unicode="&#xae1b;" 
 />
    <glyph glyph-name="uniAE1C" unicode="&#xae1c;" 
d="M776 813v-460h-123v460h123zM388 493q17 84 21 179h-299v98h421v-49q0 -57 -3 -107t-15 -111q35 3 92 11l7 -88q-223 -39 -570 -41l-16 99q217 0 362 9zM170 315h606v-237h-481v-61h511v-94h-634v243h480v56h-482v93z" />
    <glyph glyph-name="uniAE1D" unicode="&#xae1d;" 
 />
    <glyph glyph-name="uniAE1E" unicode="&#xae1e;" 
 />
    <glyph glyph-name="uniAE1F" unicode="&#xae1f;" 
 />
    <glyph glyph-name="uniAE20" unicode="&#xae20;" 
 />
    <glyph glyph-name="uniAE21" unicode="&#xae21;" 
 />
    <glyph glyph-name="uniAE22" unicode="&#xae22;" 
 />
    <glyph glyph-name="uniAE23" unicode="&#xae23;" 
 />
    <glyph glyph-name="uniAE24" unicode="&#xae24;" 
 />
    <glyph glyph-name="uniAE25" unicode="&#xae25;" 
 />
    <glyph glyph-name="uniAE26" unicode="&#xae26;" 
 />
    <glyph glyph-name="uniAE27" unicode="&#xae27;" 
 />
    <glyph glyph-name="uniAE28" unicode="&#xae28;" 
 />
    <glyph glyph-name="uniAE29" unicode="&#xae29;" 
 />
    <glyph glyph-name="uniAE2A" unicode="&#xae2a;" 
 />
    <glyph glyph-name="uniAE2B" unicode="&#xae2b;" 
 />
    <glyph glyph-name="uniAE2C" unicode="&#xae2c;" 
 />
    <glyph glyph-name="uniAE2D" unicode="&#xae2d;" 
 />
    <glyph glyph-name="uniAE2E" unicode="&#xae2e;" 
 />
    <glyph glyph-name="uniAE2F" unicode="&#xae2f;" 
 />
    <glyph glyph-name="uniAE30" unicode="&#xae30;" 
d="M776 813v-896h-124v896h124zM285.5 358q82.5 110 97.5 263h-303v99h430q0 -220 -93 -380.5t-319 -269.5l-64 98q169 80 251.5 190z" />
    <glyph glyph-name="uniAE31" unicode="&#xae31;" 
d="M394.5 462q-107.5 -120 -311.5 -173l-47 96q150 38 234 110t99 167h-281v99h414q0 -179 -107.5 -299zM165 254h609v-338h-125v240h-484v98zM649 813h125v-522h-125v522z" />
    <glyph glyph-name="uniAE32" unicode="&#xae32;" 
 />
    <glyph glyph-name="uniAE33" unicode="&#xae33;" 
 />
    <glyph glyph-name="uniAE34" unicode="&#xae34;" 
d="M773 813v-651h-124v651h124zM279 471q86 76 101 175h-286v101h418q0 -181 -108.5 -307t-312.5 -186l-48 99q150 42 236 118zM179 217h123v-186h489v-99h-612v285z" />
    <glyph glyph-name="uniAE35" unicode="&#xae35;" 
 />
    <glyph glyph-name="uniAE36" unicode="&#xae36;" 
 />
    <glyph glyph-name="uniAE37" unicode="&#xae37;" 
d="M388.5 465.5q-105.5 -119.5 -305.5 -173.5l-48 96q146 38 229 108.5t98 164.5h-278v100h410q0 -176 -105.5 -295.5zM191 270h591v-98h-467v-147h483v-99h-607v344zM657 813h124v-502h-124v502z" />
    <glyph glyph-name="uniAE38" unicode="&#xae38;" 
d="M775 813v-451h-125v451h125zM368 680h-277v99h414q0 -181 -102.5 -286.5t-315.5 -148.5l-43 99q304 56 324 237zM179 325h596v-241h-471v-63h493v-96h-616v248h469v57h-471v95z" />
    <glyph glyph-name="uniAE39" unicode="&#xae39;" 
 />
    <glyph glyph-name="uniAE3A" unicode="&#xae3a;" 
d="M774 813v-466h-125v466h125zM276.5 527.5q79.5 63.5 90.5 150.5h-278v97h414q0 -350 -416 -440l-43 99q153 30 232.5 93.5zM136 307h301v-228h-183v-60q64 1 107 4t88 12l8 -94q-56 -10 -109.5 -12.5t-157.5 -2.5h-53v238h183v51h-184v92zM479 307h295v-381h-295v381z
M669 16v201h-85v-201h85z" />
    <glyph glyph-name="uniAE3B" unicode="&#xae3b;" 
 />
    <glyph glyph-name="uniAE3C" unicode="&#xae3c;" 
 />
    <glyph glyph-name="uniAE3D" unicode="&#xae3d;" 
 />
    <glyph glyph-name="uniAE3E" unicode="&#xae3e;" 
 />
    <glyph glyph-name="uniAE3F" unicode="&#xae3f;" 
 />
    <glyph glyph-name="uniAE40" unicode="&#xae40;" 
d="M392.5 464.5q-108.5 -119.5 -310.5 -171.5l-46 97q148 38 232.5 109t99.5 164h-282v98h415q0 -177 -108.5 -296.5zM182 275h592v-348h-592v348zM652 24v153h-348v-153h348zM649 813h125v-500h-125v500z" />
    <glyph glyph-name="uniAE41" unicode="&#xae41;" 
d="M774 813v-487h-125v487h125zM368 669h-280v98h415q0 -180 -104 -290.5t-315 -157.5l-43 98q302 62 327 252zM181 291h123v-87h347v87h123v-365h-593v365zM651 25v83h-347v-83h347z" />
    <glyph glyph-name="uniAE42" unicode="&#xae42;" 
 />
    <glyph glyph-name="uniAE43" unicode="&#xae43;" 
d="M774 813v-595h-124v595h124zM276.5 470.5q83.5 75.5 98.5 176.5h-283v99h414q0 -182 -106 -306.5t-312 -183.5l-47 97q152 42 235.5 117.5zM279.5 62q63.5 34 96 81.5t32.5 99.5v31h128v-31q0 -52 32 -99.5t96 -81.5t155 -47l-48 -96q-106 17 -182.5 62.5t-116.5 112.5
q-40 -67 -117 -112.5t-183 -62.5l-47 96q91 13 154.5 47z" />
    <glyph glyph-name="uniAE44" unicode="&#xae44;" 
d="M393.5 464.5q-108.5 -119.5 -310.5 -171.5l-46 97q148 38 232.5 109t99.5 164h-282v98h415q0 -177 -108.5 -296.5zM191.5 104.5q42.5 60.5 42.5 131.5v45h119v-45q0 -58 25.5 -111t76.5 -89q53 38 79.5 92t26.5 108v45h121v-45q0 -75 42 -134.5t126 -86.5l-61 -90
q-121 41 -170 155q-23 -55 -63.5 -97.5t-98.5 -65.5q-115 43 -163 160q-24 -52 -66 -91t-101 -61l-61 90q83 29 125.5 89.5zM650 813h125v-502h-125v502z" />
    <glyph glyph-name="uniAE45" unicode="&#xae45;" 
d="M772 813v-527h-125v527h125zM266.5 483.5q86.5 74.5 101.5 170.5h-282v100h414q0 -178 -109.5 -302t-308.5 -179l-48 96q146 40 232.5 114.5zM247 228q82 48 223 48q142 0 224.5 -48t82.5 -132t-82.5 -132t-224.5 -48q-141 0 -223 48t-82 132t82 132zM334.5 35
q46.5 -21 135.5 -21q90 0 136.5 21t46.5 61q0 82 -183 82q-182 0 -182 -82q0 -40 46.5 -61z" />
    <glyph glyph-name="uniAE46" unicode="&#xae46;" 
d="M395.5 467.5q-107.5 -115.5 -312.5 -165.5l-43 98q149 35 232 103t97 158h-282v99h416q0 -177 -107.5 -292.5zM287.5 45.5q60.5 24.5 92 59t35.5 72.5h-233v99h598v-99h-239q4 -38 35.5 -72.5t93 -59t148.5 -33.5l-42 -93q-105 12 -181 48.5t-117 91.5
q-40 -55 -115.5 -91.5t-180.5 -48.5l-41 93q86 9 146.5 33.5zM648 813h124v-497h-124v497z" />
    <glyph glyph-name="uniAE47" unicode="&#xae47;" 
 />
    <glyph glyph-name="uniAE48" unicode="&#xae48;" 
 />
    <glyph glyph-name="uniAE49" unicode="&#xae49;" 
 />
    <glyph glyph-name="uniAE4A" unicode="&#xae4a;" 
d="M406 468q-109 -113 -310 -160l-48 97q151 32 235.5 98.5t97.5 152.5h-287v99h421q0 -174 -109 -287zM166 28h115v164h-107v96h609v-96h-106v-164h115v-98h-626v98zM554 28v164h-152v-164h152zM649 813h124v-483h-124v483z" />
    <glyph glyph-name="uniAE4B" unicode="&#xae4b;" 
 />
    <glyph glyph-name="uniAE4C" unicode="&#xae4c;" 
d="M742 813v-352h119v-103h-119v-441h-123v896h123zM136.5 374.5q35.5 103.5 41.5 246.5h-125v100h242q0 -137 -14 -239.5t-54 -197t-116 -179.5l-97 71q87 95 122.5 198.5zM385.5 342.5q34.5 118.5 39.5 278.5h-99v100h217q0 -145 -13.5 -257t-52.5 -217.5t-114 -198.5
l-97 69q85 107 119.5 225.5z" />
    <glyph glyph-name="uniAE4D" unicode="&#xae4d;" 
d="M735 812v-228h121v-101h-121v-205h-124v534h124zM131.5 513q36.5 57 46.5 140h-122v99h240q0 -147 -44 -246t-155 -179l-78 77q76 52 112.5 109zM139 241h596v-326h-124v227h-472v99zM383 493q37 67 46 160h-100v99h217q0 -154 -42 -262t-147 -195l-87 71q76 60 113 127z
" />
    <glyph glyph-name="uniAE4E" unicode="&#xae4e;" 
d="M735 812v-207h121v-102h-121v-206h-124v515h124zM131.5 521.5q36.5 56.5 46.5 138.5h-122v99h240q0 -146 -44 -244.5t-154 -178.5l-79 77q76 52 112.5 108.5zM112 258h298v-342h-123v243h-175v99zM383 502.5q37 66.5 46 157.5h-100v99h217q0 -153 -42 -259.5t-147 -193.5
l-87 70q76 60 113 126.5zM447 258h288v-342h-122v243h-166v99z" />
    <glyph glyph-name="uniAE4F" unicode="&#xae4f;" 
 />
    <glyph glyph-name="uniAE50" unicode="&#xae50;" 
d="M252 477.5q-43 -109.5 -151 -197.5l-80 77q75 61 111.5 126.5t45.5 157.5h-122v99h239q0 -153 -43 -262.5zM150 215h124v-183h492v-99h-616v282zM383.5 463q37.5 75 46.5 178h-104v99h219q0 -166 -42.5 -283.5t-155.5 -212.5l-80 77q79 67 116.5 142zM611 813h124v-272
h121v-101h-121v-281h-124v654z" />
    <glyph glyph-name="uniAE51" unicode="&#xae51;" 
 />
    <glyph glyph-name="uniAE52" unicode="&#xae52;" 
 />
    <glyph glyph-name="uniAE53" unicode="&#xae53;" 
 />
    <glyph glyph-name="uniAE54" unicode="&#xae54;" 
d="M735 813v-176h121v-102h-121v-176h-123v454h123zM127 546.5q36 50.5 46 124.5h-121v98h240q0 -139 -43 -230.5t-149 -167.5l-80 77q71 48 107 98.5zM141 323h594v-241h-470v-60h501v-96h-623v246h470v56h-472v95zM381.5 531q35.5 57 45.5 140h-103v98h221
q0 -145 -41.5 -243.5t-145.5 -177.5l-86 72q74 54 109.5 111z" />
    <glyph glyph-name="uniAE55" unicode="&#xae55;" 
 />
    <glyph glyph-name="uniAE56" unicode="&#xae56;" 
d="M735 813v-180h121v-100h-121v-188h-124v468h124zM127.5 545q35.5 50 45.5 124h-121v98h240q0 -138 -43 -229t-149 -166l-79 76q71 47 106.5 97zM100 304h294v-228h-172v-60q61 1 102 4t84 12l9 -92q-54 -10 -105 -12.5t-158 -2.5h-52v236h172v51h-174v92zM383 525
q36 60 45 144h-104v98h221q0 -148 -41 -247.5t-146 -179.5l-86 71q75 54 111 114zM441 304h294v-379h-294v379zM629 15v198h-82v-198h82z" />
    <glyph glyph-name="uniAE57" unicode="&#xae57;" 
 />
    <glyph glyph-name="uniAE58" unicode="&#xae58;" 
 />
    <glyph glyph-name="uniAE59" unicode="&#xae59;" 
 />
    <glyph glyph-name="uniAE5A" unicode="&#xae5a;" 
 />
    <glyph glyph-name="uniAE5B" unicode="&#xae5b;" 
 />
    <glyph glyph-name="uniAE5C" unicode="&#xae5c;" 
d="M252.5 512q-43.5 -100 -153.5 -181l-79 77q75 54 111.5 111.5t46.5 141.5h-122v99h240q0 -148 -43.5 -248zM155 264h580v-338h-580v338zM381.5 498q36.5 68 45.5 163h-101v99h217q0 -157 -40.5 -265.5t-145.5 -196.5l-88 70q76 62 112.5 130zM614 24v143h-338v-143h338z
M611 812h124v-200h121v-101h-121v-208h-124v509z" />
    <glyph glyph-name="uniAE5D" unicode="&#xae5d;" 
d="M252.5 518.5q-43.5 -97.5 -153.5 -177.5l-79 77q75 52 111.5 108.5t46.5 137.5h-122v99h240q0 -147 -43.5 -244.5zM152 286h123v-84h338v84h122v-360h-583v360zM382.5 505.5q35.5 66.5 43.5 158.5h-100v99h217q0 -154 -40 -260.5t-143 -192.5l-88 69q75 60 110.5 126.5z
M613 25v81h-338v-81h338zM611 812h124v-188h121v-102h-121v-199h-124v489z" />
    <glyph glyph-name="uniAE5E" unicode="&#xae5e;" 
 />
    <glyph glyph-name="uniAE5F" unicode="&#xae5f;" 
d="M275.5 574.5q-16.5 -75.5 -58 -139t-114.5 -119.5l-81 76q74 54 109 113.5t44 145.5h-122v99h239q0 -100 -16.5 -175.5zM262.5 62.5q63.5 33.5 95.5 80t32 97.5v17h123v-17q0 -51 32 -97.5t95.5 -80t154.5 -46.5l-47 -96q-104 16 -179.5 59.5t-116.5 108.5
q-41 -65 -116.5 -108.5t-179.5 -59.5l-48 96q91 13 154.5 46.5zM381.5 485.5q36.5 69.5 45.5 165.5h-102v99h219q0 -158 -41 -267.5t-146 -199.5l-88 70q76 63 112.5 132.5zM611 813h124v-236h121v-101h-121v-261h-124v598z" />
    <glyph glyph-name="uniAE60" unicode="&#xae60;" 
d="M257 511q-43 -99 -154 -179l-79 77q76 54 112 110.5t46 138.5h-122v99h240q0 -147 -43 -246zM181 106q42 60 42 131v32h120v-32q0 -58 25.5 -111t76.5 -89q52 38 78.5 92t26.5 108v32h122v-32q0 -76 41 -135t125 -87l-61 -89q-120 41 -168 154q-51 -119 -162 -163
q-116 43 -164 161q-50 -110 -165 -152l-62 89q83 31 125 91zM385.5 497q36.5 67 45.5 161h-101v99h218q0 -155 -41 -262.5t-146 -195.5l-88 70q76 61 112.5 128zM611 813h124v-201h121v-101h-121v-202h-124v504z" />
    <glyph glyph-name="uniAE61" unicode="&#xae61;" 
d="M252.5 511.5q-43.5 -99.5 -153.5 -180.5l-79 77q75 54 111.5 111.5t46.5 141.5h-122v98h240q0 -148 -43.5 -247.5zM222.5 223q81.5 47 221.5 47t221 -47t81 -130t-81 -129.5t-221 -46.5t-221.5 46.5t-81.5 129.5t81.5 130zM310.5 34q46.5 -20 133.5 -20t133 20t46 59
t-46 59t-133 20q-88 0 -134 -20t-46 -59t46.5 -59zM381.5 500.5q36.5 67.5 44.5 160.5h-100v98h217q0 -155 -40.5 -262t-145.5 -195l-88 70q76 61 112.5 128.5zM611 812h124v-202h121v-102h-121v-216h-124v520z" />
    <glyph glyph-name="uniAE62" unicode="&#xae62;" 
 />
    <glyph glyph-name="uniAE63" unicode="&#xae63;" 
 />
    <glyph glyph-name="uniAE64" unicode="&#xae64;" 
 />
    <glyph glyph-name="uniAE65" unicode="&#xae65;" 
d="M249 533.5q-43 -91.5 -149 -167.5l-80 77q71 48 107 98.5t46 124.5h-121v98h240q0 -139 -43 -230.5zM155 296h585v-87h-462v-54h454v-84h-454v-57h482v-88h-605v370zM381.5 526q35.5 57 45.5 140h-103v98h221q0 -145 -41.5 -243.5t-145.5 -177.5l-86 72q74 54 109.5 111z
M611 812h124v-187h121v-102h-121v-188h-124v477z" />
    <glyph glyph-name="uniAE66" unicode="&#xae66;" 
 />
    <glyph glyph-name="uniAE67" unicode="&#xae67;" 
 />
    <glyph glyph-name="uniAE68" unicode="&#xae68;" 
d="M819 813v-896h-118v454h-71v-414h-115v840h115v-327h71v343h118zM112 377q29 101 34 233h-98v98h203q0 -183 -29 -322.5t-109 -258.5l-95 54q65 95 94 196zM323 346q28 115 32 264h-77v98h184q0 -200 -28 -353.5t-110 -281.5l-98 53q69 105 97 220z" />
    <glyph glyph-name="uniAE69" unicode="&#xae69;" 
d="M806 813v-525h-118v216h-67v-211h-116v505h116v-194h67v209h118zM104 515.5q27 56.5 34 139.5h-92v99h205q0 -98 -11 -168t-42 -131.5t-90 -119.5l-91 67q60 57 87 113.5zM171 250h635v-334h-124v236h-511v98zM314 489q29 69 35 166h-73v99h188q0 -105 -11.5 -183.5
t-43.5 -148t-92 -133.5l-97 63q65 68 94 137z" />
    <glyph glyph-name="uniAE6A" unicode="&#xae6a;" 
 />
    <glyph glyph-name="uniAE6B" unicode="&#xae6b;" 
 />
    <glyph glyph-name="uniAE6C" unicode="&#xae6c;" 
d="M807 813v-657h-118v299h-68v-275h-116v618h116v-244h68v259h118zM107.5 494.5q27.5 60.5 34.5 148.5h-94v100h206q0 -102 -11 -174.5t-42 -137t-91 -124.5l-91 68q61 59 88.5 119.5zM175 224h125v-192h529v-99h-654v291zM318 469q27 72 33 174h-74v100h186
q0 -108 -10.5 -187.5t-41 -151.5t-87.5 -137l-96 60q63 70 90 142z" />
    <glyph glyph-name="uniAE6D" unicode="&#xae6d;" 
 />
    <glyph glyph-name="uniAE6E" unicode="&#xae6e;" 
 />
    <glyph glyph-name="uniAE6F" unicode="&#xae6f;" 
d="M811 257v-97h-520v-135h530v-99h-653v331h643zM105.5 524.5q26.5 55.5 33.5 138.5h-93v99h206q0 -98 -11 -167.5t-42 -130.5t-90 -119l-90 67q60 57 86.5 112.5zM316.5 497q26.5 68 32.5 166h-72v99h186q0 -106 -10 -182.5t-39.5 -146t-85.5 -133.5l-98 63
q60 66 86.5 134zM505 799h116v-194h68v208h118v-511h-118v203h-68v-198h-116v492z" />
    <glyph glyph-name="uniAE70" unicode="&#xae70;" 
d="M807 813v-460h-118v174h-67v-169h-117v440h117v-171h67v186h118zM105.5 549.5q26.5 47.5 34.5 118.5h-90v99h202q0 -92 -11 -155.5t-42 -119t-91 -108.5l-86 69q57 49 83.5 96.5zM196 319h611v-238h-483v-59h508v-96h-634v245h483v53h-485v95zM316 525.5
q27 58.5 34 142.5h-74v99h188q0 -99 -11 -169.5t-43 -133t-92 -121.5l-90 67q61 57 88 115.5z" />
    <glyph glyph-name="uniAE71" unicode="&#xae71;" 
 />
    <glyph glyph-name="uniAE72" unicode="&#xae72;" 
 />
    <glyph glyph-name="uniAE73" unicode="&#xae73;" 
 />
    <glyph glyph-name="uniAE74" unicode="&#xae74;" 
 />
    <glyph glyph-name="uniAE75" unicode="&#xae75;" 
 />
    <glyph glyph-name="uniAE76" unicode="&#xae76;" 
 />
    <glyph glyph-name="uniAE77" unicode="&#xae77;" 
 />
    <glyph glyph-name="uniAE78" unicode="&#xae78;" 
d="M806 813v-511h-118v203h-67v-198h-116v492h116v-194h67v208h118zM105.5 524.5q26.5 55.5 33.5 138.5h-93v99h206q0 -98 -11 -167.5t-42 -130.5t-90 -119l-90 67q60 57 86.5 112.5zM193 263h613v-336h-613v336zM316.5 497q26.5 68 32.5 166h-73v99h186q0 -107 -10 -183.5
t-39 -145.5t-85 -133l-98 63q60 66 86.5 134zM684 24v143h-369v-143h369z" />
    <glyph glyph-name="uniAE79" unicode="&#xae79;" 
d="M805 813v-487h-117v189h-66v-184h-115v465h115v-182h66v199h117zM110.5 534.5q27.5 55.5 34.5 137.5h-94v99h207q0 -98 -11.5 -167.5t-43.5 -130.5t-92 -118l-89 67q61 57 88.5 112.5zM194 290h122v-82h366v82h123v-364h-611v364zM322.5 513q24.5 65 29.5 159h-72v99h183
q0 -106 -8 -178t-35 -139t-81 -130l-98 59q57 65 81.5 130zM682 25v87h-366v-87h366z" />
    <glyph glyph-name="uniAE7A" unicode="&#xae7a;" 
 />
    <glyph glyph-name="uniAE7B" unicode="&#xae7b;" 
d="M807 813v-582h-118v263h-66v-186h-117v488h117v-201h66v218h118zM109 504q26 60 32 147h-93v99h205q0 -101 -10 -172.5t-40 -135.5t-87 -124l-91 66q58 60 84 120zM308.5 63q65.5 35 98.5 82.5t33 97.5v29h123v-29q0 -50 33 -97.5t98.5 -82.5t156.5 -47l-47 -97
q-106 17 -183.5 62t-118.5 111q-42 -66 -119.5 -111t-183.5 -62l-47 97q91 12 156.5 47zM319 473q27 74 32 178h-75v99h187q0 -109 -10.5 -189.5t-40.5 -153.5t-88 -140l-96 60q64 72 91 146z" />
    <glyph glyph-name="uniAE7C" unicode="&#xae7c;" 
d="M807 812v-510h-118v200h-66v-192h-115v486h115v-194h66v210h118zM108.5 516.5q26.5 55.5 33.5 136.5h-93v98h206q0 -96 -11 -165t-42 -129.5t-90 -117.5l-89 66q59 56 85.5 111.5zM211 103q42 60 42 131v33h121v-33q0 -58 25 -110.5t76 -87.5q52 37 78 90.5t26 107.5v33
h122v-33q0 -74 42 -134t126 -86l-60 -89q-121 41 -171 155q-23 -56 -63.5 -98.5t-98.5 -65.5q-114 42 -163 159q-24 -52 -66 -91t-101 -60l-61 90q84 29 126 89zM319.5 493.5q25.5 65.5 31.5 159.5h-74v98h186q0 -104 -9.5 -178.5t-39 -141.5t-85.5 -131l-94 63
q59 65 84.5 130.5z" />
    <glyph glyph-name="uniAE7D" unicode="&#xae7d;" 
d="M801 806v-540h-117v219h-65v-190h-116v494h116v-204h65v221h117zM103.5 497q26.5 57 33.5 140h-93v99h206q0 -98 -11 -168t-42 -131t-90 -119l-90 66q60 56 86.5 113zM221.5 173.5q38.5 38.5 109.5 59.5t165 21t165 -21t109.5 -59.5t38.5 -90.5q0 -53 -38.5 -92.5
t-109 -60.5t-165.5 -21t-165.5 21t-109 60.5t-38.5 92.5q0 52 38.5 90.5zM311.5 474q26.5 67 32.5 163h-72v99h185q0 -104 -10.5 -180t-40.5 -144t-87 -132l-95 62q61 65 87.5 132zM357 23.5q49 -20.5 139 -20.5t139 20.5t49 59.5q0 38 -49 58t-139 20t-139 -20t-49 -58
q0 -39 49 -59.5z" />
    <glyph glyph-name="uniAE7E" unicode="&#xae7e;" 
 />
    <glyph glyph-name="uniAE7F" unicode="&#xae7f;" 
 />
    <glyph glyph-name="uniAE80" unicode="&#xae80;" 
 />
    <glyph glyph-name="uniAE81" unicode="&#xae81;" 
 />
    <glyph glyph-name="uniAE82" unicode="&#xae82;" 
 />
    <glyph glyph-name="uniAE83" unicode="&#xae83;" 
 />
    <glyph glyph-name="uniAE84" unicode="&#xae84;" 
d="M742 813v-224h118v-101h-118v-165h118v-103h-118v-303h-123v896h123zM136.5 374.5q35.5 103.5 41.5 246.5h-125v100h242q0 -137 -14 -239.5t-54 -197t-116 -179.5l-97 71q87 95 122.5 198.5zM385.5 342.5q34.5 118.5 39.5 278.5h-99v100h217q0 -145 -13.5 -257
t-52.5 -217.5t-114 -198.5l-97 69q85 107 119.5 225.5z" />
    <glyph glyph-name="uniAE85" unicode="&#xae85;" 
d="M735 812v-116h116v-101h-116v-90h116v-102h-116v-125h-124v534h124zM131.5 513q36.5 57 46.5 140h-122v99h240q0 -147 -44 -246t-155 -179l-78 77q76 52 112.5 109zM139 241h596v-326h-124v227h-472v99zM383 493q37 67 46 160h-100v99h217q0 -154 -42 -262t-147 -195
l-87 71q76 60 113 127z" />
    <glyph glyph-name="uniAE86" unicode="&#xae86;" 
d="M297 759q0 -146 -41.5 -244.5t-145.5 -179.5l-90 79q71 53 106 107.5t45 134.5h-117v103h243zM101 262h312v-345h-125v247h-187v98zM384 501q33 64 43 155h-97v103h223q0 -152 -38 -259t-130 -197l-101 71q67 63 100 127zM449 262h306v-345h-125v247h-181v98zM634 813
h121v-116h100v-103h-100v-97h100v-103h-100v-97h-121v516z" />
    <glyph glyph-name="uniAE87" unicode="&#xae87;" 
 />
    <glyph glyph-name="uniAE88" unicode="&#xae88;" 
 />
    <glyph glyph-name="uniAE89" unicode="&#xae89;" 
 />
    <glyph glyph-name="uniAE8A" unicode="&#xae8a;" 
 />
    <glyph glyph-name="uniAE8B" unicode="&#xae8b;" 
 />
    <glyph glyph-name="uniAE8C" unicode="&#xae8c;" 
d="M735 813v-90h115v-97h-115v-71h115v-97h-115v-99h-123v454h123zM127 546.5q36 50.5 46 124.5h-121v98h240q0 -139 -43 -230.5t-149 -167.5l-80 77q71 48 107 98.5zM141 323h594v-241h-470v-60h501v-96h-623v246h470v56h-472v95zM381.5 531q35.5 57 45.5 140h-103v98h221
q0 -145 -42 -243.5t-145 -177.5l-86 72q74 54 109.5 111z" />
    <glyph glyph-name="uniAE8D" unicode="&#xae8d;" 
d="M755 314v-399h-128v300h-176v99h304zM125 550q35 47 47 116h-116v103h245q0 -136 -44 -226t-147 -164l-87 79q67 45 102 92zM101 314h315v-238h-190v-62q77 1 132.5 5t111.5 14l10 -95q-68 -12 -135.5 -15.5t-182.5 -3.5h-60v243h190v57h-191v95zM390 533.5
q32 53.5 41 132.5h-98v103h225q0 -142 -36.5 -238t-125.5 -177l-102 71q64 55 96 108.5zM634 813h121v-98h100v-100h-100v-81h100v-100h-100v-80h-121v459z" />
    <glyph glyph-name="uniAE8E" unicode="&#xae8e;" 
 />
    <glyph glyph-name="uniAE8F" unicode="&#xae8f;" 
 />
    <glyph glyph-name="uniAE90" unicode="&#xae90;" 
 />
    <glyph glyph-name="uniAE91" unicode="&#xae91;" 
 />
    <glyph glyph-name="uniAE92" unicode="&#xae92;" 
 />
    <glyph glyph-name="uniAE93" unicode="&#xae93;" 
 />
    <glyph glyph-name="uniAE94" unicode="&#xae94;" 
 />
    <glyph glyph-name="uniAE95" unicode="&#xae95;" 
 />
    <glyph glyph-name="uniAE96" unicode="&#xae96;" 
 />
    <glyph glyph-name="uniAE97" unicode="&#xae97;" 
 />
    <glyph glyph-name="uniAE98" unicode="&#xae98;" 
 />
    <glyph glyph-name="uniAE99" unicode="&#xae99;" 
 />
    <glyph glyph-name="uniAE9A" unicode="&#xae9a;" 
 />
    <glyph glyph-name="uniAE9B" unicode="&#xae9b;" 
 />
    <glyph glyph-name="uniAE9C" unicode="&#xae9c;" 
 />
    <glyph glyph-name="uniAE9D" unicode="&#xae9d;" 
 />
    <glyph glyph-name="uniAE9E" unicode="&#xae9e;" 
 />
    <glyph glyph-name="uniAE9F" unicode="&#xae9f;" 
 />
    <glyph glyph-name="uniAEA0" unicode="&#xaea0;" 
d="M255 708q0 -184 -29.5 -322.5t-109.5 -256.5l-97 54q64 93 93 192.5t34 229.5h-99v103h208zM324.5 347q28.5 114 33.5 258h-74v103h185q0 -194 -30.5 -349.5t-109.5 -284.5l-99 53q66 106 94.5 220zM515 798h112v-185h77v200h112v-898h-112v322h-77v-279h-112v840z
M704 341v167h-77v-167h77z" />
    <glyph glyph-name="uniAEA1" unicode="&#xaea1;" 
 />
    <glyph glyph-name="uniAEA2" unicode="&#xaea2;" 
 />
    <glyph glyph-name="uniAEA3" unicode="&#xaea3;" 
 />
    <glyph glyph-name="uniAEA4" unicode="&#xaea4;" 
 />
    <glyph glyph-name="uniAEA5" unicode="&#xaea5;" 
 />
    <glyph glyph-name="uniAEA6" unicode="&#xaea6;" 
 />
    <glyph glyph-name="uniAEA7" unicode="&#xaea7;" 
 />
    <glyph glyph-name="uniAEA8" unicode="&#xaea8;" 
 />
    <glyph glyph-name="uniAEA9" unicode="&#xaea9;" 
 />
    <glyph glyph-name="uniAEAA" unicode="&#xaeaa;" 
 />
    <glyph glyph-name="uniAEAB" unicode="&#xaeab;" 
 />
    <glyph glyph-name="uniAEAC" unicode="&#xaeac;" 
 />
    <glyph glyph-name="uniAEAD" unicode="&#xaead;" 
 />
    <glyph glyph-name="uniAEAE" unicode="&#xaeae;" 
 />
    <glyph glyph-name="uniAEAF" unicode="&#xaeaf;" 
 />
    <glyph glyph-name="uniAEB0" unicode="&#xaeb0;" 
 />
    <glyph glyph-name="uniAEB1" unicode="&#xaeb1;" 
 />
    <glyph glyph-name="uniAEB2" unicode="&#xaeb2;" 
 />
    <glyph glyph-name="uniAEB3" unicode="&#xaeb3;" 
 />
    <glyph glyph-name="uniAEB4" unicode="&#xaeb4;" 
 />
    <glyph glyph-name="uniAEB5" unicode="&#xaeb5;" 
 />
    <glyph glyph-name="uniAEB6" unicode="&#xaeb6;" 
 />
    <glyph glyph-name="uniAEB7" unicode="&#xaeb7;" 
 />
    <glyph glyph-name="uniAEB8" unicode="&#xaeb8;" 
 />
    <glyph glyph-name="uniAEB9" unicode="&#xaeb9;" 
 />
    <glyph glyph-name="uniAEBA" unicode="&#xaeba;" 
 />
    <glyph glyph-name="uniAEBB" unicode="&#xaebb;" 
 />
    <glyph glyph-name="uniAEBC" unicode="&#xaebc;" 
d="M773 813v-896h-124v463h-137q-19 -93 -55.5 -175.5t-96.5 -156.5l-98 69q85 107 119.5 225t40.5 279h-99v100h216q0 -147 -11 -241h121v333h124zM135.5 374.5q35.5 103.5 41.5 246.5h-125v100h242q0 -136 -14 -239t-54 -197.5t-116 -179.5l-97 71q87 95 122.5 198.5z" />
    <glyph glyph-name="uniAEBD" unicode="&#xaebd;" 
d="M773 241v-325h-124v226h-488v99h612zM132 513.5q36 58.5 46 143.5h-120v99h238q0 -149 -43 -249.5t-152 -182.5l-80 77q75 54 111 112.5zM384 492.5q36 68.5 45 164.5h-103v99h219q0 -91 -13 -165h117v221h124v-534h-124v213h-144q-44 -112 -146 -200l-87 71
q76 62 112 130.5z" />
    <glyph glyph-name="uniAEBE" unicode="&#xaebe;" 
d="M773 812v-518h-124v201h-145q-42 -107 -144 -195l-87 69q75 63 111 130t45 161h-104v99h220q0 -91 -13 -165h117v218h124zM132 519q36 58 46 141h-120v99h238q0 -148 -43 -247t-152 -179l-79 75q74 53 110 111zM132 257h303v-341h-122v243h-181v98zM471 257h302v-341
h-123v243h-179v98z" />
    <glyph glyph-name="uniAEBF" unicode="&#xaebf;" 
 />
    <glyph glyph-name="uniAEC0" unicode="&#xaec0;" 
d="M773 810v-653h-124v303h-138q-45 -117 -151 -206l-82 75q79 66 114.5 140t43.5 176h-101v100h217q0 -106 -14 -186h111v251h124zM139.5 491.5q36.5 63.5 45.5 153.5h-120v100h238q0 -155 -43 -260t-155 -190l-79 76q77 57 113.5 120.5zM173 216h124v-184h499v-99h-623
v283z" />
    <glyph glyph-name="uniAEC1" unicode="&#xaec1;" 
 />
    <glyph glyph-name="uniAEC2" unicode="&#xaec2;" 
 />
    <glyph glyph-name="uniAEC3" unicode="&#xaec3;" 
 />
    <glyph glyph-name="uniAEC4" unicode="&#xaec4;" 
d="M256 547.5q-42 -89.5 -147 -163.5l-80 76q70 46 105 95.5t45 121.5h-120v98h239q0 -138 -42 -227.5zM172 318h601v-241h-477v-59h500v-97h-622v246h475v55h-477v96zM387.5 535q34.5 58 43.5 142h-102v98h221q0 -87 -13 -153h112v191h124v-458h-124v169h-142
q-42 -95 -141 -174l-85 73q72 54 106.5 112z" />
    <glyph glyph-name="uniAEC5" unicode="&#xaec5;" 
 />
    <glyph glyph-name="uniAEC6" unicode="&#xaec6;" 
 />
    <glyph glyph-name="uniAEC7" unicode="&#xaec7;" 
 />
    <glyph glyph-name="uniAEC8" unicode="&#xaec8;" 
 />
    <glyph glyph-name="uniAEC9" unicode="&#xaec9;" 
 />
    <glyph glyph-name="uniAECA" unicode="&#xaeca;" 
 />
    <glyph glyph-name="uniAECB" unicode="&#xaecb;" 
 />
    <glyph glyph-name="uniAECC" unicode="&#xaecc;" 
d="M253 514q-43 -99 -152 -179l-79 76q75 54 110.5 110.5t45.5 138.5h-120v99h238q0 -146 -43 -245zM173 272h600v-345h-600v345zM385 500.5q35 66.5 44 159.5h-101v99h217q0 -93 -12 -158h116v211h124v-502h-124v192h-142q-43 -112 -143 -199l-88 70q74 61 109 127.5z
M651 24v151h-357v-151h357z" />
    <glyph glyph-name="uniAECD" unicode="&#xaecd;" 
d="M773 812v-481h-124v175h-139q-43 -107 -140 -190l-87 69q73 60 107.5 125.5t43.5 158.5h-102v99h218q0 -91 -13 -163h112v207h124zM136.5 531.5q35.5 56.5 45.5 137.5h-118v99h237q0 -147 -43 -244.5t-151 -177.5l-80 77q74 52 109.5 108.5zM181 291h122v-86h347v86h123
v-365h-592v365zM650 25v85h-347v-85h347z" />
    <glyph glyph-name="uniAECE" unicode="&#xaece;" 
 />
    <glyph glyph-name="uniAECF" unicode="&#xaecf;" 
d="M774 813v-604h-125v274h-139q-43 -111 -143 -197l-87 70q74 63 109.5 132t43.5 164h-100v99h217q0 -94 -13 -169h112v231h125zM137.5 508q35.5 59 45.5 144h-120v99h238q0 -100 -17.5 -175.5t-60 -138.5t-117.5 -119l-79 77q75 54 110.5 113zM283.5 65q63.5 35 95.5 83.5
t32 100.5v21h123v-21q0 -52 32 -100t95.5 -83.5t153.5 -48.5l-48 -96q-103 17 -178.5 61.5t-115.5 109.5q-42 -66 -118 -110.5t-179 -62.5l-47 98q91 13 154.5 48z" />
    <glyph glyph-name="uniAED0" unicode="&#xaed0;" 
d="M254 514q-43 -99 -152 -179l-79 77q75 53 110.5 109.5t45.5 138.5h-120v99h238q0 -146 -43 -245zM190.5 104q42.5 61 42.5 132v35h120v-35q0 -58 25.5 -111t76.5 -89q52 38 78 92t26 108v35h123v-35q0 -76 41.5 -135.5t125.5 -86.5l-61 -89q-61 21 -104 61t-66 94
q-23 -55 -63.5 -97.5t-98.5 -66.5q-115 43 -163 161q-24 -53 -66 -92t-101 -60l-61 89q83 29 125.5 90zM386 502q35 66 44 158h-102v99h218q0 -87 -12 -161h115v214h124v-509h-124v196h-143q-41 -107 -141 -193l-88 69q74 61 109 127z" />
    <glyph glyph-name="uniAED1" unicode="&#xaed1;" 
d="M773 812v-529h-124v209h-147q-44 -105 -142 -187l-86 70q74 60 110 126.5t44 158.5h-102v98h219q0 -95 -14 -166h118v220h124zM132 521q36 57 46 139h-120v98h238q0 -146 -43.5 -245.5t-153.5 -179.5l-79 77q76 54 112 111zM210 189.5q37 40.5 105.5 62.5t159.5 22
t160 -22t106.5 -62.5t37.5 -94.5t-37.5 -94.5t-106.5 -62.5t-160 -22t-159.5 22t-105.5 62.5t-37 94.5t37 94.5zM342 32.5q47 -21.5 133 -21.5t133.5 21.5t47.5 62.5t-47.5 62.5t-133.5 21.5t-133 -21.5t-47 -62.5t47 -62.5z" />
    <glyph glyph-name="uniAED2" unicode="&#xaed2;" 
 />
    <glyph glyph-name="uniAED3" unicode="&#xaed3;" 
d="M279 602.5q-18 -70.5 -60 -128.5t-115 -111l-79 76q72 48 107.5 101t45.5 130h-120v98h239q0 -95 -18 -165.5zM314.5 58.5q72.5 37.5 90.5 86.5h-246v91h252v84h126v-84h250v-91h-244q18 -47 90 -85.5t188 -49.5l-38 -91q-109 10 -188.5 46.5t-121.5 90.5
q-42 -55 -121.5 -91t-189.5 -46l-38 91q118 11 190.5 48.5zM385.5 521q34.5 61 43.5 149h-100v98h217q0 -89 -13 -158h116v202h125v-507h-125v207h-145q-42 -100 -139 -179l-86 69q72 58 106.5 119z" />
    <glyph glyph-name="uniAED4" unicode="&#xaed4;" 
 />
    <glyph glyph-name="uniAED5" unicode="&#xaed5;" 
d="M290 773q0 -138 -39.5 -228t-139.5 -166l-86 79q65 46 97.5 93.5t42.5 117.5h-112v104h237zM154 312h635v-91h-511v-58h503v-86h-503v-61h524v-90h-648v386zM373.5 532.5q30.5 54.5 39.5 136.5h-102v104h229q0 -79 -10 -139h131v179h123v-459h-123v179h-156
q-39 -101 -126 -184l-99 71q63 58 93.5 112.5z" />
    <glyph glyph-name="uniAED6" unicode="&#xaed6;" 
 />
    <glyph glyph-name="uniAED7" unicode="&#xaed7;" 
 />
    <glyph glyph-name="uniAED8" unicode="&#xaed8;" 
d="M220 375.5q-28 -144.5 -106 -267.5l-96 52q66 100 93 205.5t32 245.5h-96v99h201q0 -190 -28 -334.5zM314 339.5q26 117.5 29 271.5h-68v99h173q0 -136 -9 -235h77v318h116v-836h-116v419h-89q-31 -183 -114 -314l-96 54q71 106 97 223.5zM689 812h117v-896h-117v896z
" />
    <glyph glyph-name="uniAED9" unicode="&#xaed9;" 
d="M803 813v-528h-117v528h117zM106.5 518.5q26.5 55.5 33.5 136.5h-89v99h201q0 -95 -11.5 -164.5t-41.5 -130.5t-85 -119l-89 65q55 58 81.5 113.5zM165 247h638v-331h-124v233h-514v98zM311.5 489.5q27.5 68.5 34.5 165.5h-71v99h183q0 -92 -8 -157h65v198h115v-505h-115
v208h-84q-31 -114 -114 -205l-95 61q62 67 89.5 135.5z" />
    <glyph glyph-name="uniAEDA" unicode="&#xaeda;" 
 />
    <glyph glyph-name="uniAEDB" unicode="&#xaedb;" 
 />
    <glyph glyph-name="uniAEDC" unicode="&#xaedc;" 
d="M301 218v-183h521v-99h-644v282h123zM107.5 493.5q26.5 61.5 33.5 150.5h-89v100h200q0 -102 -10.5 -174.5t-40.5 -137.5t-88 -125l-92 64q60 61 86.5 122.5zM313 466q27 74 32 178h-70v100h182q0 -108 -9 -180h68v232h115v-626h-115v295h-88q-31 -113 -111 -204l-95 60
q64 71 91 145zM687 812h117v-657h-117v657z" />
    <glyph glyph-name="uniAEDD" unicode="&#xaedd;" 
 />
    <glyph glyph-name="uniAEDE" unicode="&#xaede;" 
 />
    <glyph glyph-name="uniAEDF" unicode="&#xaedf;" 
 />
    <glyph glyph-name="uniAEE0" unicode="&#xaee0;" 
 />
    <glyph glyph-name="uniAEE1" unicode="&#xaee1;" 
 />
    <glyph glyph-name="uniAEE2" unicode="&#xaee2;" 
 />
    <glyph glyph-name="uniAEE3" unicode="&#xaee3;" 
 />
    <glyph glyph-name="uniAEE4" unicode="&#xaee4;" 
 />
    <glyph glyph-name="uniAEE5" unicode="&#xaee5;" 
 />
    <glyph glyph-name="uniAEE6" unicode="&#xaee6;" 
 />
    <glyph glyph-name="uniAEE7" unicode="&#xaee7;" 
 />
    <glyph glyph-name="uniAEE8" unicode="&#xaee8;" 
d="M803 812v-515h-117v515h117zM107.5 518q26.5 58 33.5 143h-90v99h201q0 -98 -11 -168.5t-41 -133t-87 -120.5l-91 64q59 58 85.5 116zM194 263h608v-336h-608v336zM312 495q28 69 34 166h-72v99h183q0 -101 -9 -168h67v204h115v-494h-115v191h-87q-33 -109 -112 -195
l-94 61q62 67 90 136zM681 24v143h-365v-143h365z" />
    <glyph glyph-name="uniAEE9" unicode="&#xaee9;" 
 />
    <glyph glyph-name="uniAEEA" unicode="&#xaeea;" 
 />
    <glyph glyph-name="uniAEEB" unicode="&#xaeeb;" 
d="M804 812v-588h-117v588h117zM107.5 508q26.5 59 33.5 146h-89v99h201q0 -99 -10.5 -170.5t-41 -134t-87.5 -121.5l-93 63q60 59 86.5 118zM300 70q64 34 97 80.5t33 96.5v24h128v-24q0 -50 33 -96.5t98 -80.5t156 -47l-48 -96q-106 17 -183.5 62.5t-118.5 111.5
q-41 -66 -118.5 -111.5t-183.5 -62.5l-48 96q91 13 155 47zM313.5 480.5q26.5 71.5 31.5 173.5h-69v99h180q0 -104 -7 -164h65v207h116v-493h-116v187h-82q-30 -118 -112 -211l-95 61q62 69 88.5 140.5z" />
    <glyph glyph-name="uniAEEC" unicode="&#xaeec;" 
 />
    <glyph glyph-name="uniAEED" unicode="&#xaeed;" 
d="M803 812v-537h-117v537h117zM107.5 515q26.5 58 33.5 144h-89v98h200q0 -99 -10.5 -169.5t-41 -132.5t-87.5 -120l-91 64q59 58 85.5 116zM245.5 211.5q86.5 44.5 239.5 44.5q152 0 239 -44.5t87 -125.5t-86.5 -125.5t-239.5 -44.5t-239.5 44.5t-86.5 125.5t86.5 125.5z
M314 489.5q26 69.5 32 169.5h-71v98h182q0 -98 -8 -167h66v205h115v-493h-115v189h-84q-31 -110 -108 -201l-96 61q61 69 87 138.5zM485 11q198 0 198 75q0 37 -50.5 56t-147.5 19q-198 0 -198 -75t198 -75z" />
    <glyph glyph-name="uniAEEE" unicode="&#xaeee;" 
 />
    <glyph glyph-name="uniAEEF" unicode="&#xaeef;" 
 />
    <glyph glyph-name="uniAEF0" unicode="&#xaef0;" 
 />
    <glyph glyph-name="uniAEF1" unicode="&#xaef1;" 
 />
    <glyph glyph-name="uniAEF2" unicode="&#xaef2;" 
 />
    <glyph glyph-name="uniAEF3" unicode="&#xaef3;" 
 />
    <glyph glyph-name="uniAEF4" unicode="&#xaef4;" 
d="M773 813v-896h-124v335h-175q-43 -110 -111 -196l-99 66q83 107 118.5 225t41.5 273h-98v100h215q0 -66 -3 -129h111v222h124zM137 381.5q37 101.5 44 238.5h-125v100h242q0 -131 -15 -233t-55.5 -195t-115.5 -176l-94 71q82 93 119 194.5zM649 350v142h-119
q-10 -80 -26 -142h145z" />
    <glyph glyph-name="uniAEF5" unicode="&#xaef5;" 
 />
    <glyph glyph-name="uniAEF6" unicode="&#xaef6;" 
 />
    <glyph glyph-name="uniAEF7" unicode="&#xaef7;" 
 />
    <glyph glyph-name="uniAEF8" unicode="&#xaef8;" 
d="M649 434v113h-120q-17 -86 -57.5 -157.5t-112.5 -134.5l-84 73q77 67 111 141t42 176h-96v100h213q0 -51 -3 -99h107v164h124v-655h-124v180h-134v99h134zM139 492.5q36 63.5 45 152.5h-119v100h237q0 -103 -17 -181t-60 -144.5t-118 -124.5l-80 76q76 58 112 121.5z
M173 216h124v-184h499v-99h-623v283z" />
    <glyph glyph-name="uniAEF9" unicode="&#xaef9;" 
 />
    <glyph glyph-name="uniAEFA" unicode="&#xaefa;" 
 />
    <glyph glyph-name="uniAEFB" unicode="&#xaefb;" 
 />
    <glyph glyph-name="uniAEFC" unicode="&#xaefc;" 
d="M649 526v85h-118q-16 -78 -55 -140t-110 -117l-86 71q72 54 105.5 111.5t42.5 140.5h-101v98h218q0 -26 -2 -72h106v110h124v-458h-124v77h-127v94h127zM134 557q35 48 45 120h-120v98h239q0 -137 -42 -226t-147 -163l-80 77q70 46 105 94zM172 318h601v-241h-477v-59
h500v-97h-622v246h475v55h-477v96z" />
    <glyph glyph-name="uniAEFD" unicode="&#xaefd;" 
 />
    <glyph glyph-name="uniAEFE" unicode="&#xaefe;" 
 />
    <glyph glyph-name="uniAEFF" unicode="&#xaeff;" 
 />
    <glyph glyph-name="uniAF00" unicode="&#xaf00;" 
 />
    <glyph glyph-name="uniAF01" unicode="&#xaf01;" 
 />
    <glyph glyph-name="uniAF02" unicode="&#xaf02;" 
 />
    <glyph glyph-name="uniAF03" unicode="&#xaf03;" 
 />
    <glyph glyph-name="uniAF04" unicode="&#xaf04;" 
 />
    <glyph glyph-name="uniAF05" unicode="&#xaf05;" 
 />
    <glyph glyph-name="uniAF06" unicode="&#xaf06;" 
 />
    <glyph glyph-name="uniAF07" unicode="&#xaf07;" 
d="M649 464v100h-120q-18 -83 -57 -151.5t-107 -128.5l-87 69q73 64 107.5 133t42.5 166h-97v99h214q0 -46 -3 -88h107v150h125v-608h-125v159h-130v100h130zM137.5 508q35.5 59 45.5 144h-120v99h238q0 -100 -17.5 -175.5t-60 -138.5t-117.5 -119l-79 77q75 54 110.5 113z
M283.5 62q63.5 34 95.5 80.5t32 98.5v18h123v-18q0 -51 32 -97.5t95 -80.5t154 -47l-47 -96q-103 16 -178.5 59.5t-116.5 107.5q-42 -64 -118 -108t-180 -60l-46 96q91 13 154.5 47z" />
    <glyph glyph-name="uniAF08" unicode="&#xaf08;" 
d="M649 489v92h-123q-17 -82 -56 -149t-108 -126l-87 69q72 61 106.5 127t43.5 158h-97v99h214q0 -41 -3 -80h110v133h124v-509h-124v87h-132v99h132zM133.5 521.5q35.5 56.5 45.5 138.5h-120v99h238q0 -146 -43 -245t-152 -179l-79 77q75 53 110.5 109.5zM190.5 104
q42.5 61 42.5 132v35h120v-35q0 -58 25.5 -111t76.5 -89q52 38 78 92t26 108v35h123v-35q0 -76 41.5 -135.5t125.5 -86.5l-61 -89q-61 21 -104 61t-66 94q-23 -55 -63.5 -97.5t-98.5 -66.5q-115 43 -163 161q-24 -53 -66 -92t-101 -60l-61 89q83 29 125.5 90z" />
    <glyph glyph-name="uniAF09" unicode="&#xaf09;" 
d="M773 812v-529h-124v110h-131v100h131v88h-120q-18 -82 -58.5 -149.5t-110.5 -126.5l-86 70q74 60 110 126.5t44 158.5h-102v98h219q0 -39 -3 -77h107v131h124zM132 521q36 57 46 139h-120v98h238q0 -146 -43.5 -245.5t-153.5 -179.5l-79 77q76 54 112 111zM210 189.5
q37 40.5 105.5 62.5t159.5 22t160 -22t106.5 -62.5t37.5 -94.5t-37.5 -94.5t-106.5 -62.5t-160 -22t-159.5 22t-105.5 62.5t-37 94.5t37 94.5zM342 32.5q47 -21.5 133 -21.5t133.5 21.5t47.5 62.5t-47.5 62.5t-133.5 21.5t-133 -21.5t-47 -62.5t47 -62.5z" />
    <glyph glyph-name="uniAF0A" unicode="&#xaf0a;" 
 />
    <glyph glyph-name="uniAF0B" unicode="&#xaf0b;" 
 />
    <glyph glyph-name="uniAF0C" unicode="&#xaf0c;" 
 />
    <glyph glyph-name="uniAF0D" unicode="&#xaf0d;" 
d="M775 301v-91h-472v-52h461v-87h-461v-54h487v-91h-610v375h595zM135.5 537q35.5 56 45.5 137h-116v97h234q0 -98 -17 -170t-59 -132t-116 -114l-80 76q73 50 108.5 106zM379 518q35 65 43 156h-95v97h212q0 -27 -2 -77h112v118h124v-476h-124v74h-134v97h134v91h-125
q-17 -82 -57 -148.5t-111 -124.5l-87 69q75 59 110 124z" />
    <glyph glyph-name="uniAF0E" unicode="&#xaf0e;" 
 />
    <glyph glyph-name="uniAF0F" unicode="&#xaf0f;" 
 />
    <glyph glyph-name="uniAF10" unicode="&#xaf10;" 
d="M220 375.5q-28 -144.5 -106 -267.5l-96 52q66 100 93 205.5t32 245.5h-96v99h201q0 -190 -28 -334.5zM314 339.5q26 117.5 29 271.5h-68v99h173q0 -86 -2 -129h70v212h116v-836h-116v297h-117q-32 -108 -86 -192l-96 54q71 106 97 223.5zM516 353v129h-76
q-7 -76 -17 -129h93zM689 812h117v-896h-117v896z" />
    <glyph glyph-name="uniAF11" unicode="&#xaf11;" 
 />
    <glyph glyph-name="uniAF12" unicode="&#xaf12;" 
 />
    <glyph glyph-name="uniAF13" unicode="&#xaf13;" 
 />
    <glyph glyph-name="uniAF14" unicode="&#xaf14;" 
 />
    <glyph glyph-name="uniAF15" unicode="&#xaf15;" 
 />
    <glyph glyph-name="uniAF16" unicode="&#xaf16;" 
 />
    <glyph glyph-name="uniAF17" unicode="&#xaf17;" 
 />
    <glyph glyph-name="uniAF18" unicode="&#xaf18;" 
 />
    <glyph glyph-name="uniAF19" unicode="&#xaf19;" 
 />
    <glyph glyph-name="uniAF1A" unicode="&#xaf1a;" 
 />
    <glyph glyph-name="uniAF1B" unicode="&#xaf1b;" 
 />
    <glyph glyph-name="uniAF1C" unicode="&#xaf1c;" 
 />
    <glyph glyph-name="uniAF1D" unicode="&#xaf1d;" 
 />
    <glyph glyph-name="uniAF1E" unicode="&#xaf1e;" 
 />
    <glyph glyph-name="uniAF1F" unicode="&#xaf1f;" 
 />
    <glyph glyph-name="uniAF20" unicode="&#xaf20;" 
 />
    <glyph glyph-name="uniAF21" unicode="&#xaf21;" 
 />
    <glyph glyph-name="uniAF22" unicode="&#xaf22;" 
 />
    <glyph glyph-name="uniAF23" unicode="&#xaf23;" 
 />
    <glyph glyph-name="uniAF24" unicode="&#xaf24;" 
 />
    <glyph glyph-name="uniAF25" unicode="&#xaf25;" 
 />
    <glyph glyph-name="uniAF26" unicode="&#xaf26;" 
 />
    <glyph glyph-name="uniAF27" unicode="&#xaf27;" 
 />
    <glyph glyph-name="uniAF28" unicode="&#xaf28;" 
 />
    <glyph glyph-name="uniAF29" unicode="&#xaf29;" 
 />
    <glyph glyph-name="uniAF2A" unicode="&#xaf2a;" 
 />
    <glyph glyph-name="uniAF2B" unicode="&#xaf2b;" 
 />
    <glyph glyph-name="uniAF2C" unicode="&#xaf2c;" 
d="M377 732v-45q0 -95 -10.5 -189.5t-51.5 -231.5l-122 20q57 179 61 348h-164v98h287zM31 136h360v271h122v-271h328v-100h-810v100zM442 732h318v-58q0 -97 -5.5 -188.5t-26.5 -215.5l-122 14q17 102 23 184.5t7 165.5h-194v98z" />
    <glyph glyph-name="uniAF2D" unicode="&#xaf2d;" 
d="M762 775v-54q0 -68 -5 -128t-24 -132l-120 12q24 97 28 203h-198v99h319zM33 403h357v158h122v-158h328v-99h-807v99zM97 775h278v-38q0 -67 -8 -131.5t-38 -145.5l-120 16q38 106 44 200h-156v99zM119 231h620v-311h-124v211h-496v100z" />
    <glyph glyph-name="uniAF2E" unicode="&#xaf2e;" 
 />
    <glyph glyph-name="uniAF2F" unicode="&#xaf2f;" 
 />
    <glyph glyph-name="uniAF30" unicode="&#xaf30;" 
d="M762 770v-56q0 -72 -5 -134t-24 -139l-120 14q26 108 28 217h-198v98h319zM33 379h357v163h122v-163h328v-98h-807v98zM97 770h278v-44q0 -70 -8.5 -137t-39.5 -151l-120 20q41 109 47 214h-157v98zM136 214h124v-183h495v-99h-619v282z" />
    <glyph glyph-name="uniAF31" unicode="&#xaf31;" 
 />
    <glyph glyph-name="uniAF32" unicode="&#xaf32;" 
d="M537 257v59h120v-59h144v-90h-410v90h146zM33 445h357v139h122v-139h328v-99h-807v99zM97 779h278v-46q0 -63 -8 -120t-39 -126l-119 19q39 95 45 176h-157v97zM119 265h120v-225q82 5 157 27l15 -99q-59 -17 -116.5 -23t-125.5 -6h-50v326zM479.5 116q45.5 32 116.5 32
t117 -32t46 -85q0 -52 -46 -83.5t-117 -31.5t-116.5 31.5t-45.5 83.5q0 53 45.5 85zM443 779h319v-49q0 -62 -5 -117.5t-23 -123.5l-120 14q24 92 26 179h-197v97zM554.5 5.5q15.5 -8.5 41.5 -8.5t42 8.5t16 25.5q0 18 -16 27t-42 9q-25 0 -41 -9t-16 -27q0 -17 15.5 -25.5z
" />
    <glyph glyph-name="uniAF33" unicode="&#xaf33;" 
d="M762 776v-53q0 -67 -5 -125t-24 -130l-120 13q24 94 28 195h-198v100h319zM33 415h357v154h122v-154h328v-100h-807v100zM97 776h278v-39q0 -64 -8 -127.5t-38 -142.5l-120 17q38 104 44 192h-156v100zM127 234h613v-100h-490v-109h503v-99h-626v308z" />
    <glyph glyph-name="uniAF34" unicode="&#xaf34;" 
d="M762 787v-47q0 -61 -5 -115t-23 -120l-120 14q24 90 26 170h-197v98h319zM33 466h356v128h122v-128h329v-98h-807v98zM97 787h278v-44q0 -62 -8 -118.5t-39 -122.5l-119 19q38 89 44 168h-156v98zM135 316h602v-239h-477v-58h507v-96h-631v245h478v52h-479v96z" />
    <glyph glyph-name="uniAF35" unicode="&#xaf35;" 
 />
    <glyph glyph-name="uniAF36" unicode="&#xaf36;" 
 />
    <glyph glyph-name="uniAF37" unicode="&#xaf37;" 
 />
    <glyph glyph-name="uniAF38" unicode="&#xaf38;" 
 />
    <glyph glyph-name="uniAF39" unicode="&#xaf39;" 
 />
    <glyph glyph-name="uniAF3A" unicode="&#xaf3a;" 
 />
    <glyph glyph-name="uniAF3B" unicode="&#xaf3b;" 
 />
    <glyph glyph-name="uniAF3C" unicode="&#xaf3c;" 
d="M761 778v-54q0 -68 -5 -127.5t-24 -131.5l-119 12q25 103 27 203h-198v98h319zM33 416h357v150h122v-150h328v-99h-807v99zM97 778h278v-39q0 -65 -8 -130t-38 -145l-120 16q38 106 44 200h-156v98zM130 243h609v-318h-609v318zM618 24v123h-367v-123h367z" />
    <glyph glyph-name="uniAF3D" unicode="&#xaf3d;" 
d="M761 781v-54q0 -68 -5 -127t-24 -132l-119 14q25 102 27 201h-198v98h319zM33 424h357v144h122v-144h328v-99h-807v99zM97 781h278v-38q0 -66 -8 -130.5t-38 -144.5l-120 16q38 105 44 199h-156v98zM134 277h122v-79h359v79h122v-351h-603v351zM615 25v79h-359v-79h359z
" />
    <glyph glyph-name="uniAF3E" unicode="&#xaf3e;" 
 />
    <glyph glyph-name="uniAF3F" unicode="&#xaf3f;" 
d="M761 772v-54q0 -69 -5 -128.5t-24 -133.5l-120 13q26 102 28 205h-198v98h319zM33 403h357v156h122v-156h328v-99h-807v99zM243 59q66 32 98.5 77t32.5 95v27h124v-27q0 -50 32.5 -95t98 -77t160.5 -43l-45 -98q-109 16 -187.5 58t-120.5 106q-42 -64 -120.5 -106
t-186.5 -58l-46 98q94 11 160 43zM97 772h278v-39q0 -66 -8 -131t-38 -146l-120 17q37 103 45 201h-157v98z" />
    <glyph glyph-name="uniAF40" unicode="&#xaf40;" 
 />
    <glyph glyph-name="uniAF41" unicode="&#xaf41;" 
d="M664 211q83 -45 83 -125t-83 -125t-229 -45t-229.5 44.5t-83.5 125.5t83.5 125.5t229.5 44.5t229 -45zM33 406h357v156h122v-156h328v-99h-807v99zM97 775h278v-38q0 -66 -8 -130.5t-38 -146.5l-120 17q38 106 44 200h-156v98zM435 12q185 0 185 74t-185 74
q-186 0 -186 -74t186 -74zM442 775h319v-54q0 -68 -5 -127.5t-24 -132.5l-119 14q25 102 27 202h-198v98z" />
    <glyph glyph-name="uniAF42" unicode="&#xaf42;" 
d="M761 777v-53q0 -67 -5 -125.5t-24 -130.5l-119 13q25 100 27 199h-198v97h319zM33 422h357v150h122v-150h328v-98h-807v98zM261.5 66.5q68.5 38.5 95.5 92.5h-232v97h624v-97h-233q26 -54 94.5 -92.5t174.5 -51.5l-46 -96q-108 16 -185 57.5t-118 105.5
q-41 -64 -118 -105.5t-185 -56.5l-45 95q105 13 173.5 51.5zM97 777h278v-37q0 -65 -8 -129t-38 -144l-120 17q38 104 44 196h-156v97z" />
    <glyph glyph-name="uniAF43" unicode="&#xaf43;" 
d="M762 782v-50q0 -62 -5 -118t-23 -124l-120 13q24 93 26 181h-198v98h320zM33 450h357v129h122v-129h328v-100h-807v100zM283 63q71 40 86 91h-236v95h240v74h126v-74h240v-95h-236q15 -51 86 -91t187 -51l-41 -92q-106 11 -182 47t-117 90q-41 -54 -117.5 -90t-181.5 -47
l-41 92q116 11 187 51zM97 782h278v-46q0 -64 -8 -121t-39 -127l-120 18q40 95 46 178h-157v98z" />
    <glyph glyph-name="uniAF44" unicode="&#xaf44;" 
 />
    <glyph glyph-name="uniAF45" unicode="&#xaf45;" 
d="M762 787v-47q0 -61 -5 -115.5t-23 -120.5l-120 15q24 91 26 170h-197v98h319zM33 459h356v130h122v-130h329v-98h-807v98zM97 787h278v-44q0 -62 -8 -118.5t-39 -123.5l-119 19q38 90 44 169h-156v98zM130 298h617v-91h-493v-51h472v-86h-472v-54h500v-90h-624v372z" />
    <glyph glyph-name="uniAF46" unicode="&#xaf46;" 
 />
    <glyph glyph-name="uniAF47" unicode="&#xaf47;" 
 />
    <glyph glyph-name="uniAF48" unicode="&#xaf48;" 
d="M260 717v-57q0 -88 -8.5 -166t-40.5 -182l-112 22q25 83 34.5 151t10.5 132h-98v100h214zM259 197v239h114v-234q105 6 208 20l7 -91q-125 -23 -262 -30.5t-288 -7.5l-11 100q120 0 232 4zM302 717h254v-71q0 -87 -4 -159t-19 -163l-114 16q22 133 22 277h-139v100z
M624 812h124v-363h108v-102h-108v-431h-124v896z" />
    <glyph glyph-name="uniAF49" unicode="&#xaf49;" 
d="M261 756v-57q0 -70 -6.5 -128t-30.5 -129l-115 16q19 57 26 104t9 96h-90v98h207zM254 384v163h112v-159q128 7 212 17l7 -87q-123 -21 -257.5 -27.5t-289.5 -6.5l-11 98q146 0 227 2zM132 221h619v-302h-124v203h-495v99zM301 756h243v-58q0 -68 -4.5 -125t-21.5 -125
l-116 13q23 95 25 197h-126v98zM627 812h124v-234h101v-101h-101v-220h-124v555z" />
    <glyph glyph-name="uniAF4A" unicode="&#xaf4a;" 
 />
    <glyph glyph-name="uniAF4B" unicode="&#xaf4b;" 
 />
    <glyph glyph-name="uniAF4C" unicode="&#xaf4c;" 
 />
    <glyph glyph-name="uniAF4D" unicode="&#xaf4d;" 
 />
    <glyph glyph-name="uniAF4E" unicode="&#xaf4e;" 
 />
    <glyph glyph-name="uniAF4F" unicode="&#xaf4f;" 
 />
    <glyph glyph-name="uniAF50" unicode="&#xaf50;" 
d="M261 768v-51q0 -62 -6 -115.5t-29 -117.5l-115 17q30 91 32 170h-89v97h207zM254 439v136h112v-132q114 5 218 18l7 -86q-125 -21 -261 -27.5t-293 -6.5l-11 95q147 0 228 3zM136 296h615v-226h-488v-55h514v-92h-639v232h488v51h-490v90zM301 768h243v-54q0 -60 -4 -112
t-20 -114l-116 15q21 86 23 168h-126v97zM627 813h124v-197h101v-101h-101v-185h-124v483z" />
    <glyph glyph-name="uniAF51" unicode="&#xaf51;" 
 />
    <glyph glyph-name="uniAF52" unicode="&#xaf52;" 
 />
    <glyph glyph-name="uniAF53" unicode="&#xaf53;" 
 />
    <glyph glyph-name="uniAF54" unicode="&#xaf54;" 
 />
    <glyph glyph-name="uniAF55" unicode="&#xaf55;" 
 />
    <glyph glyph-name="uniAF56" unicode="&#xaf56;" 
 />
    <glyph glyph-name="uniAF57" unicode="&#xaf57;" 
 />
    <glyph glyph-name="uniAF58" unicode="&#xaf58;" 
 />
    <glyph glyph-name="uniAF59" unicode="&#xaf59;" 
 />
    <glyph glyph-name="uniAF5A" unicode="&#xaf5a;" 
 />
    <glyph glyph-name="uniAF5B" unicode="&#xaf5b;" 
 />
    <glyph glyph-name="uniAF5C" unicode="&#xaf5c;" 
d="M261 761v-56q0 -69 -6 -127t-30 -128l-115 17q18 56 25 101t9 94h-90v99h207zM254 394v157h112v-153q131 7 212 18l7 -86q-124 -21 -256 -27.5t-292 -6.5l-10 96q146 0 227 2zM182.5 101q39.5 56 39.5 124v20h120v-20q0 -55 25.5 -104.5t76.5 -84.5q52 35 78.5 85.5
t26.5 103.5v20h122v-20q0 -71 39.5 -126.5t120.5 -79.5l-59 -91q-116 39 -164 145q-50 -112 -162 -154q-115 42 -163 153q-51 -105 -162 -144l-59 91q81 26 120.5 82zM301 761h243v-59q0 -67 -4 -122.5t-19 -123.5l-116 13q20 95 22 193h-126v99zM627 812h124v-217h101v-102
h-101v-213h-124v532z" />
    <glyph glyph-name="uniAF5D" unicode="&#xaf5d;" 
d="M674.5 206q82.5 -43 82.5 -120q0 -78 -82.5 -122t-225.5 -44q-145 0 -227 44t-82 122q0 77 82 120t227 43q143 0 225.5 -43zM254 395v159h112v-154q124 7 212 20l7 -88q-123 -23 -255.5 -30t-291.5 -8l-11 98q145 0 227 3zM54 761h207v-56q0 -69 -6 -127t-30 -128
l-115 17q18 56 25 101t9 94h-90v99zM449 13q183 0 183 73q0 35 -46.5 53t-136.5 18q-184 0 -184 -71q0 -73 184 -73zM301 761h243v-58q0 -67 -4.5 -122.5t-21.5 -123.5l-116 13q23 91 25 192h-126v99zM627 812h124v-225h101v-101h-101v-225h-124v551z" />
    <glyph glyph-name="uniAF5E" unicode="&#xaf5e;" 
 />
    <glyph glyph-name="uniAF5F" unicode="&#xaf5f;" 
 />
    <glyph glyph-name="uniAF60" unicode="&#xaf60;" 
 />
    <glyph glyph-name="uniAF61" unicode="&#xaf61;" 
 />
    <glyph glyph-name="uniAF62" unicode="&#xaf62;" 
 />
    <glyph glyph-name="uniAF63" unicode="&#xaf63;" 
 />
    <glyph glyph-name="uniAF64" unicode="&#xaf64;" 
d="M309 436v-211q86 4 168 14l7 -87q-161 -32 -451 -32l-15 99q118 0 187 2v215h104zM35 713h182v-52q0 -83 -6.5 -153.5t-33.5 -163.5l-107 16q22 74 31 134.5t11 118.5h-77v100zM255 713h210v-72q0 -88 -3 -152.5t-17 -145.5l-105 15q12 71 15.5 130.5t3.5 124.5h-104v100
zM513 797h115v-335h64v351h117v-896h-117v445h-64v-405h-115v840z" />
    <glyph glyph-name="uniAF65" unicode="&#xaf65;" 
d="M314 549v-153q85 4 167 14l9 -87q-158 -30 -456 -32l-13 98q87 0 190 3v157h103zM41 757h182v-48q0 -69 -6.5 -128t-33.5 -130l-101 27q34 94 38 179h-79v100zM184 230h623v-314h-124v215h-499v99zM257 757h211v-59q0 -67 -3 -122.5t-16 -122.5l-104 11q18 89 20 193
h-108v100zM517 794h116v-207h57v225h117v-548h-117v223h-57v-219h-116v526z" />
    <glyph glyph-name="uniAF66" unicode="&#xaf66;" 
 />
    <glyph glyph-name="uniAF67" unicode="&#xaf67;" 
 />
    <glyph glyph-name="uniAF68" unicode="&#xaf68;" 
 />
    <glyph glyph-name="uniAF69" unicode="&#xaf69;" 
 />
    <glyph glyph-name="uniAF6A" unicode="&#xaf6a;" 
 />
    <glyph glyph-name="uniAF6B" unicode="&#xaf6b;" 
 />
    <glyph glyph-name="uniAF6C" unicode="&#xaf6c;" 
 />
    <glyph glyph-name="uniAF6D" unicode="&#xaf6d;" 
 />
    <glyph glyph-name="uniAF6E" unicode="&#xaf6e;" 
 />
    <glyph glyph-name="uniAF6F" unicode="&#xaf6f;" 
 />
    <glyph glyph-name="uniAF70" unicode="&#xaf70;" 
 />
    <glyph glyph-name="uniAF71" unicode="&#xaf71;" 
 />
    <glyph glyph-name="uniAF72" unicode="&#xaf72;" 
 />
    <glyph glyph-name="uniAF73" unicode="&#xaf73;" 
 />
    <glyph glyph-name="uniAF74" unicode="&#xaf74;" 
 />
    <glyph glyph-name="uniAF75" unicode="&#xaf75;" 
 />
    <glyph glyph-name="uniAF76" unicode="&#xaf76;" 
 />
    <glyph glyph-name="uniAF77" unicode="&#xaf77;" 
 />
    <glyph glyph-name="uniAF78" unicode="&#xaf78;" 
d="M315 549v-152q85 4 167 14l9 -88q-164 -30 -456 -32l-14 99q86 0 191 3v156h103zM43 756h181v-48q0 -69 -7 -127.5t-34 -129.5l-100 27q34 94 38 179h-78v99zM202 83q42 56 42 124v21h120v-21q0 -54 25.5 -104t77.5 -84q52 35 78 85.5t26 102.5v21h122v-21
q0 -71 41.5 -126t126.5 -79l-60 -91q-121 40 -171 147q-49 -113 -163 -156q-58 22 -98.5 61.5t-63.5 91.5q-52 -104 -169 -144l-59 91q83 25 125 81zM258 756h211v-59q0 -66 -3 -121.5t-16 -122.5l-104 11q17 90 19 193h-107v99zM518 793h116v-207h57v226h117v-553h-117v228
h-57v-220h-116v526z" />
    <glyph glyph-name="uniAF79" unicode="&#xaf79;" 
d="M807 812v-557h-117v232h-57v-202h-116v509h116v-208h57v226h117zM211 395v155h103v-150q105 7 167 17l9 -88q-166 -36 -456 -36l-13 99q84 0 190 3zM41 758h182v-49q0 -68 -6.5 -126.5t-33.5 -130.5l-101 28q34 93 38 178h-79v100zM257 206.5q85 43.5 235 43.5t235 -43.5
t85 -123.5t-85 -123.5t-235 -43.5t-235 43.5t-85 123.5t85 123.5zM257 758h211v-58q0 -67 -3 -122.5t-16 -122.5l-104 11q18 88 20 192h-108v100zM492 9q193 0 193 74t-193 74t-193 -74t193 -74z" />
    <glyph glyph-name="uniAF7A" unicode="&#xaf7a;" 
 />
    <glyph glyph-name="uniAF7B" unicode="&#xaf7b;" 
 />
    <glyph glyph-name="uniAF7C" unicode="&#xaf7c;" 
 />
    <glyph glyph-name="uniAF7D" unicode="&#xaf7d;" 
 />
    <glyph glyph-name="uniAF7E" unicode="&#xaf7e;" 
 />
    <glyph glyph-name="uniAF7F" unicode="&#xaf7f;" 
 />
    <glyph glyph-name="uniAF80" unicode="&#xaf80;" 
d="M268 717v-63q0 -90 -8 -167t-39 -179l-112 22q26 84 35 152t10 135h-100v100h214zM277 196v248h113v-244q111 6 222 20l7 -90q-131 -22 -272.5 -29.5t-300.5 -7.5l-10 100q155 0 241 3zM316 717h259v-72q0 -88 -4 -160.5t-20 -164.5l-112 16q22 137 22 281h-145v100z
M656 812h123v-896h-123v896z" />
    <glyph glyph-name="uniAF81" unicode="&#xaf81;" 
 />
    <glyph glyph-name="uniAF82" unicode="&#xaf82;" 
 />
    <glyph glyph-name="uniAF83" unicode="&#xaf83;" 
 />
    <glyph glyph-name="uniAF84" unicode="&#xaf84;" 
d="M390 533v-166q111 6 214 18l6 -88q-127 -22 -264.5 -29t-299.5 -7l-10 99q155 0 240 3v170h114zM66 745h209v-58q0 -70 -6.5 -128t-32.5 -129l-114 16q21 58 29 105t10 95h-95v99zM168 199h124v-167h510v-99h-634v266zM319 745h255v-59q0 -68 -4 -124.5t-20 -124.5
l-112 12q21 95 23 197h-142v99zM653 812h125v-662h-125v662z" />
    <glyph glyph-name="uniAF85" unicode="&#xaf85;" 
 />
    <glyph glyph-name="uniAF86" unicode="&#xaf86;" 
 />
    <glyph glyph-name="uniAF87" unicode="&#xaf87;" 
 />
    <glyph glyph-name="uniAF88" unicode="&#xaf88;" 
d="M273 772v-53q0 -63 -6 -117t-29 -119l-113 16q31 92 33 175h-95v98h210zM274 438v146h114v-142q115 6 216 18l7 -85q-131 -21 -270.5 -28t-295.5 -7l-15 95q158 0 244 3zM162 297h615v-227h-490v-54h516v-93h-640v233h490v50h-491v91zM319 772h252v-55q0 -61 -4 -114
t-19 -116l-112 14q21 89 23 173h-140v98zM653 813h124v-483h-124v483z" />
    <glyph glyph-name="uniAF89" unicode="&#xaf89;" 
 />
    <glyph glyph-name="uniAF8A" unicode="&#xaf8a;" 
 />
    <glyph glyph-name="uniAF8B" unicode="&#xaf8b;" 
 />
    <glyph glyph-name="uniAF8C" unicode="&#xaf8c;" 
 />
    <glyph glyph-name="uniAF8D" unicode="&#xaf8d;" 
 />
    <glyph glyph-name="uniAF8E" unicode="&#xaf8e;" 
 />
    <glyph glyph-name="uniAF8F" unicode="&#xaf8f;" 
 />
    <glyph glyph-name="uniAF90" unicode="&#xaf90;" 
d="M777 813v-535h-124v535h124zM276 399v161h113v-157q135 7 216 18l7 -88q-126 -22 -260.5 -28.5t-306.5 -7.5l-9 98q127 0 240 4zM66 756h208v-55q0 -66 -6 -122.5t-29 -123.5l-113 16q18 54 25.5 98t9.5 89h-95v98zM168 236h609v-310h-609v310zM655 24v114h-365v-114h365
zM319 756h255v-56q0 -64 -4.5 -119t-21.5 -120l-111 12q21 90 23 185h-141v98z" />
    <glyph glyph-name="uniAF91" unicode="&#xaf91;" 
d="M291 267v-77h363v77h123v-341h-609v341h123zM276 411v156h113v-151q135 7 216 18l7 -88q-128 -22 -268.5 -29.5t-298.5 -7.5l-9 99q113 0 240 3zM66 762h208v-55q0 -66 -6 -122.5t-29 -123.5l-113 15q18 54 25.5 98t9.5 89h-95v99zM654 23v74h-363v-74h363zM319 762h255
v-57q0 -64 -4.5 -118.5t-21.5 -119.5l-111 12q21 89 23 184h-141v99zM653 813h124v-517h-124v517z" />
    <glyph glyph-name="uniAF92" unicode="&#xaf92;" 
 />
    <glyph glyph-name="uniAF93" unicode="&#xaf93;" 
 />
    <glyph glyph-name="uniAF94" unicode="&#xaf94;" 
 />
    <glyph glyph-name="uniAF95" unicode="&#xaf95;" 
d="M698.5 207q82.5 -44 82.5 -123q0 -80 -82 -124t-228 -44q-145 0 -227 44t-82 124q0 79 82 123t227 44t227.5 -44zM276 393v163h113v-159q121 7 216 19l7 -89q-128 -21 -267 -28t-300 -7l-9 98q155 0 240 3zM66 754h208v-56q0 -66 -6 -122.5t-29 -124.5l-112 16
q18 54 25 98t9 89h-95v100zM333.5 28.5q47.5 -18.5 137.5 -18.5q92 0 139 18.5t47 55.5q0 73 -186 73q-185 0 -185 -73q0 -37 47.5 -55.5zM319 754h255v-58q0 -64 -4.5 -118.5t-21.5 -119.5l-111 13q22 94 24 183h-142v100zM653 813h124v-552h-124v552z" />
    <glyph glyph-name="uniAF96" unicode="&#xaf96;" 
 />
    <glyph glyph-name="uniAF97" unicode="&#xaf97;" 
 />
    <glyph glyph-name="uniAF98" unicode="&#xaf98;" 
 />
    <glyph glyph-name="uniAF99" unicode="&#xaf99;" 
 />
    <glyph glyph-name="uniAF9A" unicode="&#xaf9a;" 
 />
    <glyph glyph-name="uniAF9B" unicode="&#xaf9b;" 
 />
    <glyph glyph-name="uniAF9C" unicode="&#xaf9c;" 
d="M353 732v-50q0 -74 -6.5 -137t-30.5 -148h92v-262h78v262h120v-262h235v-99h-810v99h256v175l-16 -41l-117 35q42 98 58 176t19 153h-152v99h274zM426 732h343v-59q0 -99 -6.5 -191t-30.5 -218l-121 14q21 104 28 188t8 167h-221v99z" />
    <glyph glyph-name="uniAF9D" unicode="&#xaf9d;" 
 />
    <glyph glyph-name="uniAF9E" unicode="&#xaf9e;" 
 />
    <glyph glyph-name="uniAF9F" unicode="&#xaf9f;" 
 />
    <glyph glyph-name="uniAFA0" unicode="&#xafa0;" 
 />
    <glyph glyph-name="uniAFA1" unicode="&#xafa1;" 
 />
    <glyph glyph-name="uniAFA2" unicode="&#xafa2;" 
 />
    <glyph glyph-name="uniAFA3" unicode="&#xafa3;" 
 />
    <glyph glyph-name="uniAFA4" unicode="&#xafa4;" 
d="M312 458v77q-5 -14 -10 -26l-126 26q31 80 39 155h-126v99h256v-39q0 -42 -3 -80.5t-14 -83.5h105v-128h71v128h122q8 62 9 104h-220v99h349v-33q0 -56 -4 -114t-18 -130l-115 15v-69h212v-101h-810v101h283zM135 302h602v-230h-477v-55h507v-94h-631v236h478v50h-479v93
z" />
    <glyph glyph-name="uniAFA5" unicode="&#xafa5;" 
 />
    <glyph glyph-name="uniAFA6" unicode="&#xafa6;" 
 />
    <glyph glyph-name="uniAFA7" unicode="&#xafa7;" 
 />
    <glyph glyph-name="uniAFA8" unicode="&#xafa8;" 
 />
    <glyph glyph-name="uniAFA9" unicode="&#xafa9;" 
 />
    <glyph glyph-name="uniAFAA" unicode="&#xafaa;" 
 />
    <glyph glyph-name="uniAFAB" unicode="&#xafab;" 
 />
    <glyph glyph-name="uniAFAC" unicode="&#xafac;" 
 />
    <glyph glyph-name="uniAFAD" unicode="&#xafad;" 
 />
    <glyph glyph-name="uniAFAE" unicode="&#xafae;" 
 />
    <glyph glyph-name="uniAFAF" unicode="&#xafaf;" 
 />
    <glyph glyph-name="uniAFB0" unicode="&#xafb0;" 
 />
    <glyph glyph-name="uniAFB1" unicode="&#xafb1;" 
 />
    <glyph glyph-name="uniAFB2" unicode="&#xafb2;" 
 />
    <glyph glyph-name="uniAFB3" unicode="&#xafb3;" 
 />
    <glyph glyph-name="uniAFB4" unicode="&#xafb4;" 
 />
    <glyph glyph-name="uniAFB5" unicode="&#xafb5;" 
 />
    <glyph glyph-name="uniAFB6" unicode="&#xafb6;" 
 />
    <glyph glyph-name="uniAFB7" unicode="&#xafb7;" 
 />
    </font>
</defs>
</svg>
